%TF.GenerationSoftware,KiCad,Pcbnew,(5.1.12)-1*%
%TF.CreationDate,2022-02-03T12:58:41+01:00*%
%TF.ProjectId,colibri_01,636f6c69-6272-4695-9f30-312e6b696361,rev?*%
%TF.SameCoordinates,Original*%
%TF.FileFunction,Legend,Top*%
%TF.FilePolarity,Positive*%
%FSLAX46Y46*%
G04 Gerber Fmt 4.6, Leading zero omitted, Abs format (unit mm)*
G04 Created by KiCad (PCBNEW (5.1.12)-1) date 2022-02-03 12:58:41*
%MOMM*%
%LPD*%
G01*
G04 APERTURE LIST*
%ADD10C,0.150000*%
%ADD11C,0.010000*%
%ADD12C,0.152400*%
%ADD13C,0.120000*%
%ADD14C,0.249999*%
%ADD15C,0.127000*%
%ADD16C,0.100000*%
G04 APERTURE END LIST*
D10*
X166547619Y-116214285D02*
X166500000Y-116166666D01*
X166452380Y-116071428D01*
X166452380Y-115833333D01*
X166500000Y-115738095D01*
X166547619Y-115690476D01*
X166642857Y-115642857D01*
X166738095Y-115642857D01*
X166880952Y-115690476D01*
X167452380Y-116261904D01*
X167452380Y-115642857D01*
X166452380Y-115023809D02*
X166452380Y-114928571D01*
X166500000Y-114833333D01*
X166547619Y-114785714D01*
X166642857Y-114738095D01*
X166833333Y-114690476D01*
X167071428Y-114690476D01*
X167261904Y-114738095D01*
X167357142Y-114785714D01*
X167404761Y-114833333D01*
X167452380Y-114928571D01*
X167452380Y-115023809D01*
X167404761Y-115119047D01*
X167357142Y-115166666D01*
X167261904Y-115214285D01*
X167071428Y-115261904D01*
X166833333Y-115261904D01*
X166642857Y-115214285D01*
X166547619Y-115166666D01*
X166500000Y-115119047D01*
X166452380Y-115023809D01*
X166547619Y-114309523D02*
X166500000Y-114261904D01*
X166452380Y-114166666D01*
X166452380Y-113928571D01*
X166500000Y-113833333D01*
X166547619Y-113785714D01*
X166642857Y-113738095D01*
X166738095Y-113738095D01*
X166880952Y-113785714D01*
X167452380Y-114357142D01*
X167452380Y-113738095D01*
X166547619Y-113357142D02*
X166500000Y-113309523D01*
X166452380Y-113214285D01*
X166452380Y-112976190D01*
X166500000Y-112880952D01*
X166547619Y-112833333D01*
X166642857Y-112785714D01*
X166738095Y-112785714D01*
X166880952Y-112833333D01*
X167452380Y-113404761D01*
X167452380Y-112785714D01*
X121904761Y-119964285D02*
X121809523Y-120059523D01*
X121523809Y-120154761D01*
X121333333Y-120154761D01*
X121047619Y-120059523D01*
X120857142Y-119869047D01*
X120761904Y-119678571D01*
X120666666Y-119297619D01*
X120666666Y-119011904D01*
X120761904Y-118630952D01*
X120857142Y-118440476D01*
X121047619Y-118250000D01*
X121333333Y-118154761D01*
X121523809Y-118154761D01*
X121809523Y-118250000D01*
X121904761Y-118345238D01*
X123142857Y-118154761D02*
X123523809Y-118154761D01*
X123714285Y-118250000D01*
X123904761Y-118440476D01*
X124000000Y-118821428D01*
X124000000Y-119488095D01*
X123904761Y-119869047D01*
X123714285Y-120059523D01*
X123523809Y-120154761D01*
X123142857Y-120154761D01*
X122952380Y-120059523D01*
X122761904Y-119869047D01*
X122666666Y-119488095D01*
X122666666Y-118821428D01*
X122761904Y-118440476D01*
X122952380Y-118250000D01*
X123142857Y-118154761D01*
X125809523Y-120154761D02*
X124857142Y-120154761D01*
X124857142Y-118154761D01*
X126476190Y-120154761D02*
X126476190Y-118154761D01*
X128095238Y-119107142D02*
X128380952Y-119202380D01*
X128476190Y-119297619D01*
X128571428Y-119488095D01*
X128571428Y-119773809D01*
X128476190Y-119964285D01*
X128380952Y-120059523D01*
X128190476Y-120154761D01*
X127428571Y-120154761D01*
X127428571Y-118154761D01*
X128095238Y-118154761D01*
X128285714Y-118250000D01*
X128380952Y-118345238D01*
X128476190Y-118535714D01*
X128476190Y-118726190D01*
X128380952Y-118916666D01*
X128285714Y-119011904D01*
X128095238Y-119107142D01*
X127428571Y-119107142D01*
X130571428Y-120154761D02*
X129904761Y-119202380D01*
X129428571Y-120154761D02*
X129428571Y-118154761D01*
X130190476Y-118154761D01*
X130380952Y-118250000D01*
X130476190Y-118345238D01*
X130571428Y-118535714D01*
X130571428Y-118821428D01*
X130476190Y-119011904D01*
X130380952Y-119107142D01*
X130190476Y-119202380D01*
X129428571Y-119202380D01*
X131428571Y-120154761D02*
X131428571Y-118154761D01*
X133714285Y-118821428D02*
X134190476Y-120154761D01*
X134666666Y-118821428D01*
X136476190Y-120154761D02*
X135333333Y-120154761D01*
X135904761Y-120154761D02*
X135904761Y-118154761D01*
X135714285Y-118440476D01*
X135523809Y-118630952D01*
X135333333Y-118726190D01*
X137333333Y-119964285D02*
X137428571Y-120059523D01*
X137333333Y-120154761D01*
X137238095Y-120059523D01*
X137333333Y-119964285D01*
X137333333Y-120154761D01*
X138666666Y-118154761D02*
X138857142Y-118154761D01*
X139047619Y-118250000D01*
X139142857Y-118345238D01*
X139238095Y-118535714D01*
X139333333Y-118916666D01*
X139333333Y-119392857D01*
X139238095Y-119773809D01*
X139142857Y-119964285D01*
X139047619Y-120059523D01*
X138857142Y-120154761D01*
X138666666Y-120154761D01*
X138476190Y-120059523D01*
X138380952Y-119964285D01*
X138285714Y-119773809D01*
X138190476Y-119392857D01*
X138190476Y-118916666D01*
X138285714Y-118535714D01*
X138380952Y-118345238D01*
X138476190Y-118250000D01*
X138666666Y-118154761D01*
X187600000Y-75695238D02*
X187552380Y-75790476D01*
X187552380Y-75933333D01*
X187600000Y-76076190D01*
X187695238Y-76171428D01*
X187790476Y-76219047D01*
X187980952Y-76266666D01*
X188123809Y-76266666D01*
X188314285Y-76219047D01*
X188409523Y-76171428D01*
X188504761Y-76076190D01*
X188552380Y-75933333D01*
X188552380Y-75838095D01*
X188504761Y-75695238D01*
X188457142Y-75647619D01*
X188123809Y-75647619D01*
X188123809Y-75838095D01*
X188552380Y-75219047D02*
X187552380Y-75219047D01*
X188552380Y-74647619D01*
X187552380Y-74647619D01*
X188552380Y-74171428D02*
X187552380Y-74171428D01*
X187552380Y-73933333D01*
X187600000Y-73790476D01*
X187695238Y-73695238D01*
X187790476Y-73647619D01*
X187980952Y-73600000D01*
X188123809Y-73600000D01*
X188314285Y-73647619D01*
X188409523Y-73695238D01*
X188504761Y-73790476D01*
X188552380Y-73933333D01*
X188552380Y-74171428D01*
X187552380Y-72504761D02*
X188552380Y-71838095D01*
X187552380Y-71838095D02*
X188552380Y-72504761D01*
X187552380Y-70980952D02*
X187552380Y-71457142D01*
X188028571Y-71504761D01*
X187980952Y-71457142D01*
X187933333Y-71361904D01*
X187933333Y-71123809D01*
X187980952Y-71028571D01*
X188028571Y-70980952D01*
X188123809Y-70933333D01*
X188361904Y-70933333D01*
X188457142Y-70980952D01*
X188504761Y-71028571D01*
X188552380Y-71123809D01*
X188552380Y-71361904D01*
X188504761Y-71457142D01*
X188457142Y-71504761D01*
X176223809Y-68952380D02*
X176223809Y-67952380D01*
X176890476Y-67952380D02*
X177080952Y-67952380D01*
X177176190Y-68000000D01*
X177271428Y-68095238D01*
X177319047Y-68285714D01*
X177319047Y-68619047D01*
X177271428Y-68809523D01*
X177176190Y-68904761D01*
X177080952Y-68952380D01*
X176890476Y-68952380D01*
X176795238Y-68904761D01*
X176700000Y-68809523D01*
X176652380Y-68619047D01*
X176652380Y-68285714D01*
X176700000Y-68095238D01*
X176795238Y-68000000D01*
X176890476Y-67952380D01*
X178271428Y-68952380D02*
X177700000Y-68952380D01*
X177985714Y-68952380D02*
X177985714Y-67952380D01*
X177890476Y-68095238D01*
X177795238Y-68190476D01*
X177700000Y-68238095D01*
X179128571Y-68285714D02*
X179128571Y-68952380D01*
X178890476Y-67904761D02*
X178652380Y-68619047D01*
X179271428Y-68619047D01*
X176223809Y-71302380D02*
X176223809Y-70302380D01*
X176890476Y-70302380D02*
X177080952Y-70302380D01*
X177176190Y-70350000D01*
X177271428Y-70445238D01*
X177319047Y-70635714D01*
X177319047Y-70969047D01*
X177271428Y-71159523D01*
X177176190Y-71254761D01*
X177080952Y-71302380D01*
X176890476Y-71302380D01*
X176795238Y-71254761D01*
X176700000Y-71159523D01*
X176652380Y-70969047D01*
X176652380Y-70635714D01*
X176700000Y-70445238D01*
X176795238Y-70350000D01*
X176890476Y-70302380D01*
X178271428Y-71302380D02*
X177700000Y-71302380D01*
X177985714Y-71302380D02*
X177985714Y-70302380D01*
X177890476Y-70445238D01*
X177795238Y-70540476D01*
X177700000Y-70588095D01*
X178604761Y-70302380D02*
X179223809Y-70302380D01*
X178890476Y-70683333D01*
X179033333Y-70683333D01*
X179128571Y-70730952D01*
X179176190Y-70778571D01*
X179223809Y-70873809D01*
X179223809Y-71111904D01*
X179176190Y-71207142D01*
X179128571Y-71254761D01*
X179033333Y-71302380D01*
X178747619Y-71302380D01*
X178652380Y-71254761D01*
X178604761Y-71207142D01*
X176223809Y-73752380D02*
X176223809Y-72752380D01*
X176890476Y-72752380D02*
X177080952Y-72752380D01*
X177176190Y-72800000D01*
X177271428Y-72895238D01*
X177319047Y-73085714D01*
X177319047Y-73419047D01*
X177271428Y-73609523D01*
X177176190Y-73704761D01*
X177080952Y-73752380D01*
X176890476Y-73752380D01*
X176795238Y-73704761D01*
X176700000Y-73609523D01*
X176652380Y-73419047D01*
X176652380Y-73085714D01*
X176700000Y-72895238D01*
X176795238Y-72800000D01*
X176890476Y-72752380D01*
X178271428Y-73752380D02*
X177700000Y-73752380D01*
X177985714Y-73752380D02*
X177985714Y-72752380D01*
X177890476Y-72895238D01*
X177795238Y-72990476D01*
X177700000Y-73038095D01*
X178652380Y-72847619D02*
X178700000Y-72800000D01*
X178795238Y-72752380D01*
X179033333Y-72752380D01*
X179128571Y-72800000D01*
X179176190Y-72847619D01*
X179223809Y-72942857D01*
X179223809Y-73038095D01*
X179176190Y-73180952D01*
X178604761Y-73752380D01*
X179223809Y-73752380D01*
X177200000Y-76352380D02*
X177200000Y-75352380D01*
X177866666Y-75352380D02*
X178057142Y-75352380D01*
X178152380Y-75400000D01*
X178247619Y-75495238D01*
X178295238Y-75685714D01*
X178295238Y-76019047D01*
X178247619Y-76209523D01*
X178152380Y-76304761D01*
X178057142Y-76352380D01*
X177866666Y-76352380D01*
X177771428Y-76304761D01*
X177676190Y-76209523D01*
X177628571Y-76019047D01*
X177628571Y-75685714D01*
X177676190Y-75495238D01*
X177771428Y-75400000D01*
X177866666Y-75352380D01*
X179200000Y-75352380D02*
X178723809Y-75352380D01*
X178676190Y-75828571D01*
X178723809Y-75780952D01*
X178819047Y-75733333D01*
X179057142Y-75733333D01*
X179152380Y-75780952D01*
X179200000Y-75828571D01*
X179247619Y-75923809D01*
X179247619Y-76161904D01*
X179200000Y-76257142D01*
X179152380Y-76304761D01*
X179057142Y-76352380D01*
X178819047Y-76352380D01*
X178723809Y-76304761D01*
X178676190Y-76257142D01*
X177200000Y-78952380D02*
X177200000Y-77952380D01*
X177866666Y-77952380D02*
X178057142Y-77952380D01*
X178152380Y-78000000D01*
X178247619Y-78095238D01*
X178295238Y-78285714D01*
X178295238Y-78619047D01*
X178247619Y-78809523D01*
X178152380Y-78904761D01*
X178057142Y-78952380D01*
X177866666Y-78952380D01*
X177771428Y-78904761D01*
X177676190Y-78809523D01*
X177628571Y-78619047D01*
X177628571Y-78285714D01*
X177676190Y-78095238D01*
X177771428Y-78000000D01*
X177866666Y-77952380D01*
X178676190Y-78047619D02*
X178723809Y-78000000D01*
X178819047Y-77952380D01*
X179057142Y-77952380D01*
X179152380Y-78000000D01*
X179200000Y-78047619D01*
X179247619Y-78142857D01*
X179247619Y-78238095D01*
X179200000Y-78380952D01*
X178628571Y-78952380D01*
X179247619Y-78952380D01*
X175402380Y-64402380D02*
X174926190Y-64735714D01*
X175402380Y-64973809D02*
X174402380Y-64973809D01*
X174402380Y-64592857D01*
X174450000Y-64497619D01*
X174497619Y-64450000D01*
X174592857Y-64402380D01*
X174735714Y-64402380D01*
X174830952Y-64450000D01*
X174878571Y-64497619D01*
X174926190Y-64592857D01*
X174926190Y-64973809D01*
X174878571Y-63973809D02*
X174878571Y-63640476D01*
X175402380Y-63497619D02*
X175402380Y-63973809D01*
X174402380Y-63973809D01*
X174402380Y-63497619D01*
X175354761Y-63116666D02*
X175402380Y-62973809D01*
X175402380Y-62735714D01*
X175354761Y-62640476D01*
X175307142Y-62592857D01*
X175211904Y-62545238D01*
X175116666Y-62545238D01*
X175021428Y-62592857D01*
X174973809Y-62640476D01*
X174926190Y-62735714D01*
X174878571Y-62926190D01*
X174830952Y-63021428D01*
X174783333Y-63069047D01*
X174688095Y-63116666D01*
X174592857Y-63116666D01*
X174497619Y-63069047D01*
X174450000Y-63021428D01*
X174402380Y-62926190D01*
X174402380Y-62688095D01*
X174450000Y-62545238D01*
X174878571Y-62116666D02*
X174878571Y-61783333D01*
X175402380Y-61640476D02*
X175402380Y-62116666D01*
X174402380Y-62116666D01*
X174402380Y-61640476D01*
X174402380Y-61354761D02*
X174402380Y-60783333D01*
X175402380Y-61069047D02*
X174402380Y-61069047D01*
X143635714Y-69002380D02*
X143064285Y-69002380D01*
X143350000Y-69002380D02*
X143350000Y-68002380D01*
X143254761Y-68145238D01*
X143159523Y-68240476D01*
X143064285Y-68288095D01*
X140464285Y-68097619D02*
X140511904Y-68050000D01*
X140607142Y-68002380D01*
X140845238Y-68002380D01*
X140940476Y-68050000D01*
X140988095Y-68097619D01*
X141035714Y-68192857D01*
X141035714Y-68288095D01*
X140988095Y-68430952D01*
X140416666Y-69002380D01*
X141035714Y-69002380D01*
X137866666Y-68002380D02*
X138485714Y-68002380D01*
X138152380Y-68383333D01*
X138295238Y-68383333D01*
X138390476Y-68430952D01*
X138438095Y-68478571D01*
X138485714Y-68573809D01*
X138485714Y-68811904D01*
X138438095Y-68907142D01*
X138390476Y-68954761D01*
X138295238Y-69002380D01*
X138009523Y-69002380D01*
X137914285Y-68954761D01*
X137866666Y-68907142D01*
X143635714Y-73252380D02*
X143064285Y-73252380D01*
X143350000Y-73252380D02*
X143350000Y-72252380D01*
X143254761Y-72395238D01*
X143159523Y-72490476D01*
X143064285Y-72538095D01*
X140464285Y-72347619D02*
X140511904Y-72300000D01*
X140607142Y-72252380D01*
X140845238Y-72252380D01*
X140940476Y-72300000D01*
X140988095Y-72347619D01*
X141035714Y-72442857D01*
X141035714Y-72538095D01*
X140988095Y-72680952D01*
X140416666Y-73252380D01*
X141035714Y-73252380D01*
X137866666Y-72252380D02*
X138485714Y-72252380D01*
X138152380Y-72633333D01*
X138295238Y-72633333D01*
X138390476Y-72680952D01*
X138438095Y-72728571D01*
X138485714Y-72823809D01*
X138485714Y-73061904D01*
X138438095Y-73157142D01*
X138390476Y-73204761D01*
X138295238Y-73252380D01*
X138009523Y-73252380D01*
X137914285Y-73204761D01*
X137866666Y-73157142D01*
X132614285Y-67802380D02*
X132614285Y-66802380D01*
X132995238Y-66802380D01*
X133090476Y-66850000D01*
X133138095Y-66897619D01*
X133185714Y-66992857D01*
X133185714Y-67135714D01*
X133138095Y-67230952D01*
X133090476Y-67278571D01*
X132995238Y-67326190D01*
X132614285Y-67326190D01*
X134185714Y-67802380D02*
X133852380Y-67326190D01*
X133614285Y-67802380D02*
X133614285Y-66802380D01*
X133995238Y-66802380D01*
X134090476Y-66850000D01*
X134138095Y-66897619D01*
X134185714Y-66992857D01*
X134185714Y-67135714D01*
X134138095Y-67230952D01*
X134090476Y-67278571D01*
X133995238Y-67326190D01*
X133614285Y-67326190D01*
X134804761Y-66802380D02*
X134995238Y-66802380D01*
X135090476Y-66850000D01*
X135185714Y-66945238D01*
X135233333Y-67135714D01*
X135233333Y-67469047D01*
X135185714Y-67659523D01*
X135090476Y-67754761D01*
X134995238Y-67802380D01*
X134804761Y-67802380D01*
X134709523Y-67754761D01*
X134614285Y-67659523D01*
X134566666Y-67469047D01*
X134566666Y-67135714D01*
X134614285Y-66945238D01*
X134709523Y-66850000D01*
X134804761Y-66802380D01*
X136185714Y-66850000D02*
X136090476Y-66802380D01*
X135947619Y-66802380D01*
X135804761Y-66850000D01*
X135709523Y-66945238D01*
X135661904Y-67040476D01*
X135614285Y-67230952D01*
X135614285Y-67373809D01*
X135661904Y-67564285D01*
X135709523Y-67659523D01*
X135804761Y-67754761D01*
X135947619Y-67802380D01*
X136042857Y-67802380D01*
X136185714Y-67754761D01*
X136233333Y-67707142D01*
X136233333Y-67373809D01*
X136042857Y-67373809D01*
X132054761Y-71954761D02*
X132197619Y-72002380D01*
X132435714Y-72002380D01*
X132530952Y-71954761D01*
X132578571Y-71907142D01*
X132626190Y-71811904D01*
X132626190Y-71716666D01*
X132578571Y-71621428D01*
X132530952Y-71573809D01*
X132435714Y-71526190D01*
X132245238Y-71478571D01*
X132150000Y-71430952D01*
X132102380Y-71383333D01*
X132054761Y-71288095D01*
X132054761Y-71192857D01*
X132102380Y-71097619D01*
X132150000Y-71050000D01*
X132245238Y-71002380D01*
X132483333Y-71002380D01*
X132626190Y-71050000D01*
X133530952Y-72002380D02*
X133054761Y-72002380D01*
X133054761Y-71002380D01*
X133864285Y-71478571D02*
X134197619Y-71478571D01*
X134340476Y-72002380D02*
X133864285Y-72002380D01*
X133864285Y-71002380D01*
X134340476Y-71002380D01*
X134769047Y-71478571D02*
X135102380Y-71478571D01*
X135245238Y-72002380D02*
X134769047Y-72002380D01*
X134769047Y-71002380D01*
X135245238Y-71002380D01*
X135673809Y-72002380D02*
X135673809Y-71002380D01*
X136054761Y-71002380D01*
X136150000Y-71050000D01*
X136197619Y-71097619D01*
X136245238Y-71192857D01*
X136245238Y-71335714D01*
X136197619Y-71430952D01*
X136150000Y-71478571D01*
X136054761Y-71526190D01*
X135673809Y-71526190D01*
X183595238Y-103457142D02*
X187404761Y-103457142D01*
X112695238Y-104307142D02*
X116504761Y-104307142D01*
X114600000Y-106211904D02*
X114600000Y-102402380D01*
X167754761Y-102752380D02*
X167754761Y-103561904D01*
X167802380Y-103657142D01*
X167850000Y-103704761D01*
X167945238Y-103752380D01*
X168135714Y-103752380D01*
X168230952Y-103704761D01*
X168278571Y-103657142D01*
X168326190Y-103561904D01*
X168326190Y-102752380D01*
X168754761Y-103466666D02*
X169230952Y-103466666D01*
X168659523Y-103752380D02*
X168992857Y-102752380D01*
X169326190Y-103752380D01*
X170230952Y-103752380D02*
X169897619Y-103276190D01*
X169659523Y-103752380D02*
X169659523Y-102752380D01*
X170040476Y-102752380D01*
X170135714Y-102800000D01*
X170183333Y-102847619D01*
X170230952Y-102942857D01*
X170230952Y-103085714D01*
X170183333Y-103180952D01*
X170135714Y-103228571D01*
X170040476Y-103276190D01*
X169659523Y-103276190D01*
X170516666Y-102752380D02*
X171088095Y-102752380D01*
X170802380Y-103752380D02*
X170802380Y-102752380D01*
X165252380Y-107861904D02*
X165252380Y-107290476D01*
X166252380Y-107576190D02*
X165252380Y-107576190D01*
X165252380Y-107052380D02*
X166252380Y-106385714D01*
X165252380Y-106385714D02*
X166252380Y-107052380D01*
X163652380Y-107366666D02*
X163176190Y-107700000D01*
X163652380Y-107938095D02*
X162652380Y-107938095D01*
X162652380Y-107557142D01*
X162700000Y-107461904D01*
X162747619Y-107414285D01*
X162842857Y-107366666D01*
X162985714Y-107366666D01*
X163080952Y-107414285D01*
X163128571Y-107461904D01*
X163176190Y-107557142D01*
X163176190Y-107938095D01*
X162652380Y-107033333D02*
X163652380Y-106366666D01*
X162652380Y-106366666D02*
X163652380Y-107033333D01*
X160100000Y-108511904D02*
X160052380Y-108607142D01*
X160052380Y-108750000D01*
X160100000Y-108892857D01*
X160195238Y-108988095D01*
X160290476Y-109035714D01*
X160480952Y-109083333D01*
X160623809Y-109083333D01*
X160814285Y-109035714D01*
X160909523Y-108988095D01*
X161004761Y-108892857D01*
X161052380Y-108750000D01*
X161052380Y-108654761D01*
X161004761Y-108511904D01*
X160957142Y-108464285D01*
X160623809Y-108464285D01*
X160623809Y-108654761D01*
X161052380Y-108035714D02*
X160052380Y-108035714D01*
X161052380Y-107464285D01*
X160052380Y-107464285D01*
X161052380Y-106988095D02*
X160052380Y-106988095D01*
X160052380Y-106750000D01*
X160100000Y-106607142D01*
X160195238Y-106511904D01*
X160290476Y-106464285D01*
X160480952Y-106416666D01*
X160623809Y-106416666D01*
X160814285Y-106464285D01*
X160909523Y-106511904D01*
X161004761Y-106607142D01*
X161052380Y-106750000D01*
X161052380Y-106988095D01*
X156100000Y-108461904D02*
X156052380Y-108557142D01*
X156052380Y-108700000D01*
X156100000Y-108842857D01*
X156195238Y-108938095D01*
X156290476Y-108985714D01*
X156480952Y-109033333D01*
X156623809Y-109033333D01*
X156814285Y-108985714D01*
X156909523Y-108938095D01*
X157004761Y-108842857D01*
X157052380Y-108700000D01*
X157052380Y-108604761D01*
X157004761Y-108461904D01*
X156957142Y-108414285D01*
X156623809Y-108414285D01*
X156623809Y-108604761D01*
X157052380Y-107985714D02*
X156052380Y-107985714D01*
X157052380Y-107414285D01*
X156052380Y-107414285D01*
X157052380Y-106938095D02*
X156052380Y-106938095D01*
X156052380Y-106700000D01*
X156100000Y-106557142D01*
X156195238Y-106461904D01*
X156290476Y-106414285D01*
X156480952Y-106366666D01*
X156623809Y-106366666D01*
X156814285Y-106414285D01*
X156909523Y-106461904D01*
X157004761Y-106557142D01*
X157052380Y-106700000D01*
X157052380Y-106938095D01*
X154452380Y-109500000D02*
X153452380Y-109500000D01*
X153452380Y-109261904D01*
X153500000Y-109119047D01*
X153595238Y-109023809D01*
X153690476Y-108976190D01*
X153880952Y-108928571D01*
X154023809Y-108928571D01*
X154214285Y-108976190D01*
X154309523Y-109023809D01*
X154404761Y-109119047D01*
X154452380Y-109261904D01*
X154452380Y-109500000D01*
X154166666Y-108547619D02*
X154166666Y-108071428D01*
X154452380Y-108642857D02*
X153452380Y-108309523D01*
X154452380Y-107976190D01*
X153452380Y-107785714D02*
X153452380Y-107214285D01*
X154452380Y-107500000D02*
X153452380Y-107500000D01*
X154166666Y-106928571D02*
X154166666Y-106452380D01*
X154452380Y-107023809D02*
X153452380Y-106690476D01*
X154452380Y-106357142D01*
X150952380Y-109376190D02*
X150952380Y-108757142D01*
X151333333Y-109090476D01*
X151333333Y-108947619D01*
X151380952Y-108852380D01*
X151428571Y-108804761D01*
X151523809Y-108757142D01*
X151761904Y-108757142D01*
X151857142Y-108804761D01*
X151904761Y-108852380D01*
X151952380Y-108947619D01*
X151952380Y-109233333D01*
X151904761Y-109328571D01*
X151857142Y-109376190D01*
X151857142Y-108328571D02*
X151904761Y-108280952D01*
X151952380Y-108328571D01*
X151904761Y-108376190D01*
X151857142Y-108328571D01*
X151952380Y-108328571D01*
X150952380Y-107947619D02*
X150952380Y-107328571D01*
X151333333Y-107661904D01*
X151333333Y-107519047D01*
X151380952Y-107423809D01*
X151428571Y-107376190D01*
X151523809Y-107328571D01*
X151761904Y-107328571D01*
X151857142Y-107376190D01*
X151904761Y-107423809D01*
X151952380Y-107519047D01*
X151952380Y-107804761D01*
X151904761Y-107900000D01*
X151857142Y-107947619D01*
X150952380Y-107042857D02*
X151952380Y-106709523D01*
X150952380Y-106376190D01*
X143616666Y-102802380D02*
X143807142Y-102802380D01*
X143902380Y-102850000D01*
X143997619Y-102945238D01*
X144045238Y-103135714D01*
X144045238Y-103469047D01*
X143997619Y-103659523D01*
X143902380Y-103754761D01*
X143807142Y-103802380D01*
X143616666Y-103802380D01*
X143521428Y-103754761D01*
X143426190Y-103659523D01*
X143378571Y-103469047D01*
X143378571Y-103135714D01*
X143426190Y-102945238D01*
X143521428Y-102850000D01*
X143616666Y-102802380D01*
X144473809Y-103802380D02*
X144473809Y-102802380D01*
X145045238Y-103802380D01*
X145045238Y-102802380D01*
X145521428Y-103278571D02*
X145854761Y-103278571D01*
X145997619Y-103802380D02*
X145521428Y-103802380D01*
X145521428Y-102802380D01*
X145997619Y-102802380D01*
X146330952Y-102802380D02*
X146569047Y-103802380D01*
X146759523Y-103088095D01*
X146950000Y-103802380D01*
X147188095Y-102802380D01*
X147569047Y-103802380D02*
X147569047Y-102802380D01*
X148616666Y-103802380D02*
X148283333Y-103326190D01*
X148045238Y-103802380D02*
X148045238Y-102802380D01*
X148426190Y-102802380D01*
X148521428Y-102850000D01*
X148569047Y-102897619D01*
X148616666Y-102992857D01*
X148616666Y-103135714D01*
X148569047Y-103230952D01*
X148521428Y-103278571D01*
X148426190Y-103326190D01*
X148045238Y-103326190D01*
X149045238Y-103278571D02*
X149378571Y-103278571D01*
X149521428Y-103802380D02*
X149045238Y-103802380D01*
X149045238Y-102802380D01*
X149521428Y-102802380D01*
D11*
%TO.C,G\u002A\u002A\u002A*%
G36*
X168034614Y-115699928D02*
G01*
X168050525Y-115707899D01*
X168053205Y-115710531D01*
X168057433Y-115715891D01*
X168067779Y-115729347D01*
X168083995Y-115750572D01*
X168105832Y-115779237D01*
X168133041Y-115815011D01*
X168165373Y-115857567D01*
X168202579Y-115906576D01*
X168244411Y-115961709D01*
X168290620Y-116022636D01*
X168340956Y-116089029D01*
X168395172Y-116160560D01*
X168453019Y-116236899D01*
X168514247Y-116317717D01*
X168578608Y-116402686D01*
X168645854Y-116491476D01*
X168715734Y-116583759D01*
X168788002Y-116679207D01*
X168862407Y-116777489D01*
X168938701Y-116878277D01*
X169016635Y-116981243D01*
X169095960Y-117086057D01*
X169176428Y-117192390D01*
X169257790Y-117299914D01*
X169339797Y-117408300D01*
X169422201Y-117517219D01*
X169504751Y-117626343D01*
X169587201Y-117735341D01*
X169669300Y-117843885D01*
X169750800Y-117951647D01*
X169831453Y-118058298D01*
X169911010Y-118163508D01*
X169989221Y-118266949D01*
X170065838Y-118368292D01*
X170140612Y-118467208D01*
X170213294Y-118563368D01*
X170283636Y-118656444D01*
X170351389Y-118746106D01*
X170416304Y-118832026D01*
X170478133Y-118913874D01*
X170536625Y-118991322D01*
X170591534Y-119064042D01*
X170642609Y-119131703D01*
X170689602Y-119193977D01*
X170732265Y-119250536D01*
X170770348Y-119301050D01*
X170803603Y-119345191D01*
X170831781Y-119382630D01*
X170854633Y-119413038D01*
X170871910Y-119436085D01*
X170883364Y-119451444D01*
X170888746Y-119458785D01*
X170889128Y-119459354D01*
X170893969Y-119477045D01*
X170889849Y-119493681D01*
X170877831Y-119506119D01*
X170872437Y-119508719D01*
X170866150Y-119509124D01*
X170849809Y-119509513D01*
X170823945Y-119509886D01*
X170789089Y-119510243D01*
X170745769Y-119510584D01*
X170694518Y-119510908D01*
X170635864Y-119511216D01*
X170570339Y-119511506D01*
X170498471Y-119511779D01*
X170420792Y-119512034D01*
X170337832Y-119512271D01*
X170250120Y-119512490D01*
X170158188Y-119512690D01*
X170062564Y-119512872D01*
X169963780Y-119513034D01*
X169862365Y-119513177D01*
X169758850Y-119513301D01*
X169653766Y-119513405D01*
X169547641Y-119513489D01*
X169441006Y-119513552D01*
X169334392Y-119513595D01*
X169228329Y-119513617D01*
X169123347Y-119513617D01*
X169019975Y-119513596D01*
X168918745Y-119513554D01*
X168820187Y-119513489D01*
X168724830Y-119513403D01*
X168633205Y-119513293D01*
X168545842Y-119513161D01*
X168463271Y-119513006D01*
X168386022Y-119512828D01*
X168314627Y-119512626D01*
X168249614Y-119512400D01*
X168191514Y-119512150D01*
X168140857Y-119511876D01*
X168098173Y-119511577D01*
X168063993Y-119511253D01*
X168038847Y-119510904D01*
X168023265Y-119510529D01*
X168017833Y-119510162D01*
X168007451Y-119504375D01*
X168000635Y-119499176D01*
X167999810Y-119498103D01*
X167999035Y-119496148D01*
X167998310Y-119492989D01*
X167997631Y-119488302D01*
X167996998Y-119481763D01*
X167996409Y-119473049D01*
X167995863Y-119461837D01*
X167995357Y-119447803D01*
X167994891Y-119430623D01*
X167994462Y-119409974D01*
X167994070Y-119385532D01*
X167993712Y-119356975D01*
X167993387Y-119323978D01*
X167993093Y-119286217D01*
X167992830Y-119243370D01*
X167992594Y-119195114D01*
X167992385Y-119141123D01*
X167992202Y-119081075D01*
X167992041Y-119014647D01*
X167991903Y-118941514D01*
X167991785Y-118861354D01*
X167991685Y-118773843D01*
X167991603Y-118678657D01*
X167991537Y-118575472D01*
X167991484Y-118463966D01*
X167991444Y-118343815D01*
X167991415Y-118214695D01*
X167991395Y-118076283D01*
X167991382Y-117928256D01*
X167991376Y-117770289D01*
X167991375Y-117603625D01*
X167991376Y-117435634D01*
X167991381Y-117277902D01*
X167991391Y-117130105D01*
X167991408Y-116991918D01*
X167991434Y-116863016D01*
X167991471Y-116743076D01*
X167991519Y-116631772D01*
X167991581Y-116528780D01*
X167991658Y-116433776D01*
X167991752Y-116346435D01*
X167991865Y-116266433D01*
X167991997Y-116193445D01*
X167992152Y-116127147D01*
X167992331Y-116067215D01*
X167992534Y-116013324D01*
X167992764Y-115965149D01*
X167993023Y-115922366D01*
X167993313Y-115884651D01*
X167993633Y-115851680D01*
X167993988Y-115823127D01*
X167994377Y-115798668D01*
X167994804Y-115777979D01*
X167995269Y-115760735D01*
X167995774Y-115746613D01*
X167996320Y-115735287D01*
X167996910Y-115726433D01*
X167997546Y-115719726D01*
X167998228Y-115714843D01*
X167998958Y-115711458D01*
X167999738Y-115709247D01*
X168000570Y-115707887D01*
X168001052Y-115707382D01*
X168016678Y-115699668D01*
X168034614Y-115699928D01*
G37*
X168034614Y-115699928D02*
X168050525Y-115707899D01*
X168053205Y-115710531D01*
X168057433Y-115715891D01*
X168067779Y-115729347D01*
X168083995Y-115750572D01*
X168105832Y-115779237D01*
X168133041Y-115815011D01*
X168165373Y-115857567D01*
X168202579Y-115906576D01*
X168244411Y-115961709D01*
X168290620Y-116022636D01*
X168340956Y-116089029D01*
X168395172Y-116160560D01*
X168453019Y-116236899D01*
X168514247Y-116317717D01*
X168578608Y-116402686D01*
X168645854Y-116491476D01*
X168715734Y-116583759D01*
X168788002Y-116679207D01*
X168862407Y-116777489D01*
X168938701Y-116878277D01*
X169016635Y-116981243D01*
X169095960Y-117086057D01*
X169176428Y-117192390D01*
X169257790Y-117299914D01*
X169339797Y-117408300D01*
X169422201Y-117517219D01*
X169504751Y-117626343D01*
X169587201Y-117735341D01*
X169669300Y-117843885D01*
X169750800Y-117951647D01*
X169831453Y-118058298D01*
X169911010Y-118163508D01*
X169989221Y-118266949D01*
X170065838Y-118368292D01*
X170140612Y-118467208D01*
X170213294Y-118563368D01*
X170283636Y-118656444D01*
X170351389Y-118746106D01*
X170416304Y-118832026D01*
X170478133Y-118913874D01*
X170536625Y-118991322D01*
X170591534Y-119064042D01*
X170642609Y-119131703D01*
X170689602Y-119193977D01*
X170732265Y-119250536D01*
X170770348Y-119301050D01*
X170803603Y-119345191D01*
X170831781Y-119382630D01*
X170854633Y-119413038D01*
X170871910Y-119436085D01*
X170883364Y-119451444D01*
X170888746Y-119458785D01*
X170889128Y-119459354D01*
X170893969Y-119477045D01*
X170889849Y-119493681D01*
X170877831Y-119506119D01*
X170872437Y-119508719D01*
X170866150Y-119509124D01*
X170849809Y-119509513D01*
X170823945Y-119509886D01*
X170789089Y-119510243D01*
X170745769Y-119510584D01*
X170694518Y-119510908D01*
X170635864Y-119511216D01*
X170570339Y-119511506D01*
X170498471Y-119511779D01*
X170420792Y-119512034D01*
X170337832Y-119512271D01*
X170250120Y-119512490D01*
X170158188Y-119512690D01*
X170062564Y-119512872D01*
X169963780Y-119513034D01*
X169862365Y-119513177D01*
X169758850Y-119513301D01*
X169653766Y-119513405D01*
X169547641Y-119513489D01*
X169441006Y-119513552D01*
X169334392Y-119513595D01*
X169228329Y-119513617D01*
X169123347Y-119513617D01*
X169019975Y-119513596D01*
X168918745Y-119513554D01*
X168820187Y-119513489D01*
X168724830Y-119513403D01*
X168633205Y-119513293D01*
X168545842Y-119513161D01*
X168463271Y-119513006D01*
X168386022Y-119512828D01*
X168314627Y-119512626D01*
X168249614Y-119512400D01*
X168191514Y-119512150D01*
X168140857Y-119511876D01*
X168098173Y-119511577D01*
X168063993Y-119511253D01*
X168038847Y-119510904D01*
X168023265Y-119510529D01*
X168017833Y-119510162D01*
X168007451Y-119504375D01*
X168000635Y-119499176D01*
X167999810Y-119498103D01*
X167999035Y-119496148D01*
X167998310Y-119492989D01*
X167997631Y-119488302D01*
X167996998Y-119481763D01*
X167996409Y-119473049D01*
X167995863Y-119461837D01*
X167995357Y-119447803D01*
X167994891Y-119430623D01*
X167994462Y-119409974D01*
X167994070Y-119385532D01*
X167993712Y-119356975D01*
X167993387Y-119323978D01*
X167993093Y-119286217D01*
X167992830Y-119243370D01*
X167992594Y-119195114D01*
X167992385Y-119141123D01*
X167992202Y-119081075D01*
X167992041Y-119014647D01*
X167991903Y-118941514D01*
X167991785Y-118861354D01*
X167991685Y-118773843D01*
X167991603Y-118678657D01*
X167991537Y-118575472D01*
X167991484Y-118463966D01*
X167991444Y-118343815D01*
X167991415Y-118214695D01*
X167991395Y-118076283D01*
X167991382Y-117928256D01*
X167991376Y-117770289D01*
X167991375Y-117603625D01*
X167991376Y-117435634D01*
X167991381Y-117277902D01*
X167991391Y-117130105D01*
X167991408Y-116991918D01*
X167991434Y-116863016D01*
X167991471Y-116743076D01*
X167991519Y-116631772D01*
X167991581Y-116528780D01*
X167991658Y-116433776D01*
X167991752Y-116346435D01*
X167991865Y-116266433D01*
X167991997Y-116193445D01*
X167992152Y-116127147D01*
X167992331Y-116067215D01*
X167992534Y-116013324D01*
X167992764Y-115965149D01*
X167993023Y-115922366D01*
X167993313Y-115884651D01*
X167993633Y-115851680D01*
X167993988Y-115823127D01*
X167994377Y-115798668D01*
X167994804Y-115777979D01*
X167995269Y-115760735D01*
X167995774Y-115746613D01*
X167996320Y-115735287D01*
X167996910Y-115726433D01*
X167997546Y-115719726D01*
X167998228Y-115714843D01*
X167998958Y-115711458D01*
X167999738Y-115709247D01*
X168000570Y-115707887D01*
X168001052Y-115707382D01*
X168016678Y-115699668D01*
X168034614Y-115699928D01*
G36*
X177398979Y-108492008D02*
G01*
X177491912Y-108492110D01*
X177593939Y-108492247D01*
X177705499Y-108492407D01*
X177827034Y-108492579D01*
X177876407Y-108492645D01*
X178921312Y-108494020D01*
X178942980Y-108505615D01*
X178966572Y-108522265D01*
X178988154Y-108544580D01*
X179004096Y-108568651D01*
X179006641Y-108574163D01*
X179007035Y-108576312D01*
X179007415Y-108580958D01*
X179007781Y-108588280D01*
X179008134Y-108598459D01*
X179008473Y-108611673D01*
X179008799Y-108628103D01*
X179009113Y-108647926D01*
X179009414Y-108671325D01*
X179009703Y-108698476D01*
X179009979Y-108729561D01*
X179010244Y-108764759D01*
X179010497Y-108804249D01*
X179010739Y-108848210D01*
X179010969Y-108896823D01*
X179011189Y-108950266D01*
X179011398Y-109008719D01*
X179011597Y-109072362D01*
X179011785Y-109141375D01*
X179011964Y-109215936D01*
X179012133Y-109296225D01*
X179012292Y-109382422D01*
X179012443Y-109474707D01*
X179012584Y-109573258D01*
X179012717Y-109678255D01*
X179012841Y-109789878D01*
X179012957Y-109908306D01*
X179013065Y-110033720D01*
X179013165Y-110166297D01*
X179013257Y-110306218D01*
X179013343Y-110453662D01*
X179013421Y-110608810D01*
X179013493Y-110771839D01*
X179013558Y-110942931D01*
X179013616Y-111122263D01*
X179013669Y-111310017D01*
X179013716Y-111506371D01*
X179013757Y-111711504D01*
X179013793Y-111925597D01*
X179013824Y-112148829D01*
X179013849Y-112381380D01*
X179013871Y-112623428D01*
X179013888Y-112875153D01*
X179013900Y-113136735D01*
X179013909Y-113408354D01*
X179013914Y-113690189D01*
X179013916Y-113982419D01*
X179013916Y-113996394D01*
X179013913Y-114300979D01*
X179013904Y-114595121D01*
X179013890Y-114878959D01*
X179013868Y-115152635D01*
X179013841Y-115416289D01*
X179013807Y-115670060D01*
X179013766Y-115914088D01*
X179013718Y-116148515D01*
X179013664Y-116373480D01*
X179013602Y-116589123D01*
X179013533Y-116795584D01*
X179013456Y-116993004D01*
X179013371Y-117181523D01*
X179013279Y-117361282D01*
X179013179Y-117532419D01*
X179013071Y-117695076D01*
X179012954Y-117849392D01*
X179012829Y-117995508D01*
X179012695Y-118133564D01*
X179012553Y-118263700D01*
X179012402Y-118386056D01*
X179012241Y-118500773D01*
X179012071Y-118607991D01*
X179011892Y-118707849D01*
X179011704Y-118800488D01*
X179011505Y-118886049D01*
X179011297Y-118964671D01*
X179011079Y-119036495D01*
X179010850Y-119101660D01*
X179010611Y-119160307D01*
X179010362Y-119212577D01*
X179010102Y-119258608D01*
X179009831Y-119298542D01*
X179009549Y-119332519D01*
X179009256Y-119360679D01*
X179008951Y-119383162D01*
X179008636Y-119400108D01*
X179008308Y-119411657D01*
X179007969Y-119417950D01*
X179007785Y-119419199D01*
X178991098Y-119452556D01*
X178966406Y-119480210D01*
X178944320Y-119495595D01*
X178916020Y-119511270D01*
X178564125Y-119511416D01*
X178513056Y-119511411D01*
X178452504Y-119511362D01*
X178383568Y-119511270D01*
X178307347Y-119511139D01*
X178224941Y-119510971D01*
X178137449Y-119510769D01*
X178045971Y-119510536D01*
X177951607Y-119510274D01*
X177855455Y-119509987D01*
X177758615Y-119509676D01*
X177662188Y-119509346D01*
X177567272Y-119508998D01*
X177508437Y-119508770D01*
X177407373Y-119508377D01*
X177316344Y-119508029D01*
X177234801Y-119507702D01*
X177162196Y-119507374D01*
X177097980Y-119507024D01*
X177041605Y-119506629D01*
X176992522Y-119506167D01*
X176950183Y-119505617D01*
X176914040Y-119504955D01*
X176883543Y-119504161D01*
X176858145Y-119503211D01*
X176837298Y-119502084D01*
X176820451Y-119500758D01*
X176807058Y-119499211D01*
X176796570Y-119497420D01*
X176788438Y-119495364D01*
X176782113Y-119493021D01*
X176777048Y-119490367D01*
X176772694Y-119487382D01*
X176768502Y-119484044D01*
X176763924Y-119480329D01*
X176761843Y-119478718D01*
X176750036Y-119466991D01*
X176737281Y-119450182D01*
X176730093Y-119438533D01*
X176714687Y-119410729D01*
X176713192Y-117553354D01*
X176713059Y-117376479D01*
X176712951Y-117209946D01*
X176712870Y-117053514D01*
X176712817Y-116906939D01*
X176712792Y-116769981D01*
X176712795Y-116642398D01*
X176712828Y-116523948D01*
X176712890Y-116414389D01*
X176712983Y-116313480D01*
X176713107Y-116220980D01*
X176713262Y-116136645D01*
X176713450Y-116060236D01*
X176713671Y-115991509D01*
X176713924Y-115930224D01*
X176714212Y-115876139D01*
X176714535Y-115829012D01*
X176714893Y-115788600D01*
X176715286Y-115754664D01*
X176715716Y-115726960D01*
X176716183Y-115705248D01*
X176716688Y-115689285D01*
X176717231Y-115678830D01*
X176717812Y-115673642D01*
X176717864Y-115673436D01*
X176727895Y-115651146D01*
X176744656Y-115628054D01*
X176765171Y-115607581D01*
X176786464Y-115593147D01*
X176788566Y-115592148D01*
X176813735Y-115584886D01*
X176844333Y-115582440D01*
X176881489Y-115586371D01*
X176912741Y-115598619D01*
X176939293Y-115619865D01*
X176960860Y-115648354D01*
X176973979Y-115669520D01*
X176976916Y-117455458D01*
X176977144Y-117592286D01*
X176977373Y-117726383D01*
X176977603Y-117857364D01*
X176977833Y-117984843D01*
X176978061Y-118108433D01*
X176978288Y-118227749D01*
X176978511Y-118342404D01*
X176978731Y-118452013D01*
X176978946Y-118556189D01*
X176979156Y-118654547D01*
X176979359Y-118746700D01*
X176979555Y-118832263D01*
X176979744Y-118910849D01*
X176979923Y-118982073D01*
X176980092Y-119045548D01*
X176980251Y-119100888D01*
X176980399Y-119147708D01*
X176980534Y-119185621D01*
X176980655Y-119214242D01*
X176980763Y-119233184D01*
X176980856Y-119242061D01*
X176980885Y-119242718D01*
X176986198Y-119242862D01*
X177001546Y-119243001D01*
X177026379Y-119243135D01*
X177060148Y-119243263D01*
X177102304Y-119243384D01*
X177152298Y-119243498D01*
X177209581Y-119243603D01*
X177273604Y-119243699D01*
X177343818Y-119243784D01*
X177419673Y-119243859D01*
X177500621Y-119243922D01*
X177586113Y-119243973D01*
X177675599Y-119244010D01*
X177768530Y-119244033D01*
X177864358Y-119244041D01*
X178749333Y-119244041D01*
X178749333Y-108755958D01*
X176981916Y-108755958D01*
X176981864Y-111686218D01*
X176981813Y-114616479D01*
X176969474Y-114642976D01*
X176952549Y-114669778D01*
X176929464Y-114693361D01*
X176903619Y-114710367D01*
X176899127Y-114712391D01*
X176896101Y-114713114D01*
X176890379Y-114713790D01*
X176881626Y-114714419D01*
X176869506Y-114715004D01*
X176853686Y-114715545D01*
X176833829Y-114716045D01*
X176809601Y-114716504D01*
X176780666Y-114716925D01*
X176746688Y-114717309D01*
X176707334Y-114717657D01*
X176662266Y-114717971D01*
X176611151Y-114718253D01*
X176553654Y-114718504D01*
X176489438Y-114718725D01*
X176418168Y-114718919D01*
X176339510Y-114719086D01*
X176253128Y-114719229D01*
X176158688Y-114719348D01*
X176055853Y-114719446D01*
X175944288Y-114719524D01*
X175823659Y-114719583D01*
X175693631Y-114719625D01*
X175553867Y-114719652D01*
X175404033Y-114719665D01*
X175320327Y-114719666D01*
X173758939Y-114719666D01*
X173733192Y-114706619D01*
X173703100Y-114686149D01*
X173681014Y-114660346D01*
X173666920Y-114630783D01*
X173660802Y-114599031D01*
X173662646Y-114566663D01*
X173672437Y-114535251D01*
X173690162Y-114506366D01*
X173715804Y-114481581D01*
X173735409Y-114469103D01*
X173756645Y-114457729D01*
X176717333Y-114455009D01*
X176717333Y-108593994D01*
X176731039Y-108566489D01*
X176742491Y-108547697D01*
X176756477Y-108530313D01*
X176763945Y-108523158D01*
X176768216Y-108519426D01*
X176771894Y-108515996D01*
X176775419Y-108512854D01*
X176779232Y-108509990D01*
X176783773Y-108507390D01*
X176789482Y-108505043D01*
X176796800Y-108502937D01*
X176806166Y-108501059D01*
X176818021Y-108499398D01*
X176832806Y-108497941D01*
X176850960Y-108496676D01*
X176872924Y-108495592D01*
X176899139Y-108494676D01*
X176930044Y-108493916D01*
X176966080Y-108493300D01*
X177007687Y-108492816D01*
X177055305Y-108492452D01*
X177109375Y-108492196D01*
X177170337Y-108492036D01*
X177238632Y-108491959D01*
X177314699Y-108491954D01*
X177398979Y-108492008D01*
G37*
X177398979Y-108492008D02*
X177491912Y-108492110D01*
X177593939Y-108492247D01*
X177705499Y-108492407D01*
X177827034Y-108492579D01*
X177876407Y-108492645D01*
X178921312Y-108494020D01*
X178942980Y-108505615D01*
X178966572Y-108522265D01*
X178988154Y-108544580D01*
X179004096Y-108568651D01*
X179006641Y-108574163D01*
X179007035Y-108576312D01*
X179007415Y-108580958D01*
X179007781Y-108588280D01*
X179008134Y-108598459D01*
X179008473Y-108611673D01*
X179008799Y-108628103D01*
X179009113Y-108647926D01*
X179009414Y-108671325D01*
X179009703Y-108698476D01*
X179009979Y-108729561D01*
X179010244Y-108764759D01*
X179010497Y-108804249D01*
X179010739Y-108848210D01*
X179010969Y-108896823D01*
X179011189Y-108950266D01*
X179011398Y-109008719D01*
X179011597Y-109072362D01*
X179011785Y-109141375D01*
X179011964Y-109215936D01*
X179012133Y-109296225D01*
X179012292Y-109382422D01*
X179012443Y-109474707D01*
X179012584Y-109573258D01*
X179012717Y-109678255D01*
X179012841Y-109789878D01*
X179012957Y-109908306D01*
X179013065Y-110033720D01*
X179013165Y-110166297D01*
X179013257Y-110306218D01*
X179013343Y-110453662D01*
X179013421Y-110608810D01*
X179013493Y-110771839D01*
X179013558Y-110942931D01*
X179013616Y-111122263D01*
X179013669Y-111310017D01*
X179013716Y-111506371D01*
X179013757Y-111711504D01*
X179013793Y-111925597D01*
X179013824Y-112148829D01*
X179013849Y-112381380D01*
X179013871Y-112623428D01*
X179013888Y-112875153D01*
X179013900Y-113136735D01*
X179013909Y-113408354D01*
X179013914Y-113690189D01*
X179013916Y-113982419D01*
X179013916Y-113996394D01*
X179013913Y-114300979D01*
X179013904Y-114595121D01*
X179013890Y-114878959D01*
X179013868Y-115152635D01*
X179013841Y-115416289D01*
X179013807Y-115670060D01*
X179013766Y-115914088D01*
X179013718Y-116148515D01*
X179013664Y-116373480D01*
X179013602Y-116589123D01*
X179013533Y-116795584D01*
X179013456Y-116993004D01*
X179013371Y-117181523D01*
X179013279Y-117361282D01*
X179013179Y-117532419D01*
X179013071Y-117695076D01*
X179012954Y-117849392D01*
X179012829Y-117995508D01*
X179012695Y-118133564D01*
X179012553Y-118263700D01*
X179012402Y-118386056D01*
X179012241Y-118500773D01*
X179012071Y-118607991D01*
X179011892Y-118707849D01*
X179011704Y-118800488D01*
X179011505Y-118886049D01*
X179011297Y-118964671D01*
X179011079Y-119036495D01*
X179010850Y-119101660D01*
X179010611Y-119160307D01*
X179010362Y-119212577D01*
X179010102Y-119258608D01*
X179009831Y-119298542D01*
X179009549Y-119332519D01*
X179009256Y-119360679D01*
X179008951Y-119383162D01*
X179008636Y-119400108D01*
X179008308Y-119411657D01*
X179007969Y-119417950D01*
X179007785Y-119419199D01*
X178991098Y-119452556D01*
X178966406Y-119480210D01*
X178944320Y-119495595D01*
X178916020Y-119511270D01*
X178564125Y-119511416D01*
X178513056Y-119511411D01*
X178452504Y-119511362D01*
X178383568Y-119511270D01*
X178307347Y-119511139D01*
X178224941Y-119510971D01*
X178137449Y-119510769D01*
X178045971Y-119510536D01*
X177951607Y-119510274D01*
X177855455Y-119509987D01*
X177758615Y-119509676D01*
X177662188Y-119509346D01*
X177567272Y-119508998D01*
X177508437Y-119508770D01*
X177407373Y-119508377D01*
X177316344Y-119508029D01*
X177234801Y-119507702D01*
X177162196Y-119507374D01*
X177097980Y-119507024D01*
X177041605Y-119506629D01*
X176992522Y-119506167D01*
X176950183Y-119505617D01*
X176914040Y-119504955D01*
X176883543Y-119504161D01*
X176858145Y-119503211D01*
X176837298Y-119502084D01*
X176820451Y-119500758D01*
X176807058Y-119499211D01*
X176796570Y-119497420D01*
X176788438Y-119495364D01*
X176782113Y-119493021D01*
X176777048Y-119490367D01*
X176772694Y-119487382D01*
X176768502Y-119484044D01*
X176763924Y-119480329D01*
X176761843Y-119478718D01*
X176750036Y-119466991D01*
X176737281Y-119450182D01*
X176730093Y-119438533D01*
X176714687Y-119410729D01*
X176713192Y-117553354D01*
X176713059Y-117376479D01*
X176712951Y-117209946D01*
X176712870Y-117053514D01*
X176712817Y-116906939D01*
X176712792Y-116769981D01*
X176712795Y-116642398D01*
X176712828Y-116523948D01*
X176712890Y-116414389D01*
X176712983Y-116313480D01*
X176713107Y-116220980D01*
X176713262Y-116136645D01*
X176713450Y-116060236D01*
X176713671Y-115991509D01*
X176713924Y-115930224D01*
X176714212Y-115876139D01*
X176714535Y-115829012D01*
X176714893Y-115788600D01*
X176715286Y-115754664D01*
X176715716Y-115726960D01*
X176716183Y-115705248D01*
X176716688Y-115689285D01*
X176717231Y-115678830D01*
X176717812Y-115673642D01*
X176717864Y-115673436D01*
X176727895Y-115651146D01*
X176744656Y-115628054D01*
X176765171Y-115607581D01*
X176786464Y-115593147D01*
X176788566Y-115592148D01*
X176813735Y-115584886D01*
X176844333Y-115582440D01*
X176881489Y-115586371D01*
X176912741Y-115598619D01*
X176939293Y-115619865D01*
X176960860Y-115648354D01*
X176973979Y-115669520D01*
X176976916Y-117455458D01*
X176977144Y-117592286D01*
X176977373Y-117726383D01*
X176977603Y-117857364D01*
X176977833Y-117984843D01*
X176978061Y-118108433D01*
X176978288Y-118227749D01*
X176978511Y-118342404D01*
X176978731Y-118452013D01*
X176978946Y-118556189D01*
X176979156Y-118654547D01*
X176979359Y-118746700D01*
X176979555Y-118832263D01*
X176979744Y-118910849D01*
X176979923Y-118982073D01*
X176980092Y-119045548D01*
X176980251Y-119100888D01*
X176980399Y-119147708D01*
X176980534Y-119185621D01*
X176980655Y-119214242D01*
X176980763Y-119233184D01*
X176980856Y-119242061D01*
X176980885Y-119242718D01*
X176986198Y-119242862D01*
X177001546Y-119243001D01*
X177026379Y-119243135D01*
X177060148Y-119243263D01*
X177102304Y-119243384D01*
X177152298Y-119243498D01*
X177209581Y-119243603D01*
X177273604Y-119243699D01*
X177343818Y-119243784D01*
X177419673Y-119243859D01*
X177500621Y-119243922D01*
X177586113Y-119243973D01*
X177675599Y-119244010D01*
X177768530Y-119244033D01*
X177864358Y-119244041D01*
X178749333Y-119244041D01*
X178749333Y-108755958D01*
X176981916Y-108755958D01*
X176981864Y-111686218D01*
X176981813Y-114616479D01*
X176969474Y-114642976D01*
X176952549Y-114669778D01*
X176929464Y-114693361D01*
X176903619Y-114710367D01*
X176899127Y-114712391D01*
X176896101Y-114713114D01*
X176890379Y-114713790D01*
X176881626Y-114714419D01*
X176869506Y-114715004D01*
X176853686Y-114715545D01*
X176833829Y-114716045D01*
X176809601Y-114716504D01*
X176780666Y-114716925D01*
X176746688Y-114717309D01*
X176707334Y-114717657D01*
X176662266Y-114717971D01*
X176611151Y-114718253D01*
X176553654Y-114718504D01*
X176489438Y-114718725D01*
X176418168Y-114718919D01*
X176339510Y-114719086D01*
X176253128Y-114719229D01*
X176158688Y-114719348D01*
X176055853Y-114719446D01*
X175944288Y-114719524D01*
X175823659Y-114719583D01*
X175693631Y-114719625D01*
X175553867Y-114719652D01*
X175404033Y-114719665D01*
X175320327Y-114719666D01*
X173758939Y-114719666D01*
X173733192Y-114706619D01*
X173703100Y-114686149D01*
X173681014Y-114660346D01*
X173666920Y-114630783D01*
X173660802Y-114599031D01*
X173662646Y-114566663D01*
X173672437Y-114535251D01*
X173690162Y-114506366D01*
X173715804Y-114481581D01*
X173735409Y-114469103D01*
X173756645Y-114457729D01*
X176717333Y-114455009D01*
X176717333Y-108593994D01*
X176731039Y-108566489D01*
X176742491Y-108547697D01*
X176756477Y-108530313D01*
X176763945Y-108523158D01*
X176768216Y-108519426D01*
X176771894Y-108515996D01*
X176775419Y-108512854D01*
X176779232Y-108509990D01*
X176783773Y-108507390D01*
X176789482Y-108505043D01*
X176796800Y-108502937D01*
X176806166Y-108501059D01*
X176818021Y-108499398D01*
X176832806Y-108497941D01*
X176850960Y-108496676D01*
X176872924Y-108495592D01*
X176899139Y-108494676D01*
X176930044Y-108493916D01*
X176966080Y-108493300D01*
X177007687Y-108492816D01*
X177055305Y-108492452D01*
X177109375Y-108492196D01*
X177170337Y-108492036D01*
X177238632Y-108491959D01*
X177314699Y-108491954D01*
X177398979Y-108492008D01*
G36*
X175555929Y-108491925D02*
G01*
X175632577Y-108492018D01*
X175701986Y-108492184D01*
X175764530Y-108492432D01*
X175820578Y-108492772D01*
X175870504Y-108493213D01*
X175914679Y-108493765D01*
X175953474Y-108494437D01*
X175987261Y-108495238D01*
X176016412Y-108496179D01*
X176041299Y-108497268D01*
X176062294Y-108498514D01*
X176079767Y-108499929D01*
X176094091Y-108501520D01*
X176105638Y-108503297D01*
X176114778Y-108505270D01*
X176121885Y-108507449D01*
X176127329Y-108509842D01*
X176131483Y-108512459D01*
X176134717Y-108515310D01*
X176137404Y-108518404D01*
X176139916Y-108521750D01*
X176142623Y-108525359D01*
X176145899Y-108529239D01*
X176147669Y-108531088D01*
X176169915Y-108560222D01*
X176183291Y-108593179D01*
X176187478Y-108628013D01*
X176182154Y-108662778D01*
X176173051Y-108685168D01*
X176169068Y-108690144D01*
X176158293Y-108702910D01*
X176140890Y-108723275D01*
X176117023Y-108751053D01*
X176086855Y-108786055D01*
X176050550Y-108828093D01*
X176008272Y-108876979D01*
X175960183Y-108932524D01*
X175906449Y-108994541D01*
X175847231Y-109062840D01*
X175782694Y-109137234D01*
X175713002Y-109217535D01*
X175638318Y-109303554D01*
X175558806Y-109395103D01*
X175474629Y-109491995D01*
X175385951Y-109594039D01*
X175292936Y-109701050D01*
X175195747Y-109812837D01*
X175094547Y-109929214D01*
X174989501Y-110049992D01*
X174880772Y-110174982D01*
X174768523Y-110303996D01*
X174652919Y-110436847D01*
X174534122Y-110573345D01*
X174412297Y-110713303D01*
X174287607Y-110856533D01*
X174160216Y-111002846D01*
X174030286Y-111152054D01*
X173897983Y-111303969D01*
X173763469Y-111458403D01*
X173626908Y-111615167D01*
X173488464Y-111774073D01*
X173348300Y-111934933D01*
X173317700Y-111970049D01*
X173132258Y-112182866D01*
X172952737Y-112388917D01*
X172779172Y-112588159D01*
X172611602Y-112780549D01*
X172450062Y-112966046D01*
X172294589Y-113144606D01*
X172145221Y-113316187D01*
X172001994Y-113480747D01*
X171864944Y-113638243D01*
X171734109Y-113788634D01*
X171609525Y-113931877D01*
X171491230Y-114067929D01*
X171379260Y-114196748D01*
X171273651Y-114318292D01*
X171174441Y-114432518D01*
X171081666Y-114539384D01*
X170995364Y-114638847D01*
X170915570Y-114730866D01*
X170842323Y-114815398D01*
X170775658Y-114892400D01*
X170715612Y-114961830D01*
X170662222Y-115023646D01*
X170615526Y-115077805D01*
X170575559Y-115124266D01*
X170542358Y-115162985D01*
X170515961Y-115193920D01*
X170496405Y-115217029D01*
X170483725Y-115232269D01*
X170477959Y-115239599D01*
X170477586Y-115240299D01*
X170481084Y-115244824D01*
X170490858Y-115257463D01*
X170506709Y-115277958D01*
X170528439Y-115306052D01*
X170555848Y-115341487D01*
X170588736Y-115384007D01*
X170626906Y-115433352D01*
X170670157Y-115489267D01*
X170718290Y-115551493D01*
X170771107Y-115619774D01*
X170828409Y-115693851D01*
X170889995Y-115773468D01*
X170955667Y-115858367D01*
X171025227Y-115948290D01*
X171098474Y-116042981D01*
X171175210Y-116142181D01*
X171255235Y-116245633D01*
X171338351Y-116353080D01*
X171424358Y-116464265D01*
X171513057Y-116578929D01*
X171604249Y-116696816D01*
X171697735Y-116817669D01*
X171793316Y-116941229D01*
X171890792Y-117067239D01*
X171989965Y-117195442D01*
X172028389Y-117245114D01*
X173574683Y-119244041D01*
X175797472Y-119244041D01*
X175781952Y-119224197D01*
X175704379Y-119124998D01*
X175623748Y-119021853D01*
X175540269Y-118915034D01*
X175454151Y-118804810D01*
X175365606Y-118691451D01*
X175274842Y-118575226D01*
X175182069Y-118456404D01*
X175087499Y-118335256D01*
X174991340Y-118212051D01*
X174893802Y-118087059D01*
X174795096Y-117960549D01*
X174695432Y-117832790D01*
X174595020Y-117704054D01*
X174494069Y-117574608D01*
X174392790Y-117444723D01*
X174291392Y-117314668D01*
X174190086Y-117184714D01*
X174089081Y-117055128D01*
X173988588Y-116926182D01*
X173888817Y-116798145D01*
X173789977Y-116671287D01*
X173692278Y-116545876D01*
X173595931Y-116422183D01*
X173501145Y-116300477D01*
X173408131Y-116181028D01*
X173317098Y-116064106D01*
X173228257Y-115949980D01*
X173141817Y-115838919D01*
X173057989Y-115731194D01*
X172976982Y-115627074D01*
X172899006Y-115526828D01*
X172824272Y-115430727D01*
X172752989Y-115339039D01*
X172685367Y-115252035D01*
X172621617Y-115169984D01*
X172561948Y-115093155D01*
X172506570Y-115021819D01*
X172455693Y-114956245D01*
X172409528Y-114896702D01*
X172368284Y-114843461D01*
X172332172Y-114796790D01*
X172301400Y-114756960D01*
X172276180Y-114724239D01*
X172256721Y-114698898D01*
X172243233Y-114681207D01*
X172235926Y-114671434D01*
X172234606Y-114669507D01*
X172225806Y-114638406D01*
X172225146Y-114604517D01*
X172232470Y-114571622D01*
X172239260Y-114556391D01*
X172243946Y-114549945D01*
X172255082Y-114535843D01*
X172272302Y-114514526D01*
X172295238Y-114486432D01*
X172323522Y-114451999D01*
X172356786Y-114411668D01*
X172394662Y-114365876D01*
X172436784Y-114315063D01*
X172482784Y-114259668D01*
X172532292Y-114200130D01*
X172584944Y-114136888D01*
X172640369Y-114070380D01*
X172698201Y-114001047D01*
X172758073Y-113929326D01*
X172819615Y-113855657D01*
X172882462Y-113780478D01*
X172946244Y-113704230D01*
X173010595Y-113627349D01*
X173075147Y-113550277D01*
X173139532Y-113473451D01*
X173203383Y-113397311D01*
X173266331Y-113322296D01*
X173328009Y-113248844D01*
X173388050Y-113177395D01*
X173446086Y-113108387D01*
X173501748Y-113042260D01*
X173554671Y-112979452D01*
X173604485Y-112920403D01*
X173650823Y-112865551D01*
X173693318Y-112815336D01*
X173731602Y-112770196D01*
X173765307Y-112730570D01*
X173794065Y-112696898D01*
X173817510Y-112669618D01*
X173835272Y-112649170D01*
X173846985Y-112635992D01*
X173852152Y-112630625D01*
X173868871Y-112619298D01*
X173886952Y-112610488D01*
X173891172Y-112609040D01*
X173897006Y-112608225D01*
X173909042Y-112607478D01*
X173927580Y-112606797D01*
X173952919Y-112606180D01*
X173985357Y-112605624D01*
X174025194Y-112605128D01*
X174072728Y-112604690D01*
X174128257Y-112604309D01*
X174192083Y-112603981D01*
X174264502Y-112603707D01*
X174345814Y-112603483D01*
X174436318Y-112603307D01*
X174536314Y-112603179D01*
X174646099Y-112603095D01*
X174765972Y-112603055D01*
X174849988Y-112603051D01*
X175788645Y-112603103D01*
X175815104Y-112615611D01*
X175846441Y-112635836D01*
X175870047Y-112662491D01*
X175885327Y-112694194D01*
X175891691Y-112729565D01*
X175888546Y-112767221D01*
X175885398Y-112779656D01*
X175875478Y-112799939D01*
X175858773Y-112821335D01*
X175838259Y-112840871D01*
X175816911Y-112855570D01*
X175803906Y-112861148D01*
X175798584Y-112862015D01*
X175788492Y-112862809D01*
X175773250Y-112863532D01*
X175752482Y-112864187D01*
X175725808Y-112864777D01*
X175692851Y-112865304D01*
X175653232Y-112865772D01*
X175606575Y-112866182D01*
X175552499Y-112866538D01*
X175490628Y-112866843D01*
X175420583Y-112867099D01*
X175341986Y-112867308D01*
X175254460Y-112867474D01*
X175157625Y-112867600D01*
X175051104Y-112867687D01*
X174934518Y-112867739D01*
X174888448Y-112867750D01*
X173994770Y-112867917D01*
X173263139Y-113741050D01*
X173193100Y-113824646D01*
X173124873Y-113906103D01*
X173058767Y-113985050D01*
X172995094Y-114061113D01*
X172934165Y-114133920D01*
X172876291Y-114203100D01*
X172821783Y-114268280D01*
X172770952Y-114329088D01*
X172724109Y-114385151D01*
X172681565Y-114436097D01*
X172643631Y-114481555D01*
X172610618Y-114521151D01*
X172582837Y-114554514D01*
X172560599Y-114581272D01*
X172544215Y-114601052D01*
X172533997Y-114613481D01*
X172530254Y-114618188D01*
X172530243Y-114618211D01*
X172533394Y-114622584D01*
X172542875Y-114635061D01*
X172558502Y-114655406D01*
X172580092Y-114683382D01*
X172607459Y-114718752D01*
X172640420Y-114761281D01*
X172678791Y-114810732D01*
X172722387Y-114866868D01*
X172771024Y-114929453D01*
X172824518Y-114998250D01*
X172882685Y-115073023D01*
X172945341Y-115153536D01*
X173012302Y-115239551D01*
X173083382Y-115330832D01*
X173158400Y-115427144D01*
X173237169Y-115528249D01*
X173319506Y-115633910D01*
X173405227Y-115743892D01*
X173494147Y-115857958D01*
X173586083Y-115975872D01*
X173680850Y-116097396D01*
X173778264Y-116222295D01*
X173878141Y-116350332D01*
X173980297Y-116481270D01*
X174084548Y-116614873D01*
X174190709Y-116750905D01*
X174298596Y-116889129D01*
X174351958Y-116957489D01*
X174460750Y-117096865D01*
X174567952Y-117234232D01*
X174673380Y-117369350D01*
X174776846Y-117501981D01*
X174878165Y-117631884D01*
X174977151Y-117758821D01*
X175073616Y-117882553D01*
X175167376Y-118002840D01*
X175258243Y-118119443D01*
X175346033Y-118232123D01*
X175430558Y-118340640D01*
X175511632Y-118444756D01*
X175589070Y-118544231D01*
X175662685Y-118638826D01*
X175732291Y-118728301D01*
X175797702Y-118812418D01*
X175858731Y-118890938D01*
X175915193Y-118963620D01*
X175966902Y-119030226D01*
X176013671Y-119090517D01*
X176055313Y-119144252D01*
X176091644Y-119191194D01*
X176122477Y-119231103D01*
X176147625Y-119263740D01*
X176166902Y-119288865D01*
X176180123Y-119306239D01*
X176187101Y-119315623D01*
X176188166Y-119317196D01*
X176199244Y-119348107D01*
X176201951Y-119382212D01*
X176196296Y-119416239D01*
X176187877Y-119437279D01*
X176170251Y-119462603D01*
X176146568Y-119484302D01*
X176120188Y-119499538D01*
X176109980Y-119503091D01*
X176102583Y-119503687D01*
X176085182Y-119504247D01*
X176058331Y-119504772D01*
X176022582Y-119505260D01*
X175978491Y-119505714D01*
X175926609Y-119506132D01*
X175867492Y-119506516D01*
X175801692Y-119506865D01*
X175729763Y-119507179D01*
X175652259Y-119507459D01*
X175569733Y-119507705D01*
X175482739Y-119507917D01*
X175391831Y-119508096D01*
X175297561Y-119508241D01*
X175200484Y-119508353D01*
X175101154Y-119508431D01*
X175000123Y-119508477D01*
X174897945Y-119508491D01*
X174795174Y-119508472D01*
X174692364Y-119508420D01*
X174590068Y-119508337D01*
X174488840Y-119508222D01*
X174389233Y-119508075D01*
X174291800Y-119507897D01*
X174197097Y-119507688D01*
X174105675Y-119507448D01*
X174018089Y-119507177D01*
X173934892Y-119506875D01*
X173856638Y-119506543D01*
X173783880Y-119506181D01*
X173717172Y-119505789D01*
X173657068Y-119505368D01*
X173604121Y-119504916D01*
X173558884Y-119504436D01*
X173521912Y-119503926D01*
X173493758Y-119503387D01*
X173474975Y-119502820D01*
X173466117Y-119502224D01*
X173465604Y-119502108D01*
X173450220Y-119495136D01*
X173433814Y-119485684D01*
X173432224Y-119484631D01*
X173427932Y-119479754D01*
X173417410Y-119466805D01*
X173400896Y-119446093D01*
X173378628Y-119417924D01*
X173350842Y-119382604D01*
X173317777Y-119340441D01*
X173279670Y-119291741D01*
X173236759Y-119236810D01*
X173189280Y-119175957D01*
X173137472Y-119109487D01*
X173081572Y-119037707D01*
X173021818Y-118960924D01*
X172958447Y-118879445D01*
X172891696Y-118793577D01*
X172821804Y-118703625D01*
X172749007Y-118609898D01*
X172673543Y-118512702D01*
X172595651Y-118412344D01*
X172515566Y-118309130D01*
X172433528Y-118203367D01*
X172349772Y-118095363D01*
X172264538Y-117985423D01*
X172178062Y-117873854D01*
X172090582Y-117760964D01*
X172002335Y-117647059D01*
X171913559Y-117532446D01*
X171824492Y-117417431D01*
X171735371Y-117302322D01*
X171646433Y-117187425D01*
X171557917Y-117073047D01*
X171470059Y-116959495D01*
X171383097Y-116847075D01*
X171297269Y-116736095D01*
X171212812Y-116626860D01*
X171129963Y-116519678D01*
X171048961Y-116414856D01*
X170970043Y-116312701D01*
X170893446Y-116213518D01*
X170819408Y-116117616D01*
X170748166Y-116025300D01*
X170679958Y-115936878D01*
X170615021Y-115852656D01*
X170553594Y-115772940D01*
X170495912Y-115698039D01*
X170442215Y-115628258D01*
X170392739Y-115563905D01*
X170347722Y-115505286D01*
X170307402Y-115452707D01*
X170272016Y-115406477D01*
X170241802Y-115366900D01*
X170216996Y-115334285D01*
X170197837Y-115308938D01*
X170184563Y-115291166D01*
X170177410Y-115281275D01*
X170176184Y-115279338D01*
X170170478Y-115256627D01*
X170169040Y-115228986D01*
X170171682Y-115200968D01*
X170178219Y-115177126D01*
X170180569Y-115172104D01*
X170184581Y-115167084D01*
X170195382Y-115154277D01*
X170212808Y-115133874D01*
X170236691Y-115106065D01*
X170266869Y-115071040D01*
X170303174Y-115028990D01*
X170345441Y-114980104D01*
X170393505Y-114924574D01*
X170447201Y-114862589D01*
X170506363Y-114794340D01*
X170570826Y-114720018D01*
X170640423Y-114639812D01*
X170714991Y-114553913D01*
X170794363Y-114462512D01*
X170878374Y-114365798D01*
X170966858Y-114263962D01*
X171059651Y-114157194D01*
X171156586Y-114045685D01*
X171257499Y-113929626D01*
X171362223Y-113809205D01*
X171470593Y-113684615D01*
X171582445Y-113556044D01*
X171697612Y-113423684D01*
X171815929Y-113287725D01*
X171937231Y-113148357D01*
X172061352Y-113005770D01*
X172188127Y-112860156D01*
X172317390Y-112711703D01*
X172448976Y-112560603D01*
X172582719Y-112407046D01*
X172718455Y-112251222D01*
X172856017Y-112093321D01*
X172975649Y-111956020D01*
X173114558Y-111796598D01*
X173251758Y-111639132D01*
X173387084Y-111483810D01*
X173520371Y-111330823D01*
X173651455Y-111180358D01*
X173780171Y-111032605D01*
X173906355Y-110887752D01*
X174029842Y-110745988D01*
X174150469Y-110607503D01*
X174268069Y-110472485D01*
X174382480Y-110341123D01*
X174493536Y-110213607D01*
X174601073Y-110090124D01*
X174704926Y-109970865D01*
X174804932Y-109856017D01*
X174900924Y-109745770D01*
X174992740Y-109640313D01*
X175080214Y-109539835D01*
X175163182Y-109444524D01*
X175241480Y-109354570D01*
X175314943Y-109270161D01*
X175383406Y-109191487D01*
X175446705Y-109118736D01*
X175504676Y-109052097D01*
X175557153Y-108991759D01*
X175603974Y-108937912D01*
X175644972Y-108890744D01*
X175679984Y-108850443D01*
X175708845Y-108817200D01*
X175731390Y-108791202D01*
X175747456Y-108772639D01*
X175756877Y-108761700D01*
X175759541Y-108758530D01*
X175754327Y-108758293D01*
X175738994Y-108758063D01*
X175714008Y-108757839D01*
X175679833Y-108757624D01*
X175636934Y-108757418D01*
X175585777Y-108757222D01*
X175526825Y-108757037D01*
X175460544Y-108756865D01*
X175387398Y-108756705D01*
X175307853Y-108756559D01*
X175222374Y-108756428D01*
X175131424Y-108756313D01*
X175035470Y-108756214D01*
X174934976Y-108756134D01*
X174830407Y-108756072D01*
X174722227Y-108756030D01*
X174610902Y-108756008D01*
X174530552Y-108756006D01*
X173301562Y-108756053D01*
X170793312Y-111537549D01*
X170659963Y-111685423D01*
X170528264Y-111831462D01*
X170398399Y-111975463D01*
X170270550Y-112117225D01*
X170144897Y-112256547D01*
X170021624Y-112393225D01*
X169900913Y-112527060D01*
X169782945Y-112657848D01*
X169667903Y-112785388D01*
X169555968Y-112909479D01*
X169447323Y-113029918D01*
X169342149Y-113146504D01*
X169240630Y-113259035D01*
X169142946Y-113367310D01*
X169049280Y-113471125D01*
X168959814Y-113570281D01*
X168874730Y-113664574D01*
X168794210Y-113753804D01*
X168718436Y-113837768D01*
X168647591Y-113916264D01*
X168581855Y-113989092D01*
X168521412Y-114056048D01*
X168466443Y-114116932D01*
X168417130Y-114171542D01*
X168373655Y-114219675D01*
X168336201Y-114261130D01*
X168304950Y-114295706D01*
X168280083Y-114323200D01*
X168261782Y-114343411D01*
X168250231Y-114356137D01*
X168245835Y-114360938D01*
X168220688Y-114386488D01*
X168199404Y-114404533D01*
X168179801Y-114416255D01*
X168159697Y-114422837D01*
X168136909Y-114425459D01*
X168126312Y-114425664D01*
X168100508Y-114424391D01*
X168080846Y-114420025D01*
X168067603Y-114414227D01*
X168042755Y-114396610D01*
X168020096Y-114372494D01*
X168003323Y-114345858D01*
X168002619Y-114344343D01*
X168001991Y-114342408D01*
X168001394Y-114339260D01*
X168000828Y-114334637D01*
X168000291Y-114328278D01*
X167999783Y-114319920D01*
X167999303Y-114309304D01*
X167998850Y-114296167D01*
X167998423Y-114280248D01*
X167998022Y-114261285D01*
X167997646Y-114239017D01*
X167997294Y-114213182D01*
X167996965Y-114183520D01*
X167996659Y-114149768D01*
X167996374Y-114111665D01*
X167996110Y-114068950D01*
X167995867Y-114021361D01*
X167995642Y-113968637D01*
X167995437Y-113910516D01*
X167995249Y-113846737D01*
X167995078Y-113777039D01*
X167994924Y-113701159D01*
X167994784Y-113618837D01*
X167994660Y-113529812D01*
X167994549Y-113433820D01*
X167994452Y-113330602D01*
X167994367Y-113219896D01*
X167994293Y-113101439D01*
X167994230Y-112974972D01*
X167994178Y-112840232D01*
X167994134Y-112696958D01*
X167994099Y-112544888D01*
X167994071Y-112383761D01*
X167994050Y-112213316D01*
X167994036Y-112033291D01*
X167994026Y-111843424D01*
X167994021Y-111643455D01*
X167994020Y-111467937D01*
X167994028Y-111294376D01*
X167994050Y-111123407D01*
X167994086Y-110955338D01*
X167994136Y-110790476D01*
X167994200Y-110629129D01*
X167994276Y-110471604D01*
X167994365Y-110318210D01*
X167994466Y-110169253D01*
X167994578Y-110025042D01*
X167994702Y-109885883D01*
X167994836Y-109752085D01*
X167994981Y-109623955D01*
X167995135Y-109501801D01*
X167995299Y-109385929D01*
X167995472Y-109276649D01*
X167995654Y-109174267D01*
X167995844Y-109079091D01*
X167996041Y-108991429D01*
X167996245Y-108911588D01*
X167996457Y-108839876D01*
X167996675Y-108776600D01*
X167996898Y-108722068D01*
X167997128Y-108676587D01*
X167997362Y-108640466D01*
X167997601Y-108614011D01*
X167997844Y-108597531D01*
X167998086Y-108591354D01*
X168008068Y-108565209D01*
X168025579Y-108539383D01*
X168048045Y-108517345D01*
X168058588Y-108509895D01*
X168083979Y-108494020D01*
X170216520Y-108494020D01*
X170237687Y-108505463D01*
X170266290Y-108525815D01*
X170289913Y-108552154D01*
X170302242Y-108573395D01*
X170303338Y-108576186D01*
X170304349Y-108579774D01*
X170305278Y-108584589D01*
X170306129Y-108591058D01*
X170306906Y-108599611D01*
X170307614Y-108610676D01*
X170308257Y-108624681D01*
X170308838Y-108642055D01*
X170309362Y-108663227D01*
X170309834Y-108688626D01*
X170310256Y-108718679D01*
X170310634Y-108753816D01*
X170310971Y-108794464D01*
X170311271Y-108841053D01*
X170311540Y-108894012D01*
X170311780Y-108953768D01*
X170311996Y-109020751D01*
X170312192Y-109095388D01*
X170312373Y-109178109D01*
X170312541Y-109269342D01*
X170312703Y-109369516D01*
X170312860Y-109479059D01*
X170313019Y-109598400D01*
X170313154Y-109705570D01*
X170313325Y-109835604D01*
X170313492Y-109955479D01*
X170313643Y-110065620D01*
X170313765Y-110166451D01*
X170313847Y-110258397D01*
X170313876Y-110341883D01*
X170313840Y-110417332D01*
X170313726Y-110485170D01*
X170313523Y-110545820D01*
X170313218Y-110599708D01*
X170312799Y-110647259D01*
X170312254Y-110688896D01*
X170311570Y-110725044D01*
X170310735Y-110756127D01*
X170309738Y-110782571D01*
X170308564Y-110804800D01*
X170307204Y-110823238D01*
X170305643Y-110838310D01*
X170303870Y-110850440D01*
X170301873Y-110860053D01*
X170299639Y-110867574D01*
X170297157Y-110873427D01*
X170294413Y-110878036D01*
X170291396Y-110881826D01*
X170288093Y-110885222D01*
X170284493Y-110888648D01*
X170280582Y-110892529D01*
X170278847Y-110894393D01*
X170253810Y-110917477D01*
X170227390Y-110931493D01*
X170196554Y-110937784D01*
X170179479Y-110938456D01*
X170145457Y-110935356D01*
X170117298Y-110925165D01*
X170091983Y-110906545D01*
X170080198Y-110894490D01*
X170076020Y-110890131D01*
X170072180Y-110886395D01*
X170068664Y-110882839D01*
X170065458Y-110879023D01*
X170062548Y-110874504D01*
X170059919Y-110868841D01*
X170057557Y-110861593D01*
X170055448Y-110852318D01*
X170053578Y-110840574D01*
X170051932Y-110825920D01*
X170050497Y-110807915D01*
X170049258Y-110786116D01*
X170048201Y-110760083D01*
X170047311Y-110729373D01*
X170046575Y-110693546D01*
X170045978Y-110652159D01*
X170045506Y-110604771D01*
X170045145Y-110550941D01*
X170044880Y-110490226D01*
X170044698Y-110422186D01*
X170044584Y-110346379D01*
X170044524Y-110262363D01*
X170044504Y-110169697D01*
X170044509Y-110067939D01*
X170044526Y-109956647D01*
X170044540Y-109835381D01*
X170044541Y-109786872D01*
X170044541Y-108755958D01*
X168261250Y-108755958D01*
X168261250Y-111348875D01*
X168261254Y-111513989D01*
X168261267Y-111676432D01*
X168261288Y-111835883D01*
X168261318Y-111992023D01*
X168261356Y-112144530D01*
X168261401Y-112293084D01*
X168261453Y-112437367D01*
X168261512Y-112577058D01*
X168261579Y-112711836D01*
X168261651Y-112841382D01*
X168261730Y-112965376D01*
X168261815Y-113083498D01*
X168261906Y-113195427D01*
X168262002Y-113300843D01*
X168262103Y-113399428D01*
X168262209Y-113490859D01*
X168262320Y-113574818D01*
X168262435Y-113650984D01*
X168262554Y-113719038D01*
X168262676Y-113778659D01*
X168262803Y-113829527D01*
X168262933Y-113871322D01*
X168263065Y-113903725D01*
X168263201Y-113926414D01*
X168263338Y-113939071D01*
X168263439Y-113941791D01*
X168267071Y-113937895D01*
X168277609Y-113926338D01*
X168294873Y-113907323D01*
X168318681Y-113881048D01*
X168348854Y-113847715D01*
X168385210Y-113807523D01*
X168427568Y-113760673D01*
X168475748Y-113707366D01*
X168529568Y-113647801D01*
X168588849Y-113582178D01*
X168653408Y-113510699D01*
X168723066Y-113433563D01*
X168797642Y-113350971D01*
X168876954Y-113263122D01*
X168960822Y-113170218D01*
X169049065Y-113072459D01*
X169141503Y-112970044D01*
X169237954Y-112863175D01*
X169338238Y-112752051D01*
X169442173Y-112636873D01*
X169549580Y-112517841D01*
X169660277Y-112395155D01*
X169774084Y-112269016D01*
X169890819Y-112139624D01*
X170010302Y-112007179D01*
X170132352Y-111871882D01*
X170256788Y-111733933D01*
X170383430Y-111593532D01*
X170512096Y-111450879D01*
X170642607Y-111306175D01*
X170711219Y-111230098D01*
X170871998Y-111051830D01*
X171025840Y-110881265D01*
X171172893Y-110718240D01*
X171313303Y-110562593D01*
X171447217Y-110414163D01*
X171574781Y-110272789D01*
X171696143Y-110138307D01*
X171811449Y-110010558D01*
X171920845Y-109889378D01*
X172024478Y-109774606D01*
X172122496Y-109666081D01*
X172215044Y-109563640D01*
X172302269Y-109467122D01*
X172384319Y-109376366D01*
X172461339Y-109291208D01*
X172533476Y-109211489D01*
X172600878Y-109137045D01*
X172663690Y-109067716D01*
X172722060Y-109003339D01*
X172776134Y-108943753D01*
X172826059Y-108888796D01*
X172871982Y-108838305D01*
X172914048Y-108792121D01*
X172952406Y-108750080D01*
X172987201Y-108712021D01*
X173018580Y-108677783D01*
X173046690Y-108647203D01*
X173071678Y-108620119D01*
X173093690Y-108596371D01*
X173112874Y-108575796D01*
X173129374Y-108558233D01*
X173143340Y-108543519D01*
X173154916Y-108531494D01*
X173164250Y-108521995D01*
X173171489Y-108514860D01*
X173176779Y-108509928D01*
X173180266Y-108507038D01*
X173181561Y-108506213D01*
X173206312Y-108494020D01*
X174637577Y-108492669D01*
X174785510Y-108492519D01*
X174923231Y-108492367D01*
X175051112Y-108492222D01*
X175169525Y-108492093D01*
X175278842Y-108491989D01*
X175379434Y-108491920D01*
X175471672Y-108491896D01*
X175555929Y-108491925D01*
G37*
X175555929Y-108491925D02*
X175632577Y-108492018D01*
X175701986Y-108492184D01*
X175764530Y-108492432D01*
X175820578Y-108492772D01*
X175870504Y-108493213D01*
X175914679Y-108493765D01*
X175953474Y-108494437D01*
X175987261Y-108495238D01*
X176016412Y-108496179D01*
X176041299Y-108497268D01*
X176062294Y-108498514D01*
X176079767Y-108499929D01*
X176094091Y-108501520D01*
X176105638Y-108503297D01*
X176114778Y-108505270D01*
X176121885Y-108507449D01*
X176127329Y-108509842D01*
X176131483Y-108512459D01*
X176134717Y-108515310D01*
X176137404Y-108518404D01*
X176139916Y-108521750D01*
X176142623Y-108525359D01*
X176145899Y-108529239D01*
X176147669Y-108531088D01*
X176169915Y-108560222D01*
X176183291Y-108593179D01*
X176187478Y-108628013D01*
X176182154Y-108662778D01*
X176173051Y-108685168D01*
X176169068Y-108690144D01*
X176158293Y-108702910D01*
X176140890Y-108723275D01*
X176117023Y-108751053D01*
X176086855Y-108786055D01*
X176050550Y-108828093D01*
X176008272Y-108876979D01*
X175960183Y-108932524D01*
X175906449Y-108994541D01*
X175847231Y-109062840D01*
X175782694Y-109137234D01*
X175713002Y-109217535D01*
X175638318Y-109303554D01*
X175558806Y-109395103D01*
X175474629Y-109491995D01*
X175385951Y-109594039D01*
X175292936Y-109701050D01*
X175195747Y-109812837D01*
X175094547Y-109929214D01*
X174989501Y-110049992D01*
X174880772Y-110174982D01*
X174768523Y-110303996D01*
X174652919Y-110436847D01*
X174534122Y-110573345D01*
X174412297Y-110713303D01*
X174287607Y-110856533D01*
X174160216Y-111002846D01*
X174030286Y-111152054D01*
X173897983Y-111303969D01*
X173763469Y-111458403D01*
X173626908Y-111615167D01*
X173488464Y-111774073D01*
X173348300Y-111934933D01*
X173317700Y-111970049D01*
X173132258Y-112182866D01*
X172952737Y-112388917D01*
X172779172Y-112588159D01*
X172611602Y-112780549D01*
X172450062Y-112966046D01*
X172294589Y-113144606D01*
X172145221Y-113316187D01*
X172001994Y-113480747D01*
X171864944Y-113638243D01*
X171734109Y-113788634D01*
X171609525Y-113931877D01*
X171491230Y-114067929D01*
X171379260Y-114196748D01*
X171273651Y-114318292D01*
X171174441Y-114432518D01*
X171081666Y-114539384D01*
X170995364Y-114638847D01*
X170915570Y-114730866D01*
X170842323Y-114815398D01*
X170775658Y-114892400D01*
X170715612Y-114961830D01*
X170662222Y-115023646D01*
X170615526Y-115077805D01*
X170575559Y-115124266D01*
X170542358Y-115162985D01*
X170515961Y-115193920D01*
X170496405Y-115217029D01*
X170483725Y-115232269D01*
X170477959Y-115239599D01*
X170477586Y-115240299D01*
X170481084Y-115244824D01*
X170490858Y-115257463D01*
X170506709Y-115277958D01*
X170528439Y-115306052D01*
X170555848Y-115341487D01*
X170588736Y-115384007D01*
X170626906Y-115433352D01*
X170670157Y-115489267D01*
X170718290Y-115551493D01*
X170771107Y-115619774D01*
X170828409Y-115693851D01*
X170889995Y-115773468D01*
X170955667Y-115858367D01*
X171025227Y-115948290D01*
X171098474Y-116042981D01*
X171175210Y-116142181D01*
X171255235Y-116245633D01*
X171338351Y-116353080D01*
X171424358Y-116464265D01*
X171513057Y-116578929D01*
X171604249Y-116696816D01*
X171697735Y-116817669D01*
X171793316Y-116941229D01*
X171890792Y-117067239D01*
X171989965Y-117195442D01*
X172028389Y-117245114D01*
X173574683Y-119244041D01*
X175797472Y-119244041D01*
X175781952Y-119224197D01*
X175704379Y-119124998D01*
X175623748Y-119021853D01*
X175540269Y-118915034D01*
X175454151Y-118804810D01*
X175365606Y-118691451D01*
X175274842Y-118575226D01*
X175182069Y-118456404D01*
X175087499Y-118335256D01*
X174991340Y-118212051D01*
X174893802Y-118087059D01*
X174795096Y-117960549D01*
X174695432Y-117832790D01*
X174595020Y-117704054D01*
X174494069Y-117574608D01*
X174392790Y-117444723D01*
X174291392Y-117314668D01*
X174190086Y-117184714D01*
X174089081Y-117055128D01*
X173988588Y-116926182D01*
X173888817Y-116798145D01*
X173789977Y-116671287D01*
X173692278Y-116545876D01*
X173595931Y-116422183D01*
X173501145Y-116300477D01*
X173408131Y-116181028D01*
X173317098Y-116064106D01*
X173228257Y-115949980D01*
X173141817Y-115838919D01*
X173057989Y-115731194D01*
X172976982Y-115627074D01*
X172899006Y-115526828D01*
X172824272Y-115430727D01*
X172752989Y-115339039D01*
X172685367Y-115252035D01*
X172621617Y-115169984D01*
X172561948Y-115093155D01*
X172506570Y-115021819D01*
X172455693Y-114956245D01*
X172409528Y-114896702D01*
X172368284Y-114843461D01*
X172332172Y-114796790D01*
X172301400Y-114756960D01*
X172276180Y-114724239D01*
X172256721Y-114698898D01*
X172243233Y-114681207D01*
X172235926Y-114671434D01*
X172234606Y-114669507D01*
X172225806Y-114638406D01*
X172225146Y-114604517D01*
X172232470Y-114571622D01*
X172239260Y-114556391D01*
X172243946Y-114549945D01*
X172255082Y-114535843D01*
X172272302Y-114514526D01*
X172295238Y-114486432D01*
X172323522Y-114451999D01*
X172356786Y-114411668D01*
X172394662Y-114365876D01*
X172436784Y-114315063D01*
X172482784Y-114259668D01*
X172532292Y-114200130D01*
X172584944Y-114136888D01*
X172640369Y-114070380D01*
X172698201Y-114001047D01*
X172758073Y-113929326D01*
X172819615Y-113855657D01*
X172882462Y-113780478D01*
X172946244Y-113704230D01*
X173010595Y-113627349D01*
X173075147Y-113550277D01*
X173139532Y-113473451D01*
X173203383Y-113397311D01*
X173266331Y-113322296D01*
X173328009Y-113248844D01*
X173388050Y-113177395D01*
X173446086Y-113108387D01*
X173501748Y-113042260D01*
X173554671Y-112979452D01*
X173604485Y-112920403D01*
X173650823Y-112865551D01*
X173693318Y-112815336D01*
X173731602Y-112770196D01*
X173765307Y-112730570D01*
X173794065Y-112696898D01*
X173817510Y-112669618D01*
X173835272Y-112649170D01*
X173846985Y-112635992D01*
X173852152Y-112630625D01*
X173868871Y-112619298D01*
X173886952Y-112610488D01*
X173891172Y-112609040D01*
X173897006Y-112608225D01*
X173909042Y-112607478D01*
X173927580Y-112606797D01*
X173952919Y-112606180D01*
X173985357Y-112605624D01*
X174025194Y-112605128D01*
X174072728Y-112604690D01*
X174128257Y-112604309D01*
X174192083Y-112603981D01*
X174264502Y-112603707D01*
X174345814Y-112603483D01*
X174436318Y-112603307D01*
X174536314Y-112603179D01*
X174646099Y-112603095D01*
X174765972Y-112603055D01*
X174849988Y-112603051D01*
X175788645Y-112603103D01*
X175815104Y-112615611D01*
X175846441Y-112635836D01*
X175870047Y-112662491D01*
X175885327Y-112694194D01*
X175891691Y-112729565D01*
X175888546Y-112767221D01*
X175885398Y-112779656D01*
X175875478Y-112799939D01*
X175858773Y-112821335D01*
X175838259Y-112840871D01*
X175816911Y-112855570D01*
X175803906Y-112861148D01*
X175798584Y-112862015D01*
X175788492Y-112862809D01*
X175773250Y-112863532D01*
X175752482Y-112864187D01*
X175725808Y-112864777D01*
X175692851Y-112865304D01*
X175653232Y-112865772D01*
X175606575Y-112866182D01*
X175552499Y-112866538D01*
X175490628Y-112866843D01*
X175420583Y-112867099D01*
X175341986Y-112867308D01*
X175254460Y-112867474D01*
X175157625Y-112867600D01*
X175051104Y-112867687D01*
X174934518Y-112867739D01*
X174888448Y-112867750D01*
X173994770Y-112867917D01*
X173263139Y-113741050D01*
X173193100Y-113824646D01*
X173124873Y-113906103D01*
X173058767Y-113985050D01*
X172995094Y-114061113D01*
X172934165Y-114133920D01*
X172876291Y-114203100D01*
X172821783Y-114268280D01*
X172770952Y-114329088D01*
X172724109Y-114385151D01*
X172681565Y-114436097D01*
X172643631Y-114481555D01*
X172610618Y-114521151D01*
X172582837Y-114554514D01*
X172560599Y-114581272D01*
X172544215Y-114601052D01*
X172533997Y-114613481D01*
X172530254Y-114618188D01*
X172530243Y-114618211D01*
X172533394Y-114622584D01*
X172542875Y-114635061D01*
X172558502Y-114655406D01*
X172580092Y-114683382D01*
X172607459Y-114718752D01*
X172640420Y-114761281D01*
X172678791Y-114810732D01*
X172722387Y-114866868D01*
X172771024Y-114929453D01*
X172824518Y-114998250D01*
X172882685Y-115073023D01*
X172945341Y-115153536D01*
X173012302Y-115239551D01*
X173083382Y-115330832D01*
X173158400Y-115427144D01*
X173237169Y-115528249D01*
X173319506Y-115633910D01*
X173405227Y-115743892D01*
X173494147Y-115857958D01*
X173586083Y-115975872D01*
X173680850Y-116097396D01*
X173778264Y-116222295D01*
X173878141Y-116350332D01*
X173980297Y-116481270D01*
X174084548Y-116614873D01*
X174190709Y-116750905D01*
X174298596Y-116889129D01*
X174351958Y-116957489D01*
X174460750Y-117096865D01*
X174567952Y-117234232D01*
X174673380Y-117369350D01*
X174776846Y-117501981D01*
X174878165Y-117631884D01*
X174977151Y-117758821D01*
X175073616Y-117882553D01*
X175167376Y-118002840D01*
X175258243Y-118119443D01*
X175346033Y-118232123D01*
X175430558Y-118340640D01*
X175511632Y-118444756D01*
X175589070Y-118544231D01*
X175662685Y-118638826D01*
X175732291Y-118728301D01*
X175797702Y-118812418D01*
X175858731Y-118890938D01*
X175915193Y-118963620D01*
X175966902Y-119030226D01*
X176013671Y-119090517D01*
X176055313Y-119144252D01*
X176091644Y-119191194D01*
X176122477Y-119231103D01*
X176147625Y-119263740D01*
X176166902Y-119288865D01*
X176180123Y-119306239D01*
X176187101Y-119315623D01*
X176188166Y-119317196D01*
X176199244Y-119348107D01*
X176201951Y-119382212D01*
X176196296Y-119416239D01*
X176187877Y-119437279D01*
X176170251Y-119462603D01*
X176146568Y-119484302D01*
X176120188Y-119499538D01*
X176109980Y-119503091D01*
X176102583Y-119503687D01*
X176085182Y-119504247D01*
X176058331Y-119504772D01*
X176022582Y-119505260D01*
X175978491Y-119505714D01*
X175926609Y-119506132D01*
X175867492Y-119506516D01*
X175801692Y-119506865D01*
X175729763Y-119507179D01*
X175652259Y-119507459D01*
X175569733Y-119507705D01*
X175482739Y-119507917D01*
X175391831Y-119508096D01*
X175297561Y-119508241D01*
X175200484Y-119508353D01*
X175101154Y-119508431D01*
X175000123Y-119508477D01*
X174897945Y-119508491D01*
X174795174Y-119508472D01*
X174692364Y-119508420D01*
X174590068Y-119508337D01*
X174488840Y-119508222D01*
X174389233Y-119508075D01*
X174291800Y-119507897D01*
X174197097Y-119507688D01*
X174105675Y-119507448D01*
X174018089Y-119507177D01*
X173934892Y-119506875D01*
X173856638Y-119506543D01*
X173783880Y-119506181D01*
X173717172Y-119505789D01*
X173657068Y-119505368D01*
X173604121Y-119504916D01*
X173558884Y-119504436D01*
X173521912Y-119503926D01*
X173493758Y-119503387D01*
X173474975Y-119502820D01*
X173466117Y-119502224D01*
X173465604Y-119502108D01*
X173450220Y-119495136D01*
X173433814Y-119485684D01*
X173432224Y-119484631D01*
X173427932Y-119479754D01*
X173417410Y-119466805D01*
X173400896Y-119446093D01*
X173378628Y-119417924D01*
X173350842Y-119382604D01*
X173317777Y-119340441D01*
X173279670Y-119291741D01*
X173236759Y-119236810D01*
X173189280Y-119175957D01*
X173137472Y-119109487D01*
X173081572Y-119037707D01*
X173021818Y-118960924D01*
X172958447Y-118879445D01*
X172891696Y-118793577D01*
X172821804Y-118703625D01*
X172749007Y-118609898D01*
X172673543Y-118512702D01*
X172595651Y-118412344D01*
X172515566Y-118309130D01*
X172433528Y-118203367D01*
X172349772Y-118095363D01*
X172264538Y-117985423D01*
X172178062Y-117873854D01*
X172090582Y-117760964D01*
X172002335Y-117647059D01*
X171913559Y-117532446D01*
X171824492Y-117417431D01*
X171735371Y-117302322D01*
X171646433Y-117187425D01*
X171557917Y-117073047D01*
X171470059Y-116959495D01*
X171383097Y-116847075D01*
X171297269Y-116736095D01*
X171212812Y-116626860D01*
X171129963Y-116519678D01*
X171048961Y-116414856D01*
X170970043Y-116312701D01*
X170893446Y-116213518D01*
X170819408Y-116117616D01*
X170748166Y-116025300D01*
X170679958Y-115936878D01*
X170615021Y-115852656D01*
X170553594Y-115772940D01*
X170495912Y-115698039D01*
X170442215Y-115628258D01*
X170392739Y-115563905D01*
X170347722Y-115505286D01*
X170307402Y-115452707D01*
X170272016Y-115406477D01*
X170241802Y-115366900D01*
X170216996Y-115334285D01*
X170197837Y-115308938D01*
X170184563Y-115291166D01*
X170177410Y-115281275D01*
X170176184Y-115279338D01*
X170170478Y-115256627D01*
X170169040Y-115228986D01*
X170171682Y-115200968D01*
X170178219Y-115177126D01*
X170180569Y-115172104D01*
X170184581Y-115167084D01*
X170195382Y-115154277D01*
X170212808Y-115133874D01*
X170236691Y-115106065D01*
X170266869Y-115071040D01*
X170303174Y-115028990D01*
X170345441Y-114980104D01*
X170393505Y-114924574D01*
X170447201Y-114862589D01*
X170506363Y-114794340D01*
X170570826Y-114720018D01*
X170640423Y-114639812D01*
X170714991Y-114553913D01*
X170794363Y-114462512D01*
X170878374Y-114365798D01*
X170966858Y-114263962D01*
X171059651Y-114157194D01*
X171156586Y-114045685D01*
X171257499Y-113929626D01*
X171362223Y-113809205D01*
X171470593Y-113684615D01*
X171582445Y-113556044D01*
X171697612Y-113423684D01*
X171815929Y-113287725D01*
X171937231Y-113148357D01*
X172061352Y-113005770D01*
X172188127Y-112860156D01*
X172317390Y-112711703D01*
X172448976Y-112560603D01*
X172582719Y-112407046D01*
X172718455Y-112251222D01*
X172856017Y-112093321D01*
X172975649Y-111956020D01*
X173114558Y-111796598D01*
X173251758Y-111639132D01*
X173387084Y-111483810D01*
X173520371Y-111330823D01*
X173651455Y-111180358D01*
X173780171Y-111032605D01*
X173906355Y-110887752D01*
X174029842Y-110745988D01*
X174150469Y-110607503D01*
X174268069Y-110472485D01*
X174382480Y-110341123D01*
X174493536Y-110213607D01*
X174601073Y-110090124D01*
X174704926Y-109970865D01*
X174804932Y-109856017D01*
X174900924Y-109745770D01*
X174992740Y-109640313D01*
X175080214Y-109539835D01*
X175163182Y-109444524D01*
X175241480Y-109354570D01*
X175314943Y-109270161D01*
X175383406Y-109191487D01*
X175446705Y-109118736D01*
X175504676Y-109052097D01*
X175557153Y-108991759D01*
X175603974Y-108937912D01*
X175644972Y-108890744D01*
X175679984Y-108850443D01*
X175708845Y-108817200D01*
X175731390Y-108791202D01*
X175747456Y-108772639D01*
X175756877Y-108761700D01*
X175759541Y-108758530D01*
X175754327Y-108758293D01*
X175738994Y-108758063D01*
X175714008Y-108757839D01*
X175679833Y-108757624D01*
X175636934Y-108757418D01*
X175585777Y-108757222D01*
X175526825Y-108757037D01*
X175460544Y-108756865D01*
X175387398Y-108756705D01*
X175307853Y-108756559D01*
X175222374Y-108756428D01*
X175131424Y-108756313D01*
X175035470Y-108756214D01*
X174934976Y-108756134D01*
X174830407Y-108756072D01*
X174722227Y-108756030D01*
X174610902Y-108756008D01*
X174530552Y-108756006D01*
X173301562Y-108756053D01*
X170793312Y-111537549D01*
X170659963Y-111685423D01*
X170528264Y-111831462D01*
X170398399Y-111975463D01*
X170270550Y-112117225D01*
X170144897Y-112256547D01*
X170021624Y-112393225D01*
X169900913Y-112527060D01*
X169782945Y-112657848D01*
X169667903Y-112785388D01*
X169555968Y-112909479D01*
X169447323Y-113029918D01*
X169342149Y-113146504D01*
X169240630Y-113259035D01*
X169142946Y-113367310D01*
X169049280Y-113471125D01*
X168959814Y-113570281D01*
X168874730Y-113664574D01*
X168794210Y-113753804D01*
X168718436Y-113837768D01*
X168647591Y-113916264D01*
X168581855Y-113989092D01*
X168521412Y-114056048D01*
X168466443Y-114116932D01*
X168417130Y-114171542D01*
X168373655Y-114219675D01*
X168336201Y-114261130D01*
X168304950Y-114295706D01*
X168280083Y-114323200D01*
X168261782Y-114343411D01*
X168250231Y-114356137D01*
X168245835Y-114360938D01*
X168220688Y-114386488D01*
X168199404Y-114404533D01*
X168179801Y-114416255D01*
X168159697Y-114422837D01*
X168136909Y-114425459D01*
X168126312Y-114425664D01*
X168100508Y-114424391D01*
X168080846Y-114420025D01*
X168067603Y-114414227D01*
X168042755Y-114396610D01*
X168020096Y-114372494D01*
X168003323Y-114345858D01*
X168002619Y-114344343D01*
X168001991Y-114342408D01*
X168001394Y-114339260D01*
X168000828Y-114334637D01*
X168000291Y-114328278D01*
X167999783Y-114319920D01*
X167999303Y-114309304D01*
X167998850Y-114296167D01*
X167998423Y-114280248D01*
X167998022Y-114261285D01*
X167997646Y-114239017D01*
X167997294Y-114213182D01*
X167996965Y-114183520D01*
X167996659Y-114149768D01*
X167996374Y-114111665D01*
X167996110Y-114068950D01*
X167995867Y-114021361D01*
X167995642Y-113968637D01*
X167995437Y-113910516D01*
X167995249Y-113846737D01*
X167995078Y-113777039D01*
X167994924Y-113701159D01*
X167994784Y-113618837D01*
X167994660Y-113529812D01*
X167994549Y-113433820D01*
X167994452Y-113330602D01*
X167994367Y-113219896D01*
X167994293Y-113101439D01*
X167994230Y-112974972D01*
X167994178Y-112840232D01*
X167994134Y-112696958D01*
X167994099Y-112544888D01*
X167994071Y-112383761D01*
X167994050Y-112213316D01*
X167994036Y-112033291D01*
X167994026Y-111843424D01*
X167994021Y-111643455D01*
X167994020Y-111467937D01*
X167994028Y-111294376D01*
X167994050Y-111123407D01*
X167994086Y-110955338D01*
X167994136Y-110790476D01*
X167994200Y-110629129D01*
X167994276Y-110471604D01*
X167994365Y-110318210D01*
X167994466Y-110169253D01*
X167994578Y-110025042D01*
X167994702Y-109885883D01*
X167994836Y-109752085D01*
X167994981Y-109623955D01*
X167995135Y-109501801D01*
X167995299Y-109385929D01*
X167995472Y-109276649D01*
X167995654Y-109174267D01*
X167995844Y-109079091D01*
X167996041Y-108991429D01*
X167996245Y-108911588D01*
X167996457Y-108839876D01*
X167996675Y-108776600D01*
X167996898Y-108722068D01*
X167997128Y-108676587D01*
X167997362Y-108640466D01*
X167997601Y-108614011D01*
X167997844Y-108597531D01*
X167998086Y-108591354D01*
X168008068Y-108565209D01*
X168025579Y-108539383D01*
X168048045Y-108517345D01*
X168058588Y-108509895D01*
X168083979Y-108494020D01*
X170216520Y-108494020D01*
X170237687Y-108505463D01*
X170266290Y-108525815D01*
X170289913Y-108552154D01*
X170302242Y-108573395D01*
X170303338Y-108576186D01*
X170304349Y-108579774D01*
X170305278Y-108584589D01*
X170306129Y-108591058D01*
X170306906Y-108599611D01*
X170307614Y-108610676D01*
X170308257Y-108624681D01*
X170308838Y-108642055D01*
X170309362Y-108663227D01*
X170309834Y-108688626D01*
X170310256Y-108718679D01*
X170310634Y-108753816D01*
X170310971Y-108794464D01*
X170311271Y-108841053D01*
X170311540Y-108894012D01*
X170311780Y-108953768D01*
X170311996Y-109020751D01*
X170312192Y-109095388D01*
X170312373Y-109178109D01*
X170312541Y-109269342D01*
X170312703Y-109369516D01*
X170312860Y-109479059D01*
X170313019Y-109598400D01*
X170313154Y-109705570D01*
X170313325Y-109835604D01*
X170313492Y-109955479D01*
X170313643Y-110065620D01*
X170313765Y-110166451D01*
X170313847Y-110258397D01*
X170313876Y-110341883D01*
X170313840Y-110417332D01*
X170313726Y-110485170D01*
X170313523Y-110545820D01*
X170313218Y-110599708D01*
X170312799Y-110647259D01*
X170312254Y-110688896D01*
X170311570Y-110725044D01*
X170310735Y-110756127D01*
X170309738Y-110782571D01*
X170308564Y-110804800D01*
X170307204Y-110823238D01*
X170305643Y-110838310D01*
X170303870Y-110850440D01*
X170301873Y-110860053D01*
X170299639Y-110867574D01*
X170297157Y-110873427D01*
X170294413Y-110878036D01*
X170291396Y-110881826D01*
X170288093Y-110885222D01*
X170284493Y-110888648D01*
X170280582Y-110892529D01*
X170278847Y-110894393D01*
X170253810Y-110917477D01*
X170227390Y-110931493D01*
X170196554Y-110937784D01*
X170179479Y-110938456D01*
X170145457Y-110935356D01*
X170117298Y-110925165D01*
X170091983Y-110906545D01*
X170080198Y-110894490D01*
X170076020Y-110890131D01*
X170072180Y-110886395D01*
X170068664Y-110882839D01*
X170065458Y-110879023D01*
X170062548Y-110874504D01*
X170059919Y-110868841D01*
X170057557Y-110861593D01*
X170055448Y-110852318D01*
X170053578Y-110840574D01*
X170051932Y-110825920D01*
X170050497Y-110807915D01*
X170049258Y-110786116D01*
X170048201Y-110760083D01*
X170047311Y-110729373D01*
X170046575Y-110693546D01*
X170045978Y-110652159D01*
X170045506Y-110604771D01*
X170045145Y-110550941D01*
X170044880Y-110490226D01*
X170044698Y-110422186D01*
X170044584Y-110346379D01*
X170044524Y-110262363D01*
X170044504Y-110169697D01*
X170044509Y-110067939D01*
X170044526Y-109956647D01*
X170044540Y-109835381D01*
X170044541Y-109786872D01*
X170044541Y-108755958D01*
X168261250Y-108755958D01*
X168261250Y-111348875D01*
X168261254Y-111513989D01*
X168261267Y-111676432D01*
X168261288Y-111835883D01*
X168261318Y-111992023D01*
X168261356Y-112144530D01*
X168261401Y-112293084D01*
X168261453Y-112437367D01*
X168261512Y-112577058D01*
X168261579Y-112711836D01*
X168261651Y-112841382D01*
X168261730Y-112965376D01*
X168261815Y-113083498D01*
X168261906Y-113195427D01*
X168262002Y-113300843D01*
X168262103Y-113399428D01*
X168262209Y-113490859D01*
X168262320Y-113574818D01*
X168262435Y-113650984D01*
X168262554Y-113719038D01*
X168262676Y-113778659D01*
X168262803Y-113829527D01*
X168262933Y-113871322D01*
X168263065Y-113903725D01*
X168263201Y-113926414D01*
X168263338Y-113939071D01*
X168263439Y-113941791D01*
X168267071Y-113937895D01*
X168277609Y-113926338D01*
X168294873Y-113907323D01*
X168318681Y-113881048D01*
X168348854Y-113847715D01*
X168385210Y-113807523D01*
X168427568Y-113760673D01*
X168475748Y-113707366D01*
X168529568Y-113647801D01*
X168588849Y-113582178D01*
X168653408Y-113510699D01*
X168723066Y-113433563D01*
X168797642Y-113350971D01*
X168876954Y-113263122D01*
X168960822Y-113170218D01*
X169049065Y-113072459D01*
X169141503Y-112970044D01*
X169237954Y-112863175D01*
X169338238Y-112752051D01*
X169442173Y-112636873D01*
X169549580Y-112517841D01*
X169660277Y-112395155D01*
X169774084Y-112269016D01*
X169890819Y-112139624D01*
X170010302Y-112007179D01*
X170132352Y-111871882D01*
X170256788Y-111733933D01*
X170383430Y-111593532D01*
X170512096Y-111450879D01*
X170642607Y-111306175D01*
X170711219Y-111230098D01*
X170871998Y-111051830D01*
X171025840Y-110881265D01*
X171172893Y-110718240D01*
X171313303Y-110562593D01*
X171447217Y-110414163D01*
X171574781Y-110272789D01*
X171696143Y-110138307D01*
X171811449Y-110010558D01*
X171920845Y-109889378D01*
X172024478Y-109774606D01*
X172122496Y-109666081D01*
X172215044Y-109563640D01*
X172302269Y-109467122D01*
X172384319Y-109376366D01*
X172461339Y-109291208D01*
X172533476Y-109211489D01*
X172600878Y-109137045D01*
X172663690Y-109067716D01*
X172722060Y-109003339D01*
X172776134Y-108943753D01*
X172826059Y-108888796D01*
X172871982Y-108838305D01*
X172914048Y-108792121D01*
X172952406Y-108750080D01*
X172987201Y-108712021D01*
X173018580Y-108677783D01*
X173046690Y-108647203D01*
X173071678Y-108620119D01*
X173093690Y-108596371D01*
X173112874Y-108575796D01*
X173129374Y-108558233D01*
X173143340Y-108543519D01*
X173154916Y-108531494D01*
X173164250Y-108521995D01*
X173171489Y-108514860D01*
X173176779Y-108509928D01*
X173180266Y-108507038D01*
X173181561Y-108506213D01*
X173206312Y-108494020D01*
X174637577Y-108492669D01*
X174785510Y-108492519D01*
X174923231Y-108492367D01*
X175051112Y-108492222D01*
X175169525Y-108492093D01*
X175278842Y-108491989D01*
X175379434Y-108491920D01*
X175471672Y-108491896D01*
X175555929Y-108491925D01*
D12*
%TO.C,U1*%
X150129000Y-76786000D02*
X150891000Y-76786000D01*
X150129000Y-60784000D02*
X150129000Y-76786000D01*
X150891000Y-60784000D02*
X150129000Y-60784000D01*
D13*
%TO.C,C1*%
X112400000Y-101500000D02*
X112400000Y-80500000D01*
X187400000Y-101500000D02*
X112400000Y-101500000D01*
X187400000Y-80500000D02*
X187400000Y-101500000D01*
X112400000Y-80500000D02*
X187400000Y-80500000D01*
D10*
%TO.C,U6*%
X125800001Y-59750000D02*
X125800001Y-64750000D01*
X124199999Y-59750000D02*
X124199999Y-64750000D01*
X125800001Y-64750000D02*
X124199999Y-64750000D01*
X125800001Y-59750000D02*
X124199999Y-59750000D01*
D14*
X127575001Y-65055001D02*
G75*
G03*
X127575001Y-65055001I-125001J0D01*
G01*
D15*
%TO.C,U5*%
X143550000Y-114550000D02*
X143550000Y-118450000D01*
X148450000Y-114550000D02*
X148450000Y-118450000D01*
D16*
X148695000Y-112295000D02*
G75*
G03*
X148695000Y-112295000I-200000J0D01*
G01*
D15*
%TO.C,U4*%
X151550000Y-114550000D02*
X151550000Y-118450000D01*
X156450000Y-114550000D02*
X156450000Y-118450000D01*
D16*
X156695000Y-112295000D02*
G75*
G03*
X156695000Y-112295000I-200000J0D01*
G01*
D13*
%TO.C,U3*%
X139100000Y-110610000D02*
X141550000Y-110610000D01*
X140900000Y-107390000D02*
X139100000Y-107390000D01*
%TO.C,U2*%
X125850000Y-76780000D02*
X125850000Y-73180000D01*
X125838478Y-73141522D02*
G75*
G03*
X121400000Y-74980000I-1838478J-1838478D01*
G01*
X125838478Y-76818478D02*
G75*
G02*
X121400000Y-74980000I-1838478J1838478D01*
G01*
%TO.C,SW1*%
X175650000Y-59950000D02*
X179350000Y-59950000D01*
X179350000Y-59950000D02*
X179350000Y-66050000D01*
X179350000Y-66050000D02*
X175650000Y-66050000D01*
X175650000Y-66050000D02*
X175650000Y-59950000D01*
%TO.C,R11*%
X144272936Y-109735000D02*
X144727064Y-109735000D01*
X144272936Y-108265000D02*
X144727064Y-108265000D01*
%TO.C,R10*%
X134227064Y-107765000D02*
X133772936Y-107765000D01*
X134227064Y-109235000D02*
X133772936Y-109235000D01*
%TO.C,R9*%
X137772936Y-78485000D02*
X138227064Y-78485000D01*
X137772936Y-77015000D02*
X138227064Y-77015000D01*
%TO.C,R8*%
X133272936Y-78485000D02*
X133727064Y-78485000D01*
X133272936Y-77015000D02*
X133727064Y-77015000D01*
%TO.C,R7*%
X145727064Y-74515000D02*
X145272936Y-74515000D01*
X145727064Y-75985000D02*
X145272936Y-75985000D01*
%TO.C,R6*%
X146727064Y-77265000D02*
X146272936Y-77265000D01*
X146727064Y-78735000D02*
X146272936Y-78735000D01*
%TO.C,R5*%
X162927064Y-109415000D02*
X162472936Y-109415000D01*
X162927064Y-110885000D02*
X162472936Y-110885000D01*
%TO.C,R4*%
X139515000Y-61772936D02*
X139515000Y-62227064D01*
X140985000Y-61772936D02*
X140985000Y-62227064D01*
%TO.C,R3*%
X142265000Y-61772936D02*
X142265000Y-62227064D01*
X143735000Y-61772936D02*
X143735000Y-62227064D01*
%TO.C,R2*%
X137985000Y-62227064D02*
X137985000Y-61772936D01*
X136515000Y-62227064D02*
X136515000Y-61772936D01*
%TO.C,R1*%
X133522936Y-65485000D02*
X133977064Y-65485000D01*
X133522936Y-64015000D02*
X133977064Y-64015000D01*
%TO.C,J7*%
X184170000Y-66880000D02*
X185500000Y-66880000D01*
X184170000Y-68210000D02*
X184170000Y-66880000D01*
X184170000Y-69480000D02*
X186830000Y-69480000D01*
X186830000Y-69480000D02*
X186830000Y-79700000D01*
X184170000Y-69480000D02*
X184170000Y-79700000D01*
X184170000Y-79700000D02*
X186830000Y-79700000D01*
%TO.C,J6*%
X179920000Y-66920000D02*
X181250000Y-66920000D01*
X179920000Y-68250000D02*
X179920000Y-66920000D01*
X179920000Y-69520000D02*
X182580000Y-69520000D01*
X182580000Y-69520000D02*
X182580000Y-79740000D01*
X179920000Y-69520000D02*
X179920000Y-79740000D01*
X179920000Y-79740000D02*
X182580000Y-79740000D01*
%TO.C,J5*%
X144580000Y-65170000D02*
X144580000Y-66500000D01*
X143250000Y-65170000D02*
X144580000Y-65170000D01*
X141980000Y-65170000D02*
X141980000Y-67830000D01*
X141980000Y-67830000D02*
X136840000Y-67830000D01*
X141980000Y-65170000D02*
X136840000Y-65170000D01*
X136840000Y-65170000D02*
X136840000Y-67830000D01*
%TO.C,J4*%
X144580000Y-69420000D02*
X144580000Y-70750000D01*
X143250000Y-69420000D02*
X144580000Y-69420000D01*
X141980000Y-69420000D02*
X141980000Y-72080000D01*
X141980000Y-72080000D02*
X136840000Y-72080000D01*
X141980000Y-69420000D02*
X136840000Y-69420000D01*
X136840000Y-69420000D02*
X136840000Y-72080000D01*
%TO.C,J3*%
X150170000Y-105680000D02*
X150170000Y-104350000D01*
X151500000Y-105680000D02*
X150170000Y-105680000D01*
X152770000Y-105680000D02*
X152770000Y-103020000D01*
X152770000Y-103020000D02*
X157910000Y-103020000D01*
X152770000Y-105680000D02*
X157910000Y-105680000D01*
X157910000Y-105680000D02*
X157910000Y-103020000D01*
%TO.C,J2*%
X167080000Y-103020000D02*
X167080000Y-104350000D01*
X165750000Y-103020000D02*
X167080000Y-103020000D01*
X164480000Y-103020000D02*
X164480000Y-105680000D01*
X164480000Y-105680000D02*
X159340000Y-105680000D01*
X164480000Y-103020000D02*
X159340000Y-103020000D01*
X159340000Y-103020000D02*
X159340000Y-105680000D01*
%TO.C,J1*%
X124590000Y-116210000D02*
X127410000Y-116210000D01*
X127410000Y-116210000D02*
X128710000Y-114510000D01*
X124590000Y-116210000D02*
X123290000Y-114510000D01*
X128710000Y-114510000D02*
X128710000Y-105790000D01*
X123290000Y-105790000D02*
X128710000Y-105790000D01*
X123290000Y-114510000D02*
X123290000Y-105790000D01*
%TO.C,D1*%
X119010000Y-111330000D02*
X117550000Y-111330000D01*
X119010000Y-108170000D02*
X116850000Y-108170000D01*
X119010000Y-108170000D02*
X119010000Y-109100000D01*
X119010000Y-111330000D02*
X119010000Y-110400000D01*
%TO.C,C4*%
X126590000Y-67288748D02*
X126590000Y-68711252D01*
X128410000Y-67288748D02*
X128410000Y-68711252D01*
%TO.C,C3*%
X140211252Y-103590000D02*
X138788748Y-103590000D01*
X140211252Y-105410000D02*
X138788748Y-105410000D01*
%TO.C,C2*%
X146340000Y-59788748D02*
X146340000Y-61211252D01*
X148160000Y-59788748D02*
X148160000Y-61211252D01*
%TO.C,U1*%
D10*
X158638095Y-70142380D02*
X158638095Y-70951904D01*
X158685714Y-71047142D01*
X158733333Y-71094761D01*
X158828571Y-71142380D01*
X159019047Y-71142380D01*
X159114285Y-71094761D01*
X159161904Y-71047142D01*
X159209523Y-70951904D01*
X159209523Y-70142380D01*
X160209523Y-71142380D02*
X159638095Y-71142380D01*
X159923809Y-71142380D02*
X159923809Y-70142380D01*
X159828571Y-70285238D01*
X159733333Y-70380476D01*
X159638095Y-70428095D01*
%TO.C,C1*%
X149333333Y-91207142D02*
X149285714Y-91254761D01*
X149142857Y-91302380D01*
X149047619Y-91302380D01*
X148904761Y-91254761D01*
X148809523Y-91159523D01*
X148761904Y-91064285D01*
X148714285Y-90873809D01*
X148714285Y-90730952D01*
X148761904Y-90540476D01*
X148809523Y-90445238D01*
X148904761Y-90350000D01*
X149047619Y-90302380D01*
X149142857Y-90302380D01*
X149285714Y-90350000D01*
X149333333Y-90397619D01*
X150285714Y-91302380D02*
X149714285Y-91302380D01*
X150000000Y-91302380D02*
X150000000Y-90302380D01*
X149904761Y-90445238D01*
X149809523Y-90540476D01*
X149714285Y-90588095D01*
%TO.C,M4*%
X121140476Y-97102380D02*
X121140476Y-96102380D01*
X121473809Y-96816666D01*
X121807142Y-96102380D01*
X121807142Y-97102380D01*
X122711904Y-96435714D02*
X122711904Y-97102380D01*
X122473809Y-96054761D02*
X122235714Y-96769047D01*
X122854761Y-96769047D01*
X177040476Y-91152380D02*
X177040476Y-90152380D01*
X177373809Y-90866666D01*
X177707142Y-90152380D01*
X177707142Y-91152380D01*
X178611904Y-90485714D02*
X178611904Y-91152380D01*
X178373809Y-90104761D02*
X178135714Y-90819047D01*
X178754761Y-90819047D01*
%TO.C,U6*%
X129640595Y-58952380D02*
X129640595Y-59761904D01*
X129688214Y-59857142D01*
X129735833Y-59904761D01*
X129831071Y-59952380D01*
X130021547Y-59952380D01*
X130116785Y-59904761D01*
X130164404Y-59857142D01*
X130212023Y-59761904D01*
X130212023Y-58952380D01*
X131116785Y-58952380D02*
X130926309Y-58952380D01*
X130831071Y-59000000D01*
X130783452Y-59047619D01*
X130688214Y-59190476D01*
X130640595Y-59380952D01*
X130640595Y-59761904D01*
X130688214Y-59857142D01*
X130735833Y-59904761D01*
X130831071Y-59952380D01*
X131021547Y-59952380D01*
X131116785Y-59904761D01*
X131164404Y-59857142D01*
X131212023Y-59761904D01*
X131212023Y-59523809D01*
X131164404Y-59428571D01*
X131116785Y-59380952D01*
X131021547Y-59333333D01*
X130831071Y-59333333D01*
X130735833Y-59380952D01*
X130688214Y-59428571D01*
X130640595Y-59523809D01*
%TO.C,U5*%
X142114040Y-111549154D02*
X142114040Y-112437361D01*
X142166287Y-112541856D01*
X142218535Y-112594103D01*
X142323030Y-112646351D01*
X142532020Y-112646351D01*
X142636515Y-112594103D01*
X142688762Y-112541856D01*
X142741010Y-112437361D01*
X142741010Y-111549154D01*
X143785959Y-111549154D02*
X143263484Y-111549154D01*
X143211237Y-112071628D01*
X143263484Y-112019381D01*
X143367979Y-111967133D01*
X143629217Y-111967133D01*
X143733712Y-112019381D01*
X143785959Y-112071628D01*
X143838207Y-112176123D01*
X143838207Y-112437361D01*
X143785959Y-112541856D01*
X143733712Y-112594103D01*
X143629217Y-112646351D01*
X143367979Y-112646351D01*
X143263484Y-112594103D01*
X143211237Y-112541856D01*
%TO.C,U4*%
X149764040Y-111549154D02*
X149764040Y-112437361D01*
X149816287Y-112541856D01*
X149868535Y-112594103D01*
X149973030Y-112646351D01*
X150182020Y-112646351D01*
X150286515Y-112594103D01*
X150338762Y-112541856D01*
X150391010Y-112437361D01*
X150391010Y-111549154D01*
X151383712Y-111914886D02*
X151383712Y-112646351D01*
X151122474Y-111496906D02*
X150861237Y-112280618D01*
X151540454Y-112280618D01*
%TO.C,U3*%
X139238095Y-111102380D02*
X139238095Y-111911904D01*
X139285714Y-112007142D01*
X139333333Y-112054761D01*
X139428571Y-112102380D01*
X139619047Y-112102380D01*
X139714285Y-112054761D01*
X139761904Y-112007142D01*
X139809523Y-111911904D01*
X139809523Y-111102380D01*
X140190476Y-111102380D02*
X140809523Y-111102380D01*
X140476190Y-111483333D01*
X140619047Y-111483333D01*
X140714285Y-111530952D01*
X140761904Y-111578571D01*
X140809523Y-111673809D01*
X140809523Y-111911904D01*
X140761904Y-112007142D01*
X140714285Y-112054761D01*
X140619047Y-112102380D01*
X140333333Y-112102380D01*
X140238095Y-112054761D01*
X140190476Y-112007142D01*
%TO.C,U2*%
X121588095Y-71102380D02*
X121588095Y-71911904D01*
X121635714Y-72007142D01*
X121683333Y-72054761D01*
X121778571Y-72102380D01*
X121969047Y-72102380D01*
X122064285Y-72054761D01*
X122111904Y-72007142D01*
X122159523Y-71911904D01*
X122159523Y-71102380D01*
X122588095Y-71197619D02*
X122635714Y-71150000D01*
X122730952Y-71102380D01*
X122969047Y-71102380D01*
X123064285Y-71150000D01*
X123111904Y-71197619D01*
X123159523Y-71292857D01*
X123159523Y-71388095D01*
X123111904Y-71530952D01*
X122540476Y-72102380D01*
X123159523Y-72102380D01*
%TO.C,SW1*%
X176266666Y-63254761D02*
X176409523Y-63302380D01*
X176647619Y-63302380D01*
X176742857Y-63254761D01*
X176790476Y-63207142D01*
X176838095Y-63111904D01*
X176838095Y-63016666D01*
X176790476Y-62921428D01*
X176742857Y-62873809D01*
X176647619Y-62826190D01*
X176457142Y-62778571D01*
X176361904Y-62730952D01*
X176314285Y-62683333D01*
X176266666Y-62588095D01*
X176266666Y-62492857D01*
X176314285Y-62397619D01*
X176361904Y-62350000D01*
X176457142Y-62302380D01*
X176695238Y-62302380D01*
X176838095Y-62350000D01*
X177171428Y-62302380D02*
X177409523Y-63302380D01*
X177600000Y-62588095D01*
X177790476Y-63302380D01*
X178028571Y-62302380D01*
X178933333Y-63302380D02*
X178361904Y-63302380D01*
X178647619Y-63302380D02*
X178647619Y-62302380D01*
X178552380Y-62445238D01*
X178457142Y-62540476D01*
X178361904Y-62588095D01*
%TO.C,R11*%
X145357142Y-111352380D02*
X145023809Y-110876190D01*
X144785714Y-111352380D02*
X144785714Y-110352380D01*
X145166666Y-110352380D01*
X145261904Y-110400000D01*
X145309523Y-110447619D01*
X145357142Y-110542857D01*
X145357142Y-110685714D01*
X145309523Y-110780952D01*
X145261904Y-110828571D01*
X145166666Y-110876190D01*
X144785714Y-110876190D01*
X146309523Y-111352380D02*
X145738095Y-111352380D01*
X146023809Y-111352380D02*
X146023809Y-110352380D01*
X145928571Y-110495238D01*
X145833333Y-110590476D01*
X145738095Y-110638095D01*
X147261904Y-111352380D02*
X146690476Y-111352380D01*
X146976190Y-111352380D02*
X146976190Y-110352380D01*
X146880952Y-110495238D01*
X146785714Y-110590476D01*
X146690476Y-110638095D01*
%TO.C,R10*%
X133357142Y-110602380D02*
X133023809Y-110126190D01*
X132785714Y-110602380D02*
X132785714Y-109602380D01*
X133166666Y-109602380D01*
X133261904Y-109650000D01*
X133309523Y-109697619D01*
X133357142Y-109792857D01*
X133357142Y-109935714D01*
X133309523Y-110030952D01*
X133261904Y-110078571D01*
X133166666Y-110126190D01*
X132785714Y-110126190D01*
X134309523Y-110602380D02*
X133738095Y-110602380D01*
X134023809Y-110602380D02*
X134023809Y-109602380D01*
X133928571Y-109745238D01*
X133833333Y-109840476D01*
X133738095Y-109888095D01*
X134928571Y-109602380D02*
X135023809Y-109602380D01*
X135119047Y-109650000D01*
X135166666Y-109697619D01*
X135214285Y-109792857D01*
X135261904Y-109983333D01*
X135261904Y-110221428D01*
X135214285Y-110411904D01*
X135166666Y-110507142D01*
X135119047Y-110554761D01*
X135023809Y-110602380D01*
X134928571Y-110602380D01*
X134833333Y-110554761D01*
X134785714Y-110507142D01*
X134738095Y-110411904D01*
X134690476Y-110221428D01*
X134690476Y-109983333D01*
X134738095Y-109792857D01*
X134785714Y-109697619D01*
X134833333Y-109650000D01*
X134928571Y-109602380D01*
%TO.C,R9*%
X137933333Y-79902380D02*
X137600000Y-79426190D01*
X137361904Y-79902380D02*
X137361904Y-78902380D01*
X137742857Y-78902380D01*
X137838095Y-78950000D01*
X137885714Y-78997619D01*
X137933333Y-79092857D01*
X137933333Y-79235714D01*
X137885714Y-79330952D01*
X137838095Y-79378571D01*
X137742857Y-79426190D01*
X137361904Y-79426190D01*
X138409523Y-79902380D02*
X138600000Y-79902380D01*
X138695238Y-79854761D01*
X138742857Y-79807142D01*
X138838095Y-79664285D01*
X138885714Y-79473809D01*
X138885714Y-79092857D01*
X138838095Y-78997619D01*
X138790476Y-78950000D01*
X138695238Y-78902380D01*
X138504761Y-78902380D01*
X138409523Y-78950000D01*
X138361904Y-78997619D01*
X138314285Y-79092857D01*
X138314285Y-79330952D01*
X138361904Y-79426190D01*
X138409523Y-79473809D01*
X138504761Y-79521428D01*
X138695238Y-79521428D01*
X138790476Y-79473809D01*
X138838095Y-79426190D01*
X138885714Y-79330952D01*
%TO.C,R8*%
X133433333Y-79902380D02*
X133100000Y-79426190D01*
X132861904Y-79902380D02*
X132861904Y-78902380D01*
X133242857Y-78902380D01*
X133338095Y-78950000D01*
X133385714Y-78997619D01*
X133433333Y-79092857D01*
X133433333Y-79235714D01*
X133385714Y-79330952D01*
X133338095Y-79378571D01*
X133242857Y-79426190D01*
X132861904Y-79426190D01*
X134004761Y-79330952D02*
X133909523Y-79283333D01*
X133861904Y-79235714D01*
X133814285Y-79140476D01*
X133814285Y-79092857D01*
X133861904Y-78997619D01*
X133909523Y-78950000D01*
X134004761Y-78902380D01*
X134195238Y-78902380D01*
X134290476Y-78950000D01*
X134338095Y-78997619D01*
X134385714Y-79092857D01*
X134385714Y-79140476D01*
X134338095Y-79235714D01*
X134290476Y-79283333D01*
X134195238Y-79330952D01*
X134004761Y-79330952D01*
X133909523Y-79378571D01*
X133861904Y-79426190D01*
X133814285Y-79521428D01*
X133814285Y-79711904D01*
X133861904Y-79807142D01*
X133909523Y-79854761D01*
X134004761Y-79902380D01*
X134195238Y-79902380D01*
X134290476Y-79854761D01*
X134338095Y-79807142D01*
X134385714Y-79711904D01*
X134385714Y-79521428D01*
X134338095Y-79426190D01*
X134290476Y-79378571D01*
X134195238Y-79330952D01*
%TO.C,R7*%
X145333333Y-74252380D02*
X145000000Y-73776190D01*
X144761904Y-74252380D02*
X144761904Y-73252380D01*
X145142857Y-73252380D01*
X145238095Y-73300000D01*
X145285714Y-73347619D01*
X145333333Y-73442857D01*
X145333333Y-73585714D01*
X145285714Y-73680952D01*
X145238095Y-73728571D01*
X145142857Y-73776190D01*
X144761904Y-73776190D01*
X145666666Y-73252380D02*
X146333333Y-73252380D01*
X145904761Y-74252380D01*
%TO.C,R6*%
X146333333Y-80102380D02*
X146000000Y-79626190D01*
X145761904Y-80102380D02*
X145761904Y-79102380D01*
X146142857Y-79102380D01*
X146238095Y-79150000D01*
X146285714Y-79197619D01*
X146333333Y-79292857D01*
X146333333Y-79435714D01*
X146285714Y-79530952D01*
X146238095Y-79578571D01*
X146142857Y-79626190D01*
X145761904Y-79626190D01*
X147190476Y-79102380D02*
X147000000Y-79102380D01*
X146904761Y-79150000D01*
X146857142Y-79197619D01*
X146761904Y-79340476D01*
X146714285Y-79530952D01*
X146714285Y-79911904D01*
X146761904Y-80007142D01*
X146809523Y-80054761D01*
X146904761Y-80102380D01*
X147095238Y-80102380D01*
X147190476Y-80054761D01*
X147238095Y-80007142D01*
X147285714Y-79911904D01*
X147285714Y-79673809D01*
X147238095Y-79578571D01*
X147190476Y-79530952D01*
X147095238Y-79483333D01*
X146904761Y-79483333D01*
X146809523Y-79530952D01*
X146761904Y-79578571D01*
X146714285Y-79673809D01*
%TO.C,R5*%
X162083333Y-112252380D02*
X161750000Y-111776190D01*
X161511904Y-112252380D02*
X161511904Y-111252380D01*
X161892857Y-111252380D01*
X161988095Y-111300000D01*
X162035714Y-111347619D01*
X162083333Y-111442857D01*
X162083333Y-111585714D01*
X162035714Y-111680952D01*
X161988095Y-111728571D01*
X161892857Y-111776190D01*
X161511904Y-111776190D01*
X162988095Y-111252380D02*
X162511904Y-111252380D01*
X162464285Y-111728571D01*
X162511904Y-111680952D01*
X162607142Y-111633333D01*
X162845238Y-111633333D01*
X162940476Y-111680952D01*
X162988095Y-111728571D01*
X163035714Y-111823809D01*
X163035714Y-112061904D01*
X162988095Y-112157142D01*
X162940476Y-112204761D01*
X162845238Y-112252380D01*
X162607142Y-112252380D01*
X162511904Y-112204761D01*
X162464285Y-112157142D01*
%TO.C,R4*%
X140833333Y-60152380D02*
X140500000Y-59676190D01*
X140261904Y-60152380D02*
X140261904Y-59152380D01*
X140642857Y-59152380D01*
X140738095Y-59200000D01*
X140785714Y-59247619D01*
X140833333Y-59342857D01*
X140833333Y-59485714D01*
X140785714Y-59580952D01*
X140738095Y-59628571D01*
X140642857Y-59676190D01*
X140261904Y-59676190D01*
X141690476Y-59485714D02*
X141690476Y-60152380D01*
X141452380Y-59104761D02*
X141214285Y-59819047D01*
X141833333Y-59819047D01*
%TO.C,R3*%
X143883333Y-60202380D02*
X143550000Y-59726190D01*
X143311904Y-60202380D02*
X143311904Y-59202380D01*
X143692857Y-59202380D01*
X143788095Y-59250000D01*
X143835714Y-59297619D01*
X143883333Y-59392857D01*
X143883333Y-59535714D01*
X143835714Y-59630952D01*
X143788095Y-59678571D01*
X143692857Y-59726190D01*
X143311904Y-59726190D01*
X144216666Y-59202380D02*
X144835714Y-59202380D01*
X144502380Y-59583333D01*
X144645238Y-59583333D01*
X144740476Y-59630952D01*
X144788095Y-59678571D01*
X144835714Y-59773809D01*
X144835714Y-60011904D01*
X144788095Y-60107142D01*
X144740476Y-60154761D01*
X144645238Y-60202380D01*
X144359523Y-60202380D01*
X144264285Y-60154761D01*
X144216666Y-60107142D01*
%TO.C,R2*%
X137833333Y-60152380D02*
X137500000Y-59676190D01*
X137261904Y-60152380D02*
X137261904Y-59152380D01*
X137642857Y-59152380D01*
X137738095Y-59200000D01*
X137785714Y-59247619D01*
X137833333Y-59342857D01*
X137833333Y-59485714D01*
X137785714Y-59580952D01*
X137738095Y-59628571D01*
X137642857Y-59676190D01*
X137261904Y-59676190D01*
X138214285Y-59247619D02*
X138261904Y-59200000D01*
X138357142Y-59152380D01*
X138595238Y-59152380D01*
X138690476Y-59200000D01*
X138738095Y-59247619D01*
X138785714Y-59342857D01*
X138785714Y-59438095D01*
X138738095Y-59580952D01*
X138166666Y-60152380D01*
X138785714Y-60152380D01*
%TO.C,R1*%
X133583333Y-63652380D02*
X133250000Y-63176190D01*
X133011904Y-63652380D02*
X133011904Y-62652380D01*
X133392857Y-62652380D01*
X133488095Y-62700000D01*
X133535714Y-62747619D01*
X133583333Y-62842857D01*
X133583333Y-62985714D01*
X133535714Y-63080952D01*
X133488095Y-63128571D01*
X133392857Y-63176190D01*
X133011904Y-63176190D01*
X134535714Y-63652380D02*
X133964285Y-63652380D01*
X134250000Y-63652380D02*
X134250000Y-62652380D01*
X134154761Y-62795238D01*
X134059523Y-62890476D01*
X133964285Y-62938095D01*
%TO.C,J7*%
X187916666Y-66402380D02*
X187916666Y-67116666D01*
X187869047Y-67259523D01*
X187773809Y-67354761D01*
X187630952Y-67402380D01*
X187535714Y-67402380D01*
X188297619Y-66402380D02*
X188964285Y-66402380D01*
X188535714Y-67402380D01*
%TO.C,J6*%
X182666666Y-66152380D02*
X182666666Y-66866666D01*
X182619047Y-67009523D01*
X182523809Y-67104761D01*
X182380952Y-67152380D01*
X182285714Y-67152380D01*
X183571428Y-66152380D02*
X183380952Y-66152380D01*
X183285714Y-66200000D01*
X183238095Y-66247619D01*
X183142857Y-66390476D01*
X183095238Y-66580952D01*
X183095238Y-66961904D01*
X183142857Y-67057142D01*
X183190476Y-67104761D01*
X183285714Y-67152380D01*
X183476190Y-67152380D01*
X183571428Y-67104761D01*
X183619047Y-67057142D01*
X183666666Y-66961904D01*
X183666666Y-66723809D01*
X183619047Y-66628571D01*
X183571428Y-66580952D01*
X183476190Y-66533333D01*
X183285714Y-66533333D01*
X183190476Y-66580952D01*
X183142857Y-66628571D01*
X183095238Y-66723809D01*
%TO.C,J5*%
X145566666Y-65252380D02*
X145566666Y-65966666D01*
X145519047Y-66109523D01*
X145423809Y-66204761D01*
X145280952Y-66252380D01*
X145185714Y-66252380D01*
X146519047Y-65252380D02*
X146042857Y-65252380D01*
X145995238Y-65728571D01*
X146042857Y-65680952D01*
X146138095Y-65633333D01*
X146376190Y-65633333D01*
X146471428Y-65680952D01*
X146519047Y-65728571D01*
X146566666Y-65823809D01*
X146566666Y-66061904D01*
X146519047Y-66157142D01*
X146471428Y-66204761D01*
X146376190Y-66252380D01*
X146138095Y-66252380D01*
X146042857Y-66204761D01*
X145995238Y-66157142D01*
%TO.C,J4*%
X145566666Y-69452380D02*
X145566666Y-70166666D01*
X145519047Y-70309523D01*
X145423809Y-70404761D01*
X145280952Y-70452380D01*
X145185714Y-70452380D01*
X146471428Y-69785714D02*
X146471428Y-70452380D01*
X146233333Y-69404761D02*
X145995238Y-70119047D01*
X146614285Y-70119047D01*
%TO.C,J3*%
X154316666Y-101752380D02*
X154316666Y-102466666D01*
X154269047Y-102609523D01*
X154173809Y-102704761D01*
X154030952Y-102752380D01*
X153935714Y-102752380D01*
X154697619Y-101752380D02*
X155316666Y-101752380D01*
X154983333Y-102133333D01*
X155126190Y-102133333D01*
X155221428Y-102180952D01*
X155269047Y-102228571D01*
X155316666Y-102323809D01*
X155316666Y-102561904D01*
X155269047Y-102657142D01*
X155221428Y-102704761D01*
X155126190Y-102752380D01*
X154840476Y-102752380D01*
X154745238Y-102704761D01*
X154697619Y-102657142D01*
%TO.C,J2*%
X163166666Y-101752380D02*
X163166666Y-102466666D01*
X163119047Y-102609523D01*
X163023809Y-102704761D01*
X162880952Y-102752380D01*
X162785714Y-102752380D01*
X163595238Y-101847619D02*
X163642857Y-101800000D01*
X163738095Y-101752380D01*
X163976190Y-101752380D01*
X164071428Y-101800000D01*
X164119047Y-101847619D01*
X164166666Y-101942857D01*
X164166666Y-102038095D01*
X164119047Y-102180952D01*
X163547619Y-102752380D01*
X164166666Y-102752380D01*
%TO.C,J1*%
X121452380Y-111033333D02*
X122166666Y-111033333D01*
X122309523Y-111080952D01*
X122404761Y-111176190D01*
X122452380Y-111319047D01*
X122452380Y-111414285D01*
X122452380Y-110033333D02*
X122452380Y-110604761D01*
X122452380Y-110319047D02*
X121452380Y-110319047D01*
X121595238Y-110414285D01*
X121690476Y-110509523D01*
X121738095Y-110604761D01*
X126107142Y-105571428D02*
X126107142Y-104428571D01*
X126678571Y-105000000D02*
X125535714Y-105000000D01*
X126107142Y-117571428D02*
X126107142Y-116428571D01*
%TO.C,D1*%
X117511904Y-107672380D02*
X117511904Y-106672380D01*
X117750000Y-106672380D01*
X117892857Y-106720000D01*
X117988095Y-106815238D01*
X118035714Y-106910476D01*
X118083333Y-107100952D01*
X118083333Y-107243809D01*
X118035714Y-107434285D01*
X117988095Y-107529523D01*
X117892857Y-107624761D01*
X117750000Y-107672380D01*
X117511904Y-107672380D01*
X119035714Y-107672380D02*
X118464285Y-107672380D01*
X118750000Y-107672380D02*
X118750000Y-106672380D01*
X118654761Y-106815238D01*
X118559523Y-106910476D01*
X118464285Y-106958095D01*
%TO.C,C4*%
X129833333Y-67857142D02*
X129785714Y-67904761D01*
X129642857Y-67952380D01*
X129547619Y-67952380D01*
X129404761Y-67904761D01*
X129309523Y-67809523D01*
X129261904Y-67714285D01*
X129214285Y-67523809D01*
X129214285Y-67380952D01*
X129261904Y-67190476D01*
X129309523Y-67095238D01*
X129404761Y-67000000D01*
X129547619Y-66952380D01*
X129642857Y-66952380D01*
X129785714Y-67000000D01*
X129833333Y-67047619D01*
X130690476Y-67285714D02*
X130690476Y-67952380D01*
X130452380Y-66904761D02*
X130214285Y-67619047D01*
X130833333Y-67619047D01*
%TO.C,C3*%
X139333333Y-103057142D02*
X139285714Y-103104761D01*
X139142857Y-103152380D01*
X139047619Y-103152380D01*
X138904761Y-103104761D01*
X138809523Y-103009523D01*
X138761904Y-102914285D01*
X138714285Y-102723809D01*
X138714285Y-102580952D01*
X138761904Y-102390476D01*
X138809523Y-102295238D01*
X138904761Y-102200000D01*
X139047619Y-102152380D01*
X139142857Y-102152380D01*
X139285714Y-102200000D01*
X139333333Y-102247619D01*
X139666666Y-102152380D02*
X140285714Y-102152380D01*
X139952380Y-102533333D01*
X140095238Y-102533333D01*
X140190476Y-102580952D01*
X140238095Y-102628571D01*
X140285714Y-102723809D01*
X140285714Y-102961904D01*
X140238095Y-103057142D01*
X140190476Y-103104761D01*
X140095238Y-103152380D01*
X139809523Y-103152380D01*
X139714285Y-103104761D01*
X139666666Y-103057142D01*
%TO.C,C2*%
X149333333Y-59857142D02*
X149285714Y-59904761D01*
X149142857Y-59952380D01*
X149047619Y-59952380D01*
X148904761Y-59904761D01*
X148809523Y-59809523D01*
X148761904Y-59714285D01*
X148714285Y-59523809D01*
X148714285Y-59380952D01*
X148761904Y-59190476D01*
X148809523Y-59095238D01*
X148904761Y-59000000D01*
X149047619Y-58952380D01*
X149142857Y-58952380D01*
X149285714Y-59000000D01*
X149333333Y-59047619D01*
X149714285Y-59047619D02*
X149761904Y-59000000D01*
X149857142Y-58952380D01*
X150095238Y-58952380D01*
X150190476Y-59000000D01*
X150238095Y-59047619D01*
X150285714Y-59142857D01*
X150285714Y-59238095D01*
X150238095Y-59380952D01*
X149666666Y-59952380D01*
X150285714Y-59952380D01*
%TD*%
M02*
