%TF.GenerationSoftware,KiCad,Pcbnew,(5.1.12)-1*%
%TF.CreationDate,2022-02-03T12:58:41+01:00*%
%TF.ProjectId,colibri_01,636f6c69-6272-4695-9f30-312e6b696361,rev?*%
%TF.SameCoordinates,Original*%
%TF.FileFunction,Copper,L1,Top*%
%TF.FilePolarity,Positive*%
%FSLAX46Y46*%
G04 Gerber Fmt 4.6, Leading zero omitted, Abs format (unit mm)*
G04 Created by KiCad (PCBNEW (5.1.12)-1) date 2022-02-03 12:58:41*
%MOMM*%
%LPD*%
G01*
G04 APERTURE LIST*
%TA.AperFunction,NonConductor*%
%ADD10C,0.300000*%
%TD*%
%TA.AperFunction,SMDPad,CuDef*%
%ADD11R,2.500000X1.100000*%
%TD*%
%TA.AperFunction,SMDPad,CuDef*%
%ADD12R,1.100000X2.500000*%
%TD*%
%TA.AperFunction,ComponentPad*%
%ADD13C,3.200000*%
%TD*%
%TA.AperFunction,ComponentPad*%
%ADD14C,0.900000*%
%TD*%
%TA.AperFunction,ComponentPad*%
%ADD15C,8.600000*%
%TD*%
%TA.AperFunction,SMDPad,CuDef*%
%ADD16R,1.060000X0.650000*%
%TD*%
%TA.AperFunction,ComponentPad*%
%ADD17R,1.300000X1.300000*%
%TD*%
%TA.AperFunction,ComponentPad*%
%ADD18C,1.300000*%
%TD*%
%TA.AperFunction,SMDPad,CuDef*%
%ADD19R,1.500000X1.500000*%
%TD*%
%TA.AperFunction,ComponentPad*%
%ADD20O,1.700000X1.700000*%
%TD*%
%TA.AperFunction,ComponentPad*%
%ADD21R,1.700000X1.700000*%
%TD*%
%TA.AperFunction,ComponentPad*%
%ADD22C,3.000000*%
%TD*%
%TA.AperFunction,ComponentPad*%
%ADD23R,3.000000X3.000000*%
%TD*%
%TA.AperFunction,SMDPad,CuDef*%
%ADD24R,0.900000X0.800000*%
%TD*%
%TA.AperFunction,ViaPad*%
%ADD25C,0.800000*%
%TD*%
%TA.AperFunction,Conductor*%
%ADD26C,1.000000*%
%TD*%
%TA.AperFunction,Conductor*%
%ADD27C,0.500000*%
%TD*%
%TA.AperFunction,Conductor*%
%ADD28C,0.250000*%
%TD*%
%TA.AperFunction,Conductor*%
%ADD29C,0.254000*%
%TD*%
%TA.AperFunction,Conductor*%
%ADD30C,0.100000*%
%TD*%
G04 APERTURE END LIST*
D10*
X206385714Y-192328571D02*
X207314285Y-192328571D01*
X206814285Y-192900000D01*
X207028571Y-192900000D01*
X207171428Y-192971428D01*
X207242857Y-193042857D01*
X207314285Y-193185714D01*
X207314285Y-193542857D01*
X207242857Y-193685714D01*
X207171428Y-193757142D01*
X207028571Y-193828571D01*
X206600000Y-193828571D01*
X206457142Y-193757142D01*
X206385714Y-193685714D01*
X208742857Y-193828571D02*
X207885714Y-193828571D01*
X208314285Y-193828571D02*
X208314285Y-192328571D01*
X208171428Y-192542857D01*
X208028571Y-192685714D01*
X207885714Y-192757142D01*
X209385714Y-193685714D02*
X209457142Y-193757142D01*
X209385714Y-193828571D01*
X209314285Y-193757142D01*
X209385714Y-193685714D01*
X209385714Y-193828571D01*
X210385714Y-192328571D02*
X210528571Y-192328571D01*
X210671428Y-192400000D01*
X210742857Y-192471428D01*
X210814285Y-192614285D01*
X210885714Y-192900000D01*
X210885714Y-193257142D01*
X210814285Y-193542857D01*
X210742857Y-193685714D01*
X210671428Y-193757142D01*
X210528571Y-193828571D01*
X210385714Y-193828571D01*
X210242857Y-193757142D01*
X210171428Y-193685714D01*
X210100000Y-193542857D01*
X210028571Y-193257142D01*
X210028571Y-192900000D01*
X210100000Y-192614285D01*
X210171428Y-192471428D01*
X210242857Y-192400000D01*
X210385714Y-192328571D01*
X212314285Y-193828571D02*
X211457142Y-193828571D01*
X211885714Y-193828571D02*
X211885714Y-192328571D01*
X211742857Y-192542857D01*
X211600000Y-192685714D01*
X211457142Y-192757142D01*
X212957142Y-193685714D02*
X213028571Y-193757142D01*
X212957142Y-193828571D01*
X212885714Y-193757142D01*
X212957142Y-193685714D01*
X212957142Y-193828571D01*
X213600000Y-192471428D02*
X213671428Y-192400000D01*
X213814285Y-192328571D01*
X214171428Y-192328571D01*
X214314285Y-192400000D01*
X214385714Y-192471428D01*
X214457142Y-192614285D01*
X214457142Y-192757142D01*
X214385714Y-192971428D01*
X213528571Y-193828571D01*
X214457142Y-193828571D01*
X215385714Y-192328571D02*
X215528571Y-192328571D01*
X215671428Y-192400000D01*
X215742857Y-192471428D01*
X215814285Y-192614285D01*
X215885714Y-192900000D01*
X215885714Y-193257142D01*
X215814285Y-193542857D01*
X215742857Y-193685714D01*
X215671428Y-193757142D01*
X215528571Y-193828571D01*
X215385714Y-193828571D01*
X215242857Y-193757142D01*
X215171428Y-193685714D01*
X215100000Y-193542857D01*
X215028571Y-193257142D01*
X215028571Y-192900000D01*
X215100000Y-192614285D01*
X215171428Y-192471428D01*
X215242857Y-192400000D01*
X215385714Y-192328571D01*
X216457142Y-192471428D02*
X216528571Y-192400000D01*
X216671428Y-192328571D01*
X217028571Y-192328571D01*
X217171428Y-192400000D01*
X217242857Y-192471428D01*
X217314285Y-192614285D01*
X217314285Y-192757142D01*
X217242857Y-192971428D01*
X216385714Y-193828571D01*
X217314285Y-193828571D01*
X217885714Y-192471428D02*
X217957142Y-192400000D01*
X218100000Y-192328571D01*
X218457142Y-192328571D01*
X218600000Y-192400000D01*
X218671428Y-192471428D01*
X218742857Y-192614285D01*
X218742857Y-192757142D01*
X218671428Y-192971428D01*
X217814285Y-193828571D01*
X218742857Y-193828571D01*
X187807142Y-190085714D02*
X187735714Y-190157142D01*
X187521428Y-190228571D01*
X187378571Y-190228571D01*
X187164285Y-190157142D01*
X187021428Y-190014285D01*
X186950000Y-189871428D01*
X186878571Y-189585714D01*
X186878571Y-189371428D01*
X186950000Y-189085714D01*
X187021428Y-188942857D01*
X187164285Y-188800000D01*
X187378571Y-188728571D01*
X187521428Y-188728571D01*
X187735714Y-188800000D01*
X187807142Y-188871428D01*
X188664285Y-190228571D02*
X188521428Y-190157142D01*
X188450000Y-190085714D01*
X188378571Y-189942857D01*
X188378571Y-189514285D01*
X188450000Y-189371428D01*
X188521428Y-189300000D01*
X188664285Y-189228571D01*
X188878571Y-189228571D01*
X189021428Y-189300000D01*
X189092857Y-189371428D01*
X189164285Y-189514285D01*
X189164285Y-189942857D01*
X189092857Y-190085714D01*
X189021428Y-190157142D01*
X188878571Y-190228571D01*
X188664285Y-190228571D01*
X190021428Y-190228571D02*
X189878571Y-190157142D01*
X189807142Y-190014285D01*
X189807142Y-188728571D01*
X190592857Y-190228571D02*
X190592857Y-189228571D01*
X190592857Y-188728571D02*
X190521428Y-188800000D01*
X190592857Y-188871428D01*
X190664285Y-188800000D01*
X190592857Y-188728571D01*
X190592857Y-188871428D01*
X191307142Y-190228571D02*
X191307142Y-188728571D01*
X191307142Y-189300000D02*
X191450000Y-189228571D01*
X191735714Y-189228571D01*
X191878571Y-189300000D01*
X191950000Y-189371428D01*
X192021428Y-189514285D01*
X192021428Y-189942857D01*
X191950000Y-190085714D01*
X191878571Y-190157142D01*
X191735714Y-190228571D01*
X191450000Y-190228571D01*
X191307142Y-190157142D01*
X192664285Y-190228571D02*
X192664285Y-189228571D01*
X192664285Y-189514285D02*
X192735714Y-189371428D01*
X192807142Y-189300000D01*
X192950000Y-189228571D01*
X193092857Y-189228571D01*
X193592857Y-190228571D02*
X193592857Y-189228571D01*
X193592857Y-188728571D02*
X193521428Y-188800000D01*
X193592857Y-188871428D01*
X193664285Y-188800000D01*
X193592857Y-188728571D01*
X193592857Y-188871428D01*
X195307142Y-189228571D02*
X195664285Y-190228571D01*
X196021428Y-189228571D01*
X197378571Y-190228571D02*
X196521428Y-190228571D01*
X196950000Y-190228571D02*
X196950000Y-188728571D01*
X196807142Y-188942857D01*
X196664285Y-189085714D01*
X196521428Y-189157142D01*
X198021428Y-190085714D02*
X198092857Y-190157142D01*
X198021428Y-190228571D01*
X197950000Y-190157142D01*
X198021428Y-190085714D01*
X198021428Y-190228571D01*
X199021428Y-188728571D02*
X199164285Y-188728571D01*
X199307142Y-188800000D01*
X199378571Y-188871428D01*
X199450000Y-189014285D01*
X199521428Y-189300000D01*
X199521428Y-189657142D01*
X199450000Y-189942857D01*
X199378571Y-190085714D01*
X199307142Y-190157142D01*
X199164285Y-190228571D01*
X199021428Y-190228571D01*
X198878571Y-190157142D01*
X198807142Y-190085714D01*
X198735714Y-189942857D01*
X198664285Y-189657142D01*
X198664285Y-189300000D01*
X198735714Y-189014285D01*
X198807142Y-188871428D01*
X198878571Y-188800000D01*
X199021428Y-188728571D01*
D11*
%TO.P,U1,22*%
%TO.N,Net-(U1-Pad22)*%
X150050000Y-73790000D03*
%TO.P,U1,21*%
%TO.N,Net-(U1-Pad21)*%
X150050000Y-71790000D03*
%TO.P,U1,20*%
%TO.N,Net-(U1-Pad20)*%
X150050000Y-69790000D03*
%TO.P,U1,19*%
%TO.N,Net-(U1-Pad19)*%
X150050000Y-67790000D03*
%TO.P,U1,18*%
%TO.N,Net-(U1-Pad18)*%
X150050000Y-65790000D03*
%TO.P,U1,17*%
%TO.N,Net-(U1-Pad17)*%
X150050000Y-63790000D03*
D12*
%TO.P,U1,16*%
%TO.N,TX*%
X165750000Y-76500000D03*
%TO.P,U1,15*%
%TO.N,RX*%
X163750000Y-76500000D03*
%TO.P,U1,14*%
%TO.N,gpio5*%
X161750000Y-76500000D03*
%TO.P,U1,13*%
%TO.N,onewire*%
X159750000Y-76500000D03*
%TO.P,U1,12*%
%TO.N,gpio0*%
X157750000Y-76500000D03*
%TO.P,U1,11*%
%TO.N,gpio2*%
X155750000Y-76500000D03*
%TO.P,U1,10*%
%TO.N,Net-(R6-Pad1)*%
X153750000Y-76500000D03*
%TO.P,U1,9*%
%TO.N,P-*%
X151750000Y-76500000D03*
%TO.P,U1,8*%
%TO.N,3.3v*%
X151750000Y-61100000D03*
%TO.P,U1,7*%
%TO.N,gpio13*%
X153750000Y-61100000D03*
%TO.P,U1,6*%
%TO.N,gpio12*%
X155750000Y-61100000D03*
%TO.P,U1,5*%
%TO.N,gpio14*%
X157750000Y-61100000D03*
%TO.P,U1,4*%
%TO.N,gpio16*%
X159750000Y-61100000D03*
%TO.P,U1,3*%
%TO.N,Net-(R3-Pad2)*%
X161750000Y-61100000D03*
%TO.P,U1,2*%
%TO.N,adc*%
X163750000Y-61100000D03*
%TO.P,U1,1*%
%TO.N,rest*%
X165750000Y-61100000D03*
%TD*%
D13*
%TO.P,C1,2*%
%TO.N,B-*%
X185600000Y-91000000D03*
%TO.P,C1,1*%
%TO.N,B+*%
X114200000Y-91000000D03*
%TD*%
D14*
%TO.P,M4,1*%
%TO.N,N/C*%
X124230419Y-88969581D03*
X121950000Y-88025000D03*
X119669581Y-88969581D03*
X118725000Y-91250000D03*
X119669581Y-93530419D03*
X121950000Y-94475000D03*
X124230419Y-93530419D03*
X125175000Y-91250000D03*
D15*
X121950000Y-91250000D03*
%TD*%
D14*
%TO.P,M4,1*%
%TO.N,N/C*%
X180130419Y-83069581D03*
X177850000Y-82125000D03*
X175569581Y-83069581D03*
X174625000Y-85350000D03*
X175569581Y-87630419D03*
X177850000Y-88575000D03*
X180130419Y-87630419D03*
X181075000Y-85350000D03*
D15*
X177850000Y-85350000D03*
%TD*%
%TO.P,U6,1*%
%TO.N,3.3v*%
%TA.AperFunction,SMDPad,CuDef*%
G36*
G01*
X128350000Y-64505000D02*
X126550000Y-64505000D01*
G75*
G02*
X126200000Y-64155000I0J350000D01*
G01*
X126200000Y-64155000D01*
G75*
G02*
X126550000Y-63805000I350000J0D01*
G01*
X128350000Y-63805000D01*
G75*
G02*
X128700000Y-64155000I0J-350000D01*
G01*
X128700000Y-64155000D01*
G75*
G02*
X128350000Y-64505000I-350000J0D01*
G01*
G37*
%TD.AperFunction*%
%TO.P,U6,2*%
%TO.N,P-*%
%TA.AperFunction,SMDPad,CuDef*%
G36*
G01*
X128350000Y-63235000D02*
X126550000Y-63235000D01*
G75*
G02*
X126200000Y-62885000I0J350000D01*
G01*
X126200000Y-62885000D01*
G75*
G02*
X126550000Y-62535000I350000J0D01*
G01*
X128350000Y-62535000D01*
G75*
G02*
X128700000Y-62885000I0J-350000D01*
G01*
X128700000Y-62885000D01*
G75*
G02*
X128350000Y-63235000I-350000J0D01*
G01*
G37*
%TD.AperFunction*%
%TO.P,U6,3*%
%TA.AperFunction,SMDPad,CuDef*%
G36*
G01*
X128350000Y-61965000D02*
X126550000Y-61965000D01*
G75*
G02*
X126200000Y-61615000I0J350000D01*
G01*
X126200000Y-61615000D01*
G75*
G02*
X126550000Y-61265000I350000J0D01*
G01*
X128350000Y-61265000D01*
G75*
G02*
X128700000Y-61615000I0J-350000D01*
G01*
X128700000Y-61615000D01*
G75*
G02*
X128350000Y-61965000I-350000J0D01*
G01*
G37*
%TD.AperFunction*%
%TO.P,U6,4*%
%TO.N,Net-(U6-Pad4)*%
%TA.AperFunction,SMDPad,CuDef*%
G36*
G01*
X128350000Y-60695000D02*
X126550000Y-60695000D01*
G75*
G02*
X126200000Y-60345000I0J350000D01*
G01*
X126200000Y-60345000D01*
G75*
G02*
X126550000Y-59995000I350000J0D01*
G01*
X128350000Y-59995000D01*
G75*
G02*
X128700000Y-60345000I0J-350000D01*
G01*
X128700000Y-60345000D01*
G75*
G02*
X128350000Y-60695000I-350000J0D01*
G01*
G37*
%TD.AperFunction*%
%TO.P,U6,8*%
%TO.N,B+*%
%TA.AperFunction,SMDPad,CuDef*%
G36*
G01*
X123450000Y-64505000D02*
X121650000Y-64505000D01*
G75*
G02*
X121300000Y-64155000I0J350000D01*
G01*
X121300000Y-64155000D01*
G75*
G02*
X121650000Y-63805000I350000J0D01*
G01*
X123450000Y-63805000D01*
G75*
G02*
X123800000Y-64155000I0J-350000D01*
G01*
X123800000Y-64155000D01*
G75*
G02*
X123450000Y-64505000I-350000J0D01*
G01*
G37*
%TD.AperFunction*%
%TO.P,U6,7*%
%TO.N,P-*%
%TA.AperFunction,SMDPad,CuDef*%
G36*
G01*
X123450000Y-63235000D02*
X121650000Y-63235000D01*
G75*
G02*
X121300000Y-62885000I0J350000D01*
G01*
X121300000Y-62885000D01*
G75*
G02*
X121650000Y-62535000I350000J0D01*
G01*
X123450000Y-62535000D01*
G75*
G02*
X123800000Y-62885000I0J-350000D01*
G01*
X123800000Y-62885000D01*
G75*
G02*
X123450000Y-63235000I-350000J0D01*
G01*
G37*
%TD.AperFunction*%
%TO.P,U6,6*%
%TA.AperFunction,SMDPad,CuDef*%
G36*
G01*
X123450000Y-61965000D02*
X121650000Y-61965000D01*
G75*
G02*
X121300000Y-61615000I0J350000D01*
G01*
X121300000Y-61615000D01*
G75*
G02*
X121650000Y-61265000I350000J0D01*
G01*
X123450000Y-61265000D01*
G75*
G02*
X123800000Y-61615000I0J-350000D01*
G01*
X123800000Y-61615000D01*
G75*
G02*
X123450000Y-61965000I-350000J0D01*
G01*
G37*
%TD.AperFunction*%
%TO.P,U6,5*%
%TO.N,Net-(U6-Pad5)*%
%TA.AperFunction,SMDPad,CuDef*%
G36*
G01*
X123450000Y-60695000D02*
X121650000Y-60695000D01*
G75*
G02*
X121300000Y-60345000I0J350000D01*
G01*
X121300000Y-60345000D01*
G75*
G02*
X121650000Y-59995000I350000J0D01*
G01*
X123450000Y-59995000D01*
G75*
G02*
X123800000Y-60345000I0J-350000D01*
G01*
X123800000Y-60345000D01*
G75*
G02*
X123450000Y-60695000I-350000J0D01*
G01*
G37*
%TD.AperFunction*%
%TD*%
%TO.P,U5,1*%
%TO.N,P-*%
%TA.AperFunction,SMDPad,CuDef*%
G36*
G01*
X147651300Y-113085000D02*
X148158700Y-113085000D01*
G75*
G02*
X148200000Y-113126300I0J-41300D01*
G01*
X148200000Y-114623700D01*
G75*
G02*
X148158700Y-114665000I-41300J0D01*
G01*
X147651300Y-114665000D01*
G75*
G02*
X147610000Y-114623700I0J41300D01*
G01*
X147610000Y-113126300D01*
G75*
G02*
X147651300Y-113085000I41300J0D01*
G01*
G37*
%TD.AperFunction*%
%TO.P,U5,2*%
%TA.AperFunction,SMDPad,CuDef*%
G36*
G01*
X146381300Y-113085000D02*
X146888700Y-113085000D01*
G75*
G02*
X146930000Y-113126300I0J-41300D01*
G01*
X146930000Y-114623700D01*
G75*
G02*
X146888700Y-114665000I-41300J0D01*
G01*
X146381300Y-114665000D01*
G75*
G02*
X146340000Y-114623700I0J41300D01*
G01*
X146340000Y-113126300D01*
G75*
G02*
X146381300Y-113085000I41300J0D01*
G01*
G37*
%TD.AperFunction*%
%TO.P,U5,3*%
%TA.AperFunction,SMDPad,CuDef*%
G36*
G01*
X145111300Y-113085000D02*
X145618700Y-113085000D01*
G75*
G02*
X145660000Y-113126300I0J-41300D01*
G01*
X145660000Y-114623700D01*
G75*
G02*
X145618700Y-114665000I-41300J0D01*
G01*
X145111300Y-114665000D01*
G75*
G02*
X145070000Y-114623700I0J41300D01*
G01*
X145070000Y-113126300D01*
G75*
G02*
X145111300Y-113085000I41300J0D01*
G01*
G37*
%TD.AperFunction*%
%TO.P,U5,4*%
%TO.N,Net-(U3-Pad3)*%
%TA.AperFunction,SMDPad,CuDef*%
G36*
G01*
X143841300Y-113085000D02*
X144348700Y-113085000D01*
G75*
G02*
X144390000Y-113126300I0J-41300D01*
G01*
X144390000Y-114623700D01*
G75*
G02*
X144348700Y-114665000I-41300J0D01*
G01*
X143841300Y-114665000D01*
G75*
G02*
X143800000Y-114623700I0J41300D01*
G01*
X143800000Y-113126300D01*
G75*
G02*
X143841300Y-113085000I41300J0D01*
G01*
G37*
%TD.AperFunction*%
%TO.P,U5,5*%
%TO.N,Net-(U4-Pad5)*%
%TA.AperFunction,SMDPad,CuDef*%
G36*
G01*
X143841300Y-118335000D02*
X144348700Y-118335000D01*
G75*
G02*
X144390000Y-118376300I0J-41300D01*
G01*
X144390000Y-119873700D01*
G75*
G02*
X144348700Y-119915000I-41300J0D01*
G01*
X143841300Y-119915000D01*
G75*
G02*
X143800000Y-119873700I0J41300D01*
G01*
X143800000Y-118376300D01*
G75*
G02*
X143841300Y-118335000I41300J0D01*
G01*
G37*
%TD.AperFunction*%
%TO.P,U5,6*%
%TA.AperFunction,SMDPad,CuDef*%
G36*
G01*
X145111300Y-118335000D02*
X145618700Y-118335000D01*
G75*
G02*
X145660000Y-118376300I0J-41300D01*
G01*
X145660000Y-119873700D01*
G75*
G02*
X145618700Y-119915000I-41300J0D01*
G01*
X145111300Y-119915000D01*
G75*
G02*
X145070000Y-119873700I0J41300D01*
G01*
X145070000Y-118376300D01*
G75*
G02*
X145111300Y-118335000I41300J0D01*
G01*
G37*
%TD.AperFunction*%
%TO.P,U5,7*%
%TA.AperFunction,SMDPad,CuDef*%
G36*
G01*
X146381300Y-118335000D02*
X146888700Y-118335000D01*
G75*
G02*
X146930000Y-118376300I0J-41300D01*
G01*
X146930000Y-119873700D01*
G75*
G02*
X146888700Y-119915000I-41300J0D01*
G01*
X146381300Y-119915000D01*
G75*
G02*
X146340000Y-119873700I0J41300D01*
G01*
X146340000Y-118376300D01*
G75*
G02*
X146381300Y-118335000I41300J0D01*
G01*
G37*
%TD.AperFunction*%
%TO.P,U5,8*%
%TA.AperFunction,SMDPad,CuDef*%
G36*
G01*
X147651300Y-118335000D02*
X148158700Y-118335000D01*
G75*
G02*
X148200000Y-118376300I0J-41300D01*
G01*
X148200000Y-119873700D01*
G75*
G02*
X148158700Y-119915000I-41300J0D01*
G01*
X147651300Y-119915000D01*
G75*
G02*
X147610000Y-119873700I0J41300D01*
G01*
X147610000Y-118376300D01*
G75*
G02*
X147651300Y-118335000I41300J0D01*
G01*
G37*
%TD.AperFunction*%
%TD*%
%TO.P,U4,1*%
%TO.N,B-*%
%TA.AperFunction,SMDPad,CuDef*%
G36*
G01*
X155651300Y-113085000D02*
X156158700Y-113085000D01*
G75*
G02*
X156200000Y-113126300I0J-41300D01*
G01*
X156200000Y-114623700D01*
G75*
G02*
X156158700Y-114665000I-41300J0D01*
G01*
X155651300Y-114665000D01*
G75*
G02*
X155610000Y-114623700I0J41300D01*
G01*
X155610000Y-113126300D01*
G75*
G02*
X155651300Y-113085000I41300J0D01*
G01*
G37*
%TD.AperFunction*%
%TO.P,U4,2*%
%TA.AperFunction,SMDPad,CuDef*%
G36*
G01*
X154381300Y-113085000D02*
X154888700Y-113085000D01*
G75*
G02*
X154930000Y-113126300I0J-41300D01*
G01*
X154930000Y-114623700D01*
G75*
G02*
X154888700Y-114665000I-41300J0D01*
G01*
X154381300Y-114665000D01*
G75*
G02*
X154340000Y-114623700I0J41300D01*
G01*
X154340000Y-113126300D01*
G75*
G02*
X154381300Y-113085000I41300J0D01*
G01*
G37*
%TD.AperFunction*%
%TO.P,U4,3*%
%TA.AperFunction,SMDPad,CuDef*%
G36*
G01*
X153111300Y-113085000D02*
X153618700Y-113085000D01*
G75*
G02*
X153660000Y-113126300I0J-41300D01*
G01*
X153660000Y-114623700D01*
G75*
G02*
X153618700Y-114665000I-41300J0D01*
G01*
X153111300Y-114665000D01*
G75*
G02*
X153070000Y-114623700I0J41300D01*
G01*
X153070000Y-113126300D01*
G75*
G02*
X153111300Y-113085000I41300J0D01*
G01*
G37*
%TD.AperFunction*%
%TO.P,U4,4*%
%TO.N,Net-(U3-Pad1)*%
%TA.AperFunction,SMDPad,CuDef*%
G36*
G01*
X151841300Y-113085000D02*
X152348700Y-113085000D01*
G75*
G02*
X152390000Y-113126300I0J-41300D01*
G01*
X152390000Y-114623700D01*
G75*
G02*
X152348700Y-114665000I-41300J0D01*
G01*
X151841300Y-114665000D01*
G75*
G02*
X151800000Y-114623700I0J41300D01*
G01*
X151800000Y-113126300D01*
G75*
G02*
X151841300Y-113085000I41300J0D01*
G01*
G37*
%TD.AperFunction*%
%TO.P,U4,5*%
%TO.N,Net-(U4-Pad5)*%
%TA.AperFunction,SMDPad,CuDef*%
G36*
G01*
X151841300Y-118335000D02*
X152348700Y-118335000D01*
G75*
G02*
X152390000Y-118376300I0J-41300D01*
G01*
X152390000Y-119873700D01*
G75*
G02*
X152348700Y-119915000I-41300J0D01*
G01*
X151841300Y-119915000D01*
G75*
G02*
X151800000Y-119873700I0J41300D01*
G01*
X151800000Y-118376300D01*
G75*
G02*
X151841300Y-118335000I41300J0D01*
G01*
G37*
%TD.AperFunction*%
%TO.P,U4,6*%
%TA.AperFunction,SMDPad,CuDef*%
G36*
G01*
X153111300Y-118335000D02*
X153618700Y-118335000D01*
G75*
G02*
X153660000Y-118376300I0J-41300D01*
G01*
X153660000Y-119873700D01*
G75*
G02*
X153618700Y-119915000I-41300J0D01*
G01*
X153111300Y-119915000D01*
G75*
G02*
X153070000Y-119873700I0J41300D01*
G01*
X153070000Y-118376300D01*
G75*
G02*
X153111300Y-118335000I41300J0D01*
G01*
G37*
%TD.AperFunction*%
%TO.P,U4,7*%
%TA.AperFunction,SMDPad,CuDef*%
G36*
G01*
X154381300Y-118335000D02*
X154888700Y-118335000D01*
G75*
G02*
X154930000Y-118376300I0J-41300D01*
G01*
X154930000Y-119873700D01*
G75*
G02*
X154888700Y-119915000I-41300J0D01*
G01*
X154381300Y-119915000D01*
G75*
G02*
X154340000Y-119873700I0J41300D01*
G01*
X154340000Y-118376300D01*
G75*
G02*
X154381300Y-118335000I41300J0D01*
G01*
G37*
%TD.AperFunction*%
%TO.P,U4,8*%
%TA.AperFunction,SMDPad,CuDef*%
G36*
G01*
X155651300Y-118335000D02*
X156158700Y-118335000D01*
G75*
G02*
X156200000Y-118376300I0J-41300D01*
G01*
X156200000Y-119873700D01*
G75*
G02*
X156158700Y-119915000I-41300J0D01*
G01*
X155651300Y-119915000D01*
G75*
G02*
X155610000Y-119873700I0J41300D01*
G01*
X155610000Y-118376300D01*
G75*
G02*
X155651300Y-118335000I41300J0D01*
G01*
G37*
%TD.AperFunction*%
%TD*%
D16*
%TO.P,U3,5*%
%TO.N,Net-(C3-Pad2)*%
X138900000Y-109000000D03*
%TO.P,U3,6*%
%TO.N,B-*%
X138900000Y-109950000D03*
%TO.P,U3,4*%
%TO.N,N/C*%
X138900000Y-108050000D03*
%TO.P,U3,3*%
%TO.N,Net-(U3-Pad3)*%
X141100000Y-108050000D03*
%TO.P,U3,2*%
%TO.N,Net-(R11-Pad1)*%
X141100000Y-109000000D03*
%TO.P,U3,1*%
%TO.N,Net-(U3-Pad1)*%
X141100000Y-109950000D03*
%TD*%
D17*
%TO.P,U2,1*%
%TO.N,P-*%
X124000000Y-76250000D03*
D18*
%TO.P,U2,3*%
%TO.N,3.3v*%
X124000000Y-73710000D03*
%TO.P,U2,2*%
%TO.N,onewire*%
X122730000Y-74980000D03*
%TD*%
D19*
%TO.P,SW1,1*%
%TO.N,P-*%
X177500000Y-66900000D03*
%TO.P,SW1,2*%
%TO.N,rest*%
X177500000Y-59100000D03*
%TD*%
%TO.P,R11,2*%
%TO.N,P-*%
%TA.AperFunction,SMDPad,CuDef*%
G36*
G01*
X144900000Y-109450002D02*
X144900000Y-108549998D01*
G75*
G02*
X145149998Y-108300000I249998J0D01*
G01*
X145675002Y-108300000D01*
G75*
G02*
X145925000Y-108549998I0J-249998D01*
G01*
X145925000Y-109450002D01*
G75*
G02*
X145675002Y-109700000I-249998J0D01*
G01*
X145149998Y-109700000D01*
G75*
G02*
X144900000Y-109450002I0J249998D01*
G01*
G37*
%TD.AperFunction*%
%TO.P,R11,1*%
%TO.N,Net-(R11-Pad1)*%
%TA.AperFunction,SMDPad,CuDef*%
G36*
G01*
X143075000Y-109450002D02*
X143075000Y-108549998D01*
G75*
G02*
X143324998Y-108300000I249998J0D01*
G01*
X143850002Y-108300000D01*
G75*
G02*
X144100000Y-108549998I0J-249998D01*
G01*
X144100000Y-109450002D01*
G75*
G02*
X143850002Y-109700000I-249998J0D01*
G01*
X143324998Y-109700000D01*
G75*
G02*
X143075000Y-109450002I0J249998D01*
G01*
G37*
%TD.AperFunction*%
%TD*%
%TO.P,R10,2*%
%TO.N,B+*%
%TA.AperFunction,SMDPad,CuDef*%
G36*
G01*
X133600000Y-108049998D02*
X133600000Y-108950002D01*
G75*
G02*
X133350002Y-109200000I-249998J0D01*
G01*
X132824998Y-109200000D01*
G75*
G02*
X132575000Y-108950002I0J249998D01*
G01*
X132575000Y-108049998D01*
G75*
G02*
X132824998Y-107800000I249998J0D01*
G01*
X133350002Y-107800000D01*
G75*
G02*
X133600000Y-108049998I0J-249998D01*
G01*
G37*
%TD.AperFunction*%
%TO.P,R10,1*%
%TO.N,Net-(C3-Pad2)*%
%TA.AperFunction,SMDPad,CuDef*%
G36*
G01*
X135425000Y-108049998D02*
X135425000Y-108950002D01*
G75*
G02*
X135175002Y-109200000I-249998J0D01*
G01*
X134649998Y-109200000D01*
G75*
G02*
X134400000Y-108950002I0J249998D01*
G01*
X134400000Y-108049998D01*
G75*
G02*
X134649998Y-107800000I249998J0D01*
G01*
X135175002Y-107800000D01*
G75*
G02*
X135425000Y-108049998I0J-249998D01*
G01*
G37*
%TD.AperFunction*%
%TD*%
%TO.P,R9,2*%
%TO.N,P-*%
%TA.AperFunction,SMDPad,CuDef*%
G36*
G01*
X138400000Y-78200002D02*
X138400000Y-77299998D01*
G75*
G02*
X138649998Y-77050000I249998J0D01*
G01*
X139175002Y-77050000D01*
G75*
G02*
X139425000Y-77299998I0J-249998D01*
G01*
X139425000Y-78200002D01*
G75*
G02*
X139175002Y-78450000I-249998J0D01*
G01*
X138649998Y-78450000D01*
G75*
G02*
X138400000Y-78200002I0J249998D01*
G01*
G37*
%TD.AperFunction*%
%TO.P,R9,1*%
%TO.N,adc*%
%TA.AperFunction,SMDPad,CuDef*%
G36*
G01*
X136575000Y-78200002D02*
X136575000Y-77299998D01*
G75*
G02*
X136824998Y-77050000I249998J0D01*
G01*
X137350002Y-77050000D01*
G75*
G02*
X137600000Y-77299998I0J-249998D01*
G01*
X137600000Y-78200002D01*
G75*
G02*
X137350002Y-78450000I-249998J0D01*
G01*
X136824998Y-78450000D01*
G75*
G02*
X136575000Y-78200002I0J249998D01*
G01*
G37*
%TD.AperFunction*%
%TD*%
%TO.P,R8,2*%
%TO.N,adc*%
%TA.AperFunction,SMDPad,CuDef*%
G36*
G01*
X133900000Y-78200002D02*
X133900000Y-77299998D01*
G75*
G02*
X134149998Y-77050000I249998J0D01*
G01*
X134675002Y-77050000D01*
G75*
G02*
X134925000Y-77299998I0J-249998D01*
G01*
X134925000Y-78200002D01*
G75*
G02*
X134675002Y-78450000I-249998J0D01*
G01*
X134149998Y-78450000D01*
G75*
G02*
X133900000Y-78200002I0J249998D01*
G01*
G37*
%TD.AperFunction*%
%TO.P,R8,1*%
%TO.N,B+*%
%TA.AperFunction,SMDPad,CuDef*%
G36*
G01*
X132075000Y-78200002D02*
X132075000Y-77299998D01*
G75*
G02*
X132324998Y-77050000I249998J0D01*
G01*
X132850002Y-77050000D01*
G75*
G02*
X133100000Y-77299998I0J-249998D01*
G01*
X133100000Y-78200002D01*
G75*
G02*
X132850002Y-78450000I-249998J0D01*
G01*
X132324998Y-78450000D01*
G75*
G02*
X132075000Y-78200002I0J249998D01*
G01*
G37*
%TD.AperFunction*%
%TD*%
%TO.P,R7,2*%
%TO.N,3.3v*%
%TA.AperFunction,SMDPad,CuDef*%
G36*
G01*
X145100000Y-74799998D02*
X145100000Y-75700002D01*
G75*
G02*
X144850002Y-75950000I-249998J0D01*
G01*
X144324998Y-75950000D01*
G75*
G02*
X144075000Y-75700002I0J249998D01*
G01*
X144075000Y-74799998D01*
G75*
G02*
X144324998Y-74550000I249998J0D01*
G01*
X144850002Y-74550000D01*
G75*
G02*
X145100000Y-74799998I0J-249998D01*
G01*
G37*
%TD.AperFunction*%
%TO.P,R7,1*%
%TO.N,onewire*%
%TA.AperFunction,SMDPad,CuDef*%
G36*
G01*
X146925000Y-74799998D02*
X146925000Y-75700002D01*
G75*
G02*
X146675002Y-75950000I-249998J0D01*
G01*
X146149998Y-75950000D01*
G75*
G02*
X145900000Y-75700002I0J249998D01*
G01*
X145900000Y-74799998D01*
G75*
G02*
X146149998Y-74550000I249998J0D01*
G01*
X146675002Y-74550000D01*
G75*
G02*
X146925000Y-74799998I0J-249998D01*
G01*
G37*
%TD.AperFunction*%
%TD*%
%TO.P,R6,2*%
%TO.N,P-*%
%TA.AperFunction,SMDPad,CuDef*%
G36*
G01*
X146100000Y-77549998D02*
X146100000Y-78450002D01*
G75*
G02*
X145850002Y-78700000I-249998J0D01*
G01*
X145324998Y-78700000D01*
G75*
G02*
X145075000Y-78450002I0J249998D01*
G01*
X145075000Y-77549998D01*
G75*
G02*
X145324998Y-77300000I249998J0D01*
G01*
X145850002Y-77300000D01*
G75*
G02*
X146100000Y-77549998I0J-249998D01*
G01*
G37*
%TD.AperFunction*%
%TO.P,R6,1*%
%TO.N,Net-(R6-Pad1)*%
%TA.AperFunction,SMDPad,CuDef*%
G36*
G01*
X147925000Y-77549998D02*
X147925000Y-78450002D01*
G75*
G02*
X147675002Y-78700000I-249998J0D01*
G01*
X147149998Y-78700000D01*
G75*
G02*
X146900000Y-78450002I0J249998D01*
G01*
X146900000Y-77549998D01*
G75*
G02*
X147149998Y-77300000I249998J0D01*
G01*
X147675002Y-77300000D01*
G75*
G02*
X147925000Y-77549998I0J-249998D01*
G01*
G37*
%TD.AperFunction*%
%TD*%
%TO.P,R5,2*%
%TO.N,RX*%
%TA.AperFunction,SMDPad,CuDef*%
G36*
G01*
X162300000Y-109699998D02*
X162300000Y-110600002D01*
G75*
G02*
X162050002Y-110850000I-249998J0D01*
G01*
X161524998Y-110850000D01*
G75*
G02*
X161275000Y-110600002I0J249998D01*
G01*
X161275000Y-109699998D01*
G75*
G02*
X161524998Y-109450000I249998J0D01*
G01*
X162050002Y-109450000D01*
G75*
G02*
X162300000Y-109699998I0J-249998D01*
G01*
G37*
%TD.AperFunction*%
%TO.P,R5,1*%
%TO.N,TX*%
%TA.AperFunction,SMDPad,CuDef*%
G36*
G01*
X164125000Y-109699998D02*
X164125000Y-110600002D01*
G75*
G02*
X163875002Y-110850000I-249998J0D01*
G01*
X163349998Y-110850000D01*
G75*
G02*
X163100000Y-110600002I0J249998D01*
G01*
X163100000Y-109699998D01*
G75*
G02*
X163349998Y-109450000I249998J0D01*
G01*
X163875002Y-109450000D01*
G75*
G02*
X164125000Y-109699998I0J-249998D01*
G01*
G37*
%TD.AperFunction*%
%TD*%
%TO.P,R4,2*%
%TO.N,rest*%
%TA.AperFunction,SMDPad,CuDef*%
G36*
G01*
X139799998Y-62400000D02*
X140700002Y-62400000D01*
G75*
G02*
X140950000Y-62649998I0J-249998D01*
G01*
X140950000Y-63175002D01*
G75*
G02*
X140700002Y-63425000I-249998J0D01*
G01*
X139799998Y-63425000D01*
G75*
G02*
X139550000Y-63175002I0J249998D01*
G01*
X139550000Y-62649998D01*
G75*
G02*
X139799998Y-62400000I249998J0D01*
G01*
G37*
%TD.AperFunction*%
%TO.P,R4,1*%
%TO.N,3.3v*%
%TA.AperFunction,SMDPad,CuDef*%
G36*
G01*
X139799998Y-60575000D02*
X140700002Y-60575000D01*
G75*
G02*
X140950000Y-60824998I0J-249998D01*
G01*
X140950000Y-61350002D01*
G75*
G02*
X140700002Y-61600000I-249998J0D01*
G01*
X139799998Y-61600000D01*
G75*
G02*
X139550000Y-61350002I0J249998D01*
G01*
X139550000Y-60824998D01*
G75*
G02*
X139799998Y-60575000I249998J0D01*
G01*
G37*
%TD.AperFunction*%
%TD*%
%TO.P,R3,2*%
%TO.N,Net-(R3-Pad2)*%
%TA.AperFunction,SMDPad,CuDef*%
G36*
G01*
X142549998Y-62400000D02*
X143450002Y-62400000D01*
G75*
G02*
X143700000Y-62649998I0J-249998D01*
G01*
X143700000Y-63175002D01*
G75*
G02*
X143450002Y-63425000I-249998J0D01*
G01*
X142549998Y-63425000D01*
G75*
G02*
X142300000Y-63175002I0J249998D01*
G01*
X142300000Y-62649998D01*
G75*
G02*
X142549998Y-62400000I249998J0D01*
G01*
G37*
%TD.AperFunction*%
%TO.P,R3,1*%
%TO.N,3.3v*%
%TA.AperFunction,SMDPad,CuDef*%
G36*
G01*
X142549998Y-60575000D02*
X143450002Y-60575000D01*
G75*
G02*
X143700000Y-60824998I0J-249998D01*
G01*
X143700000Y-61350002D01*
G75*
G02*
X143450002Y-61600000I-249998J0D01*
G01*
X142549998Y-61600000D01*
G75*
G02*
X142300000Y-61350002I0J249998D01*
G01*
X142300000Y-60824998D01*
G75*
G02*
X142549998Y-60575000I249998J0D01*
G01*
G37*
%TD.AperFunction*%
%TD*%
%TO.P,R2,2*%
%TO.N,P-*%
%TA.AperFunction,SMDPad,CuDef*%
G36*
G01*
X137700002Y-61600000D02*
X136799998Y-61600000D01*
G75*
G02*
X136550000Y-61350002I0J249998D01*
G01*
X136550000Y-60824998D01*
G75*
G02*
X136799998Y-60575000I249998J0D01*
G01*
X137700002Y-60575000D01*
G75*
G02*
X137950000Y-60824998I0J-249998D01*
G01*
X137950000Y-61350002D01*
G75*
G02*
X137700002Y-61600000I-249998J0D01*
G01*
G37*
%TD.AperFunction*%
%TO.P,R2,1*%
%TO.N,Net-(J5-Pad2)*%
%TA.AperFunction,SMDPad,CuDef*%
G36*
G01*
X137700002Y-63425000D02*
X136799998Y-63425000D01*
G75*
G02*
X136550000Y-63175002I0J249998D01*
G01*
X136550000Y-62649998D01*
G75*
G02*
X136799998Y-62400000I249998J0D01*
G01*
X137700002Y-62400000D01*
G75*
G02*
X137950000Y-62649998I0J-249998D01*
G01*
X137950000Y-63175002D01*
G75*
G02*
X137700002Y-63425000I-249998J0D01*
G01*
G37*
%TD.AperFunction*%
%TD*%
%TO.P,R1,2*%
%TO.N,gpio0*%
%TA.AperFunction,SMDPad,CuDef*%
G36*
G01*
X134150000Y-65200002D02*
X134150000Y-64299998D01*
G75*
G02*
X134399998Y-64050000I249998J0D01*
G01*
X134925002Y-64050000D01*
G75*
G02*
X135175000Y-64299998I0J-249998D01*
G01*
X135175000Y-65200002D01*
G75*
G02*
X134925002Y-65450000I-249998J0D01*
G01*
X134399998Y-65450000D01*
G75*
G02*
X134150000Y-65200002I0J249998D01*
G01*
G37*
%TD.AperFunction*%
%TO.P,R1,1*%
%TO.N,3.3v*%
%TA.AperFunction,SMDPad,CuDef*%
G36*
G01*
X132325000Y-65200002D02*
X132325000Y-64299998D01*
G75*
G02*
X132574998Y-64050000I249998J0D01*
G01*
X133100002Y-64050000D01*
G75*
G02*
X133350000Y-64299998I0J-249998D01*
G01*
X133350000Y-65200002D01*
G75*
G02*
X133100002Y-65450000I-249998J0D01*
G01*
X132574998Y-65450000D01*
G75*
G02*
X132325000Y-65200002I0J249998D01*
G01*
G37*
%TD.AperFunction*%
%TD*%
D20*
%TO.P,J7,5*%
%TO.N,P-*%
X185500000Y-78370000D03*
%TO.P,J7,4*%
X185500000Y-75830000D03*
%TO.P,J7,3*%
X185500000Y-73290000D03*
%TO.P,J7,2*%
X185500000Y-70750000D03*
D21*
%TO.P,J7,1*%
X185500000Y-68210000D03*
%TD*%
D20*
%TO.P,J6,5*%
%TO.N,gpio2*%
X181250000Y-78410000D03*
%TO.P,J6,4*%
%TO.N,gpio5*%
X181250000Y-75870000D03*
%TO.P,J6,3*%
%TO.N,gpio12*%
X181250000Y-73330000D03*
%TO.P,J6,2*%
%TO.N,gpio13*%
X181250000Y-70790000D03*
D21*
%TO.P,J6,1*%
%TO.N,gpio14*%
X181250000Y-68250000D03*
%TD*%
D20*
%TO.P,J5,3*%
%TO.N,Net-(J5-Pad3)*%
X138170000Y-66500000D03*
%TO.P,J5,2*%
%TO.N,Net-(J5-Pad2)*%
X140710000Y-66500000D03*
D21*
%TO.P,J5,1*%
%TO.N,gpio0*%
X143250000Y-66500000D03*
%TD*%
D20*
%TO.P,J4,3*%
%TO.N,Net-(J4-Pad3)*%
X138170000Y-70750000D03*
%TO.P,J4,2*%
%TO.N,rest*%
X140710000Y-70750000D03*
D21*
%TO.P,J4,1*%
%TO.N,gpio16*%
X143250000Y-70750000D03*
%TD*%
D20*
%TO.P,J3,3*%
%TO.N,P-*%
X156580000Y-104350000D03*
%TO.P,J3,2*%
%TO.N,onewire*%
X154040000Y-104350000D03*
D21*
%TO.P,J3,1*%
%TO.N,3.3v*%
X151500000Y-104350000D03*
%TD*%
D20*
%TO.P,J2,3*%
%TO.N,P-*%
X160670000Y-104350000D03*
%TO.P,J2,2*%
%TO.N,RX*%
X163210000Y-104350000D03*
D21*
%TO.P,J2,1*%
%TO.N,TX*%
X165750000Y-104350000D03*
%TD*%
D22*
%TO.P,J1,2*%
%TO.N,B+*%
X126000000Y-108500000D03*
D23*
%TO.P,J1,1*%
%TO.N,P-*%
X126000000Y-113500000D03*
%TD*%
D24*
%TO.P,D1,3*%
%TO.N,N/C*%
X119250000Y-109750000D03*
%TO.P,D1,2*%
%TO.N,P-*%
X117250000Y-110700000D03*
%TO.P,D1,1*%
%TO.N,B+*%
X117250000Y-108800000D03*
%TD*%
%TO.P,C4,2*%
%TO.N,P-*%
%TA.AperFunction,SMDPad,CuDef*%
G36*
G01*
X126849998Y-68900000D02*
X128150002Y-68900000D01*
G75*
G02*
X128400000Y-69149998I0J-249998D01*
G01*
X128400000Y-69975002D01*
G75*
G02*
X128150002Y-70225000I-249998J0D01*
G01*
X126849998Y-70225000D01*
G75*
G02*
X126600000Y-69975002I0J249998D01*
G01*
X126600000Y-69149998D01*
G75*
G02*
X126849998Y-68900000I249998J0D01*
G01*
G37*
%TD.AperFunction*%
%TO.P,C4,1*%
%TO.N,3.3v*%
%TA.AperFunction,SMDPad,CuDef*%
G36*
G01*
X126849998Y-65775000D02*
X128150002Y-65775000D01*
G75*
G02*
X128400000Y-66024998I0J-249998D01*
G01*
X128400000Y-66850002D01*
G75*
G02*
X128150002Y-67100000I-249998J0D01*
G01*
X126849998Y-67100000D01*
G75*
G02*
X126600000Y-66850002I0J249998D01*
G01*
X126600000Y-66024998D01*
G75*
G02*
X126849998Y-65775000I249998J0D01*
G01*
G37*
%TD.AperFunction*%
%TD*%
%TO.P,C3,2*%
%TO.N,Net-(C3-Pad2)*%
%TA.AperFunction,SMDPad,CuDef*%
G36*
G01*
X138600000Y-103849999D02*
X138600000Y-105150001D01*
G75*
G02*
X138350001Y-105400000I-249999J0D01*
G01*
X137699999Y-105400000D01*
G75*
G02*
X137450000Y-105150001I0J249999D01*
G01*
X137450000Y-103849999D01*
G75*
G02*
X137699999Y-103600000I249999J0D01*
G01*
X138350001Y-103600000D01*
G75*
G02*
X138600000Y-103849999I0J-249999D01*
G01*
G37*
%TD.AperFunction*%
%TO.P,C3,1*%
%TO.N,B-*%
%TA.AperFunction,SMDPad,CuDef*%
G36*
G01*
X141550000Y-103849999D02*
X141550000Y-105150001D01*
G75*
G02*
X141300001Y-105400000I-249999J0D01*
G01*
X140649999Y-105400000D01*
G75*
G02*
X140400000Y-105150001I0J249999D01*
G01*
X140400000Y-103849999D01*
G75*
G02*
X140649999Y-103600000I249999J0D01*
G01*
X141300001Y-103600000D01*
G75*
G02*
X141550000Y-103849999I0J-249999D01*
G01*
G37*
%TD.AperFunction*%
%TD*%
%TO.P,C2,2*%
%TO.N,P-*%
%TA.AperFunction,SMDPad,CuDef*%
G36*
G01*
X146599999Y-61400000D02*
X147900001Y-61400000D01*
G75*
G02*
X148150000Y-61649999I0J-249999D01*
G01*
X148150000Y-62300001D01*
G75*
G02*
X147900001Y-62550000I-249999J0D01*
G01*
X146599999Y-62550000D01*
G75*
G02*
X146350000Y-62300001I0J249999D01*
G01*
X146350000Y-61649999D01*
G75*
G02*
X146599999Y-61400000I249999J0D01*
G01*
G37*
%TD.AperFunction*%
%TO.P,C2,1*%
%TO.N,3.3v*%
%TA.AperFunction,SMDPad,CuDef*%
G36*
G01*
X146599999Y-58450000D02*
X147900001Y-58450000D01*
G75*
G02*
X148150000Y-58699999I0J-249999D01*
G01*
X148150000Y-59350001D01*
G75*
G02*
X147900001Y-59600000I-249999J0D01*
G01*
X146599999Y-59600000D01*
G75*
G02*
X146350000Y-59350001I0J249999D01*
G01*
X146350000Y-58699999D01*
G75*
G02*
X146599999Y-58450000I249999J0D01*
G01*
G37*
%TD.AperFunction*%
%TD*%
D25*
%TO.N,P-*%
X129500000Y-71500000D03*
X124500000Y-78000000D03*
X140500000Y-78500000D03*
X144000000Y-77500000D03*
X175000000Y-66500000D03*
X150250000Y-78750000D03*
X158500000Y-104500000D03*
X123000000Y-113500000D03*
X129600000Y-61600000D03*
X120400000Y-61600000D03*
X136500000Y-60000000D03*
X145500000Y-62000000D03*
X149000000Y-61500000D03*
X145500000Y-60000000D03*
X134500000Y-62000000D03*
X130000000Y-78000000D03*
X121000000Y-78000000D03*
X129500000Y-113500000D03*
X133500000Y-113500000D03*
X137500000Y-113500000D03*
X141500000Y-113500000D03*
X141500000Y-116000000D03*
X141500000Y-119500000D03*
X139000000Y-101500000D03*
X144000000Y-101500000D03*
X148500000Y-101500000D03*
X134000000Y-101500000D03*
X130000000Y-101500000D03*
X126000000Y-101500000D03*
X155500000Y-106500000D03*
X162000000Y-106500000D03*
X164000000Y-63500000D03*
X167000000Y-63500000D03*
X170500000Y-63500000D03*
X173500000Y-63500000D03*
X176500000Y-63500000D03*
X188500000Y-68500000D03*
X188500000Y-72500000D03*
X188500000Y-77000000D03*
X127000000Y-73500000D03*
X132500000Y-73500000D03*
X130500000Y-66000000D03*
X130500000Y-69500000D03*
X122500000Y-67000000D03*
X122500000Y-69500000D03*
X113500000Y-76000000D03*
X113500000Y-79000000D03*
X113500000Y-81500000D03*
X113000000Y-101000000D03*
X113000000Y-104000000D03*
X113000000Y-107500000D03*
X148500000Y-81500000D03*
X155500000Y-81500000D03*
X162000000Y-81500000D03*
X120500000Y-82000000D03*
X126500000Y-82000000D03*
X132000000Y-82000000D03*
X137500000Y-82000000D03*
X156500000Y-102000000D03*
X161000000Y-102000000D03*
X168500000Y-101000000D03*
X172000000Y-101000000D03*
X175500000Y-98000000D03*
X167500000Y-98000000D03*
X168500000Y-78500000D03*
X173000000Y-78500000D03*
X176500000Y-78500000D03*
X158500000Y-116000000D03*
X158500000Y-119000000D03*
X150000000Y-114000000D03*
X150000000Y-115500000D03*
X150000000Y-117000000D03*
X148000000Y-111500000D03*
X146000000Y-111500000D03*
X140500000Y-64500000D03*
X136500000Y-64500000D03*
X120500000Y-111000000D03*
X113000000Y-110500000D03*
X125000000Y-65500000D03*
%TO.N,3.3v*%
X143900000Y-81050000D03*
X141250000Y-75524990D03*
%TO.N,onewire*%
X142000000Y-77500000D03*
X145000000Y-80925010D03*
%TO.N,gpio2*%
X162100000Y-78550000D03*
X155250000Y-78500000D03*
%TO.N,gpio12*%
X156707108Y-64792892D03*
X161500000Y-66000000D03*
%TO.N,gpio13*%
X156000000Y-65500000D03*
X163750000Y-66750000D03*
%TO.N,gpio14*%
X157750000Y-64250000D03*
X161500000Y-64750000D03*
%TO.N,Net-(R3-Pad2)*%
X152250000Y-63500000D03*
X160250000Y-63250000D03*
%TD*%
D26*
%TO.N,B+*%
X114200000Y-96700000D02*
X126000000Y-108500000D01*
X114200000Y-91000000D02*
X114200000Y-96700000D01*
X117550000Y-108500000D02*
X126000000Y-108500000D01*
X117250000Y-108800000D02*
X117550000Y-108500000D01*
D27*
X122550000Y-64155000D02*
X121095000Y-64155000D01*
X121095000Y-64155000D02*
X120000000Y-65250000D01*
X120000000Y-65250000D02*
X120000000Y-77500000D01*
X114200000Y-83300000D02*
X114200000Y-91000000D01*
D28*
X118500000Y-79000000D02*
X117875000Y-79625000D01*
D27*
X117875000Y-79625000D02*
X114200000Y-83300000D01*
D28*
X130837500Y-79500000D02*
X118000000Y-79500000D01*
X132587500Y-77750000D02*
X130837500Y-79500000D01*
D27*
X118000000Y-79500000D02*
X117875000Y-79625000D01*
X120000000Y-77500000D02*
X118000000Y-79500000D01*
X126000000Y-108500000D02*
X133087500Y-108500000D01*
D26*
%TO.N,B-*%
X153365000Y-113875000D02*
X155905000Y-113875000D01*
D28*
X138900000Y-109950000D02*
X139390002Y-109950000D01*
X153365000Y-113085000D02*
X153365000Y-113875000D01*
X144780000Y-104500000D02*
X153365000Y-113085000D01*
X140975000Y-104500000D02*
X144780000Y-104500000D01*
D26*
X154125000Y-113875000D02*
X153365000Y-113875000D01*
X162725000Y-113875000D02*
X185600000Y-91000000D01*
X155905000Y-113875000D02*
X162725000Y-113875000D01*
D28*
X138900000Y-109950000D02*
X139680000Y-109950000D01*
X139755001Y-105719999D02*
X140975000Y-104500000D01*
X139755001Y-109874999D02*
X139755001Y-105719999D01*
X139680000Y-109950000D02*
X139755001Y-109874999D01*
%TO.N,P-*%
X146500000Y-109000000D02*
X147000000Y-109500000D01*
X145412500Y-109000000D02*
X146500000Y-109000000D01*
D26*
X146000000Y-116000000D02*
X144600000Y-116000000D01*
D27*
X122550000Y-62885000D02*
X122550000Y-61615000D01*
X127450000Y-61615000D02*
X127450000Y-62885000D01*
D28*
X127500000Y-70500000D02*
X128000000Y-71000000D01*
X127500000Y-69562500D02*
X127500000Y-70500000D01*
X124000000Y-77500000D02*
X124500000Y-78000000D01*
X124000000Y-76250000D02*
X124000000Y-77500000D01*
X137250000Y-61087500D02*
X137250000Y-60750000D01*
D27*
X176100000Y-66900000D02*
X175750000Y-67250000D01*
X177500000Y-66900000D02*
X176100000Y-66900000D01*
D28*
X139750000Y-77750000D02*
X140500000Y-78500000D01*
X138912500Y-77750000D02*
X139750000Y-77750000D01*
X144500000Y-78000000D02*
X144000000Y-77500000D01*
X145587500Y-78000000D02*
X144500000Y-78000000D01*
X158350000Y-104350000D02*
X158500000Y-104500000D01*
X156580000Y-104350000D02*
X158350000Y-104350000D01*
X158650000Y-104350000D02*
X158500000Y-104500000D01*
X160670000Y-104350000D02*
X158650000Y-104350000D01*
D27*
X150250000Y-77300000D02*
X151750000Y-75800000D01*
X150250000Y-78750000D02*
X150250000Y-77300000D01*
D26*
X123375010Y-112174990D02*
X121275010Y-112174990D01*
X129850000Y-116000000D02*
X128500000Y-116000000D01*
X132650000Y-116000000D02*
X129850000Y-116000000D01*
X135700000Y-116000000D02*
X132650000Y-116000000D01*
X136350000Y-116000000D02*
X135700000Y-116000000D01*
X144600000Y-116000000D02*
X141500000Y-116000000D01*
D28*
X129835000Y-61615000D02*
X129850000Y-61600000D01*
X127465000Y-61600000D02*
X127450000Y-61615000D01*
X120415000Y-61615000D02*
X120400000Y-61600000D01*
X129585000Y-61615000D02*
X129600000Y-61600000D01*
D26*
X141500000Y-116000000D02*
X136350000Y-116000000D01*
D28*
%TO.N,3.3v*%
X127450000Y-66387500D02*
X127500000Y-66437500D01*
X127450000Y-64155000D02*
X127450000Y-66387500D01*
X124000000Y-69937500D02*
X124000000Y-73710000D01*
X127500000Y-66437500D02*
X124000000Y-69937500D01*
D27*
X130345000Y-64155000D02*
X135475000Y-59025000D01*
X127450000Y-64155000D02*
X130345000Y-64155000D01*
X140250000Y-60800000D02*
X138475000Y-59025000D01*
X140250000Y-61087500D02*
X140250000Y-60800000D01*
X135475000Y-59025000D02*
X138475000Y-59025000D01*
X143000000Y-60550000D02*
X141475000Y-59025000D01*
X143000000Y-61087500D02*
X143000000Y-60550000D01*
X141475000Y-59025000D02*
X147250000Y-59025000D01*
X138475000Y-59025000D02*
X141475000Y-59025000D01*
D28*
X132242500Y-64155000D02*
X132837500Y-64750000D01*
X130345000Y-64155000D02*
X132242500Y-64155000D01*
X141524990Y-75250000D02*
X141250000Y-75524990D01*
X144587500Y-75250000D02*
X141524990Y-75250000D01*
X132837500Y-69973910D02*
X132837500Y-64750000D01*
X140684315Y-75524990D02*
X140409325Y-75250000D01*
X141250000Y-75524990D02*
X140684315Y-75524990D01*
X138113590Y-75250000D02*
X132837500Y-69973910D01*
X140409325Y-75250000D02*
X138113590Y-75250000D01*
X151550020Y-104299980D02*
X151500000Y-104350000D01*
D27*
X151500000Y-88650000D02*
X151500000Y-104350000D01*
X143900000Y-81050000D02*
X151500000Y-88650000D01*
X148975000Y-59025000D02*
X151750000Y-61800000D01*
X147250000Y-59025000D02*
X148975000Y-59025000D01*
%TO.N,Net-(C3-Pad2)*%
X135412500Y-109000000D02*
X134912500Y-108500000D01*
X138900000Y-109000000D02*
X135412500Y-109000000D01*
X134912500Y-107612500D02*
X134912500Y-108500000D01*
X138025000Y-104500000D02*
X134912500Y-107612500D01*
D28*
%TO.N,RX*%
X163210000Y-108727500D02*
X161787500Y-110150000D01*
X163210000Y-104350000D02*
X163210000Y-108727500D01*
D27*
X163750000Y-78300010D02*
X163750000Y-75800000D01*
X165049990Y-79600000D02*
X163750000Y-78300010D01*
X165049990Y-102510010D02*
X165049990Y-79600000D01*
X163210000Y-104350000D02*
X165049990Y-102510010D01*
D28*
%TO.N,TX*%
X165750000Y-104350000D02*
X165600000Y-104350000D01*
X165750000Y-108012500D02*
X163612500Y-110150000D01*
X165750000Y-104350000D02*
X165750000Y-108012500D01*
D27*
X165750000Y-104350000D02*
X165750000Y-75800000D01*
D28*
%TO.N,onewire*%
X146412500Y-75250000D02*
X145162500Y-76500000D01*
X125980000Y-74980000D02*
X122730000Y-74980000D01*
X127500000Y-76500000D02*
X125980000Y-74980000D01*
X145162500Y-76500000D02*
X143000000Y-76500000D01*
X143000000Y-76500000D02*
X127500000Y-76500000D01*
D27*
X152200010Y-88200010D02*
X145000000Y-81000000D01*
X145000000Y-81000000D02*
X145000000Y-80925010D01*
X154040000Y-104350000D02*
X152200010Y-102510010D01*
X152200010Y-102510010D02*
X152200010Y-88200010D01*
D28*
X143000000Y-76500000D02*
X142000000Y-77500000D01*
X157114998Y-78250000D02*
X158385002Y-78250000D01*
X156650000Y-77785002D02*
X157114998Y-78250000D01*
X156650000Y-75014998D02*
X156650000Y-77785002D01*
X156409992Y-74774990D02*
X156650000Y-75014998D01*
X159750000Y-76885002D02*
X159750000Y-75800000D01*
X158385002Y-78250000D02*
X159750000Y-76885002D01*
X150725010Y-74774990D02*
X156409992Y-74774990D01*
X150250000Y-75250000D02*
X150725010Y-74774990D01*
X146412500Y-75250000D02*
X150250000Y-75250000D01*
%TO.N,rest*%
X140250000Y-62912500D02*
X140412500Y-62912500D01*
X140412500Y-62912500D02*
X142250000Y-64750000D01*
X142250000Y-64750000D02*
X144000000Y-64750000D01*
X144000000Y-64750000D02*
X145000000Y-65750000D01*
X141885001Y-69574999D02*
X140710000Y-70750000D01*
X142460003Y-69574999D02*
X141885001Y-69574999D01*
X145000000Y-67035002D02*
X142460003Y-69574999D01*
X145000000Y-65750000D02*
X145000000Y-67035002D01*
D27*
X168450000Y-59100000D02*
X165750000Y-61800000D01*
X177500000Y-59100000D02*
X168450000Y-59100000D01*
D28*
X145000000Y-67000000D02*
X145000000Y-67035002D01*
X147135010Y-64864990D02*
X145000000Y-67000000D01*
X151509992Y-64864990D02*
X147135010Y-64864990D01*
X157113590Y-66250000D02*
X152895002Y-66250000D01*
X158799990Y-64563600D02*
X157113590Y-66250000D01*
X158799990Y-59562559D02*
X158799990Y-64563600D01*
X159362549Y-59000000D02*
X158799990Y-59562559D01*
X164035002Y-59000000D02*
X159362549Y-59000000D01*
X165750000Y-60714998D02*
X164035002Y-59000000D01*
X152895002Y-66250000D02*
X151509992Y-64864990D01*
X165750000Y-61800000D02*
X165750000Y-60714998D01*
%TO.N,gpio16*%
X144250000Y-70750000D02*
X143250000Y-70750000D01*
X148250000Y-66750000D02*
X144250000Y-70750000D01*
X157250000Y-66750000D02*
X148250000Y-66750000D01*
X159250000Y-64750000D02*
X157250000Y-66750000D01*
X159250000Y-62300000D02*
X159750000Y-61800000D01*
X159250000Y-64750000D02*
X159250000Y-62300000D01*
%TO.N,Net-(J5-Pad2)*%
X137250000Y-63040000D02*
X137250000Y-62912500D01*
X140710000Y-66500000D02*
X137250000Y-63040000D01*
%TO.N,gpio0*%
X134662500Y-64750000D02*
X134662500Y-65412500D01*
X142074999Y-67675001D02*
X143250000Y-66500000D01*
X136925001Y-67675001D02*
X142074999Y-67675001D01*
X134662500Y-65412500D02*
X136925001Y-67675001D01*
X155021412Y-72750000D02*
X157750000Y-75478588D01*
X144750000Y-72750000D02*
X155021412Y-72750000D01*
X142700010Y-74799990D02*
X144750000Y-72750000D01*
X138299990Y-74799990D02*
X142700010Y-74799990D01*
X133287510Y-69787510D02*
X138299990Y-74799990D01*
X157750000Y-75478588D02*
X157750000Y-75800000D01*
X133287510Y-66124990D02*
X133287510Y-69787510D01*
X134662500Y-64750000D02*
X133287510Y-66124990D01*
%TO.N,gpio2*%
X155750000Y-78000000D02*
X155250000Y-78500000D01*
X155750000Y-75800000D02*
X155750000Y-78000000D01*
X162874999Y-77775001D02*
X162100000Y-78550000D01*
X162874999Y-74875001D02*
X162874999Y-77775001D01*
X163049990Y-74700010D02*
X162874999Y-74875001D01*
X168813600Y-74700010D02*
X163049990Y-74700010D01*
X170433599Y-76320009D02*
X168813600Y-74700010D01*
X179160010Y-76320010D02*
X170433599Y-76320009D01*
X181250000Y-78410000D02*
X179160010Y-76320010D01*
%TO.N,gpio5*%
X162125010Y-75624990D02*
X162125010Y-77512441D01*
X169000000Y-74250000D02*
X162750000Y-74250000D01*
X170620000Y-75870000D02*
X169000000Y-74250000D01*
X181250000Y-75870000D02*
X170620000Y-75870000D01*
X161750000Y-75250000D02*
X161750000Y-75800000D01*
X162750000Y-74250000D02*
X161750000Y-75250000D01*
%TO.N,gpio12*%
X166127200Y-69150020D02*
X177070020Y-69150020D01*
X164727180Y-67750000D02*
X166127200Y-69150020D01*
X163676998Y-67750000D02*
X164727180Y-67750000D01*
X163024999Y-67098001D02*
X163676998Y-67750000D01*
X177070020Y-69150020D02*
X181250000Y-73330000D01*
X163024999Y-66774999D02*
X163024999Y-67098001D01*
X162250000Y-66000000D02*
X163024999Y-66774999D01*
X161500000Y-66000000D02*
X162250000Y-66000000D01*
X155750000Y-63835784D02*
X156707108Y-64792892D01*
X155750000Y-61800000D02*
X155750000Y-63835784D01*
%TO.N,gpio13*%
X163750000Y-66750000D02*
X164363590Y-66750000D01*
X164363590Y-66750000D02*
X166313600Y-68700010D01*
X179160010Y-68700010D02*
X181250000Y-70790000D01*
X166313600Y-68700010D02*
X179160010Y-68700010D01*
X153750000Y-63250000D02*
X156000000Y-65500000D01*
X153750000Y-61800000D02*
X153750000Y-63250000D01*
%TO.N,gpio14*%
X161500000Y-64750000D02*
X163000000Y-64750000D01*
X166500000Y-68250000D02*
X181250000Y-68250000D01*
X163000000Y-64750000D02*
X166500000Y-68250000D01*
X157750000Y-61800000D02*
X157750000Y-64250000D01*
%TO.N,Net-(R3-Pad2)*%
X143000000Y-62912500D02*
X144162500Y-62912500D01*
X147127548Y-64225001D02*
X148602549Y-62750000D01*
X145475001Y-64225001D02*
X147127548Y-64225001D01*
X144162500Y-62912500D02*
X145475001Y-64225001D01*
X148602549Y-62750000D02*
X151500000Y-62750000D01*
X151500000Y-62750000D02*
X152250000Y-63500000D01*
X161700000Y-61800000D02*
X160250000Y-63250000D01*
X161750000Y-61800000D02*
X161700000Y-61800000D01*
%TO.N,Net-(R6-Pad1)*%
X153750000Y-76885002D02*
X153750000Y-75800000D01*
X150885002Y-79750000D02*
X153750000Y-76885002D01*
X149162500Y-79750000D02*
X150885002Y-79750000D01*
X147412500Y-78000000D02*
X149162500Y-79750000D01*
%TO.N,adc*%
X134412500Y-77750000D02*
X137087500Y-77750000D01*
X160650000Y-64526998D02*
X161151999Y-64024999D01*
X160650000Y-77985002D02*
X160650000Y-64526998D01*
X158434992Y-80200010D02*
X160650000Y-77985002D01*
X139537510Y-80200010D02*
X158434992Y-80200010D01*
X137087500Y-77750000D02*
X139537510Y-80200010D01*
X161525001Y-64024999D02*
X163750000Y-61800000D01*
X161151999Y-64024999D02*
X161525001Y-64024999D01*
%TO.N,Net-(R11-Pad1)*%
X141100000Y-109000000D02*
X143587500Y-109000000D01*
%TO.N,Net-(U3-Pad3)*%
X144088180Y-107974990D02*
X144425010Y-108311820D01*
X143086820Y-107974990D02*
X144088180Y-107974990D01*
X143011810Y-108050000D02*
X143086820Y-107974990D01*
X141100000Y-108050000D02*
X143011810Y-108050000D01*
X144425010Y-113544990D02*
X144095000Y-113875000D01*
X144425010Y-108311820D02*
X144425010Y-113544990D01*
%TO.N,Net-(U3-Pad1)*%
X152095000Y-113085000D02*
X152095000Y-113875000D01*
X146409999Y-107399999D02*
X152095000Y-113085000D01*
X140309999Y-107399999D02*
X146409999Y-107399999D01*
X140244999Y-107464999D02*
X140309999Y-107399999D01*
X140244999Y-109874999D02*
X140244999Y-107464999D01*
X140320000Y-109950000D02*
X140244999Y-109874999D01*
X141100000Y-109950000D02*
X140320000Y-109950000D01*
D26*
%TO.N,Net-(U4-Pad5)*%
X144095000Y-119125000D02*
X145365000Y-119125000D01*
X145365000Y-119125000D02*
X146635000Y-119125000D01*
X146635000Y-119125000D02*
X147905000Y-119125000D01*
X147905000Y-119125000D02*
X152095000Y-119125000D01*
X152095000Y-119125000D02*
X153365000Y-119125000D01*
X153365000Y-119125000D02*
X154635000Y-119125000D01*
X154635000Y-119125000D02*
X155905000Y-119125000D01*
%TD*%
D29*
%TO.N,P-*%
X184015000Y-67924250D02*
X184173750Y-68083000D01*
X185373000Y-68083000D01*
X185373000Y-68063000D01*
X185627000Y-68063000D01*
X185627000Y-68083000D01*
X186826250Y-68083000D01*
X186985000Y-67924250D01*
X186986618Y-67627000D01*
X188873000Y-67627000D01*
X188873000Y-104373000D01*
X180000000Y-104373000D01*
X179975224Y-104375440D01*
X179951399Y-104382667D01*
X179929443Y-104394403D01*
X179910197Y-104410197D01*
X179894403Y-104429443D01*
X179882667Y-104451399D01*
X179875440Y-104475224D01*
X179873000Y-104500000D01*
X179873000Y-120373000D01*
X156616046Y-120373000D01*
X156639089Y-120354089D01*
X156723577Y-120251139D01*
X156786358Y-120133684D01*
X156825018Y-120006239D01*
X156838072Y-119873700D01*
X156838072Y-119777159D01*
X156853284Y-119758623D01*
X156958676Y-119561447D01*
X157023577Y-119347499D01*
X157045491Y-119125000D01*
X157023577Y-118902501D01*
X156958676Y-118688553D01*
X156853284Y-118491377D01*
X156838072Y-118472841D01*
X156838072Y-118376300D01*
X156825018Y-118243761D01*
X156786358Y-118116316D01*
X156723577Y-117998861D01*
X156639089Y-117895911D01*
X156536139Y-117811423D01*
X156418684Y-117748642D01*
X156291239Y-117709982D01*
X156158700Y-117696928D01*
X155651300Y-117696928D01*
X155518761Y-117709982D01*
X155391316Y-117748642D01*
X155273861Y-117811423D01*
X155270000Y-117814592D01*
X155266139Y-117811423D01*
X155148684Y-117748642D01*
X155021239Y-117709982D01*
X154888700Y-117696928D01*
X154381300Y-117696928D01*
X154248761Y-117709982D01*
X154121316Y-117748642D01*
X154003861Y-117811423D01*
X154000000Y-117814592D01*
X153996139Y-117811423D01*
X153878684Y-117748642D01*
X153751239Y-117709982D01*
X153618700Y-117696928D01*
X153111300Y-117696928D01*
X152978761Y-117709982D01*
X152851316Y-117748642D01*
X152733861Y-117811423D01*
X152730000Y-117814592D01*
X152726139Y-117811423D01*
X152608684Y-117748642D01*
X152481239Y-117709982D01*
X152348700Y-117696928D01*
X151841300Y-117696928D01*
X151708761Y-117709982D01*
X151581316Y-117748642D01*
X151463861Y-117811423D01*
X151360911Y-117895911D01*
X151283695Y-117990000D01*
X148716305Y-117990000D01*
X148639089Y-117895911D01*
X148536139Y-117811423D01*
X148418684Y-117748642D01*
X148291239Y-117709982D01*
X148158700Y-117696928D01*
X147651300Y-117696928D01*
X147518761Y-117709982D01*
X147391316Y-117748642D01*
X147273861Y-117811423D01*
X147270000Y-117814592D01*
X147266139Y-117811423D01*
X147148684Y-117748642D01*
X147021239Y-117709982D01*
X146888700Y-117696928D01*
X146381300Y-117696928D01*
X146248761Y-117709982D01*
X146121316Y-117748642D01*
X146003861Y-117811423D01*
X146000000Y-117814592D01*
X145996139Y-117811423D01*
X145878684Y-117748642D01*
X145751239Y-117709982D01*
X145618700Y-117696928D01*
X145111300Y-117696928D01*
X144978761Y-117709982D01*
X144851316Y-117748642D01*
X144733861Y-117811423D01*
X144730000Y-117814592D01*
X144726139Y-117811423D01*
X144608684Y-117748642D01*
X144481239Y-117709982D01*
X144348700Y-117696928D01*
X143841300Y-117696928D01*
X143708761Y-117709982D01*
X143581316Y-117748642D01*
X143463861Y-117811423D01*
X143360911Y-117895911D01*
X143276423Y-117998861D01*
X143213642Y-118116316D01*
X143174982Y-118243761D01*
X143161928Y-118376300D01*
X143161928Y-118472841D01*
X143146716Y-118491377D01*
X143041324Y-118688553D01*
X142976423Y-118902501D01*
X142954509Y-119125000D01*
X142976423Y-119347499D01*
X143041324Y-119561447D01*
X143146716Y-119758623D01*
X143161928Y-119777159D01*
X143161928Y-119873700D01*
X143174982Y-120006239D01*
X143213642Y-120133684D01*
X143276423Y-120251139D01*
X143360911Y-120354089D01*
X143383954Y-120373000D01*
X120127000Y-120373000D01*
X120127000Y-115000000D01*
X123861928Y-115000000D01*
X123874188Y-115124482D01*
X123910498Y-115244180D01*
X123969463Y-115354494D01*
X124048815Y-115451185D01*
X124145506Y-115530537D01*
X124255820Y-115589502D01*
X124375518Y-115625812D01*
X124500000Y-115638072D01*
X125714250Y-115635000D01*
X125873000Y-115476250D01*
X125873000Y-113627000D01*
X126127000Y-113627000D01*
X126127000Y-115476250D01*
X126285750Y-115635000D01*
X127500000Y-115638072D01*
X127624482Y-115625812D01*
X127744180Y-115589502D01*
X127854494Y-115530537D01*
X127951185Y-115451185D01*
X128030537Y-115354494D01*
X128089502Y-115244180D01*
X128125812Y-115124482D01*
X128138072Y-115000000D01*
X128135000Y-113785750D01*
X127976250Y-113627000D01*
X126127000Y-113627000D01*
X125873000Y-113627000D01*
X124023750Y-113627000D01*
X123865000Y-113785750D01*
X123861928Y-115000000D01*
X120127000Y-115000000D01*
X120127000Y-112000000D01*
X123861928Y-112000000D01*
X123865000Y-113214250D01*
X124023750Y-113373000D01*
X125873000Y-113373000D01*
X125873000Y-111523750D01*
X126127000Y-111523750D01*
X126127000Y-113373000D01*
X127976250Y-113373000D01*
X128135000Y-113214250D01*
X128138072Y-112000000D01*
X128125812Y-111875518D01*
X128089502Y-111755820D01*
X128030537Y-111645506D01*
X127951185Y-111548815D01*
X127854494Y-111469463D01*
X127744180Y-111410498D01*
X127624482Y-111374188D01*
X127500000Y-111361928D01*
X126285750Y-111365000D01*
X126127000Y-111523750D01*
X125873000Y-111523750D01*
X125714250Y-111365000D01*
X124500000Y-111361928D01*
X124375518Y-111374188D01*
X124255820Y-111410498D01*
X124145506Y-111469463D01*
X124048815Y-111548815D01*
X123969463Y-111645506D01*
X123910498Y-111755820D01*
X123874188Y-111875518D01*
X123861928Y-112000000D01*
X120127000Y-112000000D01*
X120127000Y-111500000D01*
X120124560Y-111475224D01*
X120117333Y-111451399D01*
X120105597Y-111429443D01*
X120089803Y-111410197D01*
X120070557Y-111394403D01*
X120048601Y-111382667D01*
X120024776Y-111375440D01*
X120000000Y-111373000D01*
X118274097Y-111373000D01*
X118289502Y-111344180D01*
X118325812Y-111224482D01*
X118338072Y-111100000D01*
X118335000Y-110985750D01*
X118176250Y-110827000D01*
X117377000Y-110827000D01*
X117377000Y-110847000D01*
X117123000Y-110847000D01*
X117123000Y-110827000D01*
X116323750Y-110827000D01*
X116165000Y-110985750D01*
X116161928Y-111100000D01*
X116174188Y-111224482D01*
X116210498Y-111344180D01*
X116225903Y-111373000D01*
X112127000Y-111373000D01*
X112127000Y-91835671D01*
X112219369Y-92058669D01*
X112463962Y-92424729D01*
X112775271Y-92736038D01*
X113065000Y-92929629D01*
X113065001Y-96644239D01*
X113059509Y-96700000D01*
X113081423Y-96922498D01*
X113146324Y-97136446D01*
X113146325Y-97136447D01*
X113251717Y-97333623D01*
X113393552Y-97506449D01*
X113436860Y-97541991D01*
X123259868Y-107365000D01*
X117605751Y-107365000D01*
X117549999Y-107359509D01*
X117494248Y-107365000D01*
X117327501Y-107381423D01*
X117113553Y-107446324D01*
X116916377Y-107551716D01*
X116743551Y-107693551D01*
X116708004Y-107736865D01*
X116668575Y-107776294D01*
X116555820Y-107810498D01*
X116445506Y-107869463D01*
X116348815Y-107948815D01*
X116269463Y-108045506D01*
X116210498Y-108155820D01*
X116174188Y-108275518D01*
X116161928Y-108400000D01*
X116161928Y-108476941D01*
X116131423Y-108577502D01*
X116109509Y-108800000D01*
X116131423Y-109022498D01*
X116161928Y-109123059D01*
X116161928Y-109200000D01*
X116174188Y-109324482D01*
X116210498Y-109444180D01*
X116269463Y-109554494D01*
X116348815Y-109651185D01*
X116445506Y-109730537D01*
X116481918Y-109750000D01*
X116445506Y-109769463D01*
X116348815Y-109848815D01*
X116269463Y-109945506D01*
X116210498Y-110055820D01*
X116174188Y-110175518D01*
X116161928Y-110300000D01*
X116165000Y-110414250D01*
X116323750Y-110573000D01*
X117123000Y-110573000D01*
X117123000Y-110553000D01*
X117377000Y-110553000D01*
X117377000Y-110573000D01*
X118176250Y-110573000D01*
X118260857Y-110488393D01*
X118269463Y-110504494D01*
X118348815Y-110601185D01*
X118445506Y-110680537D01*
X118555820Y-110739502D01*
X118675518Y-110775812D01*
X118800000Y-110788072D01*
X119700000Y-110788072D01*
X119824482Y-110775812D01*
X119944180Y-110739502D01*
X120054494Y-110680537D01*
X120151185Y-110601185D01*
X120230537Y-110504494D01*
X120289502Y-110394180D01*
X120325812Y-110274482D01*
X120338072Y-110150000D01*
X120338072Y-109635000D01*
X124190640Y-109635000D01*
X124341637Y-109860983D01*
X124639017Y-110158363D01*
X124988698Y-110392012D01*
X125377244Y-110552953D01*
X125789721Y-110635000D01*
X126210279Y-110635000D01*
X126622756Y-110552953D01*
X127011302Y-110392012D01*
X127360983Y-110158363D01*
X127658363Y-109860983D01*
X127892012Y-109511302D01*
X127944328Y-109385000D01*
X132055386Y-109385000D01*
X132086595Y-109443387D01*
X132197038Y-109577962D01*
X132331613Y-109688405D01*
X132485148Y-109770472D01*
X132651744Y-109821008D01*
X132824998Y-109838072D01*
X133350002Y-109838072D01*
X133523256Y-109821008D01*
X133689852Y-109770472D01*
X133843387Y-109688405D01*
X133977962Y-109577962D01*
X134000000Y-109551109D01*
X134022038Y-109577962D01*
X134156613Y-109688405D01*
X134310148Y-109770472D01*
X134476744Y-109821008D01*
X134649998Y-109838072D01*
X135126523Y-109838072D01*
X135239010Y-109872195D01*
X135369023Y-109885000D01*
X135369031Y-109885000D01*
X135412500Y-109889281D01*
X135455969Y-109885000D01*
X137731928Y-109885000D01*
X137731928Y-110275000D01*
X137744188Y-110399482D01*
X137780498Y-110519180D01*
X137839463Y-110629494D01*
X137918815Y-110726185D01*
X138015506Y-110805537D01*
X138125820Y-110864502D01*
X138245518Y-110900812D01*
X138370000Y-110913072D01*
X139430000Y-110913072D01*
X139554482Y-110900812D01*
X139674180Y-110864502D01*
X139784494Y-110805537D01*
X139881185Y-110726185D01*
X139928189Y-110668911D01*
X139972247Y-110655546D01*
X140000000Y-110640711D01*
X140027753Y-110655546D01*
X140071811Y-110668911D01*
X140118815Y-110726185D01*
X140215506Y-110805537D01*
X140325820Y-110864502D01*
X140445518Y-110900812D01*
X140570000Y-110913072D01*
X141630000Y-110913072D01*
X141754482Y-110900812D01*
X141874180Y-110864502D01*
X141984494Y-110805537D01*
X142081185Y-110726185D01*
X142160537Y-110629494D01*
X142219502Y-110519180D01*
X142255812Y-110399482D01*
X142268072Y-110275000D01*
X142268072Y-109760000D01*
X142495473Y-109760000D01*
X142504528Y-109789852D01*
X142586595Y-109943387D01*
X142697038Y-110077962D01*
X142831613Y-110188405D01*
X142985148Y-110270472D01*
X143151744Y-110321008D01*
X143324998Y-110338072D01*
X143665010Y-110338072D01*
X143665011Y-112473253D01*
X143581316Y-112498642D01*
X143463861Y-112561423D01*
X143360911Y-112645911D01*
X143276423Y-112748861D01*
X143213642Y-112866316D01*
X143174982Y-112993761D01*
X143161928Y-113126300D01*
X143161928Y-114623700D01*
X143174982Y-114756239D01*
X143213642Y-114883684D01*
X143276423Y-115001139D01*
X143360911Y-115104089D01*
X143463861Y-115188577D01*
X143581316Y-115251358D01*
X143708761Y-115290018D01*
X143841300Y-115303072D01*
X144348700Y-115303072D01*
X144481239Y-115290018D01*
X144608684Y-115251358D01*
X144714564Y-115194764D01*
X144715506Y-115195537D01*
X144825820Y-115254502D01*
X144945518Y-115290812D01*
X145070000Y-115303072D01*
X145079250Y-115300000D01*
X145238000Y-115141250D01*
X145238000Y-114002000D01*
X145492000Y-114002000D01*
X145492000Y-115141250D01*
X145650750Y-115300000D01*
X145660000Y-115303072D01*
X145784482Y-115290812D01*
X145904180Y-115254502D01*
X146000000Y-115203284D01*
X146095820Y-115254502D01*
X146215518Y-115290812D01*
X146340000Y-115303072D01*
X146349250Y-115300000D01*
X146508000Y-115141250D01*
X146508000Y-114002000D01*
X146762000Y-114002000D01*
X146762000Y-115141250D01*
X146920750Y-115300000D01*
X146930000Y-115303072D01*
X147054482Y-115290812D01*
X147174180Y-115254502D01*
X147270000Y-115203284D01*
X147365820Y-115254502D01*
X147485518Y-115290812D01*
X147610000Y-115303072D01*
X147619250Y-115300000D01*
X147778000Y-115141250D01*
X147778000Y-114002000D01*
X148032000Y-114002000D01*
X148032000Y-115141250D01*
X148190750Y-115300000D01*
X148200000Y-115303072D01*
X148324482Y-115290812D01*
X148444180Y-115254502D01*
X148554494Y-115195537D01*
X148651185Y-115116185D01*
X148730537Y-115019494D01*
X148789502Y-114909180D01*
X148825812Y-114789482D01*
X148838072Y-114665000D01*
X148835000Y-114160750D01*
X148676250Y-114002000D01*
X148032000Y-114002000D01*
X147778000Y-114002000D01*
X146762000Y-114002000D01*
X146508000Y-114002000D01*
X145492000Y-114002000D01*
X145238000Y-114002000D01*
X145218000Y-114002000D01*
X145218000Y-113748000D01*
X145238000Y-113748000D01*
X145238000Y-112608750D01*
X145492000Y-112608750D01*
X145492000Y-113748000D01*
X146508000Y-113748000D01*
X146508000Y-112608750D01*
X146762000Y-112608750D01*
X146762000Y-113748000D01*
X147778000Y-113748000D01*
X147778000Y-112608750D01*
X148032000Y-112608750D01*
X148032000Y-113748000D01*
X148676250Y-113748000D01*
X148835000Y-113589250D01*
X148838072Y-113085000D01*
X148825812Y-112960518D01*
X148789502Y-112840820D01*
X148730537Y-112730506D01*
X148651185Y-112633815D01*
X148554494Y-112554463D01*
X148444180Y-112495498D01*
X148324482Y-112459188D01*
X148200000Y-112446928D01*
X148190750Y-112450000D01*
X148032000Y-112608750D01*
X147778000Y-112608750D01*
X147619250Y-112450000D01*
X147610000Y-112446928D01*
X147485518Y-112459188D01*
X147365820Y-112495498D01*
X147270000Y-112546716D01*
X147174180Y-112495498D01*
X147054482Y-112459188D01*
X146930000Y-112446928D01*
X146920750Y-112450000D01*
X146762000Y-112608750D01*
X146508000Y-112608750D01*
X146349250Y-112450000D01*
X146340000Y-112446928D01*
X146215518Y-112459188D01*
X146095820Y-112495498D01*
X146000000Y-112546716D01*
X145904180Y-112495498D01*
X145784482Y-112459188D01*
X145660000Y-112446928D01*
X145650750Y-112450000D01*
X145492000Y-112608750D01*
X145238000Y-112608750D01*
X145185010Y-112555760D01*
X145185010Y-110276740D01*
X145285500Y-110176250D01*
X145285500Y-109127000D01*
X145539500Y-109127000D01*
X145539500Y-110176250D01*
X145698250Y-110335000D01*
X145925000Y-110338072D01*
X146049482Y-110325812D01*
X146169180Y-110289502D01*
X146279494Y-110230537D01*
X146376185Y-110151185D01*
X146455537Y-110054494D01*
X146514502Y-109944180D01*
X146550812Y-109824482D01*
X146563072Y-109700000D01*
X146560000Y-109285750D01*
X146401250Y-109127000D01*
X145539500Y-109127000D01*
X145285500Y-109127000D01*
X145265500Y-109127000D01*
X145265500Y-108873000D01*
X145285500Y-108873000D01*
X145285500Y-108853000D01*
X145539500Y-108853000D01*
X145539500Y-108873000D01*
X146401250Y-108873000D01*
X146560000Y-108714250D01*
X146560658Y-108625460D01*
X151161928Y-113226730D01*
X151161928Y-114623700D01*
X151174982Y-114756239D01*
X151213642Y-114883684D01*
X151276423Y-115001139D01*
X151360911Y-115104089D01*
X151463861Y-115188577D01*
X151581316Y-115251358D01*
X151708761Y-115290018D01*
X151841300Y-115303072D01*
X152348700Y-115303072D01*
X152481239Y-115290018D01*
X152608684Y-115251358D01*
X152726139Y-115188577D01*
X152730000Y-115185408D01*
X152733861Y-115188577D01*
X152851316Y-115251358D01*
X152978761Y-115290018D01*
X153111300Y-115303072D01*
X153618700Y-115303072D01*
X153751239Y-115290018D01*
X153878684Y-115251358D01*
X153996139Y-115188577D01*
X154000000Y-115185408D01*
X154003861Y-115188577D01*
X154121316Y-115251358D01*
X154248761Y-115290018D01*
X154381300Y-115303072D01*
X154888700Y-115303072D01*
X155021239Y-115290018D01*
X155148684Y-115251358D01*
X155266139Y-115188577D01*
X155270000Y-115185408D01*
X155273861Y-115188577D01*
X155391316Y-115251358D01*
X155518761Y-115290018D01*
X155651300Y-115303072D01*
X156158700Y-115303072D01*
X156291239Y-115290018D01*
X156418684Y-115251358D01*
X156536139Y-115188577D01*
X156639089Y-115104089D01*
X156716305Y-115010000D01*
X162669249Y-115010000D01*
X162725000Y-115015491D01*
X162780751Y-115010000D01*
X162780752Y-115010000D01*
X162947499Y-114993577D01*
X163161447Y-114928676D01*
X163358623Y-114823284D01*
X163531449Y-114681449D01*
X163566996Y-114638135D01*
X185038112Y-93167020D01*
X185379872Y-93235000D01*
X185820128Y-93235000D01*
X186251925Y-93149110D01*
X186658669Y-92980631D01*
X187024729Y-92736038D01*
X187336038Y-92424729D01*
X187580631Y-92058669D01*
X187749110Y-91651925D01*
X187835000Y-91220128D01*
X187835000Y-90779872D01*
X187749110Y-90348075D01*
X187580631Y-89941331D01*
X187336038Y-89575271D01*
X187024729Y-89263962D01*
X186658669Y-89019369D01*
X186251925Y-88850890D01*
X185820128Y-88765000D01*
X185379872Y-88765000D01*
X184948075Y-88850890D01*
X184541331Y-89019369D01*
X184175271Y-89263962D01*
X183863962Y-89575271D01*
X183619369Y-89941331D01*
X183450890Y-90348075D01*
X183365000Y-90779872D01*
X183365000Y-91220128D01*
X183432980Y-91561888D01*
X164763072Y-110231797D01*
X164763072Y-110074230D01*
X166261008Y-108576295D01*
X166290001Y-108552501D01*
X166313795Y-108523508D01*
X166313799Y-108523504D01*
X166384973Y-108436777D01*
X166384974Y-108436776D01*
X166455546Y-108304747D01*
X166499003Y-108161486D01*
X166510000Y-108049833D01*
X166510000Y-108049824D01*
X166513676Y-108012501D01*
X166510000Y-107975178D01*
X166510000Y-105838072D01*
X166600000Y-105838072D01*
X166724482Y-105825812D01*
X166844180Y-105789502D01*
X166954494Y-105730537D01*
X167051185Y-105651185D01*
X167130537Y-105554494D01*
X167189502Y-105444180D01*
X167225812Y-105324482D01*
X167238072Y-105200000D01*
X167238072Y-103500000D01*
X167225812Y-103375518D01*
X167189502Y-103255820D01*
X167130537Y-103145506D01*
X167051185Y-103048815D01*
X166954494Y-102969463D01*
X166844180Y-102910498D01*
X166724482Y-102874188D01*
X166635000Y-102865375D01*
X166635000Y-84863945D01*
X172915000Y-84863945D01*
X172915000Y-85836055D01*
X173104650Y-86789486D01*
X173476660Y-87687599D01*
X174016735Y-88495879D01*
X174704121Y-89183265D01*
X175512401Y-89723340D01*
X176410514Y-90095350D01*
X177363945Y-90285000D01*
X178336055Y-90285000D01*
X179289486Y-90095350D01*
X180187599Y-89723340D01*
X180995879Y-89183265D01*
X181683265Y-88495879D01*
X182223340Y-87687599D01*
X182595350Y-86789486D01*
X182785000Y-85836055D01*
X182785000Y-84863945D01*
X182595350Y-83910514D01*
X182223340Y-83012401D01*
X181683265Y-82204121D01*
X180995879Y-81516735D01*
X180187599Y-80976660D01*
X179289486Y-80604650D01*
X178336055Y-80415000D01*
X177363945Y-80415000D01*
X176410514Y-80604650D01*
X175512401Y-80976660D01*
X174704121Y-81516735D01*
X174016735Y-82204121D01*
X173476660Y-83012401D01*
X173104650Y-83910514D01*
X172915000Y-84863945D01*
X166635000Y-84863945D01*
X166635000Y-78290957D01*
X166654494Y-78280537D01*
X166751185Y-78201185D01*
X166830537Y-78104494D01*
X166889502Y-77994180D01*
X166925812Y-77874482D01*
X166938072Y-77750000D01*
X166938072Y-75460010D01*
X168498799Y-75460010D01*
X169869804Y-76831016D01*
X169893598Y-76860009D01*
X169922591Y-76883803D01*
X169922596Y-76883808D01*
X170009323Y-76954983D01*
X170141352Y-77025555D01*
X170284613Y-77069012D01*
X170433599Y-77083686D01*
X170470942Y-77080008D01*
X178845209Y-77080010D01*
X179808790Y-78043592D01*
X179765000Y-78263740D01*
X179765000Y-78556260D01*
X179822068Y-78843158D01*
X179934010Y-79113411D01*
X180096525Y-79356632D01*
X180303368Y-79563475D01*
X180546589Y-79725990D01*
X180816842Y-79837932D01*
X181103740Y-79895000D01*
X181396260Y-79895000D01*
X181683158Y-79837932D01*
X181953411Y-79725990D01*
X182196632Y-79563475D01*
X182403475Y-79356632D01*
X182565990Y-79113411D01*
X182677932Y-78843158D01*
X182701059Y-78726890D01*
X184058524Y-78726890D01*
X184103175Y-78874099D01*
X184228359Y-79136920D01*
X184402412Y-79370269D01*
X184618645Y-79565178D01*
X184868748Y-79714157D01*
X185143109Y-79811481D01*
X185373000Y-79690814D01*
X185373000Y-78497000D01*
X185627000Y-78497000D01*
X185627000Y-79690814D01*
X185856891Y-79811481D01*
X186131252Y-79714157D01*
X186381355Y-79565178D01*
X186597588Y-79370269D01*
X186771641Y-79136920D01*
X186896825Y-78874099D01*
X186941476Y-78726890D01*
X186820155Y-78497000D01*
X185627000Y-78497000D01*
X185373000Y-78497000D01*
X184179845Y-78497000D01*
X184058524Y-78726890D01*
X182701059Y-78726890D01*
X182735000Y-78556260D01*
X182735000Y-78263740D01*
X182677932Y-77976842D01*
X182565990Y-77706589D01*
X182403475Y-77463368D01*
X182196632Y-77256525D01*
X182022240Y-77140000D01*
X182196632Y-77023475D01*
X182403475Y-76816632D01*
X182565990Y-76573411D01*
X182677932Y-76303158D01*
X182701059Y-76186890D01*
X184058524Y-76186890D01*
X184103175Y-76334099D01*
X184228359Y-76596920D01*
X184402412Y-76830269D01*
X184618645Y-77025178D01*
X184744255Y-77100000D01*
X184618645Y-77174822D01*
X184402412Y-77369731D01*
X184228359Y-77603080D01*
X184103175Y-77865901D01*
X184058524Y-78013110D01*
X184179845Y-78243000D01*
X185373000Y-78243000D01*
X185373000Y-75957000D01*
X185627000Y-75957000D01*
X185627000Y-78243000D01*
X186820155Y-78243000D01*
X186941476Y-78013110D01*
X186896825Y-77865901D01*
X186771641Y-77603080D01*
X186597588Y-77369731D01*
X186381355Y-77174822D01*
X186255745Y-77100000D01*
X186381355Y-77025178D01*
X186597588Y-76830269D01*
X186771641Y-76596920D01*
X186896825Y-76334099D01*
X186941476Y-76186890D01*
X186820155Y-75957000D01*
X185627000Y-75957000D01*
X185373000Y-75957000D01*
X184179845Y-75957000D01*
X184058524Y-76186890D01*
X182701059Y-76186890D01*
X182735000Y-76016260D01*
X182735000Y-75723740D01*
X182677932Y-75436842D01*
X182565990Y-75166589D01*
X182403475Y-74923368D01*
X182196632Y-74716525D01*
X182022240Y-74600000D01*
X182196632Y-74483475D01*
X182403475Y-74276632D01*
X182565990Y-74033411D01*
X182677932Y-73763158D01*
X182701059Y-73646890D01*
X184058524Y-73646890D01*
X184103175Y-73794099D01*
X184228359Y-74056920D01*
X184402412Y-74290269D01*
X184618645Y-74485178D01*
X184744255Y-74560000D01*
X184618645Y-74634822D01*
X184402412Y-74829731D01*
X184228359Y-75063080D01*
X184103175Y-75325901D01*
X184058524Y-75473110D01*
X184179845Y-75703000D01*
X185373000Y-75703000D01*
X185373000Y-73417000D01*
X185627000Y-73417000D01*
X185627000Y-75703000D01*
X186820155Y-75703000D01*
X186941476Y-75473110D01*
X186896825Y-75325901D01*
X186771641Y-75063080D01*
X186597588Y-74829731D01*
X186381355Y-74634822D01*
X186255745Y-74560000D01*
X186381355Y-74485178D01*
X186597588Y-74290269D01*
X186771641Y-74056920D01*
X186896825Y-73794099D01*
X186941476Y-73646890D01*
X186820155Y-73417000D01*
X185627000Y-73417000D01*
X185373000Y-73417000D01*
X184179845Y-73417000D01*
X184058524Y-73646890D01*
X182701059Y-73646890D01*
X182735000Y-73476260D01*
X182735000Y-73183740D01*
X182677932Y-72896842D01*
X182565990Y-72626589D01*
X182403475Y-72383368D01*
X182196632Y-72176525D01*
X182022240Y-72060000D01*
X182196632Y-71943475D01*
X182403475Y-71736632D01*
X182565990Y-71493411D01*
X182677932Y-71223158D01*
X182701059Y-71106890D01*
X184058524Y-71106890D01*
X184103175Y-71254099D01*
X184228359Y-71516920D01*
X184402412Y-71750269D01*
X184618645Y-71945178D01*
X184744255Y-72020000D01*
X184618645Y-72094822D01*
X184402412Y-72289731D01*
X184228359Y-72523080D01*
X184103175Y-72785901D01*
X184058524Y-72933110D01*
X184179845Y-73163000D01*
X185373000Y-73163000D01*
X185373000Y-70877000D01*
X185627000Y-70877000D01*
X185627000Y-73163000D01*
X186820155Y-73163000D01*
X186941476Y-72933110D01*
X186896825Y-72785901D01*
X186771641Y-72523080D01*
X186597588Y-72289731D01*
X186381355Y-72094822D01*
X186255745Y-72020000D01*
X186381355Y-71945178D01*
X186597588Y-71750269D01*
X186771641Y-71516920D01*
X186896825Y-71254099D01*
X186941476Y-71106890D01*
X186820155Y-70877000D01*
X185627000Y-70877000D01*
X185373000Y-70877000D01*
X184179845Y-70877000D01*
X184058524Y-71106890D01*
X182701059Y-71106890D01*
X182735000Y-70936260D01*
X182735000Y-70643740D01*
X182677932Y-70356842D01*
X182565990Y-70086589D01*
X182403475Y-69843368D01*
X182271620Y-69711513D01*
X182344180Y-69689502D01*
X182454494Y-69630537D01*
X182551185Y-69551185D01*
X182630537Y-69454494D01*
X182689502Y-69344180D01*
X182725812Y-69224482D01*
X182738072Y-69100000D01*
X182738072Y-69060000D01*
X184011928Y-69060000D01*
X184024188Y-69184482D01*
X184060498Y-69304180D01*
X184119463Y-69414494D01*
X184198815Y-69511185D01*
X184295506Y-69590537D01*
X184405820Y-69649502D01*
X184486466Y-69673966D01*
X184402412Y-69749731D01*
X184228359Y-69983080D01*
X184103175Y-70245901D01*
X184058524Y-70393110D01*
X184179845Y-70623000D01*
X185373000Y-70623000D01*
X185373000Y-68337000D01*
X185627000Y-68337000D01*
X185627000Y-70623000D01*
X186820155Y-70623000D01*
X186941476Y-70393110D01*
X186896825Y-70245901D01*
X186771641Y-69983080D01*
X186597588Y-69749731D01*
X186513534Y-69673966D01*
X186594180Y-69649502D01*
X186704494Y-69590537D01*
X186801185Y-69511185D01*
X186880537Y-69414494D01*
X186939502Y-69304180D01*
X186975812Y-69184482D01*
X186988072Y-69060000D01*
X186985000Y-68495750D01*
X186826250Y-68337000D01*
X185627000Y-68337000D01*
X185373000Y-68337000D01*
X184173750Y-68337000D01*
X184015000Y-68495750D01*
X184011928Y-69060000D01*
X182738072Y-69060000D01*
X182738072Y-67627000D01*
X184013382Y-67627000D01*
X184015000Y-67924250D01*
%TA.AperFunction,Conductor*%
D30*
G36*
X184015000Y-67924250D02*
G01*
X184173750Y-68083000D01*
X185373000Y-68083000D01*
X185373000Y-68063000D01*
X185627000Y-68063000D01*
X185627000Y-68083000D01*
X186826250Y-68083000D01*
X186985000Y-67924250D01*
X186986618Y-67627000D01*
X188873000Y-67627000D01*
X188873000Y-104373000D01*
X180000000Y-104373000D01*
X179975224Y-104375440D01*
X179951399Y-104382667D01*
X179929443Y-104394403D01*
X179910197Y-104410197D01*
X179894403Y-104429443D01*
X179882667Y-104451399D01*
X179875440Y-104475224D01*
X179873000Y-104500000D01*
X179873000Y-120373000D01*
X156616046Y-120373000D01*
X156639089Y-120354089D01*
X156723577Y-120251139D01*
X156786358Y-120133684D01*
X156825018Y-120006239D01*
X156838072Y-119873700D01*
X156838072Y-119777159D01*
X156853284Y-119758623D01*
X156958676Y-119561447D01*
X157023577Y-119347499D01*
X157045491Y-119125000D01*
X157023577Y-118902501D01*
X156958676Y-118688553D01*
X156853284Y-118491377D01*
X156838072Y-118472841D01*
X156838072Y-118376300D01*
X156825018Y-118243761D01*
X156786358Y-118116316D01*
X156723577Y-117998861D01*
X156639089Y-117895911D01*
X156536139Y-117811423D01*
X156418684Y-117748642D01*
X156291239Y-117709982D01*
X156158700Y-117696928D01*
X155651300Y-117696928D01*
X155518761Y-117709982D01*
X155391316Y-117748642D01*
X155273861Y-117811423D01*
X155270000Y-117814592D01*
X155266139Y-117811423D01*
X155148684Y-117748642D01*
X155021239Y-117709982D01*
X154888700Y-117696928D01*
X154381300Y-117696928D01*
X154248761Y-117709982D01*
X154121316Y-117748642D01*
X154003861Y-117811423D01*
X154000000Y-117814592D01*
X153996139Y-117811423D01*
X153878684Y-117748642D01*
X153751239Y-117709982D01*
X153618700Y-117696928D01*
X153111300Y-117696928D01*
X152978761Y-117709982D01*
X152851316Y-117748642D01*
X152733861Y-117811423D01*
X152730000Y-117814592D01*
X152726139Y-117811423D01*
X152608684Y-117748642D01*
X152481239Y-117709982D01*
X152348700Y-117696928D01*
X151841300Y-117696928D01*
X151708761Y-117709982D01*
X151581316Y-117748642D01*
X151463861Y-117811423D01*
X151360911Y-117895911D01*
X151283695Y-117990000D01*
X148716305Y-117990000D01*
X148639089Y-117895911D01*
X148536139Y-117811423D01*
X148418684Y-117748642D01*
X148291239Y-117709982D01*
X148158700Y-117696928D01*
X147651300Y-117696928D01*
X147518761Y-117709982D01*
X147391316Y-117748642D01*
X147273861Y-117811423D01*
X147270000Y-117814592D01*
X147266139Y-117811423D01*
X147148684Y-117748642D01*
X147021239Y-117709982D01*
X146888700Y-117696928D01*
X146381300Y-117696928D01*
X146248761Y-117709982D01*
X146121316Y-117748642D01*
X146003861Y-117811423D01*
X146000000Y-117814592D01*
X145996139Y-117811423D01*
X145878684Y-117748642D01*
X145751239Y-117709982D01*
X145618700Y-117696928D01*
X145111300Y-117696928D01*
X144978761Y-117709982D01*
X144851316Y-117748642D01*
X144733861Y-117811423D01*
X144730000Y-117814592D01*
X144726139Y-117811423D01*
X144608684Y-117748642D01*
X144481239Y-117709982D01*
X144348700Y-117696928D01*
X143841300Y-117696928D01*
X143708761Y-117709982D01*
X143581316Y-117748642D01*
X143463861Y-117811423D01*
X143360911Y-117895911D01*
X143276423Y-117998861D01*
X143213642Y-118116316D01*
X143174982Y-118243761D01*
X143161928Y-118376300D01*
X143161928Y-118472841D01*
X143146716Y-118491377D01*
X143041324Y-118688553D01*
X142976423Y-118902501D01*
X142954509Y-119125000D01*
X142976423Y-119347499D01*
X143041324Y-119561447D01*
X143146716Y-119758623D01*
X143161928Y-119777159D01*
X143161928Y-119873700D01*
X143174982Y-120006239D01*
X143213642Y-120133684D01*
X143276423Y-120251139D01*
X143360911Y-120354089D01*
X143383954Y-120373000D01*
X120127000Y-120373000D01*
X120127000Y-115000000D01*
X123861928Y-115000000D01*
X123874188Y-115124482D01*
X123910498Y-115244180D01*
X123969463Y-115354494D01*
X124048815Y-115451185D01*
X124145506Y-115530537D01*
X124255820Y-115589502D01*
X124375518Y-115625812D01*
X124500000Y-115638072D01*
X125714250Y-115635000D01*
X125873000Y-115476250D01*
X125873000Y-113627000D01*
X126127000Y-113627000D01*
X126127000Y-115476250D01*
X126285750Y-115635000D01*
X127500000Y-115638072D01*
X127624482Y-115625812D01*
X127744180Y-115589502D01*
X127854494Y-115530537D01*
X127951185Y-115451185D01*
X128030537Y-115354494D01*
X128089502Y-115244180D01*
X128125812Y-115124482D01*
X128138072Y-115000000D01*
X128135000Y-113785750D01*
X127976250Y-113627000D01*
X126127000Y-113627000D01*
X125873000Y-113627000D01*
X124023750Y-113627000D01*
X123865000Y-113785750D01*
X123861928Y-115000000D01*
X120127000Y-115000000D01*
X120127000Y-112000000D01*
X123861928Y-112000000D01*
X123865000Y-113214250D01*
X124023750Y-113373000D01*
X125873000Y-113373000D01*
X125873000Y-111523750D01*
X126127000Y-111523750D01*
X126127000Y-113373000D01*
X127976250Y-113373000D01*
X128135000Y-113214250D01*
X128138072Y-112000000D01*
X128125812Y-111875518D01*
X128089502Y-111755820D01*
X128030537Y-111645506D01*
X127951185Y-111548815D01*
X127854494Y-111469463D01*
X127744180Y-111410498D01*
X127624482Y-111374188D01*
X127500000Y-111361928D01*
X126285750Y-111365000D01*
X126127000Y-111523750D01*
X125873000Y-111523750D01*
X125714250Y-111365000D01*
X124500000Y-111361928D01*
X124375518Y-111374188D01*
X124255820Y-111410498D01*
X124145506Y-111469463D01*
X124048815Y-111548815D01*
X123969463Y-111645506D01*
X123910498Y-111755820D01*
X123874188Y-111875518D01*
X123861928Y-112000000D01*
X120127000Y-112000000D01*
X120127000Y-111500000D01*
X120124560Y-111475224D01*
X120117333Y-111451399D01*
X120105597Y-111429443D01*
X120089803Y-111410197D01*
X120070557Y-111394403D01*
X120048601Y-111382667D01*
X120024776Y-111375440D01*
X120000000Y-111373000D01*
X118274097Y-111373000D01*
X118289502Y-111344180D01*
X118325812Y-111224482D01*
X118338072Y-111100000D01*
X118335000Y-110985750D01*
X118176250Y-110827000D01*
X117377000Y-110827000D01*
X117377000Y-110847000D01*
X117123000Y-110847000D01*
X117123000Y-110827000D01*
X116323750Y-110827000D01*
X116165000Y-110985750D01*
X116161928Y-111100000D01*
X116174188Y-111224482D01*
X116210498Y-111344180D01*
X116225903Y-111373000D01*
X112127000Y-111373000D01*
X112127000Y-91835671D01*
X112219369Y-92058669D01*
X112463962Y-92424729D01*
X112775271Y-92736038D01*
X113065000Y-92929629D01*
X113065001Y-96644239D01*
X113059509Y-96700000D01*
X113081423Y-96922498D01*
X113146324Y-97136446D01*
X113146325Y-97136447D01*
X113251717Y-97333623D01*
X113393552Y-97506449D01*
X113436860Y-97541991D01*
X123259868Y-107365000D01*
X117605751Y-107365000D01*
X117549999Y-107359509D01*
X117494248Y-107365000D01*
X117327501Y-107381423D01*
X117113553Y-107446324D01*
X116916377Y-107551716D01*
X116743551Y-107693551D01*
X116708004Y-107736865D01*
X116668575Y-107776294D01*
X116555820Y-107810498D01*
X116445506Y-107869463D01*
X116348815Y-107948815D01*
X116269463Y-108045506D01*
X116210498Y-108155820D01*
X116174188Y-108275518D01*
X116161928Y-108400000D01*
X116161928Y-108476941D01*
X116131423Y-108577502D01*
X116109509Y-108800000D01*
X116131423Y-109022498D01*
X116161928Y-109123059D01*
X116161928Y-109200000D01*
X116174188Y-109324482D01*
X116210498Y-109444180D01*
X116269463Y-109554494D01*
X116348815Y-109651185D01*
X116445506Y-109730537D01*
X116481918Y-109750000D01*
X116445506Y-109769463D01*
X116348815Y-109848815D01*
X116269463Y-109945506D01*
X116210498Y-110055820D01*
X116174188Y-110175518D01*
X116161928Y-110300000D01*
X116165000Y-110414250D01*
X116323750Y-110573000D01*
X117123000Y-110573000D01*
X117123000Y-110553000D01*
X117377000Y-110553000D01*
X117377000Y-110573000D01*
X118176250Y-110573000D01*
X118260857Y-110488393D01*
X118269463Y-110504494D01*
X118348815Y-110601185D01*
X118445506Y-110680537D01*
X118555820Y-110739502D01*
X118675518Y-110775812D01*
X118800000Y-110788072D01*
X119700000Y-110788072D01*
X119824482Y-110775812D01*
X119944180Y-110739502D01*
X120054494Y-110680537D01*
X120151185Y-110601185D01*
X120230537Y-110504494D01*
X120289502Y-110394180D01*
X120325812Y-110274482D01*
X120338072Y-110150000D01*
X120338072Y-109635000D01*
X124190640Y-109635000D01*
X124341637Y-109860983D01*
X124639017Y-110158363D01*
X124988698Y-110392012D01*
X125377244Y-110552953D01*
X125789721Y-110635000D01*
X126210279Y-110635000D01*
X126622756Y-110552953D01*
X127011302Y-110392012D01*
X127360983Y-110158363D01*
X127658363Y-109860983D01*
X127892012Y-109511302D01*
X127944328Y-109385000D01*
X132055386Y-109385000D01*
X132086595Y-109443387D01*
X132197038Y-109577962D01*
X132331613Y-109688405D01*
X132485148Y-109770472D01*
X132651744Y-109821008D01*
X132824998Y-109838072D01*
X133350002Y-109838072D01*
X133523256Y-109821008D01*
X133689852Y-109770472D01*
X133843387Y-109688405D01*
X133977962Y-109577962D01*
X134000000Y-109551109D01*
X134022038Y-109577962D01*
X134156613Y-109688405D01*
X134310148Y-109770472D01*
X134476744Y-109821008D01*
X134649998Y-109838072D01*
X135126523Y-109838072D01*
X135239010Y-109872195D01*
X135369023Y-109885000D01*
X135369031Y-109885000D01*
X135412500Y-109889281D01*
X135455969Y-109885000D01*
X137731928Y-109885000D01*
X137731928Y-110275000D01*
X137744188Y-110399482D01*
X137780498Y-110519180D01*
X137839463Y-110629494D01*
X137918815Y-110726185D01*
X138015506Y-110805537D01*
X138125820Y-110864502D01*
X138245518Y-110900812D01*
X138370000Y-110913072D01*
X139430000Y-110913072D01*
X139554482Y-110900812D01*
X139674180Y-110864502D01*
X139784494Y-110805537D01*
X139881185Y-110726185D01*
X139928189Y-110668911D01*
X139972247Y-110655546D01*
X140000000Y-110640711D01*
X140027753Y-110655546D01*
X140071811Y-110668911D01*
X140118815Y-110726185D01*
X140215506Y-110805537D01*
X140325820Y-110864502D01*
X140445518Y-110900812D01*
X140570000Y-110913072D01*
X141630000Y-110913072D01*
X141754482Y-110900812D01*
X141874180Y-110864502D01*
X141984494Y-110805537D01*
X142081185Y-110726185D01*
X142160537Y-110629494D01*
X142219502Y-110519180D01*
X142255812Y-110399482D01*
X142268072Y-110275000D01*
X142268072Y-109760000D01*
X142495473Y-109760000D01*
X142504528Y-109789852D01*
X142586595Y-109943387D01*
X142697038Y-110077962D01*
X142831613Y-110188405D01*
X142985148Y-110270472D01*
X143151744Y-110321008D01*
X143324998Y-110338072D01*
X143665010Y-110338072D01*
X143665011Y-112473253D01*
X143581316Y-112498642D01*
X143463861Y-112561423D01*
X143360911Y-112645911D01*
X143276423Y-112748861D01*
X143213642Y-112866316D01*
X143174982Y-112993761D01*
X143161928Y-113126300D01*
X143161928Y-114623700D01*
X143174982Y-114756239D01*
X143213642Y-114883684D01*
X143276423Y-115001139D01*
X143360911Y-115104089D01*
X143463861Y-115188577D01*
X143581316Y-115251358D01*
X143708761Y-115290018D01*
X143841300Y-115303072D01*
X144348700Y-115303072D01*
X144481239Y-115290018D01*
X144608684Y-115251358D01*
X144714564Y-115194764D01*
X144715506Y-115195537D01*
X144825820Y-115254502D01*
X144945518Y-115290812D01*
X145070000Y-115303072D01*
X145079250Y-115300000D01*
X145238000Y-115141250D01*
X145238000Y-114002000D01*
X145492000Y-114002000D01*
X145492000Y-115141250D01*
X145650750Y-115300000D01*
X145660000Y-115303072D01*
X145784482Y-115290812D01*
X145904180Y-115254502D01*
X146000000Y-115203284D01*
X146095820Y-115254502D01*
X146215518Y-115290812D01*
X146340000Y-115303072D01*
X146349250Y-115300000D01*
X146508000Y-115141250D01*
X146508000Y-114002000D01*
X146762000Y-114002000D01*
X146762000Y-115141250D01*
X146920750Y-115300000D01*
X146930000Y-115303072D01*
X147054482Y-115290812D01*
X147174180Y-115254502D01*
X147270000Y-115203284D01*
X147365820Y-115254502D01*
X147485518Y-115290812D01*
X147610000Y-115303072D01*
X147619250Y-115300000D01*
X147778000Y-115141250D01*
X147778000Y-114002000D01*
X148032000Y-114002000D01*
X148032000Y-115141250D01*
X148190750Y-115300000D01*
X148200000Y-115303072D01*
X148324482Y-115290812D01*
X148444180Y-115254502D01*
X148554494Y-115195537D01*
X148651185Y-115116185D01*
X148730537Y-115019494D01*
X148789502Y-114909180D01*
X148825812Y-114789482D01*
X148838072Y-114665000D01*
X148835000Y-114160750D01*
X148676250Y-114002000D01*
X148032000Y-114002000D01*
X147778000Y-114002000D01*
X146762000Y-114002000D01*
X146508000Y-114002000D01*
X145492000Y-114002000D01*
X145238000Y-114002000D01*
X145218000Y-114002000D01*
X145218000Y-113748000D01*
X145238000Y-113748000D01*
X145238000Y-112608750D01*
X145492000Y-112608750D01*
X145492000Y-113748000D01*
X146508000Y-113748000D01*
X146508000Y-112608750D01*
X146762000Y-112608750D01*
X146762000Y-113748000D01*
X147778000Y-113748000D01*
X147778000Y-112608750D01*
X148032000Y-112608750D01*
X148032000Y-113748000D01*
X148676250Y-113748000D01*
X148835000Y-113589250D01*
X148838072Y-113085000D01*
X148825812Y-112960518D01*
X148789502Y-112840820D01*
X148730537Y-112730506D01*
X148651185Y-112633815D01*
X148554494Y-112554463D01*
X148444180Y-112495498D01*
X148324482Y-112459188D01*
X148200000Y-112446928D01*
X148190750Y-112450000D01*
X148032000Y-112608750D01*
X147778000Y-112608750D01*
X147619250Y-112450000D01*
X147610000Y-112446928D01*
X147485518Y-112459188D01*
X147365820Y-112495498D01*
X147270000Y-112546716D01*
X147174180Y-112495498D01*
X147054482Y-112459188D01*
X146930000Y-112446928D01*
X146920750Y-112450000D01*
X146762000Y-112608750D01*
X146508000Y-112608750D01*
X146349250Y-112450000D01*
X146340000Y-112446928D01*
X146215518Y-112459188D01*
X146095820Y-112495498D01*
X146000000Y-112546716D01*
X145904180Y-112495498D01*
X145784482Y-112459188D01*
X145660000Y-112446928D01*
X145650750Y-112450000D01*
X145492000Y-112608750D01*
X145238000Y-112608750D01*
X145185010Y-112555760D01*
X145185010Y-110276740D01*
X145285500Y-110176250D01*
X145285500Y-109127000D01*
X145539500Y-109127000D01*
X145539500Y-110176250D01*
X145698250Y-110335000D01*
X145925000Y-110338072D01*
X146049482Y-110325812D01*
X146169180Y-110289502D01*
X146279494Y-110230537D01*
X146376185Y-110151185D01*
X146455537Y-110054494D01*
X146514502Y-109944180D01*
X146550812Y-109824482D01*
X146563072Y-109700000D01*
X146560000Y-109285750D01*
X146401250Y-109127000D01*
X145539500Y-109127000D01*
X145285500Y-109127000D01*
X145265500Y-109127000D01*
X145265500Y-108873000D01*
X145285500Y-108873000D01*
X145285500Y-108853000D01*
X145539500Y-108853000D01*
X145539500Y-108873000D01*
X146401250Y-108873000D01*
X146560000Y-108714250D01*
X146560658Y-108625460D01*
X151161928Y-113226730D01*
X151161928Y-114623700D01*
X151174982Y-114756239D01*
X151213642Y-114883684D01*
X151276423Y-115001139D01*
X151360911Y-115104089D01*
X151463861Y-115188577D01*
X151581316Y-115251358D01*
X151708761Y-115290018D01*
X151841300Y-115303072D01*
X152348700Y-115303072D01*
X152481239Y-115290018D01*
X152608684Y-115251358D01*
X152726139Y-115188577D01*
X152730000Y-115185408D01*
X152733861Y-115188577D01*
X152851316Y-115251358D01*
X152978761Y-115290018D01*
X153111300Y-115303072D01*
X153618700Y-115303072D01*
X153751239Y-115290018D01*
X153878684Y-115251358D01*
X153996139Y-115188577D01*
X154000000Y-115185408D01*
X154003861Y-115188577D01*
X154121316Y-115251358D01*
X154248761Y-115290018D01*
X154381300Y-115303072D01*
X154888700Y-115303072D01*
X155021239Y-115290018D01*
X155148684Y-115251358D01*
X155266139Y-115188577D01*
X155270000Y-115185408D01*
X155273861Y-115188577D01*
X155391316Y-115251358D01*
X155518761Y-115290018D01*
X155651300Y-115303072D01*
X156158700Y-115303072D01*
X156291239Y-115290018D01*
X156418684Y-115251358D01*
X156536139Y-115188577D01*
X156639089Y-115104089D01*
X156716305Y-115010000D01*
X162669249Y-115010000D01*
X162725000Y-115015491D01*
X162780751Y-115010000D01*
X162780752Y-115010000D01*
X162947499Y-114993577D01*
X163161447Y-114928676D01*
X163358623Y-114823284D01*
X163531449Y-114681449D01*
X163566996Y-114638135D01*
X185038112Y-93167020D01*
X185379872Y-93235000D01*
X185820128Y-93235000D01*
X186251925Y-93149110D01*
X186658669Y-92980631D01*
X187024729Y-92736038D01*
X187336038Y-92424729D01*
X187580631Y-92058669D01*
X187749110Y-91651925D01*
X187835000Y-91220128D01*
X187835000Y-90779872D01*
X187749110Y-90348075D01*
X187580631Y-89941331D01*
X187336038Y-89575271D01*
X187024729Y-89263962D01*
X186658669Y-89019369D01*
X186251925Y-88850890D01*
X185820128Y-88765000D01*
X185379872Y-88765000D01*
X184948075Y-88850890D01*
X184541331Y-89019369D01*
X184175271Y-89263962D01*
X183863962Y-89575271D01*
X183619369Y-89941331D01*
X183450890Y-90348075D01*
X183365000Y-90779872D01*
X183365000Y-91220128D01*
X183432980Y-91561888D01*
X164763072Y-110231797D01*
X164763072Y-110074230D01*
X166261008Y-108576295D01*
X166290001Y-108552501D01*
X166313795Y-108523508D01*
X166313799Y-108523504D01*
X166384973Y-108436777D01*
X166384974Y-108436776D01*
X166455546Y-108304747D01*
X166499003Y-108161486D01*
X166510000Y-108049833D01*
X166510000Y-108049824D01*
X166513676Y-108012501D01*
X166510000Y-107975178D01*
X166510000Y-105838072D01*
X166600000Y-105838072D01*
X166724482Y-105825812D01*
X166844180Y-105789502D01*
X166954494Y-105730537D01*
X167051185Y-105651185D01*
X167130537Y-105554494D01*
X167189502Y-105444180D01*
X167225812Y-105324482D01*
X167238072Y-105200000D01*
X167238072Y-103500000D01*
X167225812Y-103375518D01*
X167189502Y-103255820D01*
X167130537Y-103145506D01*
X167051185Y-103048815D01*
X166954494Y-102969463D01*
X166844180Y-102910498D01*
X166724482Y-102874188D01*
X166635000Y-102865375D01*
X166635000Y-84863945D01*
X172915000Y-84863945D01*
X172915000Y-85836055D01*
X173104650Y-86789486D01*
X173476660Y-87687599D01*
X174016735Y-88495879D01*
X174704121Y-89183265D01*
X175512401Y-89723340D01*
X176410514Y-90095350D01*
X177363945Y-90285000D01*
X178336055Y-90285000D01*
X179289486Y-90095350D01*
X180187599Y-89723340D01*
X180995879Y-89183265D01*
X181683265Y-88495879D01*
X182223340Y-87687599D01*
X182595350Y-86789486D01*
X182785000Y-85836055D01*
X182785000Y-84863945D01*
X182595350Y-83910514D01*
X182223340Y-83012401D01*
X181683265Y-82204121D01*
X180995879Y-81516735D01*
X180187599Y-80976660D01*
X179289486Y-80604650D01*
X178336055Y-80415000D01*
X177363945Y-80415000D01*
X176410514Y-80604650D01*
X175512401Y-80976660D01*
X174704121Y-81516735D01*
X174016735Y-82204121D01*
X173476660Y-83012401D01*
X173104650Y-83910514D01*
X172915000Y-84863945D01*
X166635000Y-84863945D01*
X166635000Y-78290957D01*
X166654494Y-78280537D01*
X166751185Y-78201185D01*
X166830537Y-78104494D01*
X166889502Y-77994180D01*
X166925812Y-77874482D01*
X166938072Y-77750000D01*
X166938072Y-75460010D01*
X168498799Y-75460010D01*
X169869804Y-76831016D01*
X169893598Y-76860009D01*
X169922591Y-76883803D01*
X169922596Y-76883808D01*
X170009323Y-76954983D01*
X170141352Y-77025555D01*
X170284613Y-77069012D01*
X170433599Y-77083686D01*
X170470942Y-77080008D01*
X178845209Y-77080010D01*
X179808790Y-78043592D01*
X179765000Y-78263740D01*
X179765000Y-78556260D01*
X179822068Y-78843158D01*
X179934010Y-79113411D01*
X180096525Y-79356632D01*
X180303368Y-79563475D01*
X180546589Y-79725990D01*
X180816842Y-79837932D01*
X181103740Y-79895000D01*
X181396260Y-79895000D01*
X181683158Y-79837932D01*
X181953411Y-79725990D01*
X182196632Y-79563475D01*
X182403475Y-79356632D01*
X182565990Y-79113411D01*
X182677932Y-78843158D01*
X182701059Y-78726890D01*
X184058524Y-78726890D01*
X184103175Y-78874099D01*
X184228359Y-79136920D01*
X184402412Y-79370269D01*
X184618645Y-79565178D01*
X184868748Y-79714157D01*
X185143109Y-79811481D01*
X185373000Y-79690814D01*
X185373000Y-78497000D01*
X185627000Y-78497000D01*
X185627000Y-79690814D01*
X185856891Y-79811481D01*
X186131252Y-79714157D01*
X186381355Y-79565178D01*
X186597588Y-79370269D01*
X186771641Y-79136920D01*
X186896825Y-78874099D01*
X186941476Y-78726890D01*
X186820155Y-78497000D01*
X185627000Y-78497000D01*
X185373000Y-78497000D01*
X184179845Y-78497000D01*
X184058524Y-78726890D01*
X182701059Y-78726890D01*
X182735000Y-78556260D01*
X182735000Y-78263740D01*
X182677932Y-77976842D01*
X182565990Y-77706589D01*
X182403475Y-77463368D01*
X182196632Y-77256525D01*
X182022240Y-77140000D01*
X182196632Y-77023475D01*
X182403475Y-76816632D01*
X182565990Y-76573411D01*
X182677932Y-76303158D01*
X182701059Y-76186890D01*
X184058524Y-76186890D01*
X184103175Y-76334099D01*
X184228359Y-76596920D01*
X184402412Y-76830269D01*
X184618645Y-77025178D01*
X184744255Y-77100000D01*
X184618645Y-77174822D01*
X184402412Y-77369731D01*
X184228359Y-77603080D01*
X184103175Y-77865901D01*
X184058524Y-78013110D01*
X184179845Y-78243000D01*
X185373000Y-78243000D01*
X185373000Y-75957000D01*
X185627000Y-75957000D01*
X185627000Y-78243000D01*
X186820155Y-78243000D01*
X186941476Y-78013110D01*
X186896825Y-77865901D01*
X186771641Y-77603080D01*
X186597588Y-77369731D01*
X186381355Y-77174822D01*
X186255745Y-77100000D01*
X186381355Y-77025178D01*
X186597588Y-76830269D01*
X186771641Y-76596920D01*
X186896825Y-76334099D01*
X186941476Y-76186890D01*
X186820155Y-75957000D01*
X185627000Y-75957000D01*
X185373000Y-75957000D01*
X184179845Y-75957000D01*
X184058524Y-76186890D01*
X182701059Y-76186890D01*
X182735000Y-76016260D01*
X182735000Y-75723740D01*
X182677932Y-75436842D01*
X182565990Y-75166589D01*
X182403475Y-74923368D01*
X182196632Y-74716525D01*
X182022240Y-74600000D01*
X182196632Y-74483475D01*
X182403475Y-74276632D01*
X182565990Y-74033411D01*
X182677932Y-73763158D01*
X182701059Y-73646890D01*
X184058524Y-73646890D01*
X184103175Y-73794099D01*
X184228359Y-74056920D01*
X184402412Y-74290269D01*
X184618645Y-74485178D01*
X184744255Y-74560000D01*
X184618645Y-74634822D01*
X184402412Y-74829731D01*
X184228359Y-75063080D01*
X184103175Y-75325901D01*
X184058524Y-75473110D01*
X184179845Y-75703000D01*
X185373000Y-75703000D01*
X185373000Y-73417000D01*
X185627000Y-73417000D01*
X185627000Y-75703000D01*
X186820155Y-75703000D01*
X186941476Y-75473110D01*
X186896825Y-75325901D01*
X186771641Y-75063080D01*
X186597588Y-74829731D01*
X186381355Y-74634822D01*
X186255745Y-74560000D01*
X186381355Y-74485178D01*
X186597588Y-74290269D01*
X186771641Y-74056920D01*
X186896825Y-73794099D01*
X186941476Y-73646890D01*
X186820155Y-73417000D01*
X185627000Y-73417000D01*
X185373000Y-73417000D01*
X184179845Y-73417000D01*
X184058524Y-73646890D01*
X182701059Y-73646890D01*
X182735000Y-73476260D01*
X182735000Y-73183740D01*
X182677932Y-72896842D01*
X182565990Y-72626589D01*
X182403475Y-72383368D01*
X182196632Y-72176525D01*
X182022240Y-72060000D01*
X182196632Y-71943475D01*
X182403475Y-71736632D01*
X182565990Y-71493411D01*
X182677932Y-71223158D01*
X182701059Y-71106890D01*
X184058524Y-71106890D01*
X184103175Y-71254099D01*
X184228359Y-71516920D01*
X184402412Y-71750269D01*
X184618645Y-71945178D01*
X184744255Y-72020000D01*
X184618645Y-72094822D01*
X184402412Y-72289731D01*
X184228359Y-72523080D01*
X184103175Y-72785901D01*
X184058524Y-72933110D01*
X184179845Y-73163000D01*
X185373000Y-73163000D01*
X185373000Y-70877000D01*
X185627000Y-70877000D01*
X185627000Y-73163000D01*
X186820155Y-73163000D01*
X186941476Y-72933110D01*
X186896825Y-72785901D01*
X186771641Y-72523080D01*
X186597588Y-72289731D01*
X186381355Y-72094822D01*
X186255745Y-72020000D01*
X186381355Y-71945178D01*
X186597588Y-71750269D01*
X186771641Y-71516920D01*
X186896825Y-71254099D01*
X186941476Y-71106890D01*
X186820155Y-70877000D01*
X185627000Y-70877000D01*
X185373000Y-70877000D01*
X184179845Y-70877000D01*
X184058524Y-71106890D01*
X182701059Y-71106890D01*
X182735000Y-70936260D01*
X182735000Y-70643740D01*
X182677932Y-70356842D01*
X182565990Y-70086589D01*
X182403475Y-69843368D01*
X182271620Y-69711513D01*
X182344180Y-69689502D01*
X182454494Y-69630537D01*
X182551185Y-69551185D01*
X182630537Y-69454494D01*
X182689502Y-69344180D01*
X182725812Y-69224482D01*
X182738072Y-69100000D01*
X182738072Y-69060000D01*
X184011928Y-69060000D01*
X184024188Y-69184482D01*
X184060498Y-69304180D01*
X184119463Y-69414494D01*
X184198815Y-69511185D01*
X184295506Y-69590537D01*
X184405820Y-69649502D01*
X184486466Y-69673966D01*
X184402412Y-69749731D01*
X184228359Y-69983080D01*
X184103175Y-70245901D01*
X184058524Y-70393110D01*
X184179845Y-70623000D01*
X185373000Y-70623000D01*
X185373000Y-68337000D01*
X185627000Y-68337000D01*
X185627000Y-70623000D01*
X186820155Y-70623000D01*
X186941476Y-70393110D01*
X186896825Y-70245901D01*
X186771641Y-69983080D01*
X186597588Y-69749731D01*
X186513534Y-69673966D01*
X186594180Y-69649502D01*
X186704494Y-69590537D01*
X186801185Y-69511185D01*
X186880537Y-69414494D01*
X186939502Y-69304180D01*
X186975812Y-69184482D01*
X186988072Y-69060000D01*
X186985000Y-68495750D01*
X186826250Y-68337000D01*
X185627000Y-68337000D01*
X185373000Y-68337000D01*
X184173750Y-68337000D01*
X184015000Y-68495750D01*
X184011928Y-69060000D01*
X182738072Y-69060000D01*
X182738072Y-67627000D01*
X184013382Y-67627000D01*
X184015000Y-67924250D01*
G37*
%TD.AperFunction*%
D29*
X136004528Y-78539852D02*
X136086595Y-78693387D01*
X136197038Y-78827962D01*
X136331613Y-78938405D01*
X136485148Y-79020472D01*
X136651744Y-79071008D01*
X136824998Y-79088072D01*
X137350002Y-79088072D01*
X137350702Y-79088003D01*
X138973711Y-80711013D01*
X138997509Y-80740011D01*
X139113234Y-80834984D01*
X139245263Y-80905556D01*
X139388524Y-80949013D01*
X139500177Y-80960010D01*
X139500186Y-80960010D01*
X139537509Y-80963686D01*
X139574832Y-80960010D01*
X142865000Y-80960010D01*
X142865000Y-81151939D01*
X142904774Y-81351898D01*
X142982795Y-81540256D01*
X143096063Y-81709774D01*
X143240226Y-81853937D01*
X143409744Y-81967205D01*
X143598102Y-82045226D01*
X143654957Y-82056535D01*
X150615000Y-89016579D01*
X150615001Y-102865375D01*
X150525518Y-102874188D01*
X150405820Y-102910498D01*
X150295506Y-102969463D01*
X150198815Y-103048815D01*
X150119463Y-103145506D01*
X150060498Y-103255820D01*
X150024188Y-103375518D01*
X150011928Y-103500000D01*
X150011928Y-105200000D01*
X150024188Y-105324482D01*
X150060498Y-105444180D01*
X150119463Y-105554494D01*
X150198815Y-105651185D01*
X150295506Y-105730537D01*
X150405820Y-105789502D01*
X150525518Y-105825812D01*
X150650000Y-105838072D01*
X152350000Y-105838072D01*
X152474482Y-105825812D01*
X152594180Y-105789502D01*
X152704494Y-105730537D01*
X152801185Y-105651185D01*
X152880537Y-105554494D01*
X152939502Y-105444180D01*
X152961513Y-105371620D01*
X153093368Y-105503475D01*
X153336589Y-105665990D01*
X153606842Y-105777932D01*
X153893740Y-105835000D01*
X154186260Y-105835000D01*
X154473158Y-105777932D01*
X154743411Y-105665990D01*
X154986632Y-105503475D01*
X155193475Y-105296632D01*
X155315195Y-105114466D01*
X155384822Y-105231355D01*
X155579731Y-105447588D01*
X155813080Y-105621641D01*
X156075901Y-105746825D01*
X156223110Y-105791476D01*
X156453000Y-105670155D01*
X156453000Y-104477000D01*
X156707000Y-104477000D01*
X156707000Y-105670155D01*
X156936890Y-105791476D01*
X157084099Y-105746825D01*
X157346920Y-105621641D01*
X157580269Y-105447588D01*
X157775178Y-105231355D01*
X157924157Y-104981252D01*
X158021481Y-104706891D01*
X159228519Y-104706891D01*
X159325843Y-104981252D01*
X159474822Y-105231355D01*
X159669731Y-105447588D01*
X159903080Y-105621641D01*
X160165901Y-105746825D01*
X160313110Y-105791476D01*
X160543000Y-105670155D01*
X160543000Y-104477000D01*
X159349186Y-104477000D01*
X159228519Y-104706891D01*
X158021481Y-104706891D01*
X157900814Y-104477000D01*
X156707000Y-104477000D01*
X156453000Y-104477000D01*
X156433000Y-104477000D01*
X156433000Y-104223000D01*
X156453000Y-104223000D01*
X156453000Y-103029845D01*
X156707000Y-103029845D01*
X156707000Y-104223000D01*
X157900814Y-104223000D01*
X158021481Y-103993109D01*
X159228519Y-103993109D01*
X159349186Y-104223000D01*
X160543000Y-104223000D01*
X160543000Y-103029845D01*
X160313110Y-102908524D01*
X160165901Y-102953175D01*
X159903080Y-103078359D01*
X159669731Y-103252412D01*
X159474822Y-103468645D01*
X159325843Y-103718748D01*
X159228519Y-103993109D01*
X158021481Y-103993109D01*
X157924157Y-103718748D01*
X157775178Y-103468645D01*
X157580269Y-103252412D01*
X157346920Y-103078359D01*
X157084099Y-102953175D01*
X156936890Y-102908524D01*
X156707000Y-103029845D01*
X156453000Y-103029845D01*
X156223110Y-102908524D01*
X156075901Y-102953175D01*
X155813080Y-103078359D01*
X155579731Y-103252412D01*
X155384822Y-103468645D01*
X155315195Y-103585534D01*
X155193475Y-103403368D01*
X154986632Y-103196525D01*
X154743411Y-103034010D01*
X154473158Y-102922068D01*
X154186260Y-102865000D01*
X153893740Y-102865000D01*
X153821040Y-102879461D01*
X153085010Y-102143432D01*
X153085010Y-88243479D01*
X153089291Y-88200010D01*
X153085010Y-88156541D01*
X153085010Y-88156533D01*
X153072205Y-88026520D01*
X153021599Y-87859697D01*
X152939421Y-87705951D01*
X152924360Y-87687599D01*
X152856542Y-87604963D01*
X152856540Y-87604961D01*
X152828827Y-87571193D01*
X152795059Y-87543480D01*
X146211588Y-80960010D01*
X158397670Y-80960010D01*
X158434992Y-80963686D01*
X158472314Y-80960010D01*
X158472325Y-80960010D01*
X158583978Y-80949013D01*
X158727239Y-80905556D01*
X158859268Y-80834984D01*
X158974993Y-80740011D01*
X158998796Y-80711007D01*
X161065000Y-78644804D01*
X161065000Y-78651939D01*
X161104774Y-78851898D01*
X161182795Y-79040256D01*
X161296063Y-79209774D01*
X161440226Y-79353937D01*
X161609744Y-79467205D01*
X161798102Y-79545226D01*
X161998061Y-79585000D01*
X162201939Y-79585000D01*
X162401898Y-79545226D01*
X162590256Y-79467205D01*
X162759774Y-79353937D01*
X162903937Y-79209774D01*
X163017205Y-79040256D01*
X163082756Y-78882003D01*
X163121183Y-78928827D01*
X163154956Y-78956544D01*
X164164991Y-79966580D01*
X164164990Y-102143431D01*
X163428960Y-102879461D01*
X163356260Y-102865000D01*
X163063740Y-102865000D01*
X162776842Y-102922068D01*
X162506589Y-103034010D01*
X162263368Y-103196525D01*
X162056525Y-103403368D01*
X161934805Y-103585534D01*
X161865178Y-103468645D01*
X161670269Y-103252412D01*
X161436920Y-103078359D01*
X161174099Y-102953175D01*
X161026890Y-102908524D01*
X160797000Y-103029845D01*
X160797000Y-104223000D01*
X160817000Y-104223000D01*
X160817000Y-104477000D01*
X160797000Y-104477000D01*
X160797000Y-105670155D01*
X161026890Y-105791476D01*
X161174099Y-105746825D01*
X161436920Y-105621641D01*
X161670269Y-105447588D01*
X161865178Y-105231355D01*
X161934805Y-105114466D01*
X162056525Y-105296632D01*
X162263368Y-105503475D01*
X162450000Y-105628179D01*
X162450001Y-108412697D01*
X162050702Y-108811997D01*
X162050002Y-108811928D01*
X161524998Y-108811928D01*
X161351744Y-108828992D01*
X161185148Y-108879528D01*
X161031613Y-108961595D01*
X160897038Y-109072038D01*
X160786595Y-109206613D01*
X160704528Y-109360148D01*
X160653992Y-109526744D01*
X160636928Y-109699998D01*
X160636928Y-110600002D01*
X160653992Y-110773256D01*
X160704528Y-110939852D01*
X160786595Y-111093387D01*
X160897038Y-111227962D01*
X161031613Y-111338405D01*
X161185148Y-111420472D01*
X161351744Y-111471008D01*
X161524998Y-111488072D01*
X162050002Y-111488072D01*
X162223256Y-111471008D01*
X162389852Y-111420472D01*
X162543387Y-111338405D01*
X162677962Y-111227962D01*
X162700000Y-111201109D01*
X162722038Y-111227962D01*
X162856613Y-111338405D01*
X163010148Y-111420472D01*
X163176744Y-111471008D01*
X163349998Y-111488072D01*
X163506797Y-111488072D01*
X162254869Y-112740000D01*
X156716305Y-112740000D01*
X156639089Y-112645911D01*
X156536139Y-112561423D01*
X156418684Y-112498642D01*
X156291239Y-112459982D01*
X156158700Y-112446928D01*
X155651300Y-112446928D01*
X155518761Y-112459982D01*
X155391316Y-112498642D01*
X155273861Y-112561423D01*
X155270000Y-112564592D01*
X155266139Y-112561423D01*
X155148684Y-112498642D01*
X155021239Y-112459982D01*
X154888700Y-112446928D01*
X154381300Y-112446928D01*
X154248761Y-112459982D01*
X154121316Y-112498642D01*
X154003861Y-112561423D01*
X154000000Y-112564592D01*
X153996139Y-112561423D01*
X153878684Y-112498642D01*
X153842455Y-112487652D01*
X145343804Y-103989003D01*
X145320001Y-103959999D01*
X145204276Y-103865026D01*
X145072247Y-103794454D01*
X144928986Y-103750997D01*
X144817333Y-103740000D01*
X144817322Y-103740000D01*
X144780000Y-103736324D01*
X144742678Y-103740000D01*
X142177238Y-103740000D01*
X142171008Y-103676745D01*
X142120472Y-103510149D01*
X142038405Y-103356613D01*
X141927962Y-103222038D01*
X141793387Y-103111595D01*
X141639851Y-103029528D01*
X141473255Y-102978992D01*
X141300001Y-102961928D01*
X140649999Y-102961928D01*
X140476745Y-102978992D01*
X140310149Y-103029528D01*
X140156613Y-103111595D01*
X140022038Y-103222038D01*
X139911595Y-103356613D01*
X139829528Y-103510149D01*
X139778992Y-103676745D01*
X139761928Y-103849999D01*
X139761928Y-104638271D01*
X139243999Y-105156200D01*
X139236887Y-105162037D01*
X139238072Y-105150001D01*
X139238072Y-103849999D01*
X139221008Y-103676745D01*
X139170472Y-103510149D01*
X139088405Y-103356613D01*
X138977962Y-103222038D01*
X138843387Y-103111595D01*
X138689851Y-103029528D01*
X138523255Y-102978992D01*
X138350001Y-102961928D01*
X137699999Y-102961928D01*
X137526745Y-102978992D01*
X137360149Y-103029528D01*
X137206613Y-103111595D01*
X137072038Y-103222038D01*
X136961595Y-103356613D01*
X136879528Y-103510149D01*
X136828992Y-103676745D01*
X136811928Y-103849999D01*
X136811928Y-104461493D01*
X134317456Y-106955966D01*
X134283683Y-106983683D01*
X134173089Y-107118442D01*
X134090911Y-107272188D01*
X134070335Y-107340017D01*
X134053216Y-107396451D01*
X134022038Y-107422038D01*
X134000000Y-107448891D01*
X133977962Y-107422038D01*
X133843387Y-107311595D01*
X133689852Y-107229528D01*
X133523256Y-107178992D01*
X133350002Y-107161928D01*
X132824998Y-107161928D01*
X132651744Y-107178992D01*
X132485148Y-107229528D01*
X132331613Y-107311595D01*
X132197038Y-107422038D01*
X132086595Y-107556613D01*
X132055386Y-107615000D01*
X127944328Y-107615000D01*
X127892012Y-107488698D01*
X127658363Y-107139017D01*
X127360983Y-106841637D01*
X127011302Y-106607988D01*
X126622756Y-106447047D01*
X126210279Y-106365000D01*
X125789721Y-106365000D01*
X125523155Y-106418023D01*
X115335000Y-96229869D01*
X115335000Y-92929628D01*
X115624729Y-92736038D01*
X115936038Y-92424729D01*
X116180631Y-92058669D01*
X116349110Y-91651925D01*
X116435000Y-91220128D01*
X116435000Y-90779872D01*
X116431832Y-90763945D01*
X117015000Y-90763945D01*
X117015000Y-91736055D01*
X117204650Y-92689486D01*
X117576660Y-93587599D01*
X118116735Y-94395879D01*
X118804121Y-95083265D01*
X119612401Y-95623340D01*
X120510514Y-95995350D01*
X121463945Y-96185000D01*
X122436055Y-96185000D01*
X123389486Y-95995350D01*
X124287599Y-95623340D01*
X125095879Y-95083265D01*
X125783265Y-94395879D01*
X126323340Y-93587599D01*
X126695350Y-92689486D01*
X126885000Y-91736055D01*
X126885000Y-90763945D01*
X126695350Y-89810514D01*
X126323340Y-88912401D01*
X125783265Y-88104121D01*
X125095879Y-87416735D01*
X124287599Y-86876660D01*
X123389486Y-86504650D01*
X122436055Y-86315000D01*
X121463945Y-86315000D01*
X120510514Y-86504650D01*
X119612401Y-86876660D01*
X118804121Y-87416735D01*
X118116735Y-88104121D01*
X117576660Y-88912401D01*
X117204650Y-89810514D01*
X117015000Y-90763945D01*
X116431832Y-90763945D01*
X116349110Y-90348075D01*
X116180631Y-89941331D01*
X115936038Y-89575271D01*
X115624729Y-89263962D01*
X115258669Y-89019369D01*
X115085000Y-88947433D01*
X115085000Y-83666578D01*
X118491579Y-80260000D01*
X130800178Y-80260000D01*
X130837500Y-80263676D01*
X130874822Y-80260000D01*
X130874833Y-80260000D01*
X130986486Y-80249003D01*
X131129747Y-80205546D01*
X131261776Y-80134974D01*
X131377501Y-80040001D01*
X131401304Y-80010997D01*
X132324298Y-79088003D01*
X132324998Y-79088072D01*
X132850002Y-79088072D01*
X133023256Y-79071008D01*
X133189852Y-79020472D01*
X133343387Y-78938405D01*
X133477962Y-78827962D01*
X133500000Y-78801109D01*
X133522038Y-78827962D01*
X133656613Y-78938405D01*
X133810148Y-79020472D01*
X133976744Y-79071008D01*
X134149998Y-79088072D01*
X134675002Y-79088072D01*
X134848256Y-79071008D01*
X135014852Y-79020472D01*
X135168387Y-78938405D01*
X135302962Y-78827962D01*
X135413405Y-78693387D01*
X135495472Y-78539852D01*
X135504527Y-78510000D01*
X135995473Y-78510000D01*
X136004528Y-78539852D01*
%TA.AperFunction,Conductor*%
D30*
G36*
X136004528Y-78539852D02*
G01*
X136086595Y-78693387D01*
X136197038Y-78827962D01*
X136331613Y-78938405D01*
X136485148Y-79020472D01*
X136651744Y-79071008D01*
X136824998Y-79088072D01*
X137350002Y-79088072D01*
X137350702Y-79088003D01*
X138973711Y-80711013D01*
X138997509Y-80740011D01*
X139113234Y-80834984D01*
X139245263Y-80905556D01*
X139388524Y-80949013D01*
X139500177Y-80960010D01*
X139500186Y-80960010D01*
X139537509Y-80963686D01*
X139574832Y-80960010D01*
X142865000Y-80960010D01*
X142865000Y-81151939D01*
X142904774Y-81351898D01*
X142982795Y-81540256D01*
X143096063Y-81709774D01*
X143240226Y-81853937D01*
X143409744Y-81967205D01*
X143598102Y-82045226D01*
X143654957Y-82056535D01*
X150615000Y-89016579D01*
X150615001Y-102865375D01*
X150525518Y-102874188D01*
X150405820Y-102910498D01*
X150295506Y-102969463D01*
X150198815Y-103048815D01*
X150119463Y-103145506D01*
X150060498Y-103255820D01*
X150024188Y-103375518D01*
X150011928Y-103500000D01*
X150011928Y-105200000D01*
X150024188Y-105324482D01*
X150060498Y-105444180D01*
X150119463Y-105554494D01*
X150198815Y-105651185D01*
X150295506Y-105730537D01*
X150405820Y-105789502D01*
X150525518Y-105825812D01*
X150650000Y-105838072D01*
X152350000Y-105838072D01*
X152474482Y-105825812D01*
X152594180Y-105789502D01*
X152704494Y-105730537D01*
X152801185Y-105651185D01*
X152880537Y-105554494D01*
X152939502Y-105444180D01*
X152961513Y-105371620D01*
X153093368Y-105503475D01*
X153336589Y-105665990D01*
X153606842Y-105777932D01*
X153893740Y-105835000D01*
X154186260Y-105835000D01*
X154473158Y-105777932D01*
X154743411Y-105665990D01*
X154986632Y-105503475D01*
X155193475Y-105296632D01*
X155315195Y-105114466D01*
X155384822Y-105231355D01*
X155579731Y-105447588D01*
X155813080Y-105621641D01*
X156075901Y-105746825D01*
X156223110Y-105791476D01*
X156453000Y-105670155D01*
X156453000Y-104477000D01*
X156707000Y-104477000D01*
X156707000Y-105670155D01*
X156936890Y-105791476D01*
X157084099Y-105746825D01*
X157346920Y-105621641D01*
X157580269Y-105447588D01*
X157775178Y-105231355D01*
X157924157Y-104981252D01*
X158021481Y-104706891D01*
X159228519Y-104706891D01*
X159325843Y-104981252D01*
X159474822Y-105231355D01*
X159669731Y-105447588D01*
X159903080Y-105621641D01*
X160165901Y-105746825D01*
X160313110Y-105791476D01*
X160543000Y-105670155D01*
X160543000Y-104477000D01*
X159349186Y-104477000D01*
X159228519Y-104706891D01*
X158021481Y-104706891D01*
X157900814Y-104477000D01*
X156707000Y-104477000D01*
X156453000Y-104477000D01*
X156433000Y-104477000D01*
X156433000Y-104223000D01*
X156453000Y-104223000D01*
X156453000Y-103029845D01*
X156707000Y-103029845D01*
X156707000Y-104223000D01*
X157900814Y-104223000D01*
X158021481Y-103993109D01*
X159228519Y-103993109D01*
X159349186Y-104223000D01*
X160543000Y-104223000D01*
X160543000Y-103029845D01*
X160313110Y-102908524D01*
X160165901Y-102953175D01*
X159903080Y-103078359D01*
X159669731Y-103252412D01*
X159474822Y-103468645D01*
X159325843Y-103718748D01*
X159228519Y-103993109D01*
X158021481Y-103993109D01*
X157924157Y-103718748D01*
X157775178Y-103468645D01*
X157580269Y-103252412D01*
X157346920Y-103078359D01*
X157084099Y-102953175D01*
X156936890Y-102908524D01*
X156707000Y-103029845D01*
X156453000Y-103029845D01*
X156223110Y-102908524D01*
X156075901Y-102953175D01*
X155813080Y-103078359D01*
X155579731Y-103252412D01*
X155384822Y-103468645D01*
X155315195Y-103585534D01*
X155193475Y-103403368D01*
X154986632Y-103196525D01*
X154743411Y-103034010D01*
X154473158Y-102922068D01*
X154186260Y-102865000D01*
X153893740Y-102865000D01*
X153821040Y-102879461D01*
X153085010Y-102143432D01*
X153085010Y-88243479D01*
X153089291Y-88200010D01*
X153085010Y-88156541D01*
X153085010Y-88156533D01*
X153072205Y-88026520D01*
X153021599Y-87859697D01*
X152939421Y-87705951D01*
X152924360Y-87687599D01*
X152856542Y-87604963D01*
X152856540Y-87604961D01*
X152828827Y-87571193D01*
X152795059Y-87543480D01*
X146211588Y-80960010D01*
X158397670Y-80960010D01*
X158434992Y-80963686D01*
X158472314Y-80960010D01*
X158472325Y-80960010D01*
X158583978Y-80949013D01*
X158727239Y-80905556D01*
X158859268Y-80834984D01*
X158974993Y-80740011D01*
X158998796Y-80711007D01*
X161065000Y-78644804D01*
X161065000Y-78651939D01*
X161104774Y-78851898D01*
X161182795Y-79040256D01*
X161296063Y-79209774D01*
X161440226Y-79353937D01*
X161609744Y-79467205D01*
X161798102Y-79545226D01*
X161998061Y-79585000D01*
X162201939Y-79585000D01*
X162401898Y-79545226D01*
X162590256Y-79467205D01*
X162759774Y-79353937D01*
X162903937Y-79209774D01*
X163017205Y-79040256D01*
X163082756Y-78882003D01*
X163121183Y-78928827D01*
X163154956Y-78956544D01*
X164164991Y-79966580D01*
X164164990Y-102143431D01*
X163428960Y-102879461D01*
X163356260Y-102865000D01*
X163063740Y-102865000D01*
X162776842Y-102922068D01*
X162506589Y-103034010D01*
X162263368Y-103196525D01*
X162056525Y-103403368D01*
X161934805Y-103585534D01*
X161865178Y-103468645D01*
X161670269Y-103252412D01*
X161436920Y-103078359D01*
X161174099Y-102953175D01*
X161026890Y-102908524D01*
X160797000Y-103029845D01*
X160797000Y-104223000D01*
X160817000Y-104223000D01*
X160817000Y-104477000D01*
X160797000Y-104477000D01*
X160797000Y-105670155D01*
X161026890Y-105791476D01*
X161174099Y-105746825D01*
X161436920Y-105621641D01*
X161670269Y-105447588D01*
X161865178Y-105231355D01*
X161934805Y-105114466D01*
X162056525Y-105296632D01*
X162263368Y-105503475D01*
X162450000Y-105628179D01*
X162450001Y-108412697D01*
X162050702Y-108811997D01*
X162050002Y-108811928D01*
X161524998Y-108811928D01*
X161351744Y-108828992D01*
X161185148Y-108879528D01*
X161031613Y-108961595D01*
X160897038Y-109072038D01*
X160786595Y-109206613D01*
X160704528Y-109360148D01*
X160653992Y-109526744D01*
X160636928Y-109699998D01*
X160636928Y-110600002D01*
X160653992Y-110773256D01*
X160704528Y-110939852D01*
X160786595Y-111093387D01*
X160897038Y-111227962D01*
X161031613Y-111338405D01*
X161185148Y-111420472D01*
X161351744Y-111471008D01*
X161524998Y-111488072D01*
X162050002Y-111488072D01*
X162223256Y-111471008D01*
X162389852Y-111420472D01*
X162543387Y-111338405D01*
X162677962Y-111227962D01*
X162700000Y-111201109D01*
X162722038Y-111227962D01*
X162856613Y-111338405D01*
X163010148Y-111420472D01*
X163176744Y-111471008D01*
X163349998Y-111488072D01*
X163506797Y-111488072D01*
X162254869Y-112740000D01*
X156716305Y-112740000D01*
X156639089Y-112645911D01*
X156536139Y-112561423D01*
X156418684Y-112498642D01*
X156291239Y-112459982D01*
X156158700Y-112446928D01*
X155651300Y-112446928D01*
X155518761Y-112459982D01*
X155391316Y-112498642D01*
X155273861Y-112561423D01*
X155270000Y-112564592D01*
X155266139Y-112561423D01*
X155148684Y-112498642D01*
X155021239Y-112459982D01*
X154888700Y-112446928D01*
X154381300Y-112446928D01*
X154248761Y-112459982D01*
X154121316Y-112498642D01*
X154003861Y-112561423D01*
X154000000Y-112564592D01*
X153996139Y-112561423D01*
X153878684Y-112498642D01*
X153842455Y-112487652D01*
X145343804Y-103989003D01*
X145320001Y-103959999D01*
X145204276Y-103865026D01*
X145072247Y-103794454D01*
X144928986Y-103750997D01*
X144817333Y-103740000D01*
X144817322Y-103740000D01*
X144780000Y-103736324D01*
X144742678Y-103740000D01*
X142177238Y-103740000D01*
X142171008Y-103676745D01*
X142120472Y-103510149D01*
X142038405Y-103356613D01*
X141927962Y-103222038D01*
X141793387Y-103111595D01*
X141639851Y-103029528D01*
X141473255Y-102978992D01*
X141300001Y-102961928D01*
X140649999Y-102961928D01*
X140476745Y-102978992D01*
X140310149Y-103029528D01*
X140156613Y-103111595D01*
X140022038Y-103222038D01*
X139911595Y-103356613D01*
X139829528Y-103510149D01*
X139778992Y-103676745D01*
X139761928Y-103849999D01*
X139761928Y-104638271D01*
X139243999Y-105156200D01*
X139236887Y-105162037D01*
X139238072Y-105150001D01*
X139238072Y-103849999D01*
X139221008Y-103676745D01*
X139170472Y-103510149D01*
X139088405Y-103356613D01*
X138977962Y-103222038D01*
X138843387Y-103111595D01*
X138689851Y-103029528D01*
X138523255Y-102978992D01*
X138350001Y-102961928D01*
X137699999Y-102961928D01*
X137526745Y-102978992D01*
X137360149Y-103029528D01*
X137206613Y-103111595D01*
X137072038Y-103222038D01*
X136961595Y-103356613D01*
X136879528Y-103510149D01*
X136828992Y-103676745D01*
X136811928Y-103849999D01*
X136811928Y-104461493D01*
X134317456Y-106955966D01*
X134283683Y-106983683D01*
X134173089Y-107118442D01*
X134090911Y-107272188D01*
X134070335Y-107340017D01*
X134053216Y-107396451D01*
X134022038Y-107422038D01*
X134000000Y-107448891D01*
X133977962Y-107422038D01*
X133843387Y-107311595D01*
X133689852Y-107229528D01*
X133523256Y-107178992D01*
X133350002Y-107161928D01*
X132824998Y-107161928D01*
X132651744Y-107178992D01*
X132485148Y-107229528D01*
X132331613Y-107311595D01*
X132197038Y-107422038D01*
X132086595Y-107556613D01*
X132055386Y-107615000D01*
X127944328Y-107615000D01*
X127892012Y-107488698D01*
X127658363Y-107139017D01*
X127360983Y-106841637D01*
X127011302Y-106607988D01*
X126622756Y-106447047D01*
X126210279Y-106365000D01*
X125789721Y-106365000D01*
X125523155Y-106418023D01*
X115335000Y-96229869D01*
X115335000Y-92929628D01*
X115624729Y-92736038D01*
X115936038Y-92424729D01*
X116180631Y-92058669D01*
X116349110Y-91651925D01*
X116435000Y-91220128D01*
X116435000Y-90779872D01*
X116431832Y-90763945D01*
X117015000Y-90763945D01*
X117015000Y-91736055D01*
X117204650Y-92689486D01*
X117576660Y-93587599D01*
X118116735Y-94395879D01*
X118804121Y-95083265D01*
X119612401Y-95623340D01*
X120510514Y-95995350D01*
X121463945Y-96185000D01*
X122436055Y-96185000D01*
X123389486Y-95995350D01*
X124287599Y-95623340D01*
X125095879Y-95083265D01*
X125783265Y-94395879D01*
X126323340Y-93587599D01*
X126695350Y-92689486D01*
X126885000Y-91736055D01*
X126885000Y-90763945D01*
X126695350Y-89810514D01*
X126323340Y-88912401D01*
X125783265Y-88104121D01*
X125095879Y-87416735D01*
X124287599Y-86876660D01*
X123389486Y-86504650D01*
X122436055Y-86315000D01*
X121463945Y-86315000D01*
X120510514Y-86504650D01*
X119612401Y-86876660D01*
X118804121Y-87416735D01*
X118116735Y-88104121D01*
X117576660Y-88912401D01*
X117204650Y-89810514D01*
X117015000Y-90763945D01*
X116431832Y-90763945D01*
X116349110Y-90348075D01*
X116180631Y-89941331D01*
X115936038Y-89575271D01*
X115624729Y-89263962D01*
X115258669Y-89019369D01*
X115085000Y-88947433D01*
X115085000Y-83666578D01*
X118491579Y-80260000D01*
X130800178Y-80260000D01*
X130837500Y-80263676D01*
X130874822Y-80260000D01*
X130874833Y-80260000D01*
X130986486Y-80249003D01*
X131129747Y-80205546D01*
X131261776Y-80134974D01*
X131377501Y-80040001D01*
X131401304Y-80010997D01*
X132324298Y-79088003D01*
X132324998Y-79088072D01*
X132850002Y-79088072D01*
X133023256Y-79071008D01*
X133189852Y-79020472D01*
X133343387Y-78938405D01*
X133477962Y-78827962D01*
X133500000Y-78801109D01*
X133522038Y-78827962D01*
X133656613Y-78938405D01*
X133810148Y-79020472D01*
X133976744Y-79071008D01*
X134149998Y-79088072D01*
X134675002Y-79088072D01*
X134848256Y-79071008D01*
X135014852Y-79020472D01*
X135168387Y-78938405D01*
X135302962Y-78827962D01*
X135413405Y-78693387D01*
X135495472Y-78539852D01*
X135504527Y-78510000D01*
X135995473Y-78510000D01*
X136004528Y-78539852D01*
G37*
%TD.AperFunction*%
D29*
X119115001Y-77133420D02*
X117404954Y-78843468D01*
X117279959Y-78968463D01*
X117279953Y-78968468D01*
X113604956Y-82643466D01*
X113571183Y-82671183D01*
X113460589Y-82805942D01*
X113378411Y-82959688D01*
X113327805Y-83126511D01*
X113315000Y-83256524D01*
X113315000Y-83256531D01*
X113310719Y-83300000D01*
X113315000Y-83343469D01*
X113315001Y-88947433D01*
X113141331Y-89019369D01*
X112775271Y-89263962D01*
X112463962Y-89575271D01*
X112219369Y-89941331D01*
X112127000Y-90164329D01*
X112127000Y-74627000D01*
X119115001Y-74627000D01*
X119115001Y-77133420D01*
%TA.AperFunction,Conductor*%
D30*
G36*
X119115001Y-77133420D02*
G01*
X117404954Y-78843468D01*
X117279959Y-78968463D01*
X117279953Y-78968468D01*
X113604956Y-82643466D01*
X113571183Y-82671183D01*
X113460589Y-82805942D01*
X113378411Y-82959688D01*
X113327805Y-83126511D01*
X113315000Y-83256524D01*
X113315000Y-83256531D01*
X113310719Y-83300000D01*
X113315000Y-83343469D01*
X113315001Y-88947433D01*
X113141331Y-89019369D01*
X112775271Y-89263962D01*
X112463962Y-89575271D01*
X112219369Y-89941331D01*
X112127000Y-90164329D01*
X112127000Y-74627000D01*
X119115001Y-74627000D01*
X119115001Y-77133420D01*
G37*
%TD.AperFunction*%
D29*
X140965000Y-77398061D02*
X140965000Y-77601939D01*
X141004774Y-77801898D01*
X141082795Y-77990256D01*
X141196063Y-78159774D01*
X141340226Y-78303937D01*
X141509744Y-78417205D01*
X141698102Y-78495226D01*
X141898061Y-78535000D01*
X142101939Y-78535000D01*
X142301898Y-78495226D01*
X142490256Y-78417205D01*
X142659774Y-78303937D01*
X142803937Y-78159774D01*
X142917205Y-77990256D01*
X142995226Y-77801898D01*
X143035000Y-77601939D01*
X143035000Y-77539801D01*
X143314802Y-77260000D01*
X144440868Y-77260000D01*
X144436928Y-77300000D01*
X144440000Y-77714250D01*
X144598750Y-77873000D01*
X145460500Y-77873000D01*
X145460500Y-77853000D01*
X145714500Y-77853000D01*
X145714500Y-77873000D01*
X145734500Y-77873000D01*
X145734500Y-78127000D01*
X145714500Y-78127000D01*
X145714500Y-79176250D01*
X145873250Y-79335000D01*
X146100000Y-79338072D01*
X146224482Y-79325812D01*
X146344180Y-79289502D01*
X146454494Y-79230537D01*
X146551185Y-79151185D01*
X146575363Y-79121724D01*
X146656613Y-79188405D01*
X146810148Y-79270472D01*
X146976744Y-79321008D01*
X147149998Y-79338072D01*
X147675002Y-79338072D01*
X147675702Y-79338003D01*
X147777708Y-79440010D01*
X139852312Y-79440010D01*
X139493616Y-79081314D01*
X139549482Y-79075812D01*
X139669180Y-79039502D01*
X139779494Y-78980537D01*
X139876185Y-78901185D01*
X139955537Y-78804494D01*
X140011391Y-78700000D01*
X144436928Y-78700000D01*
X144449188Y-78824482D01*
X144485498Y-78944180D01*
X144544463Y-79054494D01*
X144623815Y-79151185D01*
X144720506Y-79230537D01*
X144830820Y-79289502D01*
X144950518Y-79325812D01*
X145075000Y-79338072D01*
X145301750Y-79335000D01*
X145460500Y-79176250D01*
X145460500Y-78127000D01*
X144598750Y-78127000D01*
X144440000Y-78285750D01*
X144436928Y-78700000D01*
X140011391Y-78700000D01*
X140014502Y-78694180D01*
X140050812Y-78574482D01*
X140063072Y-78450000D01*
X140060000Y-78035750D01*
X139901250Y-77877000D01*
X139039500Y-77877000D01*
X139039500Y-77897000D01*
X138785500Y-77897000D01*
X138785500Y-77877000D01*
X138765500Y-77877000D01*
X138765500Y-77623000D01*
X138785500Y-77623000D01*
X138785500Y-77603000D01*
X139039500Y-77603000D01*
X139039500Y-77623000D01*
X139901250Y-77623000D01*
X140060000Y-77464250D01*
X140061515Y-77260000D01*
X140992462Y-77260000D01*
X140965000Y-77398061D01*
%TA.AperFunction,Conductor*%
D30*
G36*
X140965000Y-77398061D02*
G01*
X140965000Y-77601939D01*
X141004774Y-77801898D01*
X141082795Y-77990256D01*
X141196063Y-78159774D01*
X141340226Y-78303937D01*
X141509744Y-78417205D01*
X141698102Y-78495226D01*
X141898061Y-78535000D01*
X142101939Y-78535000D01*
X142301898Y-78495226D01*
X142490256Y-78417205D01*
X142659774Y-78303937D01*
X142803937Y-78159774D01*
X142917205Y-77990256D01*
X142995226Y-77801898D01*
X143035000Y-77601939D01*
X143035000Y-77539801D01*
X143314802Y-77260000D01*
X144440868Y-77260000D01*
X144436928Y-77300000D01*
X144440000Y-77714250D01*
X144598750Y-77873000D01*
X145460500Y-77873000D01*
X145460500Y-77853000D01*
X145714500Y-77853000D01*
X145714500Y-77873000D01*
X145734500Y-77873000D01*
X145734500Y-78127000D01*
X145714500Y-78127000D01*
X145714500Y-79176250D01*
X145873250Y-79335000D01*
X146100000Y-79338072D01*
X146224482Y-79325812D01*
X146344180Y-79289502D01*
X146454494Y-79230537D01*
X146551185Y-79151185D01*
X146575363Y-79121724D01*
X146656613Y-79188405D01*
X146810148Y-79270472D01*
X146976744Y-79321008D01*
X147149998Y-79338072D01*
X147675002Y-79338072D01*
X147675702Y-79338003D01*
X147777708Y-79440010D01*
X139852312Y-79440010D01*
X139493616Y-79081314D01*
X139549482Y-79075812D01*
X139669180Y-79039502D01*
X139779494Y-78980537D01*
X139876185Y-78901185D01*
X139955537Y-78804494D01*
X140011391Y-78700000D01*
X144436928Y-78700000D01*
X144449188Y-78824482D01*
X144485498Y-78944180D01*
X144544463Y-79054494D01*
X144623815Y-79151185D01*
X144720506Y-79230537D01*
X144830820Y-79289502D01*
X144950518Y-79325812D01*
X145075000Y-79338072D01*
X145301750Y-79335000D01*
X145460500Y-79176250D01*
X145460500Y-78127000D01*
X144598750Y-78127000D01*
X144440000Y-78285750D01*
X144436928Y-78700000D01*
X140011391Y-78700000D01*
X140014502Y-78694180D01*
X140050812Y-78574482D01*
X140063072Y-78450000D01*
X140060000Y-78035750D01*
X139901250Y-77877000D01*
X139039500Y-77877000D01*
X139039500Y-77897000D01*
X138785500Y-77897000D01*
X138785500Y-77877000D01*
X138765500Y-77877000D01*
X138765500Y-77623000D01*
X138785500Y-77623000D01*
X138785500Y-77603000D01*
X139039500Y-77603000D01*
X139039500Y-77623000D01*
X139901250Y-77623000D01*
X140060000Y-77464250D01*
X140061515Y-77260000D01*
X140992462Y-77260000D01*
X140965000Y-77398061D01*
G37*
%TD.AperFunction*%
D29*
X150565000Y-76214250D02*
X150723750Y-76373000D01*
X151623000Y-76373000D01*
X151623000Y-76353000D01*
X151877000Y-76353000D01*
X151877000Y-76373000D01*
X151897000Y-76373000D01*
X151897000Y-76627000D01*
X151877000Y-76627000D01*
X151877000Y-76647000D01*
X151623000Y-76647000D01*
X151623000Y-76627000D01*
X150723750Y-76627000D01*
X150565000Y-76785750D01*
X150561928Y-77750000D01*
X150574188Y-77874482D01*
X150610498Y-77994180D01*
X150669463Y-78104494D01*
X150748815Y-78201185D01*
X150845506Y-78280537D01*
X150955820Y-78339502D01*
X151075518Y-78375812D01*
X151174628Y-78385573D01*
X150570201Y-78990000D01*
X149477302Y-78990000D01*
X148563072Y-78075771D01*
X148563072Y-77549998D01*
X148546008Y-77376744D01*
X148495472Y-77210148D01*
X148413405Y-77056613D01*
X148302962Y-76922038D01*
X148168387Y-76811595D01*
X148014852Y-76729528D01*
X147848256Y-76678992D01*
X147675002Y-76661928D01*
X147149998Y-76661928D01*
X146976744Y-76678992D01*
X146810148Y-76729528D01*
X146656613Y-76811595D01*
X146575363Y-76878276D01*
X146551185Y-76848815D01*
X146454494Y-76769463D01*
X146344180Y-76710498D01*
X146224482Y-76674188D01*
X146100000Y-76661928D01*
X146075035Y-76662266D01*
X146149298Y-76588003D01*
X146149998Y-76588072D01*
X146675002Y-76588072D01*
X146848256Y-76571008D01*
X147014852Y-76520472D01*
X147168387Y-76438405D01*
X147302962Y-76327962D01*
X147413405Y-76193387D01*
X147495472Y-76039852D01*
X147504527Y-76010000D01*
X150212678Y-76010000D01*
X150250000Y-76013676D01*
X150287322Y-76010000D01*
X150287333Y-76010000D01*
X150398986Y-75999003D01*
X150542247Y-75955546D01*
X150564139Y-75943845D01*
X150565000Y-76214250D01*
%TA.AperFunction,Conductor*%
D30*
G36*
X150565000Y-76214250D02*
G01*
X150723750Y-76373000D01*
X151623000Y-76373000D01*
X151623000Y-76353000D01*
X151877000Y-76353000D01*
X151877000Y-76373000D01*
X151897000Y-76373000D01*
X151897000Y-76627000D01*
X151877000Y-76627000D01*
X151877000Y-76647000D01*
X151623000Y-76647000D01*
X151623000Y-76627000D01*
X150723750Y-76627000D01*
X150565000Y-76785750D01*
X150561928Y-77750000D01*
X150574188Y-77874482D01*
X150610498Y-77994180D01*
X150669463Y-78104494D01*
X150748815Y-78201185D01*
X150845506Y-78280537D01*
X150955820Y-78339502D01*
X151075518Y-78375812D01*
X151174628Y-78385573D01*
X150570201Y-78990000D01*
X149477302Y-78990000D01*
X148563072Y-78075771D01*
X148563072Y-77549998D01*
X148546008Y-77376744D01*
X148495472Y-77210148D01*
X148413405Y-77056613D01*
X148302962Y-76922038D01*
X148168387Y-76811595D01*
X148014852Y-76729528D01*
X147848256Y-76678992D01*
X147675002Y-76661928D01*
X147149998Y-76661928D01*
X146976744Y-76678992D01*
X146810148Y-76729528D01*
X146656613Y-76811595D01*
X146575363Y-76878276D01*
X146551185Y-76848815D01*
X146454494Y-76769463D01*
X146344180Y-76710498D01*
X146224482Y-76674188D01*
X146100000Y-76661928D01*
X146075035Y-76662266D01*
X146149298Y-76588003D01*
X146149998Y-76588072D01*
X146675002Y-76588072D01*
X146848256Y-76571008D01*
X147014852Y-76520472D01*
X147168387Y-76438405D01*
X147302962Y-76327962D01*
X147413405Y-76193387D01*
X147495472Y-76039852D01*
X147504527Y-76010000D01*
X150212678Y-76010000D01*
X150250000Y-76013676D01*
X150287322Y-76010000D01*
X150287333Y-76010000D01*
X150398986Y-75999003D01*
X150542247Y-75955546D01*
X150564139Y-75943845D01*
X150565000Y-76214250D01*
G37*
%TD.AperFunction*%
D29*
X129978422Y-63270000D02*
X129334625Y-63270000D01*
X129338072Y-63235000D01*
X129335000Y-63170750D01*
X129176250Y-63012000D01*
X127577000Y-63012000D01*
X127577000Y-63032000D01*
X127323000Y-63032000D01*
X127323000Y-63012000D01*
X125723750Y-63012000D01*
X125565000Y-63170750D01*
X125561928Y-63235000D01*
X125574188Y-63359482D01*
X125610498Y-63479180D01*
X125669463Y-63589494D01*
X125710544Y-63639552D01*
X125637141Y-63776880D01*
X125580914Y-63962236D01*
X125561928Y-64154999D01*
X125561928Y-64155001D01*
X125580914Y-64347764D01*
X125637141Y-64533120D01*
X125728448Y-64703944D01*
X125851328Y-64853673D01*
X126001057Y-64976553D01*
X126171881Y-65067860D01*
X126357237Y-65124087D01*
X126550000Y-65143073D01*
X126690000Y-65143073D01*
X126690000Y-65152686D01*
X126676744Y-65153992D01*
X126510148Y-65204528D01*
X126356613Y-65286595D01*
X126222038Y-65397038D01*
X126111595Y-65531613D01*
X126029528Y-65685148D01*
X125978992Y-65851744D01*
X125961928Y-66024998D01*
X125961928Y-66850002D01*
X125966480Y-66896218D01*
X123489003Y-69373696D01*
X123459999Y-69397499D01*
X123417723Y-69449013D01*
X123365026Y-69513224D01*
X123299120Y-69636525D01*
X123294454Y-69645254D01*
X123250997Y-69788515D01*
X123240000Y-69900168D01*
X123240000Y-69900178D01*
X123236324Y-69937500D01*
X123240000Y-69974823D01*
X123240001Y-72672358D01*
X123180860Y-72711875D01*
X123001875Y-72890860D01*
X122861247Y-73101324D01*
X122764381Y-73335179D01*
X122715000Y-73583439D01*
X122715000Y-73695000D01*
X122603439Y-73695000D01*
X122355179Y-73744381D01*
X122121324Y-73841247D01*
X121910860Y-73981875D01*
X121731875Y-74160860D01*
X121591247Y-74371324D01*
X121494381Y-74605179D01*
X121445000Y-74853439D01*
X121445000Y-75106561D01*
X121494381Y-75354821D01*
X121591247Y-75588676D01*
X121731875Y-75799140D01*
X121910860Y-75978125D01*
X122121324Y-76118753D01*
X122355179Y-76215619D01*
X122603439Y-76265000D01*
X122715000Y-76265000D01*
X122715000Y-76377002D01*
X122873748Y-76377002D01*
X122715000Y-76535750D01*
X122711928Y-76900000D01*
X122724188Y-77024482D01*
X122760498Y-77144180D01*
X122819463Y-77254494D01*
X122898815Y-77351185D01*
X122995506Y-77430537D01*
X123105820Y-77489502D01*
X123225518Y-77525812D01*
X123350000Y-77538072D01*
X123714250Y-77535000D01*
X123873000Y-77376250D01*
X123873000Y-76377000D01*
X124127000Y-76377000D01*
X124127000Y-77376250D01*
X124285750Y-77535000D01*
X124650000Y-77538072D01*
X124774482Y-77525812D01*
X124894180Y-77489502D01*
X125004494Y-77430537D01*
X125101185Y-77351185D01*
X125180537Y-77254494D01*
X125239502Y-77144180D01*
X125275812Y-77024482D01*
X125288072Y-76900000D01*
X125285000Y-76535750D01*
X125126250Y-76377000D01*
X124127000Y-76377000D01*
X123873000Y-76377000D01*
X123853000Y-76377000D01*
X123853000Y-76123000D01*
X123873000Y-76123000D01*
X123873000Y-76103000D01*
X124127000Y-76103000D01*
X124127000Y-76123000D01*
X125126250Y-76123000D01*
X125285000Y-75964250D01*
X125286891Y-75740000D01*
X125665199Y-75740000D01*
X126936201Y-77011003D01*
X126959999Y-77040001D01*
X126988997Y-77063799D01*
X127075724Y-77134974D01*
X127207753Y-77205546D01*
X127351014Y-77249003D01*
X127500000Y-77263677D01*
X127537333Y-77260000D01*
X131440867Y-77260000D01*
X131436928Y-77299998D01*
X131436928Y-77825770D01*
X130522699Y-78740000D01*
X120011579Y-78740000D01*
X120595049Y-78156530D01*
X120628817Y-78128817D01*
X120682177Y-78063799D01*
X120723776Y-78013110D01*
X120739411Y-77994059D01*
X120821589Y-77840313D01*
X120872195Y-77673490D01*
X120885000Y-77543477D01*
X120885000Y-77543467D01*
X120889281Y-77500001D01*
X120885000Y-77456535D01*
X120885000Y-65616578D01*
X121396052Y-65105527D01*
X121457237Y-65124087D01*
X121650000Y-65143073D01*
X123450000Y-65143073D01*
X123642763Y-65124087D01*
X123828119Y-65067860D01*
X123998943Y-64976553D01*
X124148672Y-64853673D01*
X124271552Y-64703944D01*
X124362859Y-64533120D01*
X124419086Y-64347764D01*
X124438072Y-64155001D01*
X124438072Y-64154999D01*
X124419086Y-63962236D01*
X124362859Y-63776880D01*
X124289456Y-63639552D01*
X124330537Y-63589494D01*
X124389502Y-63479180D01*
X124425812Y-63359482D01*
X124438072Y-63235000D01*
X124435000Y-63170750D01*
X124276250Y-63012000D01*
X122677000Y-63012000D01*
X122677000Y-63032000D01*
X122423000Y-63032000D01*
X122423000Y-63012000D01*
X120823750Y-63012000D01*
X120665000Y-63170750D01*
X120661928Y-63235000D01*
X120674188Y-63359482D01*
X120678614Y-63374072D01*
X120618887Y-63405997D01*
X120600941Y-63415589D01*
X120499953Y-63498468D01*
X120499951Y-63498470D01*
X120466183Y-63526183D01*
X120438470Y-63559951D01*
X120127000Y-63871421D01*
X120127000Y-61965000D01*
X120661928Y-61965000D01*
X120674188Y-62089482D01*
X120710498Y-62209180D01*
X120732317Y-62250000D01*
X120710498Y-62290820D01*
X120674188Y-62410518D01*
X120661928Y-62535000D01*
X120665000Y-62599250D01*
X120823750Y-62758000D01*
X122423000Y-62758000D01*
X122423000Y-61742000D01*
X122677000Y-61742000D01*
X122677000Y-62758000D01*
X124276250Y-62758000D01*
X124435000Y-62599250D01*
X124438072Y-62535000D01*
X124425812Y-62410518D01*
X124389502Y-62290820D01*
X124367683Y-62250000D01*
X124389502Y-62209180D01*
X124425812Y-62089482D01*
X124438072Y-61965000D01*
X125561928Y-61965000D01*
X125574188Y-62089482D01*
X125610498Y-62209180D01*
X125632317Y-62250000D01*
X125610498Y-62290820D01*
X125574188Y-62410518D01*
X125561928Y-62535000D01*
X125565000Y-62599250D01*
X125723750Y-62758000D01*
X127323000Y-62758000D01*
X127323000Y-61742000D01*
X127577000Y-61742000D01*
X127577000Y-62758000D01*
X129176250Y-62758000D01*
X129335000Y-62599250D01*
X129338072Y-62535000D01*
X129325812Y-62410518D01*
X129289502Y-62290820D01*
X129267683Y-62250000D01*
X129289502Y-62209180D01*
X129325812Y-62089482D01*
X129338072Y-61965000D01*
X129335000Y-61900750D01*
X129176250Y-61742000D01*
X127577000Y-61742000D01*
X127323000Y-61742000D01*
X125723750Y-61742000D01*
X125565000Y-61900750D01*
X125561928Y-61965000D01*
X124438072Y-61965000D01*
X124435000Y-61900750D01*
X124276250Y-61742000D01*
X122677000Y-61742000D01*
X122423000Y-61742000D01*
X120823750Y-61742000D01*
X120665000Y-61900750D01*
X120661928Y-61965000D01*
X120127000Y-61965000D01*
X120127000Y-60344999D01*
X120661928Y-60344999D01*
X120661928Y-60345001D01*
X120680914Y-60537764D01*
X120737141Y-60723120D01*
X120810544Y-60860448D01*
X120769463Y-60910506D01*
X120710498Y-61020820D01*
X120674188Y-61140518D01*
X120661928Y-61265000D01*
X120665000Y-61329250D01*
X120823750Y-61488000D01*
X122423000Y-61488000D01*
X122423000Y-61468000D01*
X122677000Y-61468000D01*
X122677000Y-61488000D01*
X124276250Y-61488000D01*
X124435000Y-61329250D01*
X124438072Y-61265000D01*
X124425812Y-61140518D01*
X124389502Y-61020820D01*
X124330537Y-60910506D01*
X124289456Y-60860448D01*
X124362859Y-60723120D01*
X124419086Y-60537764D01*
X124438072Y-60345001D01*
X124438072Y-60344999D01*
X125561928Y-60344999D01*
X125561928Y-60345001D01*
X125580914Y-60537764D01*
X125637141Y-60723120D01*
X125710544Y-60860448D01*
X125669463Y-60910506D01*
X125610498Y-61020820D01*
X125574188Y-61140518D01*
X125561928Y-61265000D01*
X125565000Y-61329250D01*
X125723750Y-61488000D01*
X127323000Y-61488000D01*
X127323000Y-61468000D01*
X127577000Y-61468000D01*
X127577000Y-61488000D01*
X129176250Y-61488000D01*
X129335000Y-61329250D01*
X129338072Y-61265000D01*
X129325812Y-61140518D01*
X129289502Y-61020820D01*
X129230537Y-60910506D01*
X129189456Y-60860448D01*
X129262859Y-60723120D01*
X129319086Y-60537764D01*
X129338072Y-60345001D01*
X129338072Y-60344999D01*
X129319086Y-60152236D01*
X129262859Y-59966880D01*
X129171552Y-59796056D01*
X129048672Y-59646327D01*
X128898943Y-59523447D01*
X128728119Y-59432140D01*
X128542763Y-59375913D01*
X128350000Y-59356927D01*
X126550000Y-59356927D01*
X126357237Y-59375913D01*
X126171881Y-59432140D01*
X126001057Y-59523447D01*
X125851328Y-59646327D01*
X125728448Y-59796056D01*
X125637141Y-59966880D01*
X125580914Y-60152236D01*
X125561928Y-60344999D01*
X124438072Y-60344999D01*
X124419086Y-60152236D01*
X124362859Y-59966880D01*
X124271552Y-59796056D01*
X124148672Y-59646327D01*
X123998943Y-59523447D01*
X123828119Y-59432140D01*
X123642763Y-59375913D01*
X123450000Y-59356927D01*
X121650000Y-59356927D01*
X121457237Y-59375913D01*
X121271881Y-59432140D01*
X121101057Y-59523447D01*
X120951328Y-59646327D01*
X120828448Y-59796056D01*
X120737141Y-59966880D01*
X120680914Y-60152236D01*
X120661928Y-60344999D01*
X120127000Y-60344999D01*
X120127000Y-58627000D01*
X134621421Y-58627000D01*
X129978422Y-63270000D01*
%TA.AperFunction,Conductor*%
D30*
G36*
X129978422Y-63270000D02*
G01*
X129334625Y-63270000D01*
X129338072Y-63235000D01*
X129335000Y-63170750D01*
X129176250Y-63012000D01*
X127577000Y-63012000D01*
X127577000Y-63032000D01*
X127323000Y-63032000D01*
X127323000Y-63012000D01*
X125723750Y-63012000D01*
X125565000Y-63170750D01*
X125561928Y-63235000D01*
X125574188Y-63359482D01*
X125610498Y-63479180D01*
X125669463Y-63589494D01*
X125710544Y-63639552D01*
X125637141Y-63776880D01*
X125580914Y-63962236D01*
X125561928Y-64154999D01*
X125561928Y-64155001D01*
X125580914Y-64347764D01*
X125637141Y-64533120D01*
X125728448Y-64703944D01*
X125851328Y-64853673D01*
X126001057Y-64976553D01*
X126171881Y-65067860D01*
X126357237Y-65124087D01*
X126550000Y-65143073D01*
X126690000Y-65143073D01*
X126690000Y-65152686D01*
X126676744Y-65153992D01*
X126510148Y-65204528D01*
X126356613Y-65286595D01*
X126222038Y-65397038D01*
X126111595Y-65531613D01*
X126029528Y-65685148D01*
X125978992Y-65851744D01*
X125961928Y-66024998D01*
X125961928Y-66850002D01*
X125966480Y-66896218D01*
X123489003Y-69373696D01*
X123459999Y-69397499D01*
X123417723Y-69449013D01*
X123365026Y-69513224D01*
X123299120Y-69636525D01*
X123294454Y-69645254D01*
X123250997Y-69788515D01*
X123240000Y-69900168D01*
X123240000Y-69900178D01*
X123236324Y-69937500D01*
X123240000Y-69974823D01*
X123240001Y-72672358D01*
X123180860Y-72711875D01*
X123001875Y-72890860D01*
X122861247Y-73101324D01*
X122764381Y-73335179D01*
X122715000Y-73583439D01*
X122715000Y-73695000D01*
X122603439Y-73695000D01*
X122355179Y-73744381D01*
X122121324Y-73841247D01*
X121910860Y-73981875D01*
X121731875Y-74160860D01*
X121591247Y-74371324D01*
X121494381Y-74605179D01*
X121445000Y-74853439D01*
X121445000Y-75106561D01*
X121494381Y-75354821D01*
X121591247Y-75588676D01*
X121731875Y-75799140D01*
X121910860Y-75978125D01*
X122121324Y-76118753D01*
X122355179Y-76215619D01*
X122603439Y-76265000D01*
X122715000Y-76265000D01*
X122715000Y-76377002D01*
X122873748Y-76377002D01*
X122715000Y-76535750D01*
X122711928Y-76900000D01*
X122724188Y-77024482D01*
X122760498Y-77144180D01*
X122819463Y-77254494D01*
X122898815Y-77351185D01*
X122995506Y-77430537D01*
X123105820Y-77489502D01*
X123225518Y-77525812D01*
X123350000Y-77538072D01*
X123714250Y-77535000D01*
X123873000Y-77376250D01*
X123873000Y-76377000D01*
X124127000Y-76377000D01*
X124127000Y-77376250D01*
X124285750Y-77535000D01*
X124650000Y-77538072D01*
X124774482Y-77525812D01*
X124894180Y-77489502D01*
X125004494Y-77430537D01*
X125101185Y-77351185D01*
X125180537Y-77254494D01*
X125239502Y-77144180D01*
X125275812Y-77024482D01*
X125288072Y-76900000D01*
X125285000Y-76535750D01*
X125126250Y-76377000D01*
X124127000Y-76377000D01*
X123873000Y-76377000D01*
X123853000Y-76377000D01*
X123853000Y-76123000D01*
X123873000Y-76123000D01*
X123873000Y-76103000D01*
X124127000Y-76103000D01*
X124127000Y-76123000D01*
X125126250Y-76123000D01*
X125285000Y-75964250D01*
X125286891Y-75740000D01*
X125665199Y-75740000D01*
X126936201Y-77011003D01*
X126959999Y-77040001D01*
X126988997Y-77063799D01*
X127075724Y-77134974D01*
X127207753Y-77205546D01*
X127351014Y-77249003D01*
X127500000Y-77263677D01*
X127537333Y-77260000D01*
X131440867Y-77260000D01*
X131436928Y-77299998D01*
X131436928Y-77825770D01*
X130522699Y-78740000D01*
X120011579Y-78740000D01*
X120595049Y-78156530D01*
X120628817Y-78128817D01*
X120682177Y-78063799D01*
X120723776Y-78013110D01*
X120739411Y-77994059D01*
X120821589Y-77840313D01*
X120872195Y-77673490D01*
X120885000Y-77543477D01*
X120885000Y-77543467D01*
X120889281Y-77500001D01*
X120885000Y-77456535D01*
X120885000Y-65616578D01*
X121396052Y-65105527D01*
X121457237Y-65124087D01*
X121650000Y-65143073D01*
X123450000Y-65143073D01*
X123642763Y-65124087D01*
X123828119Y-65067860D01*
X123998943Y-64976553D01*
X124148672Y-64853673D01*
X124271552Y-64703944D01*
X124362859Y-64533120D01*
X124419086Y-64347764D01*
X124438072Y-64155001D01*
X124438072Y-64154999D01*
X124419086Y-63962236D01*
X124362859Y-63776880D01*
X124289456Y-63639552D01*
X124330537Y-63589494D01*
X124389502Y-63479180D01*
X124425812Y-63359482D01*
X124438072Y-63235000D01*
X124435000Y-63170750D01*
X124276250Y-63012000D01*
X122677000Y-63012000D01*
X122677000Y-63032000D01*
X122423000Y-63032000D01*
X122423000Y-63012000D01*
X120823750Y-63012000D01*
X120665000Y-63170750D01*
X120661928Y-63235000D01*
X120674188Y-63359482D01*
X120678614Y-63374072D01*
X120618887Y-63405997D01*
X120600941Y-63415589D01*
X120499953Y-63498468D01*
X120499951Y-63498470D01*
X120466183Y-63526183D01*
X120438470Y-63559951D01*
X120127000Y-63871421D01*
X120127000Y-61965000D01*
X120661928Y-61965000D01*
X120674188Y-62089482D01*
X120710498Y-62209180D01*
X120732317Y-62250000D01*
X120710498Y-62290820D01*
X120674188Y-62410518D01*
X120661928Y-62535000D01*
X120665000Y-62599250D01*
X120823750Y-62758000D01*
X122423000Y-62758000D01*
X122423000Y-61742000D01*
X122677000Y-61742000D01*
X122677000Y-62758000D01*
X124276250Y-62758000D01*
X124435000Y-62599250D01*
X124438072Y-62535000D01*
X124425812Y-62410518D01*
X124389502Y-62290820D01*
X124367683Y-62250000D01*
X124389502Y-62209180D01*
X124425812Y-62089482D01*
X124438072Y-61965000D01*
X125561928Y-61965000D01*
X125574188Y-62089482D01*
X125610498Y-62209180D01*
X125632317Y-62250000D01*
X125610498Y-62290820D01*
X125574188Y-62410518D01*
X125561928Y-62535000D01*
X125565000Y-62599250D01*
X125723750Y-62758000D01*
X127323000Y-62758000D01*
X127323000Y-61742000D01*
X127577000Y-61742000D01*
X127577000Y-62758000D01*
X129176250Y-62758000D01*
X129335000Y-62599250D01*
X129338072Y-62535000D01*
X129325812Y-62410518D01*
X129289502Y-62290820D01*
X129267683Y-62250000D01*
X129289502Y-62209180D01*
X129325812Y-62089482D01*
X129338072Y-61965000D01*
X129335000Y-61900750D01*
X129176250Y-61742000D01*
X127577000Y-61742000D01*
X127323000Y-61742000D01*
X125723750Y-61742000D01*
X125565000Y-61900750D01*
X125561928Y-61965000D01*
X124438072Y-61965000D01*
X124435000Y-61900750D01*
X124276250Y-61742000D01*
X122677000Y-61742000D01*
X122423000Y-61742000D01*
X120823750Y-61742000D01*
X120665000Y-61900750D01*
X120661928Y-61965000D01*
X120127000Y-61965000D01*
X120127000Y-60344999D01*
X120661928Y-60344999D01*
X120661928Y-60345001D01*
X120680914Y-60537764D01*
X120737141Y-60723120D01*
X120810544Y-60860448D01*
X120769463Y-60910506D01*
X120710498Y-61020820D01*
X120674188Y-61140518D01*
X120661928Y-61265000D01*
X120665000Y-61329250D01*
X120823750Y-61488000D01*
X122423000Y-61488000D01*
X122423000Y-61468000D01*
X122677000Y-61468000D01*
X122677000Y-61488000D01*
X124276250Y-61488000D01*
X124435000Y-61329250D01*
X124438072Y-61265000D01*
X124425812Y-61140518D01*
X124389502Y-61020820D01*
X124330537Y-60910506D01*
X124289456Y-60860448D01*
X124362859Y-60723120D01*
X124419086Y-60537764D01*
X124438072Y-60345001D01*
X124438072Y-60344999D01*
X125561928Y-60344999D01*
X125561928Y-60345001D01*
X125580914Y-60537764D01*
X125637141Y-60723120D01*
X125710544Y-60860448D01*
X125669463Y-60910506D01*
X125610498Y-61020820D01*
X125574188Y-61140518D01*
X125561928Y-61265000D01*
X125565000Y-61329250D01*
X125723750Y-61488000D01*
X127323000Y-61488000D01*
X127323000Y-61468000D01*
X127577000Y-61468000D01*
X127577000Y-61488000D01*
X129176250Y-61488000D01*
X129335000Y-61329250D01*
X129338072Y-61265000D01*
X129325812Y-61140518D01*
X129289502Y-61020820D01*
X129230537Y-60910506D01*
X129189456Y-60860448D01*
X129262859Y-60723120D01*
X129319086Y-60537764D01*
X129338072Y-60345001D01*
X129338072Y-60344999D01*
X129319086Y-60152236D01*
X129262859Y-59966880D01*
X129171552Y-59796056D01*
X129048672Y-59646327D01*
X128898943Y-59523447D01*
X128728119Y-59432140D01*
X128542763Y-59375913D01*
X128350000Y-59356927D01*
X126550000Y-59356927D01*
X126357237Y-59375913D01*
X126171881Y-59432140D01*
X126001057Y-59523447D01*
X125851328Y-59646327D01*
X125728448Y-59796056D01*
X125637141Y-59966880D01*
X125580914Y-60152236D01*
X125561928Y-60344999D01*
X124438072Y-60344999D01*
X124419086Y-60152236D01*
X124362859Y-59966880D01*
X124271552Y-59796056D01*
X124148672Y-59646327D01*
X123998943Y-59523447D01*
X123828119Y-59432140D01*
X123642763Y-59375913D01*
X123450000Y-59356927D01*
X121650000Y-59356927D01*
X121457237Y-59375913D01*
X121271881Y-59432140D01*
X121101057Y-59523447D01*
X120951328Y-59646327D01*
X120828448Y-59796056D01*
X120737141Y-59966880D01*
X120680914Y-60152236D01*
X120661928Y-60344999D01*
X120127000Y-60344999D01*
X120127000Y-58627000D01*
X134621421Y-58627000D01*
X129978422Y-63270000D01*
G37*
%TD.AperFunction*%
D29*
X131686928Y-65200002D02*
X131703992Y-65373256D01*
X131754528Y-65539852D01*
X131836595Y-65693387D01*
X131947038Y-65827962D01*
X132077501Y-65935030D01*
X132077500Y-69936587D01*
X132073824Y-69973910D01*
X132077500Y-70011232D01*
X132077500Y-70011242D01*
X132088497Y-70122895D01*
X132123716Y-70238998D01*
X132131954Y-70266156D01*
X132202526Y-70398186D01*
X132222467Y-70422484D01*
X132297499Y-70513911D01*
X132326503Y-70537714D01*
X137528788Y-75740000D01*
X127814802Y-75740000D01*
X126543804Y-74469003D01*
X126520001Y-74439999D01*
X126404276Y-74345026D01*
X126272247Y-74274454D01*
X126128986Y-74230997D01*
X126017333Y-74220000D01*
X126017322Y-74220000D01*
X125980000Y-74216324D01*
X125942678Y-74220000D01*
X125179626Y-74220000D01*
X125235619Y-74084821D01*
X125285000Y-73836561D01*
X125285000Y-73583439D01*
X125235619Y-73335179D01*
X125138753Y-73101324D01*
X124998125Y-72890860D01*
X124819140Y-72711875D01*
X124760000Y-72672359D01*
X124760000Y-70252301D01*
X124787301Y-70225000D01*
X125961928Y-70225000D01*
X125974188Y-70349482D01*
X126010498Y-70469180D01*
X126069463Y-70579494D01*
X126148815Y-70676185D01*
X126245506Y-70755537D01*
X126355820Y-70814502D01*
X126475518Y-70850812D01*
X126600000Y-70863072D01*
X127214250Y-70860000D01*
X127373000Y-70701250D01*
X127373000Y-69689500D01*
X127627000Y-69689500D01*
X127627000Y-70701250D01*
X127785750Y-70860000D01*
X128400000Y-70863072D01*
X128524482Y-70850812D01*
X128644180Y-70814502D01*
X128754494Y-70755537D01*
X128851185Y-70676185D01*
X128930537Y-70579494D01*
X128989502Y-70469180D01*
X129025812Y-70349482D01*
X129038072Y-70225000D01*
X129035000Y-69848250D01*
X128876250Y-69689500D01*
X127627000Y-69689500D01*
X127373000Y-69689500D01*
X126123750Y-69689500D01*
X125965000Y-69848250D01*
X125961928Y-70225000D01*
X124787301Y-70225000D01*
X125963144Y-69049158D01*
X125965000Y-69276750D01*
X126123750Y-69435500D01*
X127373000Y-69435500D01*
X127373000Y-68423750D01*
X127627000Y-68423750D01*
X127627000Y-69435500D01*
X128876250Y-69435500D01*
X129035000Y-69276750D01*
X129038072Y-68900000D01*
X129025812Y-68775518D01*
X128989502Y-68655820D01*
X128930537Y-68545506D01*
X128851185Y-68448815D01*
X128754494Y-68369463D01*
X128644180Y-68310498D01*
X128524482Y-68274188D01*
X128400000Y-68261928D01*
X127785750Y-68265000D01*
X127627000Y-68423750D01*
X127373000Y-68423750D01*
X127214250Y-68265000D01*
X126749626Y-68262676D01*
X127274231Y-67738072D01*
X128150002Y-67738072D01*
X128323256Y-67721008D01*
X128489852Y-67670472D01*
X128643387Y-67588405D01*
X128777962Y-67477962D01*
X128888405Y-67343387D01*
X128970472Y-67189852D01*
X129021008Y-67023256D01*
X129038072Y-66850002D01*
X129038072Y-66024998D01*
X129021008Y-65851744D01*
X128970472Y-65685148D01*
X128888405Y-65531613D01*
X128777962Y-65397038D01*
X128643387Y-65286595D01*
X128489852Y-65204528D01*
X128323256Y-65153992D01*
X128212393Y-65143073D01*
X128350000Y-65143073D01*
X128542763Y-65124087D01*
X128728119Y-65067860D01*
X128780242Y-65040000D01*
X130301531Y-65040000D01*
X130345000Y-65044281D01*
X130388469Y-65040000D01*
X130388477Y-65040000D01*
X130518490Y-65027195D01*
X130685313Y-64976589D01*
X130800539Y-64915000D01*
X131686928Y-64915000D01*
X131686928Y-65200002D01*
%TA.AperFunction,Conductor*%
D30*
G36*
X131686928Y-65200002D02*
G01*
X131703992Y-65373256D01*
X131754528Y-65539852D01*
X131836595Y-65693387D01*
X131947038Y-65827962D01*
X132077501Y-65935030D01*
X132077500Y-69936587D01*
X132073824Y-69973910D01*
X132077500Y-70011232D01*
X132077500Y-70011242D01*
X132088497Y-70122895D01*
X132123716Y-70238998D01*
X132131954Y-70266156D01*
X132202526Y-70398186D01*
X132222467Y-70422484D01*
X132297499Y-70513911D01*
X132326503Y-70537714D01*
X137528788Y-75740000D01*
X127814802Y-75740000D01*
X126543804Y-74469003D01*
X126520001Y-74439999D01*
X126404276Y-74345026D01*
X126272247Y-74274454D01*
X126128986Y-74230997D01*
X126017333Y-74220000D01*
X126017322Y-74220000D01*
X125980000Y-74216324D01*
X125942678Y-74220000D01*
X125179626Y-74220000D01*
X125235619Y-74084821D01*
X125285000Y-73836561D01*
X125285000Y-73583439D01*
X125235619Y-73335179D01*
X125138753Y-73101324D01*
X124998125Y-72890860D01*
X124819140Y-72711875D01*
X124760000Y-72672359D01*
X124760000Y-70252301D01*
X124787301Y-70225000D01*
X125961928Y-70225000D01*
X125974188Y-70349482D01*
X126010498Y-70469180D01*
X126069463Y-70579494D01*
X126148815Y-70676185D01*
X126245506Y-70755537D01*
X126355820Y-70814502D01*
X126475518Y-70850812D01*
X126600000Y-70863072D01*
X127214250Y-70860000D01*
X127373000Y-70701250D01*
X127373000Y-69689500D01*
X127627000Y-69689500D01*
X127627000Y-70701250D01*
X127785750Y-70860000D01*
X128400000Y-70863072D01*
X128524482Y-70850812D01*
X128644180Y-70814502D01*
X128754494Y-70755537D01*
X128851185Y-70676185D01*
X128930537Y-70579494D01*
X128989502Y-70469180D01*
X129025812Y-70349482D01*
X129038072Y-70225000D01*
X129035000Y-69848250D01*
X128876250Y-69689500D01*
X127627000Y-69689500D01*
X127373000Y-69689500D01*
X126123750Y-69689500D01*
X125965000Y-69848250D01*
X125961928Y-70225000D01*
X124787301Y-70225000D01*
X125963144Y-69049158D01*
X125965000Y-69276750D01*
X126123750Y-69435500D01*
X127373000Y-69435500D01*
X127373000Y-68423750D01*
X127627000Y-68423750D01*
X127627000Y-69435500D01*
X128876250Y-69435500D01*
X129035000Y-69276750D01*
X129038072Y-68900000D01*
X129025812Y-68775518D01*
X128989502Y-68655820D01*
X128930537Y-68545506D01*
X128851185Y-68448815D01*
X128754494Y-68369463D01*
X128644180Y-68310498D01*
X128524482Y-68274188D01*
X128400000Y-68261928D01*
X127785750Y-68265000D01*
X127627000Y-68423750D01*
X127373000Y-68423750D01*
X127214250Y-68265000D01*
X126749626Y-68262676D01*
X127274231Y-67738072D01*
X128150002Y-67738072D01*
X128323256Y-67721008D01*
X128489852Y-67670472D01*
X128643387Y-67588405D01*
X128777962Y-67477962D01*
X128888405Y-67343387D01*
X128970472Y-67189852D01*
X129021008Y-67023256D01*
X129038072Y-66850002D01*
X129038072Y-66024998D01*
X129021008Y-65851744D01*
X128970472Y-65685148D01*
X128888405Y-65531613D01*
X128777962Y-65397038D01*
X128643387Y-65286595D01*
X128489852Y-65204528D01*
X128323256Y-65153992D01*
X128212393Y-65143073D01*
X128350000Y-65143073D01*
X128542763Y-65124087D01*
X128728119Y-65067860D01*
X128780242Y-65040000D01*
X130301531Y-65040000D01*
X130345000Y-65044281D01*
X130388469Y-65040000D01*
X130388477Y-65040000D01*
X130518490Y-65027195D01*
X130685313Y-64976589D01*
X130800539Y-64915000D01*
X131686928Y-64915000D01*
X131686928Y-65200002D01*
G37*
%TD.AperFunction*%
D29*
X179873000Y-67041196D02*
X179869463Y-67045506D01*
X179810498Y-67155820D01*
X179774188Y-67275518D01*
X179761928Y-67400000D01*
X179761928Y-67490000D01*
X178887013Y-67490000D01*
X178885000Y-67185750D01*
X178726250Y-67027000D01*
X177627000Y-67027000D01*
X177627000Y-67047000D01*
X177373000Y-67047000D01*
X177373000Y-67027000D01*
X176273750Y-67027000D01*
X176115000Y-67185750D01*
X176112987Y-67490000D01*
X166814803Y-67490000D01*
X165474803Y-66150000D01*
X176111928Y-66150000D01*
X176115000Y-66614250D01*
X176273750Y-66773000D01*
X177373000Y-66773000D01*
X177373000Y-65673750D01*
X177627000Y-65673750D01*
X177627000Y-66773000D01*
X178726250Y-66773000D01*
X178885000Y-66614250D01*
X178888072Y-66150000D01*
X178875812Y-66025518D01*
X178839502Y-65905820D01*
X178780537Y-65795506D01*
X178701185Y-65698815D01*
X178604494Y-65619463D01*
X178494180Y-65560498D01*
X178374482Y-65524188D01*
X178250000Y-65511928D01*
X177785750Y-65515000D01*
X177627000Y-65673750D01*
X177373000Y-65673750D01*
X177214250Y-65515000D01*
X176750000Y-65511928D01*
X176625518Y-65524188D01*
X176505820Y-65560498D01*
X176395506Y-65619463D01*
X176298815Y-65698815D01*
X176219463Y-65795506D01*
X176160498Y-65905820D01*
X176124188Y-66025518D01*
X176111928Y-66150000D01*
X165474803Y-66150000D01*
X163563804Y-64239003D01*
X163540001Y-64209999D01*
X163424276Y-64115026D01*
X163292247Y-64044454D01*
X163148986Y-64000997D01*
X163037333Y-63990000D01*
X163037322Y-63990000D01*
X163000000Y-63986324D01*
X162962678Y-63990000D01*
X162634801Y-63990000D01*
X163636730Y-62988072D01*
X164300000Y-62988072D01*
X164424482Y-62975812D01*
X164544180Y-62939502D01*
X164654494Y-62880537D01*
X164750000Y-62802158D01*
X164845506Y-62880537D01*
X164955820Y-62939502D01*
X165075518Y-62975812D01*
X165200000Y-62988072D01*
X166300000Y-62988072D01*
X166424482Y-62975812D01*
X166544180Y-62939502D01*
X166654494Y-62880537D01*
X166751185Y-62801185D01*
X166830537Y-62704494D01*
X166889502Y-62594180D01*
X166925812Y-62474482D01*
X166938072Y-62350000D01*
X166938072Y-61863506D01*
X168816579Y-59985000D01*
X176127379Y-59985000D01*
X176160498Y-60094180D01*
X176219463Y-60204494D01*
X176298815Y-60301185D01*
X176395506Y-60380537D01*
X176505820Y-60439502D01*
X176625518Y-60475812D01*
X176750000Y-60488072D01*
X178250000Y-60488072D01*
X178374482Y-60475812D01*
X178494180Y-60439502D01*
X178604494Y-60380537D01*
X178701185Y-60301185D01*
X178780537Y-60204494D01*
X178839502Y-60094180D01*
X178875812Y-59974482D01*
X178888072Y-59850000D01*
X178888072Y-58627000D01*
X179873000Y-58627000D01*
X179873000Y-67041196D01*
%TA.AperFunction,Conductor*%
D30*
G36*
X179873000Y-67041196D02*
G01*
X179869463Y-67045506D01*
X179810498Y-67155820D01*
X179774188Y-67275518D01*
X179761928Y-67400000D01*
X179761928Y-67490000D01*
X178887013Y-67490000D01*
X178885000Y-67185750D01*
X178726250Y-67027000D01*
X177627000Y-67027000D01*
X177627000Y-67047000D01*
X177373000Y-67047000D01*
X177373000Y-67027000D01*
X176273750Y-67027000D01*
X176115000Y-67185750D01*
X176112987Y-67490000D01*
X166814803Y-67490000D01*
X165474803Y-66150000D01*
X176111928Y-66150000D01*
X176115000Y-66614250D01*
X176273750Y-66773000D01*
X177373000Y-66773000D01*
X177373000Y-65673750D01*
X177627000Y-65673750D01*
X177627000Y-66773000D01*
X178726250Y-66773000D01*
X178885000Y-66614250D01*
X178888072Y-66150000D01*
X178875812Y-66025518D01*
X178839502Y-65905820D01*
X178780537Y-65795506D01*
X178701185Y-65698815D01*
X178604494Y-65619463D01*
X178494180Y-65560498D01*
X178374482Y-65524188D01*
X178250000Y-65511928D01*
X177785750Y-65515000D01*
X177627000Y-65673750D01*
X177373000Y-65673750D01*
X177214250Y-65515000D01*
X176750000Y-65511928D01*
X176625518Y-65524188D01*
X176505820Y-65560498D01*
X176395506Y-65619463D01*
X176298815Y-65698815D01*
X176219463Y-65795506D01*
X176160498Y-65905820D01*
X176124188Y-66025518D01*
X176111928Y-66150000D01*
X165474803Y-66150000D01*
X163563804Y-64239003D01*
X163540001Y-64209999D01*
X163424276Y-64115026D01*
X163292247Y-64044454D01*
X163148986Y-64000997D01*
X163037333Y-63990000D01*
X163037322Y-63990000D01*
X163000000Y-63986324D01*
X162962678Y-63990000D01*
X162634801Y-63990000D01*
X163636730Y-62988072D01*
X164300000Y-62988072D01*
X164424482Y-62975812D01*
X164544180Y-62939502D01*
X164654494Y-62880537D01*
X164750000Y-62802158D01*
X164845506Y-62880537D01*
X164955820Y-62939502D01*
X165075518Y-62975812D01*
X165200000Y-62988072D01*
X166300000Y-62988072D01*
X166424482Y-62975812D01*
X166544180Y-62939502D01*
X166654494Y-62880537D01*
X166751185Y-62801185D01*
X166830537Y-62704494D01*
X166889502Y-62594180D01*
X166925812Y-62474482D01*
X166938072Y-62350000D01*
X166938072Y-61863506D01*
X168816579Y-59985000D01*
X176127379Y-59985000D01*
X176160498Y-60094180D01*
X176219463Y-60204494D01*
X176298815Y-60301185D01*
X176395506Y-60380537D01*
X176505820Y-60439502D01*
X176625518Y-60475812D01*
X176750000Y-60488072D01*
X178250000Y-60488072D01*
X178374482Y-60475812D01*
X178494180Y-60439502D01*
X178604494Y-60380537D01*
X178701185Y-60301185D01*
X178780537Y-60204494D01*
X178839502Y-60094180D01*
X178875812Y-59974482D01*
X178888072Y-59850000D01*
X178888072Y-58627000D01*
X179873000Y-58627000D01*
X179873000Y-67041196D01*
G37*
%TD.AperFunction*%
D29*
X138179452Y-59981030D02*
X138074482Y-59949188D01*
X137950000Y-59936928D01*
X137535750Y-59940000D01*
X137377000Y-60098750D01*
X137377000Y-60960500D01*
X138426250Y-60960500D01*
X138585000Y-60801750D01*
X138588072Y-60575000D01*
X138575812Y-60450518D01*
X138543970Y-60345548D01*
X138921924Y-60723503D01*
X138911928Y-60824998D01*
X138911928Y-61350002D01*
X138928992Y-61523256D01*
X138979528Y-61689852D01*
X139061595Y-61843387D01*
X139172038Y-61977962D01*
X139198891Y-62000000D01*
X139172038Y-62022038D01*
X139061595Y-62156613D01*
X138979528Y-62310148D01*
X138928992Y-62476744D01*
X138911928Y-62649998D01*
X138911928Y-63175002D01*
X138928992Y-63348256D01*
X138979528Y-63514852D01*
X139061595Y-63668387D01*
X139172038Y-63802962D01*
X139306613Y-63913405D01*
X139460148Y-63995472D01*
X139626744Y-64046008D01*
X139799998Y-64063072D01*
X140488270Y-64063072D01*
X141686205Y-65261008D01*
X141709999Y-65290001D01*
X141738992Y-65313795D01*
X141738996Y-65313799D01*
X141791261Y-65356691D01*
X141822886Y-65382645D01*
X141810498Y-65405820D01*
X141788487Y-65478380D01*
X141656632Y-65346525D01*
X141413411Y-65184010D01*
X141143158Y-65072068D01*
X140856260Y-65015000D01*
X140563740Y-65015000D01*
X140343592Y-65058790D01*
X138576571Y-63291770D01*
X138588072Y-63175002D01*
X138588072Y-62649998D01*
X138571008Y-62476744D01*
X138520472Y-62310148D01*
X138438405Y-62156613D01*
X138371724Y-62075363D01*
X138401185Y-62051185D01*
X138480537Y-61954494D01*
X138539502Y-61844180D01*
X138575812Y-61724482D01*
X138588072Y-61600000D01*
X138585000Y-61373250D01*
X138426250Y-61214500D01*
X137377000Y-61214500D01*
X137377000Y-61234500D01*
X137123000Y-61234500D01*
X137123000Y-61214500D01*
X136073750Y-61214500D01*
X135915000Y-61373250D01*
X135911928Y-61600000D01*
X135924188Y-61724482D01*
X135960498Y-61844180D01*
X136019463Y-61954494D01*
X136098815Y-62051185D01*
X136128276Y-62075363D01*
X136061595Y-62156613D01*
X135979528Y-62310148D01*
X135928992Y-62476744D01*
X135911928Y-62649998D01*
X135911928Y-63175002D01*
X135928992Y-63348256D01*
X135979528Y-63514852D01*
X136061595Y-63668387D01*
X136172038Y-63802962D01*
X136306613Y-63913405D01*
X136460148Y-63995472D01*
X136626744Y-64046008D01*
X136799998Y-64063072D01*
X137198271Y-64063072D01*
X138150199Y-65015000D01*
X138023740Y-65015000D01*
X137736842Y-65072068D01*
X137466589Y-65184010D01*
X137223368Y-65346525D01*
X137016525Y-65553368D01*
X136854010Y-65796589D01*
X136742068Y-66066842D01*
X136685000Y-66353740D01*
X136685000Y-66360198D01*
X135773211Y-65448409D01*
X135796008Y-65373256D01*
X135813072Y-65200002D01*
X135813072Y-64299998D01*
X135796008Y-64126744D01*
X135745472Y-63960148D01*
X135663405Y-63806613D01*
X135552962Y-63672038D01*
X135418387Y-63561595D01*
X135264852Y-63479528D01*
X135098256Y-63428992D01*
X134925002Y-63411928D01*
X134399998Y-63411928D01*
X134226744Y-63428992D01*
X134060148Y-63479528D01*
X133906613Y-63561595D01*
X133772038Y-63672038D01*
X133750000Y-63698891D01*
X133727962Y-63672038D01*
X133593387Y-63561595D01*
X133439852Y-63479528D01*
X133273256Y-63428992D01*
X133100002Y-63411928D01*
X132574998Y-63411928D01*
X132451226Y-63424118D01*
X132391486Y-63405997D01*
X132349697Y-63401881D01*
X135176578Y-60575000D01*
X135911928Y-60575000D01*
X135915000Y-60801750D01*
X136073750Y-60960500D01*
X137123000Y-60960500D01*
X137123000Y-60098750D01*
X136964250Y-59940000D01*
X136550000Y-59936928D01*
X136425518Y-59949188D01*
X136305820Y-59985498D01*
X136195506Y-60044463D01*
X136098815Y-60123815D01*
X136019463Y-60220506D01*
X135960498Y-60330820D01*
X135924188Y-60450518D01*
X135911928Y-60575000D01*
X135176578Y-60575000D01*
X135841579Y-59910000D01*
X138108422Y-59910000D01*
X138179452Y-59981030D01*
%TA.AperFunction,Conductor*%
D30*
G36*
X138179452Y-59981030D02*
G01*
X138074482Y-59949188D01*
X137950000Y-59936928D01*
X137535750Y-59940000D01*
X137377000Y-60098750D01*
X137377000Y-60960500D01*
X138426250Y-60960500D01*
X138585000Y-60801750D01*
X138588072Y-60575000D01*
X138575812Y-60450518D01*
X138543970Y-60345548D01*
X138921924Y-60723503D01*
X138911928Y-60824998D01*
X138911928Y-61350002D01*
X138928992Y-61523256D01*
X138979528Y-61689852D01*
X139061595Y-61843387D01*
X139172038Y-61977962D01*
X139198891Y-62000000D01*
X139172038Y-62022038D01*
X139061595Y-62156613D01*
X138979528Y-62310148D01*
X138928992Y-62476744D01*
X138911928Y-62649998D01*
X138911928Y-63175002D01*
X138928992Y-63348256D01*
X138979528Y-63514852D01*
X139061595Y-63668387D01*
X139172038Y-63802962D01*
X139306613Y-63913405D01*
X139460148Y-63995472D01*
X139626744Y-64046008D01*
X139799998Y-64063072D01*
X140488270Y-64063072D01*
X141686205Y-65261008D01*
X141709999Y-65290001D01*
X141738992Y-65313795D01*
X141738996Y-65313799D01*
X141791261Y-65356691D01*
X141822886Y-65382645D01*
X141810498Y-65405820D01*
X141788487Y-65478380D01*
X141656632Y-65346525D01*
X141413411Y-65184010D01*
X141143158Y-65072068D01*
X140856260Y-65015000D01*
X140563740Y-65015000D01*
X140343592Y-65058790D01*
X138576571Y-63291770D01*
X138588072Y-63175002D01*
X138588072Y-62649998D01*
X138571008Y-62476744D01*
X138520472Y-62310148D01*
X138438405Y-62156613D01*
X138371724Y-62075363D01*
X138401185Y-62051185D01*
X138480537Y-61954494D01*
X138539502Y-61844180D01*
X138575812Y-61724482D01*
X138588072Y-61600000D01*
X138585000Y-61373250D01*
X138426250Y-61214500D01*
X137377000Y-61214500D01*
X137377000Y-61234500D01*
X137123000Y-61234500D01*
X137123000Y-61214500D01*
X136073750Y-61214500D01*
X135915000Y-61373250D01*
X135911928Y-61600000D01*
X135924188Y-61724482D01*
X135960498Y-61844180D01*
X136019463Y-61954494D01*
X136098815Y-62051185D01*
X136128276Y-62075363D01*
X136061595Y-62156613D01*
X135979528Y-62310148D01*
X135928992Y-62476744D01*
X135911928Y-62649998D01*
X135911928Y-63175002D01*
X135928992Y-63348256D01*
X135979528Y-63514852D01*
X136061595Y-63668387D01*
X136172038Y-63802962D01*
X136306613Y-63913405D01*
X136460148Y-63995472D01*
X136626744Y-64046008D01*
X136799998Y-64063072D01*
X137198271Y-64063072D01*
X138150199Y-65015000D01*
X138023740Y-65015000D01*
X137736842Y-65072068D01*
X137466589Y-65184010D01*
X137223368Y-65346525D01*
X137016525Y-65553368D01*
X136854010Y-65796589D01*
X136742068Y-66066842D01*
X136685000Y-66353740D01*
X136685000Y-66360198D01*
X135773211Y-65448409D01*
X135796008Y-65373256D01*
X135813072Y-65200002D01*
X135813072Y-64299998D01*
X135796008Y-64126744D01*
X135745472Y-63960148D01*
X135663405Y-63806613D01*
X135552962Y-63672038D01*
X135418387Y-63561595D01*
X135264852Y-63479528D01*
X135098256Y-63428992D01*
X134925002Y-63411928D01*
X134399998Y-63411928D01*
X134226744Y-63428992D01*
X134060148Y-63479528D01*
X133906613Y-63561595D01*
X133772038Y-63672038D01*
X133750000Y-63698891D01*
X133727962Y-63672038D01*
X133593387Y-63561595D01*
X133439852Y-63479528D01*
X133273256Y-63428992D01*
X133100002Y-63411928D01*
X132574998Y-63411928D01*
X132451226Y-63424118D01*
X132391486Y-63405997D01*
X132349697Y-63401881D01*
X135176578Y-60575000D01*
X135911928Y-60575000D01*
X135915000Y-60801750D01*
X136073750Y-60960500D01*
X137123000Y-60960500D01*
X137123000Y-60098750D01*
X136964250Y-59940000D01*
X136550000Y-59936928D01*
X136425518Y-59949188D01*
X136305820Y-59985498D01*
X136195506Y-60044463D01*
X136098815Y-60123815D01*
X136019463Y-60220506D01*
X135960498Y-60330820D01*
X135924188Y-60450518D01*
X135911928Y-60575000D01*
X135176578Y-60575000D01*
X135841579Y-59910000D01*
X138108422Y-59910000D01*
X138179452Y-59981030D01*
G37*
%TD.AperFunction*%
D29*
X145972038Y-59977962D02*
X146106613Y-60088405D01*
X146260149Y-60170472D01*
X146426745Y-60221008D01*
X146599999Y-60238072D01*
X147900001Y-60238072D01*
X148073255Y-60221008D01*
X148239851Y-60170472D01*
X148393387Y-60088405D01*
X148527962Y-59977962D01*
X148583737Y-59910000D01*
X148608422Y-59910000D01*
X150561928Y-61863507D01*
X150561928Y-61990000D01*
X148639871Y-61990000D01*
X148602548Y-61986324D01*
X148565225Y-61990000D01*
X148565216Y-61990000D01*
X148453563Y-62000997D01*
X148310302Y-62044454D01*
X148202643Y-62102000D01*
X147377000Y-62102000D01*
X147377000Y-62122000D01*
X147123000Y-62122000D01*
X147123000Y-62102000D01*
X145873750Y-62102000D01*
X145715000Y-62260750D01*
X145711928Y-62550000D01*
X145724188Y-62674482D01*
X145760498Y-62794180D01*
X145819463Y-62904494D01*
X145898815Y-63001185D01*
X145995506Y-63080537D01*
X146105820Y-63139502D01*
X146225518Y-63175812D01*
X146350000Y-63188072D01*
X146964250Y-63185000D01*
X147122998Y-63026252D01*
X147122998Y-63154749D01*
X146812747Y-63465001D01*
X145789803Y-63465001D01*
X144726304Y-62401503D01*
X144702501Y-62372499D01*
X144586776Y-62277526D01*
X144454747Y-62206954D01*
X144311486Y-62163497D01*
X144199833Y-62152500D01*
X144199822Y-62152500D01*
X144183729Y-62150915D01*
X144077962Y-62022038D01*
X144051109Y-62000000D01*
X144077962Y-61977962D01*
X144188405Y-61843387D01*
X144270472Y-61689852D01*
X144321008Y-61523256D01*
X144333147Y-61400000D01*
X145711928Y-61400000D01*
X145715000Y-61689250D01*
X145873750Y-61848000D01*
X147123000Y-61848000D01*
X147123000Y-60923750D01*
X147377000Y-60923750D01*
X147377000Y-61848000D01*
X148626250Y-61848000D01*
X148785000Y-61689250D01*
X148788072Y-61400000D01*
X148775812Y-61275518D01*
X148739502Y-61155820D01*
X148680537Y-61045506D01*
X148601185Y-60948815D01*
X148504494Y-60869463D01*
X148394180Y-60810498D01*
X148274482Y-60774188D01*
X148150000Y-60761928D01*
X147535750Y-60765000D01*
X147377000Y-60923750D01*
X147123000Y-60923750D01*
X146964250Y-60765000D01*
X146350000Y-60761928D01*
X146225518Y-60774188D01*
X146105820Y-60810498D01*
X145995506Y-60869463D01*
X145898815Y-60948815D01*
X145819463Y-61045506D01*
X145760498Y-61155820D01*
X145724188Y-61275518D01*
X145711928Y-61400000D01*
X144333147Y-61400000D01*
X144338072Y-61350002D01*
X144338072Y-60824998D01*
X144321008Y-60651744D01*
X144270472Y-60485148D01*
X144188405Y-60331613D01*
X144077962Y-60197038D01*
X143943387Y-60086595D01*
X143789852Y-60004528D01*
X143666512Y-59967113D01*
X143656532Y-59954953D01*
X143656530Y-59954951D01*
X143628817Y-59921183D01*
X143615191Y-59910000D01*
X145916263Y-59910000D01*
X145972038Y-59977962D01*
%TA.AperFunction,Conductor*%
D30*
G36*
X145972038Y-59977962D02*
G01*
X146106613Y-60088405D01*
X146260149Y-60170472D01*
X146426745Y-60221008D01*
X146599999Y-60238072D01*
X147900001Y-60238072D01*
X148073255Y-60221008D01*
X148239851Y-60170472D01*
X148393387Y-60088405D01*
X148527962Y-59977962D01*
X148583737Y-59910000D01*
X148608422Y-59910000D01*
X150561928Y-61863507D01*
X150561928Y-61990000D01*
X148639871Y-61990000D01*
X148602548Y-61986324D01*
X148565225Y-61990000D01*
X148565216Y-61990000D01*
X148453563Y-62000997D01*
X148310302Y-62044454D01*
X148202643Y-62102000D01*
X147377000Y-62102000D01*
X147377000Y-62122000D01*
X147123000Y-62122000D01*
X147123000Y-62102000D01*
X145873750Y-62102000D01*
X145715000Y-62260750D01*
X145711928Y-62550000D01*
X145724188Y-62674482D01*
X145760498Y-62794180D01*
X145819463Y-62904494D01*
X145898815Y-63001185D01*
X145995506Y-63080537D01*
X146105820Y-63139502D01*
X146225518Y-63175812D01*
X146350000Y-63188072D01*
X146964250Y-63185000D01*
X147122998Y-63026252D01*
X147122998Y-63154749D01*
X146812747Y-63465001D01*
X145789803Y-63465001D01*
X144726304Y-62401503D01*
X144702501Y-62372499D01*
X144586776Y-62277526D01*
X144454747Y-62206954D01*
X144311486Y-62163497D01*
X144199833Y-62152500D01*
X144199822Y-62152500D01*
X144183729Y-62150915D01*
X144077962Y-62022038D01*
X144051109Y-62000000D01*
X144077962Y-61977962D01*
X144188405Y-61843387D01*
X144270472Y-61689852D01*
X144321008Y-61523256D01*
X144333147Y-61400000D01*
X145711928Y-61400000D01*
X145715000Y-61689250D01*
X145873750Y-61848000D01*
X147123000Y-61848000D01*
X147123000Y-60923750D01*
X147377000Y-60923750D01*
X147377000Y-61848000D01*
X148626250Y-61848000D01*
X148785000Y-61689250D01*
X148788072Y-61400000D01*
X148775812Y-61275518D01*
X148739502Y-61155820D01*
X148680537Y-61045506D01*
X148601185Y-60948815D01*
X148504494Y-60869463D01*
X148394180Y-60810498D01*
X148274482Y-60774188D01*
X148150000Y-60761928D01*
X147535750Y-60765000D01*
X147377000Y-60923750D01*
X147123000Y-60923750D01*
X146964250Y-60765000D01*
X146350000Y-60761928D01*
X146225518Y-60774188D01*
X146105820Y-60810498D01*
X145995506Y-60869463D01*
X145898815Y-60948815D01*
X145819463Y-61045506D01*
X145760498Y-61155820D01*
X145724188Y-61275518D01*
X145711928Y-61400000D01*
X144333147Y-61400000D01*
X144338072Y-61350002D01*
X144338072Y-60824998D01*
X144321008Y-60651744D01*
X144270472Y-60485148D01*
X144188405Y-60331613D01*
X144077962Y-60197038D01*
X143943387Y-60086595D01*
X143789852Y-60004528D01*
X143666512Y-59967113D01*
X143656532Y-59954953D01*
X143656530Y-59954951D01*
X143628817Y-59921183D01*
X143615191Y-59910000D01*
X145916263Y-59910000D01*
X145972038Y-59977962D01*
G37*
%TD.AperFunction*%
%TD*%
M02*
