%TF.GenerationSoftware,KiCad,Pcbnew,(5.1.12)-1*%
%TF.CreationDate,2022-02-03T12:58:41+01:00*%
%TF.ProjectId,colibri_01,636f6c69-6272-4695-9f30-312e6b696361,rev?*%
%TF.SameCoordinates,Original*%
%TF.FileFunction,Copper,L2,Bot*%
%TF.FilePolarity,Positive*%
%FSLAX46Y46*%
G04 Gerber Fmt 4.6, Leading zero omitted, Abs format (unit mm)*
G04 Created by KiCad (PCBNEW (5.1.12)-1) date 2022-02-03 12:58:41*
%MOMM*%
%LPD*%
G01*
G04 APERTURE LIST*
%TA.AperFunction,ComponentPad*%
%ADD10C,3.200000*%
%TD*%
%TA.AperFunction,ComponentPad*%
%ADD11C,0.900000*%
%TD*%
%TA.AperFunction,ComponentPad*%
%ADD12C,8.600000*%
%TD*%
%TA.AperFunction,ComponentPad*%
%ADD13R,1.300000X1.300000*%
%TD*%
%TA.AperFunction,ComponentPad*%
%ADD14C,1.300000*%
%TD*%
%TA.AperFunction,ComponentPad*%
%ADD15O,1.700000X1.700000*%
%TD*%
%TA.AperFunction,ComponentPad*%
%ADD16R,1.700000X1.700000*%
%TD*%
%TA.AperFunction,ComponentPad*%
%ADD17C,3.000000*%
%TD*%
%TA.AperFunction,ComponentPad*%
%ADD18R,3.000000X3.000000*%
%TD*%
%TA.AperFunction,ViaPad*%
%ADD19C,0.800000*%
%TD*%
%TA.AperFunction,Conductor*%
%ADD20C,0.500000*%
%TD*%
%TA.AperFunction,Conductor*%
%ADD21C,0.250000*%
%TD*%
%TA.AperFunction,Conductor*%
%ADD22C,0.254000*%
%TD*%
%TA.AperFunction,Conductor*%
%ADD23C,0.100000*%
%TD*%
G04 APERTURE END LIST*
D10*
%TO.P,C1,2*%
%TO.N,B-*%
X185600000Y-91000000D03*
%TO.P,C1,1*%
%TO.N,B+*%
X114200000Y-91000000D03*
%TD*%
D11*
%TO.P,M4,1*%
%TO.N,N/C*%
X124230419Y-88969581D03*
X121950000Y-88025000D03*
X119669581Y-88969581D03*
X118725000Y-91250000D03*
X119669581Y-93530419D03*
X121950000Y-94475000D03*
X124230419Y-93530419D03*
X125175000Y-91250000D03*
D12*
X121950000Y-91250000D03*
%TD*%
D11*
%TO.P,M4,1*%
%TO.N,N/C*%
X180130419Y-83069581D03*
X177850000Y-82125000D03*
X175569581Y-83069581D03*
X174625000Y-85350000D03*
X175569581Y-87630419D03*
X177850000Y-88575000D03*
X180130419Y-87630419D03*
X181075000Y-85350000D03*
D12*
X177850000Y-85350000D03*
%TD*%
D13*
%TO.P,U2,1*%
%TO.N,P-*%
X124000000Y-76250000D03*
D14*
%TO.P,U2,3*%
%TO.N,3.3v*%
X124000000Y-73710000D03*
%TO.P,U2,2*%
%TO.N,onewire*%
X122730000Y-74980000D03*
%TD*%
D15*
%TO.P,J7,5*%
%TO.N,P-*%
X185500000Y-78370000D03*
%TO.P,J7,4*%
X185500000Y-75830000D03*
%TO.P,J7,3*%
X185500000Y-73290000D03*
%TO.P,J7,2*%
X185500000Y-70750000D03*
D16*
%TO.P,J7,1*%
X185500000Y-68210000D03*
%TD*%
D15*
%TO.P,J6,5*%
%TO.N,gpio2*%
X181250000Y-78410000D03*
%TO.P,J6,4*%
%TO.N,gpio5*%
X181250000Y-75870000D03*
%TO.P,J6,3*%
%TO.N,gpio12*%
X181250000Y-73330000D03*
%TO.P,J6,2*%
%TO.N,gpio13*%
X181250000Y-70790000D03*
D16*
%TO.P,J6,1*%
%TO.N,gpio14*%
X181250000Y-68250000D03*
%TD*%
D15*
%TO.P,J5,3*%
%TO.N,Net-(J5-Pad3)*%
X138170000Y-66500000D03*
%TO.P,J5,2*%
%TO.N,Net-(J5-Pad2)*%
X140710000Y-66500000D03*
D16*
%TO.P,J5,1*%
%TO.N,gpio0*%
X143250000Y-66500000D03*
%TD*%
D15*
%TO.P,J4,3*%
%TO.N,Net-(J4-Pad3)*%
X138170000Y-70750000D03*
%TO.P,J4,2*%
%TO.N,rest*%
X140710000Y-70750000D03*
D16*
%TO.P,J4,1*%
%TO.N,gpio16*%
X143250000Y-70750000D03*
%TD*%
D15*
%TO.P,J3,3*%
%TO.N,P-*%
X156580000Y-104350000D03*
%TO.P,J3,2*%
%TO.N,onewire*%
X154040000Y-104350000D03*
D16*
%TO.P,J3,1*%
%TO.N,3.3v*%
X151500000Y-104350000D03*
%TD*%
D15*
%TO.P,J2,3*%
%TO.N,P-*%
X160670000Y-104350000D03*
%TO.P,J2,2*%
%TO.N,RX*%
X163210000Y-104350000D03*
D16*
%TO.P,J2,1*%
%TO.N,TX*%
X165750000Y-104350000D03*
%TD*%
D17*
%TO.P,J1,2*%
%TO.N,B+*%
X126000000Y-108500000D03*
D18*
%TO.P,J1,1*%
%TO.N,P-*%
X126000000Y-113500000D03*
%TD*%
D19*
%TO.N,P-*%
X129500000Y-71500000D03*
X124500000Y-78000000D03*
X140500000Y-78500000D03*
X144000000Y-77500000D03*
X175000000Y-66500000D03*
X150250000Y-78750000D03*
X158500000Y-104500000D03*
X123000000Y-113500000D03*
X129600000Y-61600000D03*
X120400000Y-61600000D03*
X136500000Y-60000000D03*
X145500000Y-62000000D03*
X149000000Y-61500000D03*
X145500000Y-60000000D03*
X134500000Y-62000000D03*
X130000000Y-78000000D03*
X121000000Y-78000000D03*
X129500000Y-113500000D03*
X133500000Y-113500000D03*
X137500000Y-113500000D03*
X141500000Y-113500000D03*
X141500000Y-116000000D03*
X141500000Y-119500000D03*
X139000000Y-101500000D03*
X144000000Y-101500000D03*
X148500000Y-101500000D03*
X134000000Y-101500000D03*
X130000000Y-101500000D03*
X126000000Y-101500000D03*
X155500000Y-106500000D03*
X162000000Y-106500000D03*
X164000000Y-63500000D03*
X167000000Y-63500000D03*
X170500000Y-63500000D03*
X173500000Y-63500000D03*
X176500000Y-63500000D03*
X188500000Y-68500000D03*
X188500000Y-72500000D03*
X188500000Y-77000000D03*
X127000000Y-73500000D03*
X132500000Y-73500000D03*
X130500000Y-66000000D03*
X130500000Y-69500000D03*
X122500000Y-67000000D03*
X122500000Y-69500000D03*
X113500000Y-76000000D03*
X113500000Y-79000000D03*
X113500000Y-81500000D03*
X113000000Y-101000000D03*
X113000000Y-104000000D03*
X113000000Y-107500000D03*
X148500000Y-81500000D03*
X155500000Y-81500000D03*
X162000000Y-81500000D03*
X120500000Y-82000000D03*
X126500000Y-82000000D03*
X132000000Y-82000000D03*
X137500000Y-82000000D03*
X156500000Y-102000000D03*
X161000000Y-102000000D03*
X168500000Y-101000000D03*
X172000000Y-101000000D03*
X175500000Y-98000000D03*
X167500000Y-98000000D03*
X168500000Y-78500000D03*
X173000000Y-78500000D03*
X176500000Y-78500000D03*
X158500000Y-116000000D03*
X158500000Y-119000000D03*
X150000000Y-114000000D03*
X150000000Y-115500000D03*
X150000000Y-117000000D03*
X148000000Y-111500000D03*
X146000000Y-111500000D03*
X140500000Y-64500000D03*
X136500000Y-64500000D03*
X120500000Y-111000000D03*
X113000000Y-110500000D03*
X125000000Y-65500000D03*
%TO.N,3.3v*%
X143900000Y-81050000D03*
X141250000Y-75524990D03*
%TO.N,onewire*%
X142000000Y-77500000D03*
X145000000Y-80925010D03*
%TO.N,gpio2*%
X162100000Y-78550000D03*
X155250000Y-78500000D03*
%TO.N,gpio12*%
X156707108Y-64792892D03*
X161500000Y-66000000D03*
%TO.N,gpio13*%
X156000000Y-65500000D03*
X163750000Y-66750000D03*
%TO.N,gpio14*%
X157750000Y-64250000D03*
X161500000Y-64750000D03*
%TO.N,Net-(R3-Pad2)*%
X152250000Y-63500000D03*
X160250000Y-63250000D03*
%TD*%
D20*
%TO.N,3.3v*%
X140850001Y-75924989D02*
X141250000Y-75524990D01*
X140850001Y-77608003D02*
X140850001Y-75924989D01*
X143500001Y-80258003D02*
X140850001Y-77608003D01*
X143500001Y-80650001D02*
X143500001Y-80258003D01*
X143900000Y-81050000D02*
X143500001Y-80650001D01*
D21*
%TO.N,onewire*%
X144998012Y-80925010D02*
X145000000Y-80925010D01*
D20*
X145000000Y-80500000D02*
X142000000Y-77500000D01*
X145000000Y-80925010D02*
X145000000Y-80500000D01*
D21*
%TO.N,gpio2*%
X162050000Y-78500000D02*
X162100000Y-78550000D01*
X155250000Y-78500000D02*
X162050000Y-78500000D01*
%TO.N,gpio12*%
X157914216Y-66000000D02*
X161500000Y-66000000D01*
X156707108Y-64792892D02*
X157914216Y-66000000D01*
%TO.N,gpio13*%
X163500000Y-67000000D02*
X163750000Y-66750000D01*
X157500000Y-67000000D02*
X163500000Y-67000000D01*
X156000000Y-65500000D02*
X157500000Y-67000000D01*
%TO.N,gpio14*%
X157750000Y-64250000D02*
X158250000Y-64750000D01*
X158250000Y-64750000D02*
X161500000Y-64750000D01*
%TO.N,Net-(R3-Pad2)*%
X160000000Y-63500000D02*
X160250000Y-63250000D01*
X152250000Y-63500000D02*
X160000000Y-63500000D01*
%TD*%
D22*
%TO.N,P-*%
X179873000Y-67041196D02*
X179869463Y-67045506D01*
X179810498Y-67155820D01*
X179774188Y-67275518D01*
X179761928Y-67400000D01*
X179761928Y-69100000D01*
X179774188Y-69224482D01*
X179810498Y-69344180D01*
X179869463Y-69454494D01*
X179948815Y-69551185D01*
X180045506Y-69630537D01*
X180155820Y-69689502D01*
X180228380Y-69711513D01*
X180096525Y-69843368D01*
X179934010Y-70086589D01*
X179822068Y-70356842D01*
X179765000Y-70643740D01*
X179765000Y-70936260D01*
X179822068Y-71223158D01*
X179934010Y-71493411D01*
X180096525Y-71736632D01*
X180303368Y-71943475D01*
X180477760Y-72060000D01*
X180303368Y-72176525D01*
X180096525Y-72383368D01*
X179934010Y-72626589D01*
X179822068Y-72896842D01*
X179765000Y-73183740D01*
X179765000Y-73476260D01*
X179822068Y-73763158D01*
X179934010Y-74033411D01*
X180096525Y-74276632D01*
X180303368Y-74483475D01*
X180477760Y-74600000D01*
X180303368Y-74716525D01*
X180096525Y-74923368D01*
X179934010Y-75166589D01*
X179822068Y-75436842D01*
X179765000Y-75723740D01*
X179765000Y-76016260D01*
X179822068Y-76303158D01*
X179934010Y-76573411D01*
X180096525Y-76816632D01*
X180303368Y-77023475D01*
X180477760Y-77140000D01*
X180303368Y-77256525D01*
X180096525Y-77463368D01*
X179934010Y-77706589D01*
X179822068Y-77976842D01*
X179765000Y-78263740D01*
X179765000Y-78556260D01*
X179822068Y-78843158D01*
X179934010Y-79113411D01*
X180096525Y-79356632D01*
X180303368Y-79563475D01*
X180546589Y-79725990D01*
X180816842Y-79837932D01*
X181103740Y-79895000D01*
X181396260Y-79895000D01*
X181683158Y-79837932D01*
X181953411Y-79725990D01*
X182196632Y-79563475D01*
X182403475Y-79356632D01*
X182565990Y-79113411D01*
X182677932Y-78843158D01*
X182701059Y-78726890D01*
X184058524Y-78726890D01*
X184103175Y-78874099D01*
X184228359Y-79136920D01*
X184402412Y-79370269D01*
X184618645Y-79565178D01*
X184868748Y-79714157D01*
X185143109Y-79811481D01*
X185373000Y-79690814D01*
X185373000Y-78497000D01*
X185627000Y-78497000D01*
X185627000Y-79690814D01*
X185856891Y-79811481D01*
X186131252Y-79714157D01*
X186381355Y-79565178D01*
X186597588Y-79370269D01*
X186771641Y-79136920D01*
X186896825Y-78874099D01*
X186941476Y-78726890D01*
X186820155Y-78497000D01*
X185627000Y-78497000D01*
X185373000Y-78497000D01*
X184179845Y-78497000D01*
X184058524Y-78726890D01*
X182701059Y-78726890D01*
X182735000Y-78556260D01*
X182735000Y-78263740D01*
X182677932Y-77976842D01*
X182565990Y-77706589D01*
X182403475Y-77463368D01*
X182196632Y-77256525D01*
X182022240Y-77140000D01*
X182196632Y-77023475D01*
X182403475Y-76816632D01*
X182565990Y-76573411D01*
X182677932Y-76303158D01*
X182701059Y-76186890D01*
X184058524Y-76186890D01*
X184103175Y-76334099D01*
X184228359Y-76596920D01*
X184402412Y-76830269D01*
X184618645Y-77025178D01*
X184744255Y-77100000D01*
X184618645Y-77174822D01*
X184402412Y-77369731D01*
X184228359Y-77603080D01*
X184103175Y-77865901D01*
X184058524Y-78013110D01*
X184179845Y-78243000D01*
X185373000Y-78243000D01*
X185373000Y-75957000D01*
X185627000Y-75957000D01*
X185627000Y-78243000D01*
X186820155Y-78243000D01*
X186941476Y-78013110D01*
X186896825Y-77865901D01*
X186771641Y-77603080D01*
X186597588Y-77369731D01*
X186381355Y-77174822D01*
X186255745Y-77100000D01*
X186381355Y-77025178D01*
X186597588Y-76830269D01*
X186771641Y-76596920D01*
X186896825Y-76334099D01*
X186941476Y-76186890D01*
X186820155Y-75957000D01*
X185627000Y-75957000D01*
X185373000Y-75957000D01*
X184179845Y-75957000D01*
X184058524Y-76186890D01*
X182701059Y-76186890D01*
X182735000Y-76016260D01*
X182735000Y-75723740D01*
X182677932Y-75436842D01*
X182565990Y-75166589D01*
X182403475Y-74923368D01*
X182196632Y-74716525D01*
X182022240Y-74600000D01*
X182196632Y-74483475D01*
X182403475Y-74276632D01*
X182565990Y-74033411D01*
X182677932Y-73763158D01*
X182701059Y-73646890D01*
X184058524Y-73646890D01*
X184103175Y-73794099D01*
X184228359Y-74056920D01*
X184402412Y-74290269D01*
X184618645Y-74485178D01*
X184744255Y-74560000D01*
X184618645Y-74634822D01*
X184402412Y-74829731D01*
X184228359Y-75063080D01*
X184103175Y-75325901D01*
X184058524Y-75473110D01*
X184179845Y-75703000D01*
X185373000Y-75703000D01*
X185373000Y-73417000D01*
X185627000Y-73417000D01*
X185627000Y-75703000D01*
X186820155Y-75703000D01*
X186941476Y-75473110D01*
X186896825Y-75325901D01*
X186771641Y-75063080D01*
X186597588Y-74829731D01*
X186381355Y-74634822D01*
X186255745Y-74560000D01*
X186381355Y-74485178D01*
X186597588Y-74290269D01*
X186771641Y-74056920D01*
X186896825Y-73794099D01*
X186941476Y-73646890D01*
X186820155Y-73417000D01*
X185627000Y-73417000D01*
X185373000Y-73417000D01*
X184179845Y-73417000D01*
X184058524Y-73646890D01*
X182701059Y-73646890D01*
X182735000Y-73476260D01*
X182735000Y-73183740D01*
X182677932Y-72896842D01*
X182565990Y-72626589D01*
X182403475Y-72383368D01*
X182196632Y-72176525D01*
X182022240Y-72060000D01*
X182196632Y-71943475D01*
X182403475Y-71736632D01*
X182565990Y-71493411D01*
X182677932Y-71223158D01*
X182701059Y-71106890D01*
X184058524Y-71106890D01*
X184103175Y-71254099D01*
X184228359Y-71516920D01*
X184402412Y-71750269D01*
X184618645Y-71945178D01*
X184744255Y-72020000D01*
X184618645Y-72094822D01*
X184402412Y-72289731D01*
X184228359Y-72523080D01*
X184103175Y-72785901D01*
X184058524Y-72933110D01*
X184179845Y-73163000D01*
X185373000Y-73163000D01*
X185373000Y-70877000D01*
X185627000Y-70877000D01*
X185627000Y-73163000D01*
X186820155Y-73163000D01*
X186941476Y-72933110D01*
X186896825Y-72785901D01*
X186771641Y-72523080D01*
X186597588Y-72289731D01*
X186381355Y-72094822D01*
X186255745Y-72020000D01*
X186381355Y-71945178D01*
X186597588Y-71750269D01*
X186771641Y-71516920D01*
X186896825Y-71254099D01*
X186941476Y-71106890D01*
X186820155Y-70877000D01*
X185627000Y-70877000D01*
X185373000Y-70877000D01*
X184179845Y-70877000D01*
X184058524Y-71106890D01*
X182701059Y-71106890D01*
X182735000Y-70936260D01*
X182735000Y-70643740D01*
X182677932Y-70356842D01*
X182565990Y-70086589D01*
X182403475Y-69843368D01*
X182271620Y-69711513D01*
X182344180Y-69689502D01*
X182454494Y-69630537D01*
X182551185Y-69551185D01*
X182630537Y-69454494D01*
X182689502Y-69344180D01*
X182725812Y-69224482D01*
X182738072Y-69100000D01*
X182738072Y-69060000D01*
X184011928Y-69060000D01*
X184024188Y-69184482D01*
X184060498Y-69304180D01*
X184119463Y-69414494D01*
X184198815Y-69511185D01*
X184295506Y-69590537D01*
X184405820Y-69649502D01*
X184486466Y-69673966D01*
X184402412Y-69749731D01*
X184228359Y-69983080D01*
X184103175Y-70245901D01*
X184058524Y-70393110D01*
X184179845Y-70623000D01*
X185373000Y-70623000D01*
X185373000Y-68337000D01*
X185627000Y-68337000D01*
X185627000Y-70623000D01*
X186820155Y-70623000D01*
X186941476Y-70393110D01*
X186896825Y-70245901D01*
X186771641Y-69983080D01*
X186597588Y-69749731D01*
X186513534Y-69673966D01*
X186594180Y-69649502D01*
X186704494Y-69590537D01*
X186801185Y-69511185D01*
X186880537Y-69414494D01*
X186939502Y-69304180D01*
X186975812Y-69184482D01*
X186988072Y-69060000D01*
X186985000Y-68495750D01*
X186826250Y-68337000D01*
X185627000Y-68337000D01*
X185373000Y-68337000D01*
X184173750Y-68337000D01*
X184015000Y-68495750D01*
X184011928Y-69060000D01*
X182738072Y-69060000D01*
X182738072Y-67627000D01*
X184013382Y-67627000D01*
X184015000Y-67924250D01*
X184173750Y-68083000D01*
X185373000Y-68083000D01*
X185373000Y-68063000D01*
X185627000Y-68063000D01*
X185627000Y-68083000D01*
X186826250Y-68083000D01*
X186985000Y-67924250D01*
X186986618Y-67627000D01*
X188873000Y-67627000D01*
X188873000Y-104373000D01*
X180000000Y-104373000D01*
X179975224Y-104375440D01*
X179951399Y-104382667D01*
X179929443Y-104394403D01*
X179910197Y-104410197D01*
X179894403Y-104429443D01*
X179882667Y-104451399D01*
X179875440Y-104475224D01*
X179873000Y-104500000D01*
X179873000Y-120373000D01*
X120127000Y-120373000D01*
X120127000Y-115000000D01*
X123861928Y-115000000D01*
X123874188Y-115124482D01*
X123910498Y-115244180D01*
X123969463Y-115354494D01*
X124048815Y-115451185D01*
X124145506Y-115530537D01*
X124255820Y-115589502D01*
X124375518Y-115625812D01*
X124500000Y-115638072D01*
X125714250Y-115635000D01*
X125873000Y-115476250D01*
X125873000Y-113627000D01*
X126127000Y-113627000D01*
X126127000Y-115476250D01*
X126285750Y-115635000D01*
X127500000Y-115638072D01*
X127624482Y-115625812D01*
X127744180Y-115589502D01*
X127854494Y-115530537D01*
X127951185Y-115451185D01*
X128030537Y-115354494D01*
X128089502Y-115244180D01*
X128125812Y-115124482D01*
X128138072Y-115000000D01*
X128135000Y-113785750D01*
X127976250Y-113627000D01*
X126127000Y-113627000D01*
X125873000Y-113627000D01*
X124023750Y-113627000D01*
X123865000Y-113785750D01*
X123861928Y-115000000D01*
X120127000Y-115000000D01*
X120127000Y-112000000D01*
X123861928Y-112000000D01*
X123865000Y-113214250D01*
X124023750Y-113373000D01*
X125873000Y-113373000D01*
X125873000Y-111523750D01*
X126127000Y-111523750D01*
X126127000Y-113373000D01*
X127976250Y-113373000D01*
X128135000Y-113214250D01*
X128138072Y-112000000D01*
X128125812Y-111875518D01*
X128089502Y-111755820D01*
X128030537Y-111645506D01*
X127951185Y-111548815D01*
X127854494Y-111469463D01*
X127744180Y-111410498D01*
X127624482Y-111374188D01*
X127500000Y-111361928D01*
X126285750Y-111365000D01*
X126127000Y-111523750D01*
X125873000Y-111523750D01*
X125714250Y-111365000D01*
X124500000Y-111361928D01*
X124375518Y-111374188D01*
X124255820Y-111410498D01*
X124145506Y-111469463D01*
X124048815Y-111548815D01*
X123969463Y-111645506D01*
X123910498Y-111755820D01*
X123874188Y-111875518D01*
X123861928Y-112000000D01*
X120127000Y-112000000D01*
X120127000Y-111500000D01*
X120124560Y-111475224D01*
X120117333Y-111451399D01*
X120105597Y-111429443D01*
X120089803Y-111410197D01*
X120070557Y-111394403D01*
X120048601Y-111382667D01*
X120024776Y-111375440D01*
X120000000Y-111373000D01*
X112127000Y-111373000D01*
X112127000Y-108289721D01*
X123865000Y-108289721D01*
X123865000Y-108710279D01*
X123947047Y-109122756D01*
X124107988Y-109511302D01*
X124341637Y-109860983D01*
X124639017Y-110158363D01*
X124988698Y-110392012D01*
X125377244Y-110552953D01*
X125789721Y-110635000D01*
X126210279Y-110635000D01*
X126622756Y-110552953D01*
X127011302Y-110392012D01*
X127360983Y-110158363D01*
X127658363Y-109860983D01*
X127892012Y-109511302D01*
X128052953Y-109122756D01*
X128135000Y-108710279D01*
X128135000Y-108289721D01*
X128052953Y-107877244D01*
X127892012Y-107488698D01*
X127658363Y-107139017D01*
X127360983Y-106841637D01*
X127011302Y-106607988D01*
X126622756Y-106447047D01*
X126210279Y-106365000D01*
X125789721Y-106365000D01*
X125377244Y-106447047D01*
X124988698Y-106607988D01*
X124639017Y-106841637D01*
X124341637Y-107139017D01*
X124107988Y-107488698D01*
X123947047Y-107877244D01*
X123865000Y-108289721D01*
X112127000Y-108289721D01*
X112127000Y-103500000D01*
X150011928Y-103500000D01*
X150011928Y-105200000D01*
X150024188Y-105324482D01*
X150060498Y-105444180D01*
X150119463Y-105554494D01*
X150198815Y-105651185D01*
X150295506Y-105730537D01*
X150405820Y-105789502D01*
X150525518Y-105825812D01*
X150650000Y-105838072D01*
X152350000Y-105838072D01*
X152474482Y-105825812D01*
X152594180Y-105789502D01*
X152704494Y-105730537D01*
X152801185Y-105651185D01*
X152880537Y-105554494D01*
X152939502Y-105444180D01*
X152961513Y-105371620D01*
X153093368Y-105503475D01*
X153336589Y-105665990D01*
X153606842Y-105777932D01*
X153893740Y-105835000D01*
X154186260Y-105835000D01*
X154473158Y-105777932D01*
X154743411Y-105665990D01*
X154986632Y-105503475D01*
X155193475Y-105296632D01*
X155315195Y-105114466D01*
X155384822Y-105231355D01*
X155579731Y-105447588D01*
X155813080Y-105621641D01*
X156075901Y-105746825D01*
X156223110Y-105791476D01*
X156453000Y-105670155D01*
X156453000Y-104477000D01*
X156707000Y-104477000D01*
X156707000Y-105670155D01*
X156936890Y-105791476D01*
X157084099Y-105746825D01*
X157346920Y-105621641D01*
X157580269Y-105447588D01*
X157775178Y-105231355D01*
X157924157Y-104981252D01*
X158021481Y-104706891D01*
X159228519Y-104706891D01*
X159325843Y-104981252D01*
X159474822Y-105231355D01*
X159669731Y-105447588D01*
X159903080Y-105621641D01*
X160165901Y-105746825D01*
X160313110Y-105791476D01*
X160543000Y-105670155D01*
X160543000Y-104477000D01*
X159349186Y-104477000D01*
X159228519Y-104706891D01*
X158021481Y-104706891D01*
X157900814Y-104477000D01*
X156707000Y-104477000D01*
X156453000Y-104477000D01*
X156433000Y-104477000D01*
X156433000Y-104223000D01*
X156453000Y-104223000D01*
X156453000Y-103029845D01*
X156707000Y-103029845D01*
X156707000Y-104223000D01*
X157900814Y-104223000D01*
X158021481Y-103993109D01*
X159228519Y-103993109D01*
X159349186Y-104223000D01*
X160543000Y-104223000D01*
X160543000Y-103029845D01*
X160797000Y-103029845D01*
X160797000Y-104223000D01*
X160817000Y-104223000D01*
X160817000Y-104477000D01*
X160797000Y-104477000D01*
X160797000Y-105670155D01*
X161026890Y-105791476D01*
X161174099Y-105746825D01*
X161436920Y-105621641D01*
X161670269Y-105447588D01*
X161865178Y-105231355D01*
X161934805Y-105114466D01*
X162056525Y-105296632D01*
X162263368Y-105503475D01*
X162506589Y-105665990D01*
X162776842Y-105777932D01*
X163063740Y-105835000D01*
X163356260Y-105835000D01*
X163643158Y-105777932D01*
X163913411Y-105665990D01*
X164156632Y-105503475D01*
X164288487Y-105371620D01*
X164310498Y-105444180D01*
X164369463Y-105554494D01*
X164448815Y-105651185D01*
X164545506Y-105730537D01*
X164655820Y-105789502D01*
X164775518Y-105825812D01*
X164900000Y-105838072D01*
X166600000Y-105838072D01*
X166724482Y-105825812D01*
X166844180Y-105789502D01*
X166954494Y-105730537D01*
X167051185Y-105651185D01*
X167130537Y-105554494D01*
X167189502Y-105444180D01*
X167225812Y-105324482D01*
X167238072Y-105200000D01*
X167238072Y-103500000D01*
X167225812Y-103375518D01*
X167189502Y-103255820D01*
X167130537Y-103145506D01*
X167051185Y-103048815D01*
X166954494Y-102969463D01*
X166844180Y-102910498D01*
X166724482Y-102874188D01*
X166600000Y-102861928D01*
X164900000Y-102861928D01*
X164775518Y-102874188D01*
X164655820Y-102910498D01*
X164545506Y-102969463D01*
X164448815Y-103048815D01*
X164369463Y-103145506D01*
X164310498Y-103255820D01*
X164288487Y-103328380D01*
X164156632Y-103196525D01*
X163913411Y-103034010D01*
X163643158Y-102922068D01*
X163356260Y-102865000D01*
X163063740Y-102865000D01*
X162776842Y-102922068D01*
X162506589Y-103034010D01*
X162263368Y-103196525D01*
X162056525Y-103403368D01*
X161934805Y-103585534D01*
X161865178Y-103468645D01*
X161670269Y-103252412D01*
X161436920Y-103078359D01*
X161174099Y-102953175D01*
X161026890Y-102908524D01*
X160797000Y-103029845D01*
X160543000Y-103029845D01*
X160313110Y-102908524D01*
X160165901Y-102953175D01*
X159903080Y-103078359D01*
X159669731Y-103252412D01*
X159474822Y-103468645D01*
X159325843Y-103718748D01*
X159228519Y-103993109D01*
X158021481Y-103993109D01*
X157924157Y-103718748D01*
X157775178Y-103468645D01*
X157580269Y-103252412D01*
X157346920Y-103078359D01*
X157084099Y-102953175D01*
X156936890Y-102908524D01*
X156707000Y-103029845D01*
X156453000Y-103029845D01*
X156223110Y-102908524D01*
X156075901Y-102953175D01*
X155813080Y-103078359D01*
X155579731Y-103252412D01*
X155384822Y-103468645D01*
X155315195Y-103585534D01*
X155193475Y-103403368D01*
X154986632Y-103196525D01*
X154743411Y-103034010D01*
X154473158Y-102922068D01*
X154186260Y-102865000D01*
X153893740Y-102865000D01*
X153606842Y-102922068D01*
X153336589Y-103034010D01*
X153093368Y-103196525D01*
X152961513Y-103328380D01*
X152939502Y-103255820D01*
X152880537Y-103145506D01*
X152801185Y-103048815D01*
X152704494Y-102969463D01*
X152594180Y-102910498D01*
X152474482Y-102874188D01*
X152350000Y-102861928D01*
X150650000Y-102861928D01*
X150525518Y-102874188D01*
X150405820Y-102910498D01*
X150295506Y-102969463D01*
X150198815Y-103048815D01*
X150119463Y-103145506D01*
X150060498Y-103255820D01*
X150024188Y-103375518D01*
X150011928Y-103500000D01*
X112127000Y-103500000D01*
X112127000Y-91835671D01*
X112219369Y-92058669D01*
X112463962Y-92424729D01*
X112775271Y-92736038D01*
X113141331Y-92980631D01*
X113548075Y-93149110D01*
X113979872Y-93235000D01*
X114420128Y-93235000D01*
X114851925Y-93149110D01*
X115258669Y-92980631D01*
X115624729Y-92736038D01*
X115936038Y-92424729D01*
X116180631Y-92058669D01*
X116349110Y-91651925D01*
X116435000Y-91220128D01*
X116435000Y-90779872D01*
X116431832Y-90763945D01*
X117015000Y-90763945D01*
X117015000Y-91736055D01*
X117204650Y-92689486D01*
X117576660Y-93587599D01*
X118116735Y-94395879D01*
X118804121Y-95083265D01*
X119612401Y-95623340D01*
X120510514Y-95995350D01*
X121463945Y-96185000D01*
X122436055Y-96185000D01*
X123389486Y-95995350D01*
X124287599Y-95623340D01*
X125095879Y-95083265D01*
X125783265Y-94395879D01*
X126323340Y-93587599D01*
X126695350Y-92689486D01*
X126885000Y-91736055D01*
X126885000Y-90779872D01*
X183365000Y-90779872D01*
X183365000Y-91220128D01*
X183450890Y-91651925D01*
X183619369Y-92058669D01*
X183863962Y-92424729D01*
X184175271Y-92736038D01*
X184541331Y-92980631D01*
X184948075Y-93149110D01*
X185379872Y-93235000D01*
X185820128Y-93235000D01*
X186251925Y-93149110D01*
X186658669Y-92980631D01*
X187024729Y-92736038D01*
X187336038Y-92424729D01*
X187580631Y-92058669D01*
X187749110Y-91651925D01*
X187835000Y-91220128D01*
X187835000Y-90779872D01*
X187749110Y-90348075D01*
X187580631Y-89941331D01*
X187336038Y-89575271D01*
X187024729Y-89263962D01*
X186658669Y-89019369D01*
X186251925Y-88850890D01*
X185820128Y-88765000D01*
X185379872Y-88765000D01*
X184948075Y-88850890D01*
X184541331Y-89019369D01*
X184175271Y-89263962D01*
X183863962Y-89575271D01*
X183619369Y-89941331D01*
X183450890Y-90348075D01*
X183365000Y-90779872D01*
X126885000Y-90779872D01*
X126885000Y-90763945D01*
X126695350Y-89810514D01*
X126323340Y-88912401D01*
X125783265Y-88104121D01*
X125095879Y-87416735D01*
X124287599Y-86876660D01*
X123389486Y-86504650D01*
X122436055Y-86315000D01*
X121463945Y-86315000D01*
X120510514Y-86504650D01*
X119612401Y-86876660D01*
X118804121Y-87416735D01*
X118116735Y-88104121D01*
X117576660Y-88912401D01*
X117204650Y-89810514D01*
X117015000Y-90763945D01*
X116431832Y-90763945D01*
X116349110Y-90348075D01*
X116180631Y-89941331D01*
X115936038Y-89575271D01*
X115624729Y-89263962D01*
X115258669Y-89019369D01*
X114851925Y-88850890D01*
X114420128Y-88765000D01*
X113979872Y-88765000D01*
X113548075Y-88850890D01*
X113141331Y-89019369D01*
X112775271Y-89263962D01*
X112463962Y-89575271D01*
X112219369Y-89941331D01*
X112127000Y-90164329D01*
X112127000Y-84863945D01*
X172915000Y-84863945D01*
X172915000Y-85836055D01*
X173104650Y-86789486D01*
X173476660Y-87687599D01*
X174016735Y-88495879D01*
X174704121Y-89183265D01*
X175512401Y-89723340D01*
X176410514Y-90095350D01*
X177363945Y-90285000D01*
X178336055Y-90285000D01*
X179289486Y-90095350D01*
X180187599Y-89723340D01*
X180995879Y-89183265D01*
X181683265Y-88495879D01*
X182223340Y-87687599D01*
X182595350Y-86789486D01*
X182785000Y-85836055D01*
X182785000Y-84863945D01*
X182595350Y-83910514D01*
X182223340Y-83012401D01*
X181683265Y-82204121D01*
X180995879Y-81516735D01*
X180187599Y-80976660D01*
X179289486Y-80604650D01*
X178336055Y-80415000D01*
X177363945Y-80415000D01*
X176410514Y-80604650D01*
X175512401Y-80976660D01*
X174704121Y-81516735D01*
X174016735Y-82204121D01*
X173476660Y-83012401D01*
X173104650Y-83910514D01*
X172915000Y-84863945D01*
X112127000Y-84863945D01*
X112127000Y-74853439D01*
X121445000Y-74853439D01*
X121445000Y-75106561D01*
X121494381Y-75354821D01*
X121591247Y-75588676D01*
X121731875Y-75799140D01*
X121910860Y-75978125D01*
X122121324Y-76118753D01*
X122355179Y-76215619D01*
X122603439Y-76265000D01*
X122715000Y-76265000D01*
X122715000Y-76377002D01*
X122873748Y-76377002D01*
X122715000Y-76535750D01*
X122711928Y-76900000D01*
X122724188Y-77024482D01*
X122760498Y-77144180D01*
X122819463Y-77254494D01*
X122898815Y-77351185D01*
X122995506Y-77430537D01*
X123105820Y-77489502D01*
X123225518Y-77525812D01*
X123350000Y-77538072D01*
X123714250Y-77535000D01*
X123873000Y-77376250D01*
X123873000Y-76377000D01*
X124127000Y-76377000D01*
X124127000Y-77376250D01*
X124285750Y-77535000D01*
X124650000Y-77538072D01*
X124774482Y-77525812D01*
X124894180Y-77489502D01*
X125004494Y-77430537D01*
X125101185Y-77351185D01*
X125180537Y-77254494D01*
X125239502Y-77144180D01*
X125275812Y-77024482D01*
X125288072Y-76900000D01*
X125285000Y-76535750D01*
X125126250Y-76377000D01*
X124127000Y-76377000D01*
X123873000Y-76377000D01*
X123853000Y-76377000D01*
X123853000Y-76123000D01*
X123873000Y-76123000D01*
X123873000Y-76103000D01*
X124127000Y-76103000D01*
X124127000Y-76123000D01*
X125126250Y-76123000D01*
X125285000Y-75964250D01*
X125285331Y-75924989D01*
X139960720Y-75924989D01*
X139965002Y-75968468D01*
X139965001Y-77564534D01*
X139960720Y-77608003D01*
X139965001Y-77651472D01*
X139965001Y-77651479D01*
X139977806Y-77781492D01*
X140028412Y-77948315D01*
X140110590Y-78102061D01*
X140221184Y-78236820D01*
X140254957Y-78264537D01*
X142613383Y-80622964D01*
X142610720Y-80650001D01*
X142615001Y-80693470D01*
X142615001Y-80693477D01*
X142627806Y-80823490D01*
X142678412Y-80990313D01*
X142760590Y-81144059D01*
X142871184Y-81278818D01*
X142893955Y-81297506D01*
X142904774Y-81351898D01*
X142982795Y-81540256D01*
X143096063Y-81709774D01*
X143240226Y-81853937D01*
X143409744Y-81967205D01*
X143598102Y-82045226D01*
X143798061Y-82085000D01*
X144001939Y-82085000D01*
X144201898Y-82045226D01*
X144390256Y-81967205D01*
X144551458Y-81859494D01*
X144698102Y-81920236D01*
X144898061Y-81960010D01*
X145101939Y-81960010D01*
X145301898Y-81920236D01*
X145490256Y-81842215D01*
X145659774Y-81728947D01*
X145803937Y-81584784D01*
X145917205Y-81415266D01*
X145995226Y-81226908D01*
X146035000Y-81026949D01*
X146035000Y-80823071D01*
X145995226Y-80623112D01*
X145917205Y-80434754D01*
X145876918Y-80374459D01*
X145872195Y-80326510D01*
X145861131Y-80290036D01*
X145821589Y-80159686D01*
X145739411Y-80005941D01*
X145656532Y-79904953D01*
X145656530Y-79904951D01*
X145628817Y-79871183D01*
X145595049Y-79843470D01*
X144149640Y-78398061D01*
X154215000Y-78398061D01*
X154215000Y-78601939D01*
X154254774Y-78801898D01*
X154332795Y-78990256D01*
X154446063Y-79159774D01*
X154590226Y-79303937D01*
X154759744Y-79417205D01*
X154948102Y-79495226D01*
X155148061Y-79535000D01*
X155351939Y-79535000D01*
X155551898Y-79495226D01*
X155740256Y-79417205D01*
X155909774Y-79303937D01*
X155953711Y-79260000D01*
X161346289Y-79260000D01*
X161440226Y-79353937D01*
X161609744Y-79467205D01*
X161798102Y-79545226D01*
X161998061Y-79585000D01*
X162201939Y-79585000D01*
X162401898Y-79545226D01*
X162590256Y-79467205D01*
X162759774Y-79353937D01*
X162903937Y-79209774D01*
X163017205Y-79040256D01*
X163095226Y-78851898D01*
X163135000Y-78651939D01*
X163135000Y-78448061D01*
X163095226Y-78248102D01*
X163017205Y-78059744D01*
X162903937Y-77890226D01*
X162759774Y-77746063D01*
X162590256Y-77632795D01*
X162401898Y-77554774D01*
X162201939Y-77515000D01*
X161998061Y-77515000D01*
X161798102Y-77554774D01*
X161609744Y-77632795D01*
X161449300Y-77740000D01*
X155953711Y-77740000D01*
X155909774Y-77696063D01*
X155740256Y-77582795D01*
X155551898Y-77504774D01*
X155351939Y-77465000D01*
X155148061Y-77465000D01*
X154948102Y-77504774D01*
X154759744Y-77582795D01*
X154590226Y-77696063D01*
X154446063Y-77840226D01*
X154332795Y-78009744D01*
X154254774Y-78198102D01*
X154215000Y-78398061D01*
X144149640Y-78398061D01*
X143006535Y-77254957D01*
X142995226Y-77198102D01*
X142917205Y-77009744D01*
X142803937Y-76840226D01*
X142659774Y-76696063D01*
X142490256Y-76582795D01*
X142301898Y-76504774D01*
X142101939Y-76465000D01*
X141898061Y-76465000D01*
X141735001Y-76497434D01*
X141735001Y-76444372D01*
X141740256Y-76442195D01*
X141909774Y-76328927D01*
X142053937Y-76184764D01*
X142167205Y-76015246D01*
X142245226Y-75826888D01*
X142285000Y-75626929D01*
X142285000Y-75423051D01*
X142245226Y-75223092D01*
X142167205Y-75034734D01*
X142053937Y-74865216D01*
X141909774Y-74721053D01*
X141740256Y-74607785D01*
X141551898Y-74529764D01*
X141351939Y-74489990D01*
X141148061Y-74489990D01*
X140948102Y-74529764D01*
X140759744Y-74607785D01*
X140590226Y-74721053D01*
X140446063Y-74865216D01*
X140332795Y-75034734D01*
X140254774Y-75223092D01*
X140243955Y-75277485D01*
X140221185Y-75296172D01*
X140193472Y-75329940D01*
X140193469Y-75329943D01*
X140110591Y-75430930D01*
X140028413Y-75584676D01*
X139977806Y-75751499D01*
X139960720Y-75924989D01*
X125285331Y-75924989D01*
X125288072Y-75600000D01*
X125275812Y-75475518D01*
X125239502Y-75355820D01*
X125180537Y-75245506D01*
X125101185Y-75148815D01*
X125004494Y-75069463D01*
X124894180Y-75010498D01*
X124774482Y-74974188D01*
X124650000Y-74961928D01*
X124285750Y-74965000D01*
X124127002Y-75123748D01*
X124127002Y-74994912D01*
X124374821Y-74945619D01*
X124608676Y-74848753D01*
X124819140Y-74708125D01*
X124998125Y-74529140D01*
X125138753Y-74318676D01*
X125235619Y-74084821D01*
X125285000Y-73836561D01*
X125285000Y-73583439D01*
X125235619Y-73335179D01*
X125138753Y-73101324D01*
X124998125Y-72890860D01*
X124819140Y-72711875D01*
X124608676Y-72571247D01*
X124374821Y-72474381D01*
X124126561Y-72425000D01*
X123873439Y-72425000D01*
X123625179Y-72474381D01*
X123391324Y-72571247D01*
X123180860Y-72711875D01*
X123001875Y-72890860D01*
X122861247Y-73101324D01*
X122764381Y-73335179D01*
X122715000Y-73583439D01*
X122715000Y-73695000D01*
X122603439Y-73695000D01*
X122355179Y-73744381D01*
X122121324Y-73841247D01*
X121910860Y-73981875D01*
X121731875Y-74160860D01*
X121591247Y-74371324D01*
X121494381Y-74605179D01*
X121445000Y-74853439D01*
X112127000Y-74853439D01*
X112127000Y-74627000D01*
X120000000Y-74627000D01*
X120024776Y-74624560D01*
X120048601Y-74617333D01*
X120070557Y-74605597D01*
X120089803Y-74589803D01*
X120105597Y-74570557D01*
X120117333Y-74548601D01*
X120124560Y-74524776D01*
X120127000Y-74500000D01*
X120127000Y-70603740D01*
X136685000Y-70603740D01*
X136685000Y-70896260D01*
X136742068Y-71183158D01*
X136854010Y-71453411D01*
X137016525Y-71696632D01*
X137223368Y-71903475D01*
X137466589Y-72065990D01*
X137736842Y-72177932D01*
X138023740Y-72235000D01*
X138316260Y-72235000D01*
X138603158Y-72177932D01*
X138873411Y-72065990D01*
X139116632Y-71903475D01*
X139323475Y-71696632D01*
X139440000Y-71522240D01*
X139556525Y-71696632D01*
X139763368Y-71903475D01*
X140006589Y-72065990D01*
X140276842Y-72177932D01*
X140563740Y-72235000D01*
X140856260Y-72235000D01*
X141143158Y-72177932D01*
X141413411Y-72065990D01*
X141656632Y-71903475D01*
X141788487Y-71771620D01*
X141810498Y-71844180D01*
X141869463Y-71954494D01*
X141948815Y-72051185D01*
X142045506Y-72130537D01*
X142155820Y-72189502D01*
X142275518Y-72225812D01*
X142400000Y-72238072D01*
X144100000Y-72238072D01*
X144224482Y-72225812D01*
X144344180Y-72189502D01*
X144454494Y-72130537D01*
X144551185Y-72051185D01*
X144630537Y-71954494D01*
X144689502Y-71844180D01*
X144725812Y-71724482D01*
X144738072Y-71600000D01*
X144738072Y-69900000D01*
X144725812Y-69775518D01*
X144689502Y-69655820D01*
X144630537Y-69545506D01*
X144551185Y-69448815D01*
X144454494Y-69369463D01*
X144344180Y-69310498D01*
X144224482Y-69274188D01*
X144100000Y-69261928D01*
X142400000Y-69261928D01*
X142275518Y-69274188D01*
X142155820Y-69310498D01*
X142045506Y-69369463D01*
X141948815Y-69448815D01*
X141869463Y-69545506D01*
X141810498Y-69655820D01*
X141788487Y-69728380D01*
X141656632Y-69596525D01*
X141413411Y-69434010D01*
X141143158Y-69322068D01*
X140856260Y-69265000D01*
X140563740Y-69265000D01*
X140276842Y-69322068D01*
X140006589Y-69434010D01*
X139763368Y-69596525D01*
X139556525Y-69803368D01*
X139440000Y-69977760D01*
X139323475Y-69803368D01*
X139116632Y-69596525D01*
X138873411Y-69434010D01*
X138603158Y-69322068D01*
X138316260Y-69265000D01*
X138023740Y-69265000D01*
X137736842Y-69322068D01*
X137466589Y-69434010D01*
X137223368Y-69596525D01*
X137016525Y-69803368D01*
X136854010Y-70046589D01*
X136742068Y-70316842D01*
X136685000Y-70603740D01*
X120127000Y-70603740D01*
X120127000Y-66353740D01*
X136685000Y-66353740D01*
X136685000Y-66646260D01*
X136742068Y-66933158D01*
X136854010Y-67203411D01*
X137016525Y-67446632D01*
X137223368Y-67653475D01*
X137466589Y-67815990D01*
X137736842Y-67927932D01*
X138023740Y-67985000D01*
X138316260Y-67985000D01*
X138603158Y-67927932D01*
X138873411Y-67815990D01*
X139116632Y-67653475D01*
X139323475Y-67446632D01*
X139440000Y-67272240D01*
X139556525Y-67446632D01*
X139763368Y-67653475D01*
X140006589Y-67815990D01*
X140276842Y-67927932D01*
X140563740Y-67985000D01*
X140856260Y-67985000D01*
X141143158Y-67927932D01*
X141413411Y-67815990D01*
X141656632Y-67653475D01*
X141788487Y-67521620D01*
X141810498Y-67594180D01*
X141869463Y-67704494D01*
X141948815Y-67801185D01*
X142045506Y-67880537D01*
X142155820Y-67939502D01*
X142275518Y-67975812D01*
X142400000Y-67988072D01*
X144100000Y-67988072D01*
X144224482Y-67975812D01*
X144344180Y-67939502D01*
X144454494Y-67880537D01*
X144551185Y-67801185D01*
X144630537Y-67704494D01*
X144689502Y-67594180D01*
X144725812Y-67474482D01*
X144738072Y-67350000D01*
X144738072Y-65650000D01*
X144725812Y-65525518D01*
X144689502Y-65405820D01*
X144630537Y-65295506D01*
X144551185Y-65198815D01*
X144454494Y-65119463D01*
X144344180Y-65060498D01*
X144224482Y-65024188D01*
X144100000Y-65011928D01*
X142400000Y-65011928D01*
X142275518Y-65024188D01*
X142155820Y-65060498D01*
X142045506Y-65119463D01*
X141948815Y-65198815D01*
X141869463Y-65295506D01*
X141810498Y-65405820D01*
X141788487Y-65478380D01*
X141656632Y-65346525D01*
X141413411Y-65184010D01*
X141143158Y-65072068D01*
X140856260Y-65015000D01*
X140563740Y-65015000D01*
X140276842Y-65072068D01*
X140006589Y-65184010D01*
X139763368Y-65346525D01*
X139556525Y-65553368D01*
X139440000Y-65727760D01*
X139323475Y-65553368D01*
X139116632Y-65346525D01*
X138873411Y-65184010D01*
X138603158Y-65072068D01*
X138316260Y-65015000D01*
X138023740Y-65015000D01*
X137736842Y-65072068D01*
X137466589Y-65184010D01*
X137223368Y-65346525D01*
X137016525Y-65553368D01*
X136854010Y-65796589D01*
X136742068Y-66066842D01*
X136685000Y-66353740D01*
X120127000Y-66353740D01*
X120127000Y-63398061D01*
X151215000Y-63398061D01*
X151215000Y-63601939D01*
X151254774Y-63801898D01*
X151332795Y-63990256D01*
X151446063Y-64159774D01*
X151590226Y-64303937D01*
X151759744Y-64417205D01*
X151948102Y-64495226D01*
X152148061Y-64535000D01*
X152351939Y-64535000D01*
X152551898Y-64495226D01*
X152740256Y-64417205D01*
X152909774Y-64303937D01*
X152953711Y-64260000D01*
X155818391Y-64260000D01*
X155789903Y-64302636D01*
X155711882Y-64490994D01*
X155709596Y-64502488D01*
X155698102Y-64504774D01*
X155509744Y-64582795D01*
X155340226Y-64696063D01*
X155196063Y-64840226D01*
X155082795Y-65009744D01*
X155004774Y-65198102D01*
X154965000Y-65398061D01*
X154965000Y-65601939D01*
X155004774Y-65801898D01*
X155082795Y-65990256D01*
X155196063Y-66159774D01*
X155340226Y-66303937D01*
X155509744Y-66417205D01*
X155698102Y-66495226D01*
X155898061Y-66535000D01*
X155960199Y-66535000D01*
X156936201Y-67511003D01*
X156959999Y-67540001D01*
X157075724Y-67634974D01*
X157207753Y-67705546D01*
X157351014Y-67749003D01*
X157462667Y-67760000D01*
X157462676Y-67760000D01*
X157499999Y-67763676D01*
X157537322Y-67760000D01*
X163462678Y-67760000D01*
X163500000Y-67763676D01*
X163527326Y-67760985D01*
X163648061Y-67785000D01*
X163851939Y-67785000D01*
X164051898Y-67745226D01*
X164240256Y-67667205D01*
X164409774Y-67553937D01*
X164553937Y-67409774D01*
X164667205Y-67240256D01*
X164745226Y-67051898D01*
X164785000Y-66851939D01*
X164785000Y-66648061D01*
X164745226Y-66448102D01*
X164667205Y-66259744D01*
X164553937Y-66090226D01*
X164409774Y-65946063D01*
X164240256Y-65832795D01*
X164051898Y-65754774D01*
X163851939Y-65715000D01*
X163648061Y-65715000D01*
X163448102Y-65754774D01*
X163259744Y-65832795D01*
X163090226Y-65946063D01*
X162946063Y-66090226D01*
X162845987Y-66240000D01*
X162507538Y-66240000D01*
X162535000Y-66101939D01*
X162535000Y-65898061D01*
X162495226Y-65698102D01*
X162417205Y-65509744D01*
X162327172Y-65375000D01*
X162417205Y-65240256D01*
X162495226Y-65051898D01*
X162535000Y-64851939D01*
X162535000Y-64648061D01*
X162495226Y-64448102D01*
X162417205Y-64259744D01*
X162303937Y-64090226D01*
X162159774Y-63946063D01*
X161990256Y-63832795D01*
X161801898Y-63754774D01*
X161601939Y-63715000D01*
X161398061Y-63715000D01*
X161198102Y-63754774D01*
X161141968Y-63778026D01*
X161167205Y-63740256D01*
X161245226Y-63551898D01*
X161285000Y-63351939D01*
X161285000Y-63148061D01*
X161245226Y-62948102D01*
X161167205Y-62759744D01*
X161053937Y-62590226D01*
X160909774Y-62446063D01*
X160740256Y-62332795D01*
X160551898Y-62254774D01*
X160351939Y-62215000D01*
X160148061Y-62215000D01*
X159948102Y-62254774D01*
X159759744Y-62332795D01*
X159590226Y-62446063D01*
X159446063Y-62590226D01*
X159345987Y-62740000D01*
X152953711Y-62740000D01*
X152909774Y-62696063D01*
X152740256Y-62582795D01*
X152551898Y-62504774D01*
X152351939Y-62465000D01*
X152148061Y-62465000D01*
X151948102Y-62504774D01*
X151759744Y-62582795D01*
X151590226Y-62696063D01*
X151446063Y-62840226D01*
X151332795Y-63009744D01*
X151254774Y-63198102D01*
X151215000Y-63398061D01*
X120127000Y-63398061D01*
X120127000Y-58627000D01*
X179873000Y-58627000D01*
X179873000Y-67041196D01*
%TA.AperFunction,Conductor*%
D23*
G36*
X179873000Y-67041196D02*
G01*
X179869463Y-67045506D01*
X179810498Y-67155820D01*
X179774188Y-67275518D01*
X179761928Y-67400000D01*
X179761928Y-69100000D01*
X179774188Y-69224482D01*
X179810498Y-69344180D01*
X179869463Y-69454494D01*
X179948815Y-69551185D01*
X180045506Y-69630537D01*
X180155820Y-69689502D01*
X180228380Y-69711513D01*
X180096525Y-69843368D01*
X179934010Y-70086589D01*
X179822068Y-70356842D01*
X179765000Y-70643740D01*
X179765000Y-70936260D01*
X179822068Y-71223158D01*
X179934010Y-71493411D01*
X180096525Y-71736632D01*
X180303368Y-71943475D01*
X180477760Y-72060000D01*
X180303368Y-72176525D01*
X180096525Y-72383368D01*
X179934010Y-72626589D01*
X179822068Y-72896842D01*
X179765000Y-73183740D01*
X179765000Y-73476260D01*
X179822068Y-73763158D01*
X179934010Y-74033411D01*
X180096525Y-74276632D01*
X180303368Y-74483475D01*
X180477760Y-74600000D01*
X180303368Y-74716525D01*
X180096525Y-74923368D01*
X179934010Y-75166589D01*
X179822068Y-75436842D01*
X179765000Y-75723740D01*
X179765000Y-76016260D01*
X179822068Y-76303158D01*
X179934010Y-76573411D01*
X180096525Y-76816632D01*
X180303368Y-77023475D01*
X180477760Y-77140000D01*
X180303368Y-77256525D01*
X180096525Y-77463368D01*
X179934010Y-77706589D01*
X179822068Y-77976842D01*
X179765000Y-78263740D01*
X179765000Y-78556260D01*
X179822068Y-78843158D01*
X179934010Y-79113411D01*
X180096525Y-79356632D01*
X180303368Y-79563475D01*
X180546589Y-79725990D01*
X180816842Y-79837932D01*
X181103740Y-79895000D01*
X181396260Y-79895000D01*
X181683158Y-79837932D01*
X181953411Y-79725990D01*
X182196632Y-79563475D01*
X182403475Y-79356632D01*
X182565990Y-79113411D01*
X182677932Y-78843158D01*
X182701059Y-78726890D01*
X184058524Y-78726890D01*
X184103175Y-78874099D01*
X184228359Y-79136920D01*
X184402412Y-79370269D01*
X184618645Y-79565178D01*
X184868748Y-79714157D01*
X185143109Y-79811481D01*
X185373000Y-79690814D01*
X185373000Y-78497000D01*
X185627000Y-78497000D01*
X185627000Y-79690814D01*
X185856891Y-79811481D01*
X186131252Y-79714157D01*
X186381355Y-79565178D01*
X186597588Y-79370269D01*
X186771641Y-79136920D01*
X186896825Y-78874099D01*
X186941476Y-78726890D01*
X186820155Y-78497000D01*
X185627000Y-78497000D01*
X185373000Y-78497000D01*
X184179845Y-78497000D01*
X184058524Y-78726890D01*
X182701059Y-78726890D01*
X182735000Y-78556260D01*
X182735000Y-78263740D01*
X182677932Y-77976842D01*
X182565990Y-77706589D01*
X182403475Y-77463368D01*
X182196632Y-77256525D01*
X182022240Y-77140000D01*
X182196632Y-77023475D01*
X182403475Y-76816632D01*
X182565990Y-76573411D01*
X182677932Y-76303158D01*
X182701059Y-76186890D01*
X184058524Y-76186890D01*
X184103175Y-76334099D01*
X184228359Y-76596920D01*
X184402412Y-76830269D01*
X184618645Y-77025178D01*
X184744255Y-77100000D01*
X184618645Y-77174822D01*
X184402412Y-77369731D01*
X184228359Y-77603080D01*
X184103175Y-77865901D01*
X184058524Y-78013110D01*
X184179845Y-78243000D01*
X185373000Y-78243000D01*
X185373000Y-75957000D01*
X185627000Y-75957000D01*
X185627000Y-78243000D01*
X186820155Y-78243000D01*
X186941476Y-78013110D01*
X186896825Y-77865901D01*
X186771641Y-77603080D01*
X186597588Y-77369731D01*
X186381355Y-77174822D01*
X186255745Y-77100000D01*
X186381355Y-77025178D01*
X186597588Y-76830269D01*
X186771641Y-76596920D01*
X186896825Y-76334099D01*
X186941476Y-76186890D01*
X186820155Y-75957000D01*
X185627000Y-75957000D01*
X185373000Y-75957000D01*
X184179845Y-75957000D01*
X184058524Y-76186890D01*
X182701059Y-76186890D01*
X182735000Y-76016260D01*
X182735000Y-75723740D01*
X182677932Y-75436842D01*
X182565990Y-75166589D01*
X182403475Y-74923368D01*
X182196632Y-74716525D01*
X182022240Y-74600000D01*
X182196632Y-74483475D01*
X182403475Y-74276632D01*
X182565990Y-74033411D01*
X182677932Y-73763158D01*
X182701059Y-73646890D01*
X184058524Y-73646890D01*
X184103175Y-73794099D01*
X184228359Y-74056920D01*
X184402412Y-74290269D01*
X184618645Y-74485178D01*
X184744255Y-74560000D01*
X184618645Y-74634822D01*
X184402412Y-74829731D01*
X184228359Y-75063080D01*
X184103175Y-75325901D01*
X184058524Y-75473110D01*
X184179845Y-75703000D01*
X185373000Y-75703000D01*
X185373000Y-73417000D01*
X185627000Y-73417000D01*
X185627000Y-75703000D01*
X186820155Y-75703000D01*
X186941476Y-75473110D01*
X186896825Y-75325901D01*
X186771641Y-75063080D01*
X186597588Y-74829731D01*
X186381355Y-74634822D01*
X186255745Y-74560000D01*
X186381355Y-74485178D01*
X186597588Y-74290269D01*
X186771641Y-74056920D01*
X186896825Y-73794099D01*
X186941476Y-73646890D01*
X186820155Y-73417000D01*
X185627000Y-73417000D01*
X185373000Y-73417000D01*
X184179845Y-73417000D01*
X184058524Y-73646890D01*
X182701059Y-73646890D01*
X182735000Y-73476260D01*
X182735000Y-73183740D01*
X182677932Y-72896842D01*
X182565990Y-72626589D01*
X182403475Y-72383368D01*
X182196632Y-72176525D01*
X182022240Y-72060000D01*
X182196632Y-71943475D01*
X182403475Y-71736632D01*
X182565990Y-71493411D01*
X182677932Y-71223158D01*
X182701059Y-71106890D01*
X184058524Y-71106890D01*
X184103175Y-71254099D01*
X184228359Y-71516920D01*
X184402412Y-71750269D01*
X184618645Y-71945178D01*
X184744255Y-72020000D01*
X184618645Y-72094822D01*
X184402412Y-72289731D01*
X184228359Y-72523080D01*
X184103175Y-72785901D01*
X184058524Y-72933110D01*
X184179845Y-73163000D01*
X185373000Y-73163000D01*
X185373000Y-70877000D01*
X185627000Y-70877000D01*
X185627000Y-73163000D01*
X186820155Y-73163000D01*
X186941476Y-72933110D01*
X186896825Y-72785901D01*
X186771641Y-72523080D01*
X186597588Y-72289731D01*
X186381355Y-72094822D01*
X186255745Y-72020000D01*
X186381355Y-71945178D01*
X186597588Y-71750269D01*
X186771641Y-71516920D01*
X186896825Y-71254099D01*
X186941476Y-71106890D01*
X186820155Y-70877000D01*
X185627000Y-70877000D01*
X185373000Y-70877000D01*
X184179845Y-70877000D01*
X184058524Y-71106890D01*
X182701059Y-71106890D01*
X182735000Y-70936260D01*
X182735000Y-70643740D01*
X182677932Y-70356842D01*
X182565990Y-70086589D01*
X182403475Y-69843368D01*
X182271620Y-69711513D01*
X182344180Y-69689502D01*
X182454494Y-69630537D01*
X182551185Y-69551185D01*
X182630537Y-69454494D01*
X182689502Y-69344180D01*
X182725812Y-69224482D01*
X182738072Y-69100000D01*
X182738072Y-69060000D01*
X184011928Y-69060000D01*
X184024188Y-69184482D01*
X184060498Y-69304180D01*
X184119463Y-69414494D01*
X184198815Y-69511185D01*
X184295506Y-69590537D01*
X184405820Y-69649502D01*
X184486466Y-69673966D01*
X184402412Y-69749731D01*
X184228359Y-69983080D01*
X184103175Y-70245901D01*
X184058524Y-70393110D01*
X184179845Y-70623000D01*
X185373000Y-70623000D01*
X185373000Y-68337000D01*
X185627000Y-68337000D01*
X185627000Y-70623000D01*
X186820155Y-70623000D01*
X186941476Y-70393110D01*
X186896825Y-70245901D01*
X186771641Y-69983080D01*
X186597588Y-69749731D01*
X186513534Y-69673966D01*
X186594180Y-69649502D01*
X186704494Y-69590537D01*
X186801185Y-69511185D01*
X186880537Y-69414494D01*
X186939502Y-69304180D01*
X186975812Y-69184482D01*
X186988072Y-69060000D01*
X186985000Y-68495750D01*
X186826250Y-68337000D01*
X185627000Y-68337000D01*
X185373000Y-68337000D01*
X184173750Y-68337000D01*
X184015000Y-68495750D01*
X184011928Y-69060000D01*
X182738072Y-69060000D01*
X182738072Y-67627000D01*
X184013382Y-67627000D01*
X184015000Y-67924250D01*
X184173750Y-68083000D01*
X185373000Y-68083000D01*
X185373000Y-68063000D01*
X185627000Y-68063000D01*
X185627000Y-68083000D01*
X186826250Y-68083000D01*
X186985000Y-67924250D01*
X186986618Y-67627000D01*
X188873000Y-67627000D01*
X188873000Y-104373000D01*
X180000000Y-104373000D01*
X179975224Y-104375440D01*
X179951399Y-104382667D01*
X179929443Y-104394403D01*
X179910197Y-104410197D01*
X179894403Y-104429443D01*
X179882667Y-104451399D01*
X179875440Y-104475224D01*
X179873000Y-104500000D01*
X179873000Y-120373000D01*
X120127000Y-120373000D01*
X120127000Y-115000000D01*
X123861928Y-115000000D01*
X123874188Y-115124482D01*
X123910498Y-115244180D01*
X123969463Y-115354494D01*
X124048815Y-115451185D01*
X124145506Y-115530537D01*
X124255820Y-115589502D01*
X124375518Y-115625812D01*
X124500000Y-115638072D01*
X125714250Y-115635000D01*
X125873000Y-115476250D01*
X125873000Y-113627000D01*
X126127000Y-113627000D01*
X126127000Y-115476250D01*
X126285750Y-115635000D01*
X127500000Y-115638072D01*
X127624482Y-115625812D01*
X127744180Y-115589502D01*
X127854494Y-115530537D01*
X127951185Y-115451185D01*
X128030537Y-115354494D01*
X128089502Y-115244180D01*
X128125812Y-115124482D01*
X128138072Y-115000000D01*
X128135000Y-113785750D01*
X127976250Y-113627000D01*
X126127000Y-113627000D01*
X125873000Y-113627000D01*
X124023750Y-113627000D01*
X123865000Y-113785750D01*
X123861928Y-115000000D01*
X120127000Y-115000000D01*
X120127000Y-112000000D01*
X123861928Y-112000000D01*
X123865000Y-113214250D01*
X124023750Y-113373000D01*
X125873000Y-113373000D01*
X125873000Y-111523750D01*
X126127000Y-111523750D01*
X126127000Y-113373000D01*
X127976250Y-113373000D01*
X128135000Y-113214250D01*
X128138072Y-112000000D01*
X128125812Y-111875518D01*
X128089502Y-111755820D01*
X128030537Y-111645506D01*
X127951185Y-111548815D01*
X127854494Y-111469463D01*
X127744180Y-111410498D01*
X127624482Y-111374188D01*
X127500000Y-111361928D01*
X126285750Y-111365000D01*
X126127000Y-111523750D01*
X125873000Y-111523750D01*
X125714250Y-111365000D01*
X124500000Y-111361928D01*
X124375518Y-111374188D01*
X124255820Y-111410498D01*
X124145506Y-111469463D01*
X124048815Y-111548815D01*
X123969463Y-111645506D01*
X123910498Y-111755820D01*
X123874188Y-111875518D01*
X123861928Y-112000000D01*
X120127000Y-112000000D01*
X120127000Y-111500000D01*
X120124560Y-111475224D01*
X120117333Y-111451399D01*
X120105597Y-111429443D01*
X120089803Y-111410197D01*
X120070557Y-111394403D01*
X120048601Y-111382667D01*
X120024776Y-111375440D01*
X120000000Y-111373000D01*
X112127000Y-111373000D01*
X112127000Y-108289721D01*
X123865000Y-108289721D01*
X123865000Y-108710279D01*
X123947047Y-109122756D01*
X124107988Y-109511302D01*
X124341637Y-109860983D01*
X124639017Y-110158363D01*
X124988698Y-110392012D01*
X125377244Y-110552953D01*
X125789721Y-110635000D01*
X126210279Y-110635000D01*
X126622756Y-110552953D01*
X127011302Y-110392012D01*
X127360983Y-110158363D01*
X127658363Y-109860983D01*
X127892012Y-109511302D01*
X128052953Y-109122756D01*
X128135000Y-108710279D01*
X128135000Y-108289721D01*
X128052953Y-107877244D01*
X127892012Y-107488698D01*
X127658363Y-107139017D01*
X127360983Y-106841637D01*
X127011302Y-106607988D01*
X126622756Y-106447047D01*
X126210279Y-106365000D01*
X125789721Y-106365000D01*
X125377244Y-106447047D01*
X124988698Y-106607988D01*
X124639017Y-106841637D01*
X124341637Y-107139017D01*
X124107988Y-107488698D01*
X123947047Y-107877244D01*
X123865000Y-108289721D01*
X112127000Y-108289721D01*
X112127000Y-103500000D01*
X150011928Y-103500000D01*
X150011928Y-105200000D01*
X150024188Y-105324482D01*
X150060498Y-105444180D01*
X150119463Y-105554494D01*
X150198815Y-105651185D01*
X150295506Y-105730537D01*
X150405820Y-105789502D01*
X150525518Y-105825812D01*
X150650000Y-105838072D01*
X152350000Y-105838072D01*
X152474482Y-105825812D01*
X152594180Y-105789502D01*
X152704494Y-105730537D01*
X152801185Y-105651185D01*
X152880537Y-105554494D01*
X152939502Y-105444180D01*
X152961513Y-105371620D01*
X153093368Y-105503475D01*
X153336589Y-105665990D01*
X153606842Y-105777932D01*
X153893740Y-105835000D01*
X154186260Y-105835000D01*
X154473158Y-105777932D01*
X154743411Y-105665990D01*
X154986632Y-105503475D01*
X155193475Y-105296632D01*
X155315195Y-105114466D01*
X155384822Y-105231355D01*
X155579731Y-105447588D01*
X155813080Y-105621641D01*
X156075901Y-105746825D01*
X156223110Y-105791476D01*
X156453000Y-105670155D01*
X156453000Y-104477000D01*
X156707000Y-104477000D01*
X156707000Y-105670155D01*
X156936890Y-105791476D01*
X157084099Y-105746825D01*
X157346920Y-105621641D01*
X157580269Y-105447588D01*
X157775178Y-105231355D01*
X157924157Y-104981252D01*
X158021481Y-104706891D01*
X159228519Y-104706891D01*
X159325843Y-104981252D01*
X159474822Y-105231355D01*
X159669731Y-105447588D01*
X159903080Y-105621641D01*
X160165901Y-105746825D01*
X160313110Y-105791476D01*
X160543000Y-105670155D01*
X160543000Y-104477000D01*
X159349186Y-104477000D01*
X159228519Y-104706891D01*
X158021481Y-104706891D01*
X157900814Y-104477000D01*
X156707000Y-104477000D01*
X156453000Y-104477000D01*
X156433000Y-104477000D01*
X156433000Y-104223000D01*
X156453000Y-104223000D01*
X156453000Y-103029845D01*
X156707000Y-103029845D01*
X156707000Y-104223000D01*
X157900814Y-104223000D01*
X158021481Y-103993109D01*
X159228519Y-103993109D01*
X159349186Y-104223000D01*
X160543000Y-104223000D01*
X160543000Y-103029845D01*
X160797000Y-103029845D01*
X160797000Y-104223000D01*
X160817000Y-104223000D01*
X160817000Y-104477000D01*
X160797000Y-104477000D01*
X160797000Y-105670155D01*
X161026890Y-105791476D01*
X161174099Y-105746825D01*
X161436920Y-105621641D01*
X161670269Y-105447588D01*
X161865178Y-105231355D01*
X161934805Y-105114466D01*
X162056525Y-105296632D01*
X162263368Y-105503475D01*
X162506589Y-105665990D01*
X162776842Y-105777932D01*
X163063740Y-105835000D01*
X163356260Y-105835000D01*
X163643158Y-105777932D01*
X163913411Y-105665990D01*
X164156632Y-105503475D01*
X164288487Y-105371620D01*
X164310498Y-105444180D01*
X164369463Y-105554494D01*
X164448815Y-105651185D01*
X164545506Y-105730537D01*
X164655820Y-105789502D01*
X164775518Y-105825812D01*
X164900000Y-105838072D01*
X166600000Y-105838072D01*
X166724482Y-105825812D01*
X166844180Y-105789502D01*
X166954494Y-105730537D01*
X167051185Y-105651185D01*
X167130537Y-105554494D01*
X167189502Y-105444180D01*
X167225812Y-105324482D01*
X167238072Y-105200000D01*
X167238072Y-103500000D01*
X167225812Y-103375518D01*
X167189502Y-103255820D01*
X167130537Y-103145506D01*
X167051185Y-103048815D01*
X166954494Y-102969463D01*
X166844180Y-102910498D01*
X166724482Y-102874188D01*
X166600000Y-102861928D01*
X164900000Y-102861928D01*
X164775518Y-102874188D01*
X164655820Y-102910498D01*
X164545506Y-102969463D01*
X164448815Y-103048815D01*
X164369463Y-103145506D01*
X164310498Y-103255820D01*
X164288487Y-103328380D01*
X164156632Y-103196525D01*
X163913411Y-103034010D01*
X163643158Y-102922068D01*
X163356260Y-102865000D01*
X163063740Y-102865000D01*
X162776842Y-102922068D01*
X162506589Y-103034010D01*
X162263368Y-103196525D01*
X162056525Y-103403368D01*
X161934805Y-103585534D01*
X161865178Y-103468645D01*
X161670269Y-103252412D01*
X161436920Y-103078359D01*
X161174099Y-102953175D01*
X161026890Y-102908524D01*
X160797000Y-103029845D01*
X160543000Y-103029845D01*
X160313110Y-102908524D01*
X160165901Y-102953175D01*
X159903080Y-103078359D01*
X159669731Y-103252412D01*
X159474822Y-103468645D01*
X159325843Y-103718748D01*
X159228519Y-103993109D01*
X158021481Y-103993109D01*
X157924157Y-103718748D01*
X157775178Y-103468645D01*
X157580269Y-103252412D01*
X157346920Y-103078359D01*
X157084099Y-102953175D01*
X156936890Y-102908524D01*
X156707000Y-103029845D01*
X156453000Y-103029845D01*
X156223110Y-102908524D01*
X156075901Y-102953175D01*
X155813080Y-103078359D01*
X155579731Y-103252412D01*
X155384822Y-103468645D01*
X155315195Y-103585534D01*
X155193475Y-103403368D01*
X154986632Y-103196525D01*
X154743411Y-103034010D01*
X154473158Y-102922068D01*
X154186260Y-102865000D01*
X153893740Y-102865000D01*
X153606842Y-102922068D01*
X153336589Y-103034010D01*
X153093368Y-103196525D01*
X152961513Y-103328380D01*
X152939502Y-103255820D01*
X152880537Y-103145506D01*
X152801185Y-103048815D01*
X152704494Y-102969463D01*
X152594180Y-102910498D01*
X152474482Y-102874188D01*
X152350000Y-102861928D01*
X150650000Y-102861928D01*
X150525518Y-102874188D01*
X150405820Y-102910498D01*
X150295506Y-102969463D01*
X150198815Y-103048815D01*
X150119463Y-103145506D01*
X150060498Y-103255820D01*
X150024188Y-103375518D01*
X150011928Y-103500000D01*
X112127000Y-103500000D01*
X112127000Y-91835671D01*
X112219369Y-92058669D01*
X112463962Y-92424729D01*
X112775271Y-92736038D01*
X113141331Y-92980631D01*
X113548075Y-93149110D01*
X113979872Y-93235000D01*
X114420128Y-93235000D01*
X114851925Y-93149110D01*
X115258669Y-92980631D01*
X115624729Y-92736038D01*
X115936038Y-92424729D01*
X116180631Y-92058669D01*
X116349110Y-91651925D01*
X116435000Y-91220128D01*
X116435000Y-90779872D01*
X116431832Y-90763945D01*
X117015000Y-90763945D01*
X117015000Y-91736055D01*
X117204650Y-92689486D01*
X117576660Y-93587599D01*
X118116735Y-94395879D01*
X118804121Y-95083265D01*
X119612401Y-95623340D01*
X120510514Y-95995350D01*
X121463945Y-96185000D01*
X122436055Y-96185000D01*
X123389486Y-95995350D01*
X124287599Y-95623340D01*
X125095879Y-95083265D01*
X125783265Y-94395879D01*
X126323340Y-93587599D01*
X126695350Y-92689486D01*
X126885000Y-91736055D01*
X126885000Y-90779872D01*
X183365000Y-90779872D01*
X183365000Y-91220128D01*
X183450890Y-91651925D01*
X183619369Y-92058669D01*
X183863962Y-92424729D01*
X184175271Y-92736038D01*
X184541331Y-92980631D01*
X184948075Y-93149110D01*
X185379872Y-93235000D01*
X185820128Y-93235000D01*
X186251925Y-93149110D01*
X186658669Y-92980631D01*
X187024729Y-92736038D01*
X187336038Y-92424729D01*
X187580631Y-92058669D01*
X187749110Y-91651925D01*
X187835000Y-91220128D01*
X187835000Y-90779872D01*
X187749110Y-90348075D01*
X187580631Y-89941331D01*
X187336038Y-89575271D01*
X187024729Y-89263962D01*
X186658669Y-89019369D01*
X186251925Y-88850890D01*
X185820128Y-88765000D01*
X185379872Y-88765000D01*
X184948075Y-88850890D01*
X184541331Y-89019369D01*
X184175271Y-89263962D01*
X183863962Y-89575271D01*
X183619369Y-89941331D01*
X183450890Y-90348075D01*
X183365000Y-90779872D01*
X126885000Y-90779872D01*
X126885000Y-90763945D01*
X126695350Y-89810514D01*
X126323340Y-88912401D01*
X125783265Y-88104121D01*
X125095879Y-87416735D01*
X124287599Y-86876660D01*
X123389486Y-86504650D01*
X122436055Y-86315000D01*
X121463945Y-86315000D01*
X120510514Y-86504650D01*
X119612401Y-86876660D01*
X118804121Y-87416735D01*
X118116735Y-88104121D01*
X117576660Y-88912401D01*
X117204650Y-89810514D01*
X117015000Y-90763945D01*
X116431832Y-90763945D01*
X116349110Y-90348075D01*
X116180631Y-89941331D01*
X115936038Y-89575271D01*
X115624729Y-89263962D01*
X115258669Y-89019369D01*
X114851925Y-88850890D01*
X114420128Y-88765000D01*
X113979872Y-88765000D01*
X113548075Y-88850890D01*
X113141331Y-89019369D01*
X112775271Y-89263962D01*
X112463962Y-89575271D01*
X112219369Y-89941331D01*
X112127000Y-90164329D01*
X112127000Y-84863945D01*
X172915000Y-84863945D01*
X172915000Y-85836055D01*
X173104650Y-86789486D01*
X173476660Y-87687599D01*
X174016735Y-88495879D01*
X174704121Y-89183265D01*
X175512401Y-89723340D01*
X176410514Y-90095350D01*
X177363945Y-90285000D01*
X178336055Y-90285000D01*
X179289486Y-90095350D01*
X180187599Y-89723340D01*
X180995879Y-89183265D01*
X181683265Y-88495879D01*
X182223340Y-87687599D01*
X182595350Y-86789486D01*
X182785000Y-85836055D01*
X182785000Y-84863945D01*
X182595350Y-83910514D01*
X182223340Y-83012401D01*
X181683265Y-82204121D01*
X180995879Y-81516735D01*
X180187599Y-80976660D01*
X179289486Y-80604650D01*
X178336055Y-80415000D01*
X177363945Y-80415000D01*
X176410514Y-80604650D01*
X175512401Y-80976660D01*
X174704121Y-81516735D01*
X174016735Y-82204121D01*
X173476660Y-83012401D01*
X173104650Y-83910514D01*
X172915000Y-84863945D01*
X112127000Y-84863945D01*
X112127000Y-74853439D01*
X121445000Y-74853439D01*
X121445000Y-75106561D01*
X121494381Y-75354821D01*
X121591247Y-75588676D01*
X121731875Y-75799140D01*
X121910860Y-75978125D01*
X122121324Y-76118753D01*
X122355179Y-76215619D01*
X122603439Y-76265000D01*
X122715000Y-76265000D01*
X122715000Y-76377002D01*
X122873748Y-76377002D01*
X122715000Y-76535750D01*
X122711928Y-76900000D01*
X122724188Y-77024482D01*
X122760498Y-77144180D01*
X122819463Y-77254494D01*
X122898815Y-77351185D01*
X122995506Y-77430537D01*
X123105820Y-77489502D01*
X123225518Y-77525812D01*
X123350000Y-77538072D01*
X123714250Y-77535000D01*
X123873000Y-77376250D01*
X123873000Y-76377000D01*
X124127000Y-76377000D01*
X124127000Y-77376250D01*
X124285750Y-77535000D01*
X124650000Y-77538072D01*
X124774482Y-77525812D01*
X124894180Y-77489502D01*
X125004494Y-77430537D01*
X125101185Y-77351185D01*
X125180537Y-77254494D01*
X125239502Y-77144180D01*
X125275812Y-77024482D01*
X125288072Y-76900000D01*
X125285000Y-76535750D01*
X125126250Y-76377000D01*
X124127000Y-76377000D01*
X123873000Y-76377000D01*
X123853000Y-76377000D01*
X123853000Y-76123000D01*
X123873000Y-76123000D01*
X123873000Y-76103000D01*
X124127000Y-76103000D01*
X124127000Y-76123000D01*
X125126250Y-76123000D01*
X125285000Y-75964250D01*
X125285331Y-75924989D01*
X139960720Y-75924989D01*
X139965002Y-75968468D01*
X139965001Y-77564534D01*
X139960720Y-77608003D01*
X139965001Y-77651472D01*
X139965001Y-77651479D01*
X139977806Y-77781492D01*
X140028412Y-77948315D01*
X140110590Y-78102061D01*
X140221184Y-78236820D01*
X140254957Y-78264537D01*
X142613383Y-80622964D01*
X142610720Y-80650001D01*
X142615001Y-80693470D01*
X142615001Y-80693477D01*
X142627806Y-80823490D01*
X142678412Y-80990313D01*
X142760590Y-81144059D01*
X142871184Y-81278818D01*
X142893955Y-81297506D01*
X142904774Y-81351898D01*
X142982795Y-81540256D01*
X143096063Y-81709774D01*
X143240226Y-81853937D01*
X143409744Y-81967205D01*
X143598102Y-82045226D01*
X143798061Y-82085000D01*
X144001939Y-82085000D01*
X144201898Y-82045226D01*
X144390256Y-81967205D01*
X144551458Y-81859494D01*
X144698102Y-81920236D01*
X144898061Y-81960010D01*
X145101939Y-81960010D01*
X145301898Y-81920236D01*
X145490256Y-81842215D01*
X145659774Y-81728947D01*
X145803937Y-81584784D01*
X145917205Y-81415266D01*
X145995226Y-81226908D01*
X146035000Y-81026949D01*
X146035000Y-80823071D01*
X145995226Y-80623112D01*
X145917205Y-80434754D01*
X145876918Y-80374459D01*
X145872195Y-80326510D01*
X145861131Y-80290036D01*
X145821589Y-80159686D01*
X145739411Y-80005941D01*
X145656532Y-79904953D01*
X145656530Y-79904951D01*
X145628817Y-79871183D01*
X145595049Y-79843470D01*
X144149640Y-78398061D01*
X154215000Y-78398061D01*
X154215000Y-78601939D01*
X154254774Y-78801898D01*
X154332795Y-78990256D01*
X154446063Y-79159774D01*
X154590226Y-79303937D01*
X154759744Y-79417205D01*
X154948102Y-79495226D01*
X155148061Y-79535000D01*
X155351939Y-79535000D01*
X155551898Y-79495226D01*
X155740256Y-79417205D01*
X155909774Y-79303937D01*
X155953711Y-79260000D01*
X161346289Y-79260000D01*
X161440226Y-79353937D01*
X161609744Y-79467205D01*
X161798102Y-79545226D01*
X161998061Y-79585000D01*
X162201939Y-79585000D01*
X162401898Y-79545226D01*
X162590256Y-79467205D01*
X162759774Y-79353937D01*
X162903937Y-79209774D01*
X163017205Y-79040256D01*
X163095226Y-78851898D01*
X163135000Y-78651939D01*
X163135000Y-78448061D01*
X163095226Y-78248102D01*
X163017205Y-78059744D01*
X162903937Y-77890226D01*
X162759774Y-77746063D01*
X162590256Y-77632795D01*
X162401898Y-77554774D01*
X162201939Y-77515000D01*
X161998061Y-77515000D01*
X161798102Y-77554774D01*
X161609744Y-77632795D01*
X161449300Y-77740000D01*
X155953711Y-77740000D01*
X155909774Y-77696063D01*
X155740256Y-77582795D01*
X155551898Y-77504774D01*
X155351939Y-77465000D01*
X155148061Y-77465000D01*
X154948102Y-77504774D01*
X154759744Y-77582795D01*
X154590226Y-77696063D01*
X154446063Y-77840226D01*
X154332795Y-78009744D01*
X154254774Y-78198102D01*
X154215000Y-78398061D01*
X144149640Y-78398061D01*
X143006535Y-77254957D01*
X142995226Y-77198102D01*
X142917205Y-77009744D01*
X142803937Y-76840226D01*
X142659774Y-76696063D01*
X142490256Y-76582795D01*
X142301898Y-76504774D01*
X142101939Y-76465000D01*
X141898061Y-76465000D01*
X141735001Y-76497434D01*
X141735001Y-76444372D01*
X141740256Y-76442195D01*
X141909774Y-76328927D01*
X142053937Y-76184764D01*
X142167205Y-76015246D01*
X142245226Y-75826888D01*
X142285000Y-75626929D01*
X142285000Y-75423051D01*
X142245226Y-75223092D01*
X142167205Y-75034734D01*
X142053937Y-74865216D01*
X141909774Y-74721053D01*
X141740256Y-74607785D01*
X141551898Y-74529764D01*
X141351939Y-74489990D01*
X141148061Y-74489990D01*
X140948102Y-74529764D01*
X140759744Y-74607785D01*
X140590226Y-74721053D01*
X140446063Y-74865216D01*
X140332795Y-75034734D01*
X140254774Y-75223092D01*
X140243955Y-75277485D01*
X140221185Y-75296172D01*
X140193472Y-75329940D01*
X140193469Y-75329943D01*
X140110591Y-75430930D01*
X140028413Y-75584676D01*
X139977806Y-75751499D01*
X139960720Y-75924989D01*
X125285331Y-75924989D01*
X125288072Y-75600000D01*
X125275812Y-75475518D01*
X125239502Y-75355820D01*
X125180537Y-75245506D01*
X125101185Y-75148815D01*
X125004494Y-75069463D01*
X124894180Y-75010498D01*
X124774482Y-74974188D01*
X124650000Y-74961928D01*
X124285750Y-74965000D01*
X124127002Y-75123748D01*
X124127002Y-74994912D01*
X124374821Y-74945619D01*
X124608676Y-74848753D01*
X124819140Y-74708125D01*
X124998125Y-74529140D01*
X125138753Y-74318676D01*
X125235619Y-74084821D01*
X125285000Y-73836561D01*
X125285000Y-73583439D01*
X125235619Y-73335179D01*
X125138753Y-73101324D01*
X124998125Y-72890860D01*
X124819140Y-72711875D01*
X124608676Y-72571247D01*
X124374821Y-72474381D01*
X124126561Y-72425000D01*
X123873439Y-72425000D01*
X123625179Y-72474381D01*
X123391324Y-72571247D01*
X123180860Y-72711875D01*
X123001875Y-72890860D01*
X122861247Y-73101324D01*
X122764381Y-73335179D01*
X122715000Y-73583439D01*
X122715000Y-73695000D01*
X122603439Y-73695000D01*
X122355179Y-73744381D01*
X122121324Y-73841247D01*
X121910860Y-73981875D01*
X121731875Y-74160860D01*
X121591247Y-74371324D01*
X121494381Y-74605179D01*
X121445000Y-74853439D01*
X112127000Y-74853439D01*
X112127000Y-74627000D01*
X120000000Y-74627000D01*
X120024776Y-74624560D01*
X120048601Y-74617333D01*
X120070557Y-74605597D01*
X120089803Y-74589803D01*
X120105597Y-74570557D01*
X120117333Y-74548601D01*
X120124560Y-74524776D01*
X120127000Y-74500000D01*
X120127000Y-70603740D01*
X136685000Y-70603740D01*
X136685000Y-70896260D01*
X136742068Y-71183158D01*
X136854010Y-71453411D01*
X137016525Y-71696632D01*
X137223368Y-71903475D01*
X137466589Y-72065990D01*
X137736842Y-72177932D01*
X138023740Y-72235000D01*
X138316260Y-72235000D01*
X138603158Y-72177932D01*
X138873411Y-72065990D01*
X139116632Y-71903475D01*
X139323475Y-71696632D01*
X139440000Y-71522240D01*
X139556525Y-71696632D01*
X139763368Y-71903475D01*
X140006589Y-72065990D01*
X140276842Y-72177932D01*
X140563740Y-72235000D01*
X140856260Y-72235000D01*
X141143158Y-72177932D01*
X141413411Y-72065990D01*
X141656632Y-71903475D01*
X141788487Y-71771620D01*
X141810498Y-71844180D01*
X141869463Y-71954494D01*
X141948815Y-72051185D01*
X142045506Y-72130537D01*
X142155820Y-72189502D01*
X142275518Y-72225812D01*
X142400000Y-72238072D01*
X144100000Y-72238072D01*
X144224482Y-72225812D01*
X144344180Y-72189502D01*
X144454494Y-72130537D01*
X144551185Y-72051185D01*
X144630537Y-71954494D01*
X144689502Y-71844180D01*
X144725812Y-71724482D01*
X144738072Y-71600000D01*
X144738072Y-69900000D01*
X144725812Y-69775518D01*
X144689502Y-69655820D01*
X144630537Y-69545506D01*
X144551185Y-69448815D01*
X144454494Y-69369463D01*
X144344180Y-69310498D01*
X144224482Y-69274188D01*
X144100000Y-69261928D01*
X142400000Y-69261928D01*
X142275518Y-69274188D01*
X142155820Y-69310498D01*
X142045506Y-69369463D01*
X141948815Y-69448815D01*
X141869463Y-69545506D01*
X141810498Y-69655820D01*
X141788487Y-69728380D01*
X141656632Y-69596525D01*
X141413411Y-69434010D01*
X141143158Y-69322068D01*
X140856260Y-69265000D01*
X140563740Y-69265000D01*
X140276842Y-69322068D01*
X140006589Y-69434010D01*
X139763368Y-69596525D01*
X139556525Y-69803368D01*
X139440000Y-69977760D01*
X139323475Y-69803368D01*
X139116632Y-69596525D01*
X138873411Y-69434010D01*
X138603158Y-69322068D01*
X138316260Y-69265000D01*
X138023740Y-69265000D01*
X137736842Y-69322068D01*
X137466589Y-69434010D01*
X137223368Y-69596525D01*
X137016525Y-69803368D01*
X136854010Y-70046589D01*
X136742068Y-70316842D01*
X136685000Y-70603740D01*
X120127000Y-70603740D01*
X120127000Y-66353740D01*
X136685000Y-66353740D01*
X136685000Y-66646260D01*
X136742068Y-66933158D01*
X136854010Y-67203411D01*
X137016525Y-67446632D01*
X137223368Y-67653475D01*
X137466589Y-67815990D01*
X137736842Y-67927932D01*
X138023740Y-67985000D01*
X138316260Y-67985000D01*
X138603158Y-67927932D01*
X138873411Y-67815990D01*
X139116632Y-67653475D01*
X139323475Y-67446632D01*
X139440000Y-67272240D01*
X139556525Y-67446632D01*
X139763368Y-67653475D01*
X140006589Y-67815990D01*
X140276842Y-67927932D01*
X140563740Y-67985000D01*
X140856260Y-67985000D01*
X141143158Y-67927932D01*
X141413411Y-67815990D01*
X141656632Y-67653475D01*
X141788487Y-67521620D01*
X141810498Y-67594180D01*
X141869463Y-67704494D01*
X141948815Y-67801185D01*
X142045506Y-67880537D01*
X142155820Y-67939502D01*
X142275518Y-67975812D01*
X142400000Y-67988072D01*
X144100000Y-67988072D01*
X144224482Y-67975812D01*
X144344180Y-67939502D01*
X144454494Y-67880537D01*
X144551185Y-67801185D01*
X144630537Y-67704494D01*
X144689502Y-67594180D01*
X144725812Y-67474482D01*
X144738072Y-67350000D01*
X144738072Y-65650000D01*
X144725812Y-65525518D01*
X144689502Y-65405820D01*
X144630537Y-65295506D01*
X144551185Y-65198815D01*
X144454494Y-65119463D01*
X144344180Y-65060498D01*
X144224482Y-65024188D01*
X144100000Y-65011928D01*
X142400000Y-65011928D01*
X142275518Y-65024188D01*
X142155820Y-65060498D01*
X142045506Y-65119463D01*
X141948815Y-65198815D01*
X141869463Y-65295506D01*
X141810498Y-65405820D01*
X141788487Y-65478380D01*
X141656632Y-65346525D01*
X141413411Y-65184010D01*
X141143158Y-65072068D01*
X140856260Y-65015000D01*
X140563740Y-65015000D01*
X140276842Y-65072068D01*
X140006589Y-65184010D01*
X139763368Y-65346525D01*
X139556525Y-65553368D01*
X139440000Y-65727760D01*
X139323475Y-65553368D01*
X139116632Y-65346525D01*
X138873411Y-65184010D01*
X138603158Y-65072068D01*
X138316260Y-65015000D01*
X138023740Y-65015000D01*
X137736842Y-65072068D01*
X137466589Y-65184010D01*
X137223368Y-65346525D01*
X137016525Y-65553368D01*
X136854010Y-65796589D01*
X136742068Y-66066842D01*
X136685000Y-66353740D01*
X120127000Y-66353740D01*
X120127000Y-63398061D01*
X151215000Y-63398061D01*
X151215000Y-63601939D01*
X151254774Y-63801898D01*
X151332795Y-63990256D01*
X151446063Y-64159774D01*
X151590226Y-64303937D01*
X151759744Y-64417205D01*
X151948102Y-64495226D01*
X152148061Y-64535000D01*
X152351939Y-64535000D01*
X152551898Y-64495226D01*
X152740256Y-64417205D01*
X152909774Y-64303937D01*
X152953711Y-64260000D01*
X155818391Y-64260000D01*
X155789903Y-64302636D01*
X155711882Y-64490994D01*
X155709596Y-64502488D01*
X155698102Y-64504774D01*
X155509744Y-64582795D01*
X155340226Y-64696063D01*
X155196063Y-64840226D01*
X155082795Y-65009744D01*
X155004774Y-65198102D01*
X154965000Y-65398061D01*
X154965000Y-65601939D01*
X155004774Y-65801898D01*
X155082795Y-65990256D01*
X155196063Y-66159774D01*
X155340226Y-66303937D01*
X155509744Y-66417205D01*
X155698102Y-66495226D01*
X155898061Y-66535000D01*
X155960199Y-66535000D01*
X156936201Y-67511003D01*
X156959999Y-67540001D01*
X157075724Y-67634974D01*
X157207753Y-67705546D01*
X157351014Y-67749003D01*
X157462667Y-67760000D01*
X157462676Y-67760000D01*
X157499999Y-67763676D01*
X157537322Y-67760000D01*
X163462678Y-67760000D01*
X163500000Y-67763676D01*
X163527326Y-67760985D01*
X163648061Y-67785000D01*
X163851939Y-67785000D01*
X164051898Y-67745226D01*
X164240256Y-67667205D01*
X164409774Y-67553937D01*
X164553937Y-67409774D01*
X164667205Y-67240256D01*
X164745226Y-67051898D01*
X164785000Y-66851939D01*
X164785000Y-66648061D01*
X164745226Y-66448102D01*
X164667205Y-66259744D01*
X164553937Y-66090226D01*
X164409774Y-65946063D01*
X164240256Y-65832795D01*
X164051898Y-65754774D01*
X163851939Y-65715000D01*
X163648061Y-65715000D01*
X163448102Y-65754774D01*
X163259744Y-65832795D01*
X163090226Y-65946063D01*
X162946063Y-66090226D01*
X162845987Y-66240000D01*
X162507538Y-66240000D01*
X162535000Y-66101939D01*
X162535000Y-65898061D01*
X162495226Y-65698102D01*
X162417205Y-65509744D01*
X162327172Y-65375000D01*
X162417205Y-65240256D01*
X162495226Y-65051898D01*
X162535000Y-64851939D01*
X162535000Y-64648061D01*
X162495226Y-64448102D01*
X162417205Y-64259744D01*
X162303937Y-64090226D01*
X162159774Y-63946063D01*
X161990256Y-63832795D01*
X161801898Y-63754774D01*
X161601939Y-63715000D01*
X161398061Y-63715000D01*
X161198102Y-63754774D01*
X161141968Y-63778026D01*
X161167205Y-63740256D01*
X161245226Y-63551898D01*
X161285000Y-63351939D01*
X161285000Y-63148061D01*
X161245226Y-62948102D01*
X161167205Y-62759744D01*
X161053937Y-62590226D01*
X160909774Y-62446063D01*
X160740256Y-62332795D01*
X160551898Y-62254774D01*
X160351939Y-62215000D01*
X160148061Y-62215000D01*
X159948102Y-62254774D01*
X159759744Y-62332795D01*
X159590226Y-62446063D01*
X159446063Y-62590226D01*
X159345987Y-62740000D01*
X152953711Y-62740000D01*
X152909774Y-62696063D01*
X152740256Y-62582795D01*
X152551898Y-62504774D01*
X152351939Y-62465000D01*
X152148061Y-62465000D01*
X151948102Y-62504774D01*
X151759744Y-62582795D01*
X151590226Y-62696063D01*
X151446063Y-62840226D01*
X151332795Y-63009744D01*
X151254774Y-63198102D01*
X151215000Y-63398061D01*
X120127000Y-63398061D01*
X120127000Y-58627000D01*
X179873000Y-58627000D01*
X179873000Y-67041196D01*
G37*
%TD.AperFunction*%
%TD*%
M02*
