%TF.GenerationSoftware,KiCad,Pcbnew,(5.1.12)-1*%
%TF.CreationDate,2022-02-03T12:58:41+01:00*%
%TF.ProjectId,colibri_01,636f6c69-6272-4695-9f30-312e6b696361,rev?*%
%TF.SameCoordinates,Original*%
%TF.FileFunction,Soldermask,Top*%
%TF.FilePolarity,Negative*%
%FSLAX46Y46*%
G04 Gerber Fmt 4.6, Leading zero omitted, Abs format (unit mm)*
G04 Created by KiCad (PCBNEW (5.1.12)-1) date 2022-02-03 12:58:41*
%MOMM*%
%LPD*%
G01*
G04 APERTURE LIST*
%ADD10R,2.500000X1.100000*%
%ADD11R,1.100000X2.500000*%
%ADD12C,3.200000*%
%ADD13C,0.900000*%
%ADD14C,8.600000*%
%ADD15R,1.060000X0.650000*%
%ADD16R,1.300000X1.300000*%
%ADD17C,1.300000*%
%ADD18R,1.500000X1.500000*%
%ADD19O,1.700000X1.700000*%
%ADD20R,1.700000X1.700000*%
%ADD21C,3.000000*%
%ADD22R,3.000000X3.000000*%
%ADD23R,0.900000X0.800000*%
G04 APERTURE END LIST*
D10*
%TO.C,U1*%
X150050000Y-73790000D03*
X150050000Y-71790000D03*
X150050000Y-69790000D03*
X150050000Y-67790000D03*
X150050000Y-65790000D03*
X150050000Y-63790000D03*
D11*
X165750000Y-76500000D03*
X163750000Y-76500000D03*
X161750000Y-76500000D03*
X159750000Y-76500000D03*
X157750000Y-76500000D03*
X155750000Y-76500000D03*
X153750000Y-76500000D03*
X151750000Y-76500000D03*
X151750000Y-61100000D03*
X153750000Y-61100000D03*
X155750000Y-61100000D03*
X157750000Y-61100000D03*
X159750000Y-61100000D03*
X161750000Y-61100000D03*
X163750000Y-61100000D03*
X165750000Y-61100000D03*
%TD*%
D12*
%TO.C,C1*%
X185600000Y-91000000D03*
X114200000Y-91000000D03*
%TD*%
D13*
%TO.C,M4*%
X124230419Y-88969581D03*
X121950000Y-88025000D03*
X119669581Y-88969581D03*
X118725000Y-91250000D03*
X119669581Y-93530419D03*
X121950000Y-94475000D03*
X124230419Y-93530419D03*
X125175000Y-91250000D03*
D14*
X121950000Y-91250000D03*
%TD*%
D13*
%TO.C,M4*%
X180130419Y-83069581D03*
X177850000Y-82125000D03*
X175569581Y-83069581D03*
X174625000Y-85350000D03*
X175569581Y-87630419D03*
X177850000Y-88575000D03*
X180130419Y-87630419D03*
X181075000Y-85350000D03*
D14*
X177850000Y-85350000D03*
%TD*%
%TO.C,U6*%
G36*
G01*
X128350000Y-64505000D02*
X126550000Y-64505000D01*
G75*
G02*
X126200000Y-64155000I0J350000D01*
G01*
X126200000Y-64155000D01*
G75*
G02*
X126550000Y-63805000I350000J0D01*
G01*
X128350000Y-63805000D01*
G75*
G02*
X128700000Y-64155000I0J-350000D01*
G01*
X128700000Y-64155000D01*
G75*
G02*
X128350000Y-64505000I-350000J0D01*
G01*
G37*
G36*
G01*
X128350000Y-63235000D02*
X126550000Y-63235000D01*
G75*
G02*
X126200000Y-62885000I0J350000D01*
G01*
X126200000Y-62885000D01*
G75*
G02*
X126550000Y-62535000I350000J0D01*
G01*
X128350000Y-62535000D01*
G75*
G02*
X128700000Y-62885000I0J-350000D01*
G01*
X128700000Y-62885000D01*
G75*
G02*
X128350000Y-63235000I-350000J0D01*
G01*
G37*
G36*
G01*
X128350000Y-61965000D02*
X126550000Y-61965000D01*
G75*
G02*
X126200000Y-61615000I0J350000D01*
G01*
X126200000Y-61615000D01*
G75*
G02*
X126550000Y-61265000I350000J0D01*
G01*
X128350000Y-61265000D01*
G75*
G02*
X128700000Y-61615000I0J-350000D01*
G01*
X128700000Y-61615000D01*
G75*
G02*
X128350000Y-61965000I-350000J0D01*
G01*
G37*
G36*
G01*
X128350000Y-60695000D02*
X126550000Y-60695000D01*
G75*
G02*
X126200000Y-60345000I0J350000D01*
G01*
X126200000Y-60345000D01*
G75*
G02*
X126550000Y-59995000I350000J0D01*
G01*
X128350000Y-59995000D01*
G75*
G02*
X128700000Y-60345000I0J-350000D01*
G01*
X128700000Y-60345000D01*
G75*
G02*
X128350000Y-60695000I-350000J0D01*
G01*
G37*
G36*
G01*
X123450000Y-64505000D02*
X121650000Y-64505000D01*
G75*
G02*
X121300000Y-64155000I0J350000D01*
G01*
X121300000Y-64155000D01*
G75*
G02*
X121650000Y-63805000I350000J0D01*
G01*
X123450000Y-63805000D01*
G75*
G02*
X123800000Y-64155000I0J-350000D01*
G01*
X123800000Y-64155000D01*
G75*
G02*
X123450000Y-64505000I-350000J0D01*
G01*
G37*
G36*
G01*
X123450000Y-63235000D02*
X121650000Y-63235000D01*
G75*
G02*
X121300000Y-62885000I0J350000D01*
G01*
X121300000Y-62885000D01*
G75*
G02*
X121650000Y-62535000I350000J0D01*
G01*
X123450000Y-62535000D01*
G75*
G02*
X123800000Y-62885000I0J-350000D01*
G01*
X123800000Y-62885000D01*
G75*
G02*
X123450000Y-63235000I-350000J0D01*
G01*
G37*
G36*
G01*
X123450000Y-61965000D02*
X121650000Y-61965000D01*
G75*
G02*
X121300000Y-61615000I0J350000D01*
G01*
X121300000Y-61615000D01*
G75*
G02*
X121650000Y-61265000I350000J0D01*
G01*
X123450000Y-61265000D01*
G75*
G02*
X123800000Y-61615000I0J-350000D01*
G01*
X123800000Y-61615000D01*
G75*
G02*
X123450000Y-61965000I-350000J0D01*
G01*
G37*
G36*
G01*
X123450000Y-60695000D02*
X121650000Y-60695000D01*
G75*
G02*
X121300000Y-60345000I0J350000D01*
G01*
X121300000Y-60345000D01*
G75*
G02*
X121650000Y-59995000I350000J0D01*
G01*
X123450000Y-59995000D01*
G75*
G02*
X123800000Y-60345000I0J-350000D01*
G01*
X123800000Y-60345000D01*
G75*
G02*
X123450000Y-60695000I-350000J0D01*
G01*
G37*
%TD*%
%TO.C,U5*%
G36*
G01*
X147651300Y-113085000D02*
X148158700Y-113085000D01*
G75*
G02*
X148200000Y-113126300I0J-41300D01*
G01*
X148200000Y-114623700D01*
G75*
G02*
X148158700Y-114665000I-41300J0D01*
G01*
X147651300Y-114665000D01*
G75*
G02*
X147610000Y-114623700I0J41300D01*
G01*
X147610000Y-113126300D01*
G75*
G02*
X147651300Y-113085000I41300J0D01*
G01*
G37*
G36*
G01*
X146381300Y-113085000D02*
X146888700Y-113085000D01*
G75*
G02*
X146930000Y-113126300I0J-41300D01*
G01*
X146930000Y-114623700D01*
G75*
G02*
X146888700Y-114665000I-41300J0D01*
G01*
X146381300Y-114665000D01*
G75*
G02*
X146340000Y-114623700I0J41300D01*
G01*
X146340000Y-113126300D01*
G75*
G02*
X146381300Y-113085000I41300J0D01*
G01*
G37*
G36*
G01*
X145111300Y-113085000D02*
X145618700Y-113085000D01*
G75*
G02*
X145660000Y-113126300I0J-41300D01*
G01*
X145660000Y-114623700D01*
G75*
G02*
X145618700Y-114665000I-41300J0D01*
G01*
X145111300Y-114665000D01*
G75*
G02*
X145070000Y-114623700I0J41300D01*
G01*
X145070000Y-113126300D01*
G75*
G02*
X145111300Y-113085000I41300J0D01*
G01*
G37*
G36*
G01*
X143841300Y-113085000D02*
X144348700Y-113085000D01*
G75*
G02*
X144390000Y-113126300I0J-41300D01*
G01*
X144390000Y-114623700D01*
G75*
G02*
X144348700Y-114665000I-41300J0D01*
G01*
X143841300Y-114665000D01*
G75*
G02*
X143800000Y-114623700I0J41300D01*
G01*
X143800000Y-113126300D01*
G75*
G02*
X143841300Y-113085000I41300J0D01*
G01*
G37*
G36*
G01*
X143841300Y-118335000D02*
X144348700Y-118335000D01*
G75*
G02*
X144390000Y-118376300I0J-41300D01*
G01*
X144390000Y-119873700D01*
G75*
G02*
X144348700Y-119915000I-41300J0D01*
G01*
X143841300Y-119915000D01*
G75*
G02*
X143800000Y-119873700I0J41300D01*
G01*
X143800000Y-118376300D01*
G75*
G02*
X143841300Y-118335000I41300J0D01*
G01*
G37*
G36*
G01*
X145111300Y-118335000D02*
X145618700Y-118335000D01*
G75*
G02*
X145660000Y-118376300I0J-41300D01*
G01*
X145660000Y-119873700D01*
G75*
G02*
X145618700Y-119915000I-41300J0D01*
G01*
X145111300Y-119915000D01*
G75*
G02*
X145070000Y-119873700I0J41300D01*
G01*
X145070000Y-118376300D01*
G75*
G02*
X145111300Y-118335000I41300J0D01*
G01*
G37*
G36*
G01*
X146381300Y-118335000D02*
X146888700Y-118335000D01*
G75*
G02*
X146930000Y-118376300I0J-41300D01*
G01*
X146930000Y-119873700D01*
G75*
G02*
X146888700Y-119915000I-41300J0D01*
G01*
X146381300Y-119915000D01*
G75*
G02*
X146340000Y-119873700I0J41300D01*
G01*
X146340000Y-118376300D01*
G75*
G02*
X146381300Y-118335000I41300J0D01*
G01*
G37*
G36*
G01*
X147651300Y-118335000D02*
X148158700Y-118335000D01*
G75*
G02*
X148200000Y-118376300I0J-41300D01*
G01*
X148200000Y-119873700D01*
G75*
G02*
X148158700Y-119915000I-41300J0D01*
G01*
X147651300Y-119915000D01*
G75*
G02*
X147610000Y-119873700I0J41300D01*
G01*
X147610000Y-118376300D01*
G75*
G02*
X147651300Y-118335000I41300J0D01*
G01*
G37*
%TD*%
%TO.C,U4*%
G36*
G01*
X155651300Y-113085000D02*
X156158700Y-113085000D01*
G75*
G02*
X156200000Y-113126300I0J-41300D01*
G01*
X156200000Y-114623700D01*
G75*
G02*
X156158700Y-114665000I-41300J0D01*
G01*
X155651300Y-114665000D01*
G75*
G02*
X155610000Y-114623700I0J41300D01*
G01*
X155610000Y-113126300D01*
G75*
G02*
X155651300Y-113085000I41300J0D01*
G01*
G37*
G36*
G01*
X154381300Y-113085000D02*
X154888700Y-113085000D01*
G75*
G02*
X154930000Y-113126300I0J-41300D01*
G01*
X154930000Y-114623700D01*
G75*
G02*
X154888700Y-114665000I-41300J0D01*
G01*
X154381300Y-114665000D01*
G75*
G02*
X154340000Y-114623700I0J41300D01*
G01*
X154340000Y-113126300D01*
G75*
G02*
X154381300Y-113085000I41300J0D01*
G01*
G37*
G36*
G01*
X153111300Y-113085000D02*
X153618700Y-113085000D01*
G75*
G02*
X153660000Y-113126300I0J-41300D01*
G01*
X153660000Y-114623700D01*
G75*
G02*
X153618700Y-114665000I-41300J0D01*
G01*
X153111300Y-114665000D01*
G75*
G02*
X153070000Y-114623700I0J41300D01*
G01*
X153070000Y-113126300D01*
G75*
G02*
X153111300Y-113085000I41300J0D01*
G01*
G37*
G36*
G01*
X151841300Y-113085000D02*
X152348700Y-113085000D01*
G75*
G02*
X152390000Y-113126300I0J-41300D01*
G01*
X152390000Y-114623700D01*
G75*
G02*
X152348700Y-114665000I-41300J0D01*
G01*
X151841300Y-114665000D01*
G75*
G02*
X151800000Y-114623700I0J41300D01*
G01*
X151800000Y-113126300D01*
G75*
G02*
X151841300Y-113085000I41300J0D01*
G01*
G37*
G36*
G01*
X151841300Y-118335000D02*
X152348700Y-118335000D01*
G75*
G02*
X152390000Y-118376300I0J-41300D01*
G01*
X152390000Y-119873700D01*
G75*
G02*
X152348700Y-119915000I-41300J0D01*
G01*
X151841300Y-119915000D01*
G75*
G02*
X151800000Y-119873700I0J41300D01*
G01*
X151800000Y-118376300D01*
G75*
G02*
X151841300Y-118335000I41300J0D01*
G01*
G37*
G36*
G01*
X153111300Y-118335000D02*
X153618700Y-118335000D01*
G75*
G02*
X153660000Y-118376300I0J-41300D01*
G01*
X153660000Y-119873700D01*
G75*
G02*
X153618700Y-119915000I-41300J0D01*
G01*
X153111300Y-119915000D01*
G75*
G02*
X153070000Y-119873700I0J41300D01*
G01*
X153070000Y-118376300D01*
G75*
G02*
X153111300Y-118335000I41300J0D01*
G01*
G37*
G36*
G01*
X154381300Y-118335000D02*
X154888700Y-118335000D01*
G75*
G02*
X154930000Y-118376300I0J-41300D01*
G01*
X154930000Y-119873700D01*
G75*
G02*
X154888700Y-119915000I-41300J0D01*
G01*
X154381300Y-119915000D01*
G75*
G02*
X154340000Y-119873700I0J41300D01*
G01*
X154340000Y-118376300D01*
G75*
G02*
X154381300Y-118335000I41300J0D01*
G01*
G37*
G36*
G01*
X155651300Y-118335000D02*
X156158700Y-118335000D01*
G75*
G02*
X156200000Y-118376300I0J-41300D01*
G01*
X156200000Y-119873700D01*
G75*
G02*
X156158700Y-119915000I-41300J0D01*
G01*
X155651300Y-119915000D01*
G75*
G02*
X155610000Y-119873700I0J41300D01*
G01*
X155610000Y-118376300D01*
G75*
G02*
X155651300Y-118335000I41300J0D01*
G01*
G37*
%TD*%
D15*
%TO.C,U3*%
X138900000Y-109000000D03*
X138900000Y-109950000D03*
X138900000Y-108050000D03*
X141100000Y-108050000D03*
X141100000Y-109000000D03*
X141100000Y-109950000D03*
%TD*%
D16*
%TO.C,U2*%
X124000000Y-76250000D03*
D17*
X124000000Y-73710000D03*
X122730000Y-74980000D03*
%TD*%
D18*
%TO.C,SW1*%
X177500000Y-66900000D03*
X177500000Y-59100000D03*
%TD*%
%TO.C,R11*%
G36*
G01*
X144900000Y-109450002D02*
X144900000Y-108549998D01*
G75*
G02*
X145149998Y-108300000I249998J0D01*
G01*
X145675002Y-108300000D01*
G75*
G02*
X145925000Y-108549998I0J-249998D01*
G01*
X145925000Y-109450002D01*
G75*
G02*
X145675002Y-109700000I-249998J0D01*
G01*
X145149998Y-109700000D01*
G75*
G02*
X144900000Y-109450002I0J249998D01*
G01*
G37*
G36*
G01*
X143075000Y-109450002D02*
X143075000Y-108549998D01*
G75*
G02*
X143324998Y-108300000I249998J0D01*
G01*
X143850002Y-108300000D01*
G75*
G02*
X144100000Y-108549998I0J-249998D01*
G01*
X144100000Y-109450002D01*
G75*
G02*
X143850002Y-109700000I-249998J0D01*
G01*
X143324998Y-109700000D01*
G75*
G02*
X143075000Y-109450002I0J249998D01*
G01*
G37*
%TD*%
%TO.C,R10*%
G36*
G01*
X133600000Y-108049998D02*
X133600000Y-108950002D01*
G75*
G02*
X133350002Y-109200000I-249998J0D01*
G01*
X132824998Y-109200000D01*
G75*
G02*
X132575000Y-108950002I0J249998D01*
G01*
X132575000Y-108049998D01*
G75*
G02*
X132824998Y-107800000I249998J0D01*
G01*
X133350002Y-107800000D01*
G75*
G02*
X133600000Y-108049998I0J-249998D01*
G01*
G37*
G36*
G01*
X135425000Y-108049998D02*
X135425000Y-108950002D01*
G75*
G02*
X135175002Y-109200000I-249998J0D01*
G01*
X134649998Y-109200000D01*
G75*
G02*
X134400000Y-108950002I0J249998D01*
G01*
X134400000Y-108049998D01*
G75*
G02*
X134649998Y-107800000I249998J0D01*
G01*
X135175002Y-107800000D01*
G75*
G02*
X135425000Y-108049998I0J-249998D01*
G01*
G37*
%TD*%
%TO.C,R9*%
G36*
G01*
X138400000Y-78200002D02*
X138400000Y-77299998D01*
G75*
G02*
X138649998Y-77050000I249998J0D01*
G01*
X139175002Y-77050000D01*
G75*
G02*
X139425000Y-77299998I0J-249998D01*
G01*
X139425000Y-78200002D01*
G75*
G02*
X139175002Y-78450000I-249998J0D01*
G01*
X138649998Y-78450000D01*
G75*
G02*
X138400000Y-78200002I0J249998D01*
G01*
G37*
G36*
G01*
X136575000Y-78200002D02*
X136575000Y-77299998D01*
G75*
G02*
X136824998Y-77050000I249998J0D01*
G01*
X137350002Y-77050000D01*
G75*
G02*
X137600000Y-77299998I0J-249998D01*
G01*
X137600000Y-78200002D01*
G75*
G02*
X137350002Y-78450000I-249998J0D01*
G01*
X136824998Y-78450000D01*
G75*
G02*
X136575000Y-78200002I0J249998D01*
G01*
G37*
%TD*%
%TO.C,R8*%
G36*
G01*
X133900000Y-78200002D02*
X133900000Y-77299998D01*
G75*
G02*
X134149998Y-77050000I249998J0D01*
G01*
X134675002Y-77050000D01*
G75*
G02*
X134925000Y-77299998I0J-249998D01*
G01*
X134925000Y-78200002D01*
G75*
G02*
X134675002Y-78450000I-249998J0D01*
G01*
X134149998Y-78450000D01*
G75*
G02*
X133900000Y-78200002I0J249998D01*
G01*
G37*
G36*
G01*
X132075000Y-78200002D02*
X132075000Y-77299998D01*
G75*
G02*
X132324998Y-77050000I249998J0D01*
G01*
X132850002Y-77050000D01*
G75*
G02*
X133100000Y-77299998I0J-249998D01*
G01*
X133100000Y-78200002D01*
G75*
G02*
X132850002Y-78450000I-249998J0D01*
G01*
X132324998Y-78450000D01*
G75*
G02*
X132075000Y-78200002I0J249998D01*
G01*
G37*
%TD*%
%TO.C,R7*%
G36*
G01*
X145100000Y-74799998D02*
X145100000Y-75700002D01*
G75*
G02*
X144850002Y-75950000I-249998J0D01*
G01*
X144324998Y-75950000D01*
G75*
G02*
X144075000Y-75700002I0J249998D01*
G01*
X144075000Y-74799998D01*
G75*
G02*
X144324998Y-74550000I249998J0D01*
G01*
X144850002Y-74550000D01*
G75*
G02*
X145100000Y-74799998I0J-249998D01*
G01*
G37*
G36*
G01*
X146925000Y-74799998D02*
X146925000Y-75700002D01*
G75*
G02*
X146675002Y-75950000I-249998J0D01*
G01*
X146149998Y-75950000D01*
G75*
G02*
X145900000Y-75700002I0J249998D01*
G01*
X145900000Y-74799998D01*
G75*
G02*
X146149998Y-74550000I249998J0D01*
G01*
X146675002Y-74550000D01*
G75*
G02*
X146925000Y-74799998I0J-249998D01*
G01*
G37*
%TD*%
%TO.C,R6*%
G36*
G01*
X146100000Y-77549998D02*
X146100000Y-78450002D01*
G75*
G02*
X145850002Y-78700000I-249998J0D01*
G01*
X145324998Y-78700000D01*
G75*
G02*
X145075000Y-78450002I0J249998D01*
G01*
X145075000Y-77549998D01*
G75*
G02*
X145324998Y-77300000I249998J0D01*
G01*
X145850002Y-77300000D01*
G75*
G02*
X146100000Y-77549998I0J-249998D01*
G01*
G37*
G36*
G01*
X147925000Y-77549998D02*
X147925000Y-78450002D01*
G75*
G02*
X147675002Y-78700000I-249998J0D01*
G01*
X147149998Y-78700000D01*
G75*
G02*
X146900000Y-78450002I0J249998D01*
G01*
X146900000Y-77549998D01*
G75*
G02*
X147149998Y-77300000I249998J0D01*
G01*
X147675002Y-77300000D01*
G75*
G02*
X147925000Y-77549998I0J-249998D01*
G01*
G37*
%TD*%
%TO.C,R5*%
G36*
G01*
X162300000Y-109699998D02*
X162300000Y-110600002D01*
G75*
G02*
X162050002Y-110850000I-249998J0D01*
G01*
X161524998Y-110850000D01*
G75*
G02*
X161275000Y-110600002I0J249998D01*
G01*
X161275000Y-109699998D01*
G75*
G02*
X161524998Y-109450000I249998J0D01*
G01*
X162050002Y-109450000D01*
G75*
G02*
X162300000Y-109699998I0J-249998D01*
G01*
G37*
G36*
G01*
X164125000Y-109699998D02*
X164125000Y-110600002D01*
G75*
G02*
X163875002Y-110850000I-249998J0D01*
G01*
X163349998Y-110850000D01*
G75*
G02*
X163100000Y-110600002I0J249998D01*
G01*
X163100000Y-109699998D01*
G75*
G02*
X163349998Y-109450000I249998J0D01*
G01*
X163875002Y-109450000D01*
G75*
G02*
X164125000Y-109699998I0J-249998D01*
G01*
G37*
%TD*%
%TO.C,R4*%
G36*
G01*
X139799998Y-62400000D02*
X140700002Y-62400000D01*
G75*
G02*
X140950000Y-62649998I0J-249998D01*
G01*
X140950000Y-63175002D01*
G75*
G02*
X140700002Y-63425000I-249998J0D01*
G01*
X139799998Y-63425000D01*
G75*
G02*
X139550000Y-63175002I0J249998D01*
G01*
X139550000Y-62649998D01*
G75*
G02*
X139799998Y-62400000I249998J0D01*
G01*
G37*
G36*
G01*
X139799998Y-60575000D02*
X140700002Y-60575000D01*
G75*
G02*
X140950000Y-60824998I0J-249998D01*
G01*
X140950000Y-61350002D01*
G75*
G02*
X140700002Y-61600000I-249998J0D01*
G01*
X139799998Y-61600000D01*
G75*
G02*
X139550000Y-61350002I0J249998D01*
G01*
X139550000Y-60824998D01*
G75*
G02*
X139799998Y-60575000I249998J0D01*
G01*
G37*
%TD*%
%TO.C,R3*%
G36*
G01*
X142549998Y-62400000D02*
X143450002Y-62400000D01*
G75*
G02*
X143700000Y-62649998I0J-249998D01*
G01*
X143700000Y-63175002D01*
G75*
G02*
X143450002Y-63425000I-249998J0D01*
G01*
X142549998Y-63425000D01*
G75*
G02*
X142300000Y-63175002I0J249998D01*
G01*
X142300000Y-62649998D01*
G75*
G02*
X142549998Y-62400000I249998J0D01*
G01*
G37*
G36*
G01*
X142549998Y-60575000D02*
X143450002Y-60575000D01*
G75*
G02*
X143700000Y-60824998I0J-249998D01*
G01*
X143700000Y-61350002D01*
G75*
G02*
X143450002Y-61600000I-249998J0D01*
G01*
X142549998Y-61600000D01*
G75*
G02*
X142300000Y-61350002I0J249998D01*
G01*
X142300000Y-60824998D01*
G75*
G02*
X142549998Y-60575000I249998J0D01*
G01*
G37*
%TD*%
%TO.C,R2*%
G36*
G01*
X137700002Y-61600000D02*
X136799998Y-61600000D01*
G75*
G02*
X136550000Y-61350002I0J249998D01*
G01*
X136550000Y-60824998D01*
G75*
G02*
X136799998Y-60575000I249998J0D01*
G01*
X137700002Y-60575000D01*
G75*
G02*
X137950000Y-60824998I0J-249998D01*
G01*
X137950000Y-61350002D01*
G75*
G02*
X137700002Y-61600000I-249998J0D01*
G01*
G37*
G36*
G01*
X137700002Y-63425000D02*
X136799998Y-63425000D01*
G75*
G02*
X136550000Y-63175002I0J249998D01*
G01*
X136550000Y-62649998D01*
G75*
G02*
X136799998Y-62400000I249998J0D01*
G01*
X137700002Y-62400000D01*
G75*
G02*
X137950000Y-62649998I0J-249998D01*
G01*
X137950000Y-63175002D01*
G75*
G02*
X137700002Y-63425000I-249998J0D01*
G01*
G37*
%TD*%
%TO.C,R1*%
G36*
G01*
X134150000Y-65200002D02*
X134150000Y-64299998D01*
G75*
G02*
X134399998Y-64050000I249998J0D01*
G01*
X134925002Y-64050000D01*
G75*
G02*
X135175000Y-64299998I0J-249998D01*
G01*
X135175000Y-65200002D01*
G75*
G02*
X134925002Y-65450000I-249998J0D01*
G01*
X134399998Y-65450000D01*
G75*
G02*
X134150000Y-65200002I0J249998D01*
G01*
G37*
G36*
G01*
X132325000Y-65200002D02*
X132325000Y-64299998D01*
G75*
G02*
X132574998Y-64050000I249998J0D01*
G01*
X133100002Y-64050000D01*
G75*
G02*
X133350000Y-64299998I0J-249998D01*
G01*
X133350000Y-65200002D01*
G75*
G02*
X133100002Y-65450000I-249998J0D01*
G01*
X132574998Y-65450000D01*
G75*
G02*
X132325000Y-65200002I0J249998D01*
G01*
G37*
%TD*%
D19*
%TO.C,J7*%
X185500000Y-78370000D03*
X185500000Y-75830000D03*
X185500000Y-73290000D03*
X185500000Y-70750000D03*
D20*
X185500000Y-68210000D03*
%TD*%
D19*
%TO.C,J6*%
X181250000Y-78410000D03*
X181250000Y-75870000D03*
X181250000Y-73330000D03*
X181250000Y-70790000D03*
D20*
X181250000Y-68250000D03*
%TD*%
D19*
%TO.C,J5*%
X138170000Y-66500000D03*
X140710000Y-66500000D03*
D20*
X143250000Y-66500000D03*
%TD*%
D19*
%TO.C,J4*%
X138170000Y-70750000D03*
X140710000Y-70750000D03*
D20*
X143250000Y-70750000D03*
%TD*%
D19*
%TO.C,J3*%
X156580000Y-104350000D03*
X154040000Y-104350000D03*
D20*
X151500000Y-104350000D03*
%TD*%
D19*
%TO.C,J2*%
X160670000Y-104350000D03*
X163210000Y-104350000D03*
D20*
X165750000Y-104350000D03*
%TD*%
D21*
%TO.C,J1*%
X126000000Y-108500000D03*
D22*
X126000000Y-113500000D03*
%TD*%
D23*
%TO.C,D1*%
X119250000Y-109750000D03*
X117250000Y-110700000D03*
X117250000Y-108800000D03*
%TD*%
%TO.C,C4*%
G36*
G01*
X126849998Y-68900000D02*
X128150002Y-68900000D01*
G75*
G02*
X128400000Y-69149998I0J-249998D01*
G01*
X128400000Y-69975002D01*
G75*
G02*
X128150002Y-70225000I-249998J0D01*
G01*
X126849998Y-70225000D01*
G75*
G02*
X126600000Y-69975002I0J249998D01*
G01*
X126600000Y-69149998D01*
G75*
G02*
X126849998Y-68900000I249998J0D01*
G01*
G37*
G36*
G01*
X126849998Y-65775000D02*
X128150002Y-65775000D01*
G75*
G02*
X128400000Y-66024998I0J-249998D01*
G01*
X128400000Y-66850002D01*
G75*
G02*
X128150002Y-67100000I-249998J0D01*
G01*
X126849998Y-67100000D01*
G75*
G02*
X126600000Y-66850002I0J249998D01*
G01*
X126600000Y-66024998D01*
G75*
G02*
X126849998Y-65775000I249998J0D01*
G01*
G37*
%TD*%
%TO.C,C3*%
G36*
G01*
X138600000Y-103849999D02*
X138600000Y-105150001D01*
G75*
G02*
X138350001Y-105400000I-249999J0D01*
G01*
X137699999Y-105400000D01*
G75*
G02*
X137450000Y-105150001I0J249999D01*
G01*
X137450000Y-103849999D01*
G75*
G02*
X137699999Y-103600000I249999J0D01*
G01*
X138350001Y-103600000D01*
G75*
G02*
X138600000Y-103849999I0J-249999D01*
G01*
G37*
G36*
G01*
X141550000Y-103849999D02*
X141550000Y-105150001D01*
G75*
G02*
X141300001Y-105400000I-249999J0D01*
G01*
X140649999Y-105400000D01*
G75*
G02*
X140400000Y-105150001I0J249999D01*
G01*
X140400000Y-103849999D01*
G75*
G02*
X140649999Y-103600000I249999J0D01*
G01*
X141300001Y-103600000D01*
G75*
G02*
X141550000Y-103849999I0J-249999D01*
G01*
G37*
%TD*%
%TO.C,C2*%
G36*
G01*
X146599999Y-61400000D02*
X147900001Y-61400000D01*
G75*
G02*
X148150000Y-61649999I0J-249999D01*
G01*
X148150000Y-62300001D01*
G75*
G02*
X147900001Y-62550000I-249999J0D01*
G01*
X146599999Y-62550000D01*
G75*
G02*
X146350000Y-62300001I0J249999D01*
G01*
X146350000Y-61649999D01*
G75*
G02*
X146599999Y-61400000I249999J0D01*
G01*
G37*
G36*
G01*
X146599999Y-58450000D02*
X147900001Y-58450000D01*
G75*
G02*
X148150000Y-58699999I0J-249999D01*
G01*
X148150000Y-59350001D01*
G75*
G02*
X147900001Y-59600000I-249999J0D01*
G01*
X146599999Y-59600000D01*
G75*
G02*
X146350000Y-59350001I0J249999D01*
G01*
X146350000Y-58699999D01*
G75*
G02*
X146599999Y-58450000I249999J0D01*
G01*
G37*
%TD*%
M02*
