%TF.GenerationSoftware,KiCad,Pcbnew,(5.1.12)-1*%
%TF.CreationDate,2022-02-03T12:58:41+01:00*%
%TF.ProjectId,colibri_01,636f6c69-6272-4695-9f30-312e6b696361,rev?*%
%TF.SameCoordinates,Original*%
%TF.FileFunction,Soldermask,Bot*%
%TF.FilePolarity,Negative*%
%FSLAX46Y46*%
G04 Gerber Fmt 4.6, Leading zero omitted, Abs format (unit mm)*
G04 Created by KiCad (PCBNEW (5.1.12)-1) date 2022-02-03 12:58:41*
%MOMM*%
%LPD*%
G01*
G04 APERTURE LIST*
%ADD10C,3.200000*%
%ADD11C,0.900000*%
%ADD12C,8.600000*%
%ADD13R,1.300000X1.300000*%
%ADD14C,1.300000*%
%ADD15O,1.700000X1.700000*%
%ADD16R,1.700000X1.700000*%
%ADD17C,3.000000*%
%ADD18R,3.000000X3.000000*%
G04 APERTURE END LIST*
D10*
%TO.C,C1*%
X185600000Y-91000000D03*
X114200000Y-91000000D03*
%TD*%
D11*
%TO.C,M4*%
X124230419Y-88969581D03*
X121950000Y-88025000D03*
X119669581Y-88969581D03*
X118725000Y-91250000D03*
X119669581Y-93530419D03*
X121950000Y-94475000D03*
X124230419Y-93530419D03*
X125175000Y-91250000D03*
D12*
X121950000Y-91250000D03*
%TD*%
D11*
%TO.C,M4*%
X180130419Y-83069581D03*
X177850000Y-82125000D03*
X175569581Y-83069581D03*
X174625000Y-85350000D03*
X175569581Y-87630419D03*
X177850000Y-88575000D03*
X180130419Y-87630419D03*
X181075000Y-85350000D03*
D12*
X177850000Y-85350000D03*
%TD*%
D13*
%TO.C,U2*%
X124000000Y-76250000D03*
D14*
X124000000Y-73710000D03*
X122730000Y-74980000D03*
%TD*%
D15*
%TO.C,J7*%
X185500000Y-78370000D03*
X185500000Y-75830000D03*
X185500000Y-73290000D03*
X185500000Y-70750000D03*
D16*
X185500000Y-68210000D03*
%TD*%
D15*
%TO.C,J6*%
X181250000Y-78410000D03*
X181250000Y-75870000D03*
X181250000Y-73330000D03*
X181250000Y-70790000D03*
D16*
X181250000Y-68250000D03*
%TD*%
D15*
%TO.C,J5*%
X138170000Y-66500000D03*
X140710000Y-66500000D03*
D16*
X143250000Y-66500000D03*
%TD*%
D15*
%TO.C,J4*%
X138170000Y-70750000D03*
X140710000Y-70750000D03*
D16*
X143250000Y-70750000D03*
%TD*%
D15*
%TO.C,J3*%
X156580000Y-104350000D03*
X154040000Y-104350000D03*
D16*
X151500000Y-104350000D03*
%TD*%
D15*
%TO.C,J2*%
X160670000Y-104350000D03*
X163210000Y-104350000D03*
D16*
X165750000Y-104350000D03*
%TD*%
D17*
%TO.C,J1*%
X126000000Y-108500000D03*
D18*
X126000000Y-113500000D03*
%TD*%
M02*
