M48
; DRILL file {KiCad (5.1.12)-1} date 02/03/22 12:58:58
; FORMAT={-:-/ absolute / inch / decimal}
; #@! TF.CreationDate,2022-02-03T12:58:58+01:00
; #@! TF.GenerationSoftware,Kicad,Pcbnew,(5.1.12)-1
; #@! TF.FileFunction,Plated,1,2,PTH
FMAT,2
INCH
T1C0.0157
T2C0.0236
T3C0.0295
T4C0.0394
T5C0.0709
T6C0.1693
%
G90
G05
T1
X4.4488Y-3.9764
X4.4488Y-4.0945
X4.4488Y-4.2323
X4.4488Y-4.3504
X4.4685Y-2.9921
X4.4685Y-3.1102
X4.4685Y-3.2087
X4.7402Y-2.4252
X4.7441Y-3.2283
X4.7441Y-4.3701
X4.7638Y-3.0709
X4.8228Y-2.6378
X4.8228Y-2.7362
X4.8425Y-4.4685
X4.9016Y-3.0709
X4.9213Y-2.5787
X4.9606Y-3.9961
X4.9803Y-3.2283
X5.0Y-2.8937
X5.0984Y-2.815
X5.0984Y-4.4685
X5.1024Y-2.4252
X5.1181Y-3.0709
X5.1181Y-3.9961
X5.1378Y-2.5984
X5.1378Y-2.7362
X5.1969Y-3.2283
X5.2165Y-2.8937
X5.2559Y-4.4685
X5.2756Y-3.9961
X5.2953Y-2.4409
X5.374Y-2.3622
X5.374Y-2.5394
X5.4134Y-3.2283
X5.4134Y-4.4685
X5.4724Y-3.9961
X5.5315Y-2.5394
X5.5315Y-3.0906
X5.561Y-2.9734
X5.5709Y-4.4685
X5.5709Y-4.5669
X5.5709Y-4.7047
X5.5906Y-3.0512
X5.6654Y-3.1909
X5.6693Y-3.0512
X5.6693Y-3.9961
X5.7087Y-3.186
X5.7283Y-2.3622
X5.7283Y-2.4409
X5.748Y-4.3898
X5.8268Y-4.3898
X5.8465Y-3.2087
X5.8465Y-3.9961
X5.8661Y-2.4213
X5.9055Y-4.4882
X5.9055Y-4.5472
X5.9055Y-4.6063
X5.9154Y-3.1004
X5.9941Y-2.5
X6.1122Y-3.0906
X6.122Y-3.2087
X6.122Y-4.1929
X6.1417Y-2.5787
X6.1614Y-4.0157
X6.1696Y-2.5509
X6.2106Y-2.5295
X6.2402Y-4.1142
X6.2402Y-4.5669
X6.2402Y-4.685
X6.3091Y-2.4902
X6.3386Y-4.0157
X6.3583Y-2.5492
X6.3583Y-2.5984
X6.378Y-3.2087
X6.378Y-4.1929
X6.3819Y-3.0925
X6.4469Y-2.628
X6.4567Y-2.5
X6.5748Y-2.5
X6.5945Y-3.8583
X6.6339Y-3.0906
X6.6339Y-3.9764
X6.7126Y-2.5
X6.7717Y-3.9764
X6.811Y-3.0906
X6.8307Y-2.5
X6.8898Y-2.6181
X6.9094Y-3.8583
X6.9488Y-2.5
X6.9488Y-3.0906
X7.4213Y-2.6969
X7.4213Y-2.8543
X7.4213Y-3.0315
T2
X4.6742Y-3.5925
X4.7114Y-3.5027
X4.7114Y-3.6823
X4.8012Y-3.4656
X4.8012Y-3.7195
X4.891Y-3.5027
X4.891Y-3.6823
X4.9281Y-3.5925
X6.875Y-3.3602
X6.9122Y-3.2705
X6.9122Y-3.45
X7.002Y-3.2333
X7.002Y-3.4872
X7.0917Y-3.2705
X7.0917Y-3.45
X7.1289Y-3.3602
T3
X4.8319Y-2.952
X4.8819Y-2.902
X4.8819Y-3.002
T4
X5.4398Y-2.6181
X5.4398Y-2.7854
X5.5398Y-2.6181
X5.5398Y-2.7854
X5.6398Y-2.6181
X5.6398Y-2.7854
X5.9646Y-4.1083
X6.0646Y-4.1083
X6.1646Y-4.1083
X6.3256Y-4.1083
X6.4256Y-4.1083
X6.5256Y-4.1083
X7.1358Y-2.687
X7.1358Y-2.787
X7.1358Y-2.887
X7.1358Y-2.987
X7.1358Y-3.087
X7.3031Y-2.6854
X7.3031Y-2.7854
X7.3031Y-2.8854
X7.3031Y-2.9854
X7.3031Y-3.0854
T5
X4.4961Y-3.5827
X4.9606Y-4.2717
X4.9606Y-4.4685
X7.3071Y-3.5827
T6
X4.8012Y-3.5925
X7.002Y-3.3602
T0
M30
